<svg width="25" height="25" viewBox="0 0 25 25" fill="none" xmlns="http://www.w3.org/2000/svg">
<g clip-path="url(#clip0_871_1542)">
<path d="M14.2583 4.38723L13.706 4.9396L12.6012 6.04435L2.58052 16.0653C2.2579 16.3879 2.01838 16.7887 1.89129 17.2287L0.0484526 23.4954C-0.0737514 23.906 0.0386766 24.3509 0.346631 24.6539C0.654585 24.957 1.08963 25.0743 1.50512 24.9521L7.76686 23.1092C8.20679 22.9822 8.60762 22.7426 8.93024 22.42L18.951 12.3991L20.0557 11.2943L20.608 10.742L18.951 9.08485L15.9154 6.04924L14.2583 4.39212L14.2583 4.38723ZM7.72775 20.3083L7.27315 20.7629C7.22916 20.8069 7.1705 20.8411 7.10696 20.8607L2.90314 22.0974L4.13984 17.8935C4.15939 17.8299 4.19361 17.7713 4.23761 17.7273L4.6922 17.2727L4.6922 19.5262C4.6922 19.9563 5.04415 20.3083 5.47431 20.3083L7.72775 20.3083V20.3083ZM24.0835 2.84254L22.1576 0.916571C20.9356 -0.305493 18.9559 -0.305493 17.7338 0.916571L17.025 1.62537L15.9203 2.73011L15.3679 3.28249L17.025 4.9396L20.0606 7.97521L21.7177 9.63722L22.27 9.08485L23.3747 7.9801L24.0835 7.2713C25.3056 6.04924 25.3056 4.0695 24.0835 2.84743L24.0835 2.84254V2.84254Z" fill="#999999"/>
</g>
<defs>
<clipPath id="clip0_871_1542">
<rect width="25" height="25.0001" fill="white" transform="matrix(-4.37114e-08 -1 -1 4.37114e-08 25.0001 25)"/>
</clipPath>
</defs>
</svg>
