<svg width="18" height="17" viewBox="0 0 18 17" fill="none" xmlns="http://www.w3.org/2000/svg">
<g clip-path="url(#clip0_152_742)">
<path fill-rule="evenodd" clip-rule="evenodd" d="M8.755 0C3.91786 0 0 3.80375 0 8.5C0 12.2613 2.50612 15.4381 5.98623 16.5644C6.42398 16.6388 6.58814 16.3838 6.58814 16.1606C6.58814 15.9588 6.57719 15.2894 6.57719 14.5775C4.3775 14.9706 3.80842 14.0569 3.63332 13.5788C3.53483 13.3344 3.10802 12.58 2.73594 12.3781C2.42951 12.2188 1.99176 11.8256 2.72499 11.815C3.41445 11.8044 3.90692 12.4313 4.07107 12.6863C4.85903 13.9719 6.11756 13.6106 6.62097 13.3875C6.69757 12.835 6.92739 12.4631 7.1791 12.2506C5.23111 12.0381 3.19557 11.305 3.19557 8.05375C3.19557 7.12938 3.53483 6.36438 4.09296 5.76938C4.00541 5.55688 3.69899 4.68563 4.18051 3.51688C4.18051 3.51688 4.91374 3.29375 6.58814 4.38813C7.28854 4.19688 8.03271 4.10125 8.77689 4.10125C9.52106 4.10125 10.2652 4.19688 10.9656 4.38813C12.64 3.28313 13.3733 3.51688 13.3733 3.51688C13.8548 4.68563 13.5484 5.55688 13.4608 5.76938C14.0189 6.36438 14.3582 7.11875 14.3582 8.05375C14.3582 11.3156 12.3117 12.0381 10.3637 12.2506C10.6811 12.5163 10.9547 13.0262 10.9547 13.8231C10.9547 14.96 10.9437 15.8738 10.9437 16.1606C10.9437 16.3838 11.1079 16.6494 11.5457 16.5644C13.2837 15.9947 14.7939 14.9102 15.8638 13.4636C16.9337 12.0169 17.5095 10.281 17.51 8.5C17.51 3.80375 13.5921 0 8.755 0Z" fill="#999999"/>
</g>
<defs>
<clipPath id="clip0_152_742">
<rect width="17.51" height="17" fill="white"/>
</clipPath>
</defs>
</svg>
