<svg width="21" height="21" viewBox="0 0 21 21" fill="none" xmlns="http://www.w3.org/2000/svg">
<path d="M17.3447 8.90283L16.8885 9.35897L15.9762 10.2713L7.70077 18.5464C7.43435 18.8128 7.10333 19.0106 6.74002 19.1156L1.56486 20.6374C1.22577 20.7383 0.858422 20.6455 0.608142 20.3912C0.357861 20.1369 0.260978 19.7776 0.361898 19.4345L1.88377 14.2635C1.98872 13.9002 2.18652 13.5692 2.45295 13.3028L10.7284 5.02763L11.6407 4.11534L12.0968 3.6592L13.4653 5.02763L15.9721 7.5344L17.3406 8.90283H17.3447ZM4.19684 14.2958L3.82142 14.6712C3.78509 14.7075 3.75683 14.756 3.74069 14.8085L2.71938 18.28L6.19102 17.2587C6.2435 17.2426 6.29194 17.2143 6.32827 17.178L6.70369 16.8026H4.84273C4.48749 16.8026 4.19684 16.5119 4.19684 16.1567V14.2958ZM18.6203 0.789132L20.2108 2.37958C21.22 3.38874 21.22 5.02359 20.2108 6.03276L19.6254 6.61807L18.7131 7.53036L18.257 7.9865L16.8885 6.61807L14.3817 4.11131L13.0091 2.74288L13.4653 2.28673L14.3776 1.37445L14.963 0.789132C15.9721 -0.220034 17.607 -0.220034 18.6162 0.789132H18.6203Z" fill="#666666"/>
</svg>
