<svg width="25" height="25" viewBox="0 0 25 25" fill="none" xmlns="http://www.w3.org/2000/svg">
<g clip-path="url(#clip0_152_1631)">
<path d="M10.9375 0C9.21387 0 7.8125 1.40137 7.8125 3.125V14.0625C7.8125 15.7861 9.21387 17.1875 10.9375 17.1875H21.875C23.5986 17.1875 25 15.7861 25 14.0625V3.125C25 1.40137 23.5986 0 21.875 0H10.9375ZM3.125 7.8125C1.40137 7.8125 0 9.21387 0 10.9375V21.875C0 23.5986 1.40137 25 3.125 25H14.0625C15.7861 25 17.1875 23.5986 17.1875 21.875V18.75H14.0625V21.875H3.125V10.9375H6.25V7.8125H3.125Z" fill="white"/>
</g>
<defs>
<clipPath id="clip0_152_1631">
<rect width="25" height="25" fill="white"/>
</clipPath>
</defs>
</svg>
