<svg width="44" height="41" viewBox="0 0 44 41" fill="none" xmlns="http://www.w3.org/2000/svg">
<g clip-path="url(#clip0_6_1219)">
<path d="M22 0.25C34.0812 0.25 43.875 7.88333 43.875 17.3021C43.875 26.7188 34.0812 34.3521 22 34.3521C20.797 34.3527 19.5953 34.2762 18.4021 34.1229L9.21875 40.1292C8.175 40.6813 7.80625 40.6208 8.23542 39.2688L10.0937 31.6063C4.09375 28.5646 0.125 23.2938 0.125 17.3021C0.125 7.88542 9.91875 0.25 22 0.25ZM34.3062 17.0417L37.3688 14.075C37.5455 13.8915 37.644 13.6465 37.6437 13.3918C37.6434 13.137 37.5443 12.8923 37.3671 12.7092C37.1899 12.5261 36.9486 12.4189 36.694 12.4102C36.4394 12.4015 36.1913 12.4919 36.0021 12.6625L31.9854 16.55V13.3375C31.9854 13.0767 31.8818 12.8266 31.6974 12.6422C31.513 12.4578 31.2629 12.3542 31.0021 12.3542C30.7413 12.3542 30.4912 12.4578 30.3068 12.6422C30.1223 12.8266 30.0187 13.0767 30.0187 13.3375V18.6646C29.9819 18.8165 29.9819 18.9751 30.0187 19.1271V22.125C30.0187 22.3858 30.1223 22.6359 30.3068 22.8203C30.4912 23.0047 30.7413 23.1083 31.0021 23.1083C31.2629 23.1083 31.513 23.0047 31.6974 22.8203C31.8818 22.6359 31.9854 22.3858 31.9854 22.125V19.2854L32.875 18.425L35.85 22.6604C35.9243 22.7662 36.0187 22.8562 36.1277 22.9255C36.2368 22.9948 36.3585 23.0419 36.4858 23.0641C36.6131 23.0864 36.7435 23.0833 36.8696 23.0552C36.9958 23.027 37.1151 22.9743 37.2208 22.9C37.3266 22.8257 37.4167 22.7313 37.4859 22.6223C37.5552 22.5132 37.6023 22.3915 37.6245 22.2642C37.6468 22.1369 37.6437 22.0065 37.6156 21.8804C37.5874 21.7542 37.5347 21.6349 37.4604 21.5292L34.3062 17.0396V17.0417ZM28.1437 21.05H25.1021V13.3688C25.0904 13.1161 24.9819 12.8776 24.7989 12.7029C24.616 12.5282 24.3728 12.4307 24.1198 12.4307C23.8668 12.4307 23.6236 12.5282 23.4407 12.7029C23.2577 12.8776 23.1491 13.1161 23.1375 13.3688V22.0333C23.1375 22.575 23.575 23.0167 24.1187 23.0167H28.1437C28.4045 23.0167 28.6547 22.9131 28.8391 22.7287C29.0235 22.5442 29.1271 22.2941 29.1271 22.0333C29.1271 21.7725 29.0235 21.5224 28.8391 21.338C28.6547 21.1536 28.4045 21.05 28.1437 21.05V21.05ZM15.9417 18.775L17.3917 15.2188L18.7208 18.775H15.9417V18.775ZM21.1979 19.7917L21.2021 19.7583C21.2016 19.5106 21.107 19.2723 20.9375 19.0917L18.7583 13.2583C18.667 12.9804 18.493 12.7369 18.2596 12.5604C18.0261 12.3839 17.7444 12.2829 17.4521 12.2708C17.1576 12.2695 16.8697 12.3579 16.6266 12.5243C16.3836 12.6907 16.197 12.9271 16.0917 13.2021L12.6312 21.6917C12.5824 21.8112 12.5576 21.9392 12.5582 22.0684C12.5589 22.1975 12.5849 22.3253 12.6349 22.4443C12.685 22.5634 12.7579 22.6715 12.8497 22.7623C12.9415 22.8532 13.0502 22.9251 13.1698 22.974C13.2893 23.0228 13.4174 23.0476 13.5465 23.047C13.6756 23.0463 13.8034 23.0203 13.9225 22.9703C14.0415 22.9203 14.1496 22.8473 14.2405 22.7555C14.3313 22.6637 14.4032 22.555 14.4521 22.4354L15.1396 20.7417H19.4521L20.075 22.4083C20.1174 22.5329 20.1843 22.6477 20.2718 22.746C20.3593 22.8442 20.4657 22.9239 20.5846 22.9803C20.7035 23.0367 20.8325 23.0686 20.9639 23.0743C21.0954 23.0799 21.2266 23.0591 21.3499 23.0131C21.4732 22.9671 21.586 22.8968 21.6816 22.8064C21.7772 22.716 21.8537 22.6073 21.9065 22.4868C21.9594 22.3663 21.9875 22.2364 21.9893 22.1048C21.991 21.9733 21.9663 21.8427 21.9167 21.7208L21.1979 19.7917V19.7917ZM14.2771 13.3792C14.2771 13.1187 14.1738 12.8689 13.9898 12.6846C13.8058 12.5002 13.5563 12.3964 13.2958 12.3958H6.53542C6.27462 12.3958 6.02451 12.4994 5.84009 12.6838C5.65568 12.8683 5.55208 13.1184 5.55208 13.3792C5.55208 13.64 5.65568 13.8901 5.84009 14.0745C6.02451 14.2589 6.27462 14.3625 6.53542 14.3625H8.95208V22.1458C8.95208 22.4066 9.05568 22.6567 9.24009 22.8412C9.42451 23.0256 9.67462 23.1292 9.93542 23.1292C10.1962 23.1292 10.4463 23.0256 10.6307 22.8412C10.8151 22.6567 10.9188 22.4066 10.9188 22.1458V14.3625H13.2937C13.5545 14.3625 13.8047 14.2589 13.9891 14.0745C14.1735 13.8901 14.2771 13.64 14.2771 13.3792V13.3792Z" fill="#3B1C1D"/>
</g>
<defs>
<clipPath id="clip0_6_1219">
<rect width="44" height="41" fill="white"/>
</clipPath>
</defs>
</svg>
