<svg width="28" height="28" viewBox="0 0 28 28" fill="none" xmlns="http://www.w3.org/2000/svg">
<g clip-path="url(#clip0_871_1538)">
<path d="M11.8643 16.1357C12.4853 16.7265 12.4853 17.6959 11.8643 18.2866C11.2735 18.8774 10.3041 18.8774 9.71337 18.2866C8.29466 16.8658 7.49782 14.94 7.49782 12.9321C7.49782 10.9243 8.29466 8.99847 9.71337 7.57763L15.0754 2.21555C16.4963 0.796844 18.4221 0 20.4299 0C22.4378 0 24.3636 0.796844 25.7844 2.21555C27.2032 3.63639 28 5.56219 28 7.57006C28 9.57792 27.2032 11.5037 25.7844 12.9246L23.5275 15.1815C23.5427 13.9394 23.3458 12.6973 22.9216 11.5159L23.6336 10.7888C24.0582 10.3688 24.3953 9.86867 24.6254 9.31747C24.8554 8.76627 24.9739 8.17492 24.9739 7.57763C24.9739 6.98034 24.8554 6.38899 24.6254 5.83779C24.3953 5.28659 24.0582 4.78649 23.6336 4.36644C23.2135 3.94181 22.7134 3.60471 22.1622 3.37464C21.611 3.14457 21.0197 3.02611 20.4224 3.02611C19.8251 3.02611 19.2337 3.14457 18.6825 3.37464C18.1313 3.60471 17.6312 3.94181 17.2112 4.36644L11.8643 9.71337C11.4396 10.1334 11.1025 10.6335 10.8725 11.1847C10.6424 11.7359 10.5239 12.3273 10.5239 12.9246C10.5239 13.5218 10.6424 14.1132 10.8725 14.6644C11.1025 15.2156 11.4396 15.7157 11.8643 16.1357M16.1357 9.71337C16.7265 9.12263 17.6959 9.12263 18.2866 9.71337C19.7053 11.1342 20.5022 13.06 20.5022 15.0679C20.5022 17.0757 19.7053 19.0015 18.2866 20.4224L12.9246 25.7844C11.5037 27.2032 9.57792 28 7.57006 28C5.56219 28 3.63639 27.2032 2.21555 25.7844C0.796844 24.3636 0 22.4378 0 20.4299C0 18.4221 0.796844 16.4963 2.21555 15.0754L4.47247 12.8185C4.45733 14.0606 4.65424 15.3027 5.07836 16.4993L4.36644 17.2112C3.94181 17.6312 3.60471 18.1313 3.37464 18.6825C3.14457 19.2337 3.02611 19.8251 3.02611 20.4224C3.02611 21.0197 3.14457 21.611 3.37464 22.1622C3.60471 22.7134 3.94181 23.2135 4.36644 23.6336C4.78649 24.0582 5.28659 24.3953 5.83779 24.6254C6.38899 24.8554 6.98034 24.9739 7.57763 24.9739C8.17492 24.9739 8.76627 24.8554 9.31747 24.6254C9.86867 24.3953 10.3688 24.0582 10.7888 23.6336L16.1357 18.2866C16.5604 17.8666 16.8975 17.3665 17.1275 16.8153C17.3576 16.2641 17.4761 15.6727 17.4761 15.0754C17.4761 14.4782 17.3576 13.8868 17.1275 13.3356C16.8975 12.7844 16.5604 12.2843 16.1357 11.8643C15.9886 11.7264 15.8714 11.5598 15.7912 11.3749C15.711 11.1899 15.6697 10.9904 15.6697 10.7888C15.6697 10.5872 15.711 10.3877 15.7912 10.2028C15.8714 10.0178 15.9886 9.85122 16.1357 9.71337V9.71337Z" fill="#F57046"/>
</g>
<defs>
<clipPath id="clip0_871_1538">
<rect width="28" height="28" fill="white"/>
</clipPath>
</defs>
</svg>
