<svg width="32" height="32" viewBox="0 0 32 32" fill="none" xmlns="http://www.w3.org/2000/svg">
<path d="M3.42857 0C1.53571 0 0 1.53571 0 3.42857V10.2857C0 12.1786 1.53571 13.7143 3.42857 13.7143H10.2857C12.1786 13.7143 13.7143 12.1786 13.7143 10.2857V3.42857C13.7143 1.53571 12.1786 0 10.2857 0H3.42857ZM9.14286 4.57143V9.14286H4.57143V4.57143H9.14286ZM3.42857 18.2857C1.53571 18.2857 0 19.8214 0 21.7143V28.5714C0 30.4643 1.53571 32 3.42857 32H10.2857C12.1786 32 13.7143 30.4643 13.7143 28.5714V21.7143C13.7143 19.8214 12.1786 18.2857 10.2857 18.2857H3.42857ZM9.14286 22.8571V27.4286H4.57143V22.8571H9.14286ZM18.2857 3.42857V10.2857C18.2857 12.1786 19.8214 13.7143 21.7143 13.7143H28.5714C30.4643 13.7143 32 12.1786 32 10.2857V3.42857C32 1.53571 30.4643 0 28.5714 0H21.7143C19.8214 0 18.2857 1.53571 18.2857 3.42857ZM22.8571 4.57143H27.4286V9.14286H22.8571V4.57143ZM25.1429 29.7143V32H27.4286V29.7143H25.1429ZM32 29.7143H29.7143V32H32V29.7143ZM29.7143 18.2857V20.5714H25.1429V18.2857H18.2857V32H22.8571V25.1429H25.1429V27.4286H32V18.2857H29.7143Z" fill="white"/>
</svg>
