<svg width="23" height="25" viewBox="0 0 23 25" fill="none" xmlns="http://www.w3.org/2000/svg">
<g clip-path="url(#clip0_88_320)">
<path d="M6.94107 0.864258C7.2183 0.332031 7.78817 0 8.40938 0H14.5906C15.2118 0 15.7817 0.332031 16.0589 0.864258L16.4286 1.5625H21.3571C22.2658 1.5625 23 2.26074 23 3.125C23 3.98926 22.2658 4.6875 21.3571 4.6875H1.64286C0.734152 4.6875 0 3.98926 0 3.125C0 2.26074 0.734152 1.5625 1.64286 1.5625H6.57143L6.94107 0.864258ZM1.64286 6.25H21.3571V21.875C21.3571 23.5986 19.8837 25 18.0714 25H4.92857C3.11629 25 1.64286 23.5986 1.64286 21.875V6.25ZM6.57143 9.375C6.11964 9.375 5.75 9.72656 5.75 10.1562V21.0938C5.75 21.5234 6.11964 21.875 6.57143 21.875C7.02321 21.875 7.39286 21.5234 7.39286 21.0938V10.1562C7.39286 9.72656 7.02321 9.375 6.57143 9.375ZM11.5 9.375C11.0482 9.375 10.6786 9.72656 10.6786 10.1562V21.0938C10.6786 21.5234 11.0482 21.875 11.5 21.875C11.9518 21.875 12.3214 21.5234 12.3214 21.0938V10.1562C12.3214 9.72656 11.9518 9.375 11.5 9.375ZM16.4286 9.375C15.9768 9.375 15.6071 9.72656 15.6071 10.1562V21.0938C15.6071 21.5234 15.9768 21.875 16.4286 21.875C16.8804 21.875 17.25 21.5234 17.25 21.0938V10.1562C17.25 9.72656 16.8804 9.375 16.4286 9.375Z" fill="white"/>
</g>
<defs>
<clipPath id="clip0_88_320">
<rect width="23" height="25" fill="white"/>
</clipPath>
</defs>
</svg>
