<svg width="26" height="26" viewBox="0 0 26 26" fill="none" xmlns="http://www.w3.org/2000/svg">
<path d="M2.78571 0C1.24777 0 0 1.24777 0 2.78571V8.35714C0 9.89509 1.24777 11.1429 2.78571 11.1429H8.35714C9.89509 11.1429 11.1429 9.89509 11.1429 8.35714V2.78571C11.1429 1.24777 9.89509 0 8.35714 0H2.78571ZM7.42857 3.71429V7.42857H3.71429V3.71429H7.42857ZM2.78571 14.8571C1.24777 14.8571 0 16.1049 0 17.6429V23.2143C0 24.7522 1.24777 26 2.78571 26H8.35714C9.89509 26 11.1429 24.7522 11.1429 23.2143V17.6429C11.1429 16.1049 9.89509 14.8571 8.35714 14.8571H2.78571ZM7.42857 18.5714V22.2857H3.71429V18.5714H7.42857ZM14.8571 2.78571V8.35714C14.8571 9.89509 16.1049 11.1429 17.6429 11.1429H23.2143C24.7522 11.1429 26 9.89509 26 8.35714V2.78571C26 1.24777 24.7522 0 23.2143 0H17.6429C16.1049 0 14.8571 1.24777 14.8571 2.78571ZM18.5714 3.71429H22.2857V7.42857H18.5714V3.71429ZM20.4286 24.1429V26H22.2857V24.1429H20.4286ZM26 24.1429H24.1429V26H26V24.1429ZM24.1429 14.8571V16.7143H20.4286V14.8571H14.8571V26H18.5714V20.4286H20.4286V22.2857H26V14.8571H24.1429Z" fill="white"/>
</svg>
