<svg width="28" height="28" viewBox="0 0 28 28" fill="none" xmlns="http://www.w3.org/2000/svg">
<path d="M3.5 14C3.5 15.9297 5.07033 17.5 7 17.5C7.92633 17.5 8.764 17.1325 9.3905 16.5433L16.38 20.538C16.359 20.6897 16.3333 20.8413 16.3333 21C16.3333 22.9297 17.9037 24.5 19.8333 24.5C21.763 24.5 23.3333 22.9297 23.3333 21C23.3333 19.0703 21.763 17.5 19.8333 17.5C18.907 17.5 18.0693 17.8675 17.4428 18.4567L10.4533 14.4632C10.4743 14.3103 10.5 14.1587 10.5 14C10.5 13.8413 10.4743 13.6897 10.4533 13.5368L17.4428 9.54333C18.0693 10.1325 18.907 10.5 19.8333 10.5C21.763 10.5 23.3333 8.92967 23.3333 7C23.3333 5.07033 21.763 3.5 19.8333 3.5C17.9037 3.5 16.3333 5.07033 16.3333 7C16.3333 7.15867 16.359 7.31033 16.38 7.46317L9.3905 11.4567C8.74534 10.8438 7.88986 10.5014 7 10.5C5.07033 10.5 3.5 12.0703 3.5 14Z" fill="white"/>
</svg>
