<svg width="40" height="40" viewBox="0 0 40 40" fill="none" xmlns="http://www.w3.org/2000/svg">
<mask id="mask0_703_1579" style="mask-type:alpha" maskUnits="userSpaceOnUse" x="3" y="6" width="34" height="30">
<path d="M12.1667 6.66675C7.10417 6.66675 3 10.7709 3 15.8334C3 25.0001 13.8333 33.3334 19.6667 35.2718C25.5 33.3334 36.3333 25.0001 36.3333 15.8334C36.3333 10.7709 32.2292 6.66675 27.1667 6.66675C24.0667 6.66675 21.325 8.20592 19.6667 10.5618C18.8214 9.35775 17.6985 8.37516 16.3929 7.69716C15.0874 7.01915 13.6377 6.66571 12.1667 6.66675Z" fill="white"/>
</mask>
<g mask="url(#mask0_703_1579)">
<path d="M-0.333374 0H39.6666V40H-0.333374V0Z" fill="white" fill-opacity="0.5"/>
</g>
<path d="M12.1667 6.66675C7.10417 6.66675 3 10.7709 3 15.8334C3 25.0001 13.8333 33.3334 19.6667 35.2718C25.5 33.3334 36.3333 25.0001 36.3333 15.8334C36.3333 10.7709 32.2292 6.66675 27.1667 6.66675C24.0667 6.66675 21.325 8.20592 19.6667 10.5618C18.8214 9.35775 17.6985 8.37516 16.3929 7.69716C15.0874 7.01915 13.6377 6.66571 12.1667 6.66675Z" stroke="#111111" stroke-width="2" stroke-linecap="round" stroke-linejoin="round"/>
</svg>
