<svg width="25" height="25" viewBox="0 0 25 25" fill="none" xmlns="http://www.w3.org/2000/svg">
<g clip-path="url(#clip0_88_328)">
<path d="M14.2583 4.38711L13.7059 4.93948L12.6012 6.04423L2.58046 16.0652C2.25784 16.3878 2.01832 16.7886 1.89123 17.2286L0.0483913 23.4953C-0.0738125 23.9059 0.0386162 24.3507 0.346569 24.6538C0.654524 24.9569 1.08957 25.0742 1.50506 24.952L7.7668 23.1091C8.20673 22.982 8.60756 22.7425 8.93018 22.4199L18.9509 12.399L20.0556 11.2942L20.608 10.7418L18.9509 9.08472L15.9154 6.04912L14.2583 4.392L14.2583 4.38711ZM7.72769 20.3082L7.27309 20.7628C7.2291 20.8068 7.17044 20.841 7.10689 20.8605L2.90308 22.0973L4.13978 17.8934C4.15933 17.8298 4.19355 17.7712 4.23754 17.7272L4.69214 17.2726L4.69214 19.526C4.69214 19.9562 5.04409 20.3082 5.47425 20.3082L7.72769 20.3082ZM24.0835 2.84242L22.1575 0.916449C20.9355 -0.305614 18.9558 -0.305614 17.7338 0.916449L17.025 1.62525L15.9202 2.72999L15.3679 3.28236L17.025 4.93948L20.0605 7.97509L21.7176 9.6371L22.27 9.08472L23.3747 7.97998L24.0835 7.27118C25.3055 6.04912 25.3055 4.06937 24.0835 2.84731L24.0835 2.84242Z" fill="white"/>
</g>
<defs>
<clipPath id="clip0_88_328">
<rect width="25" height="25" fill="white" transform="matrix(-4.37114e-08 -1 -1 4.37114e-08 25 25)"/>
</clipPath>
</defs>
</svg>
