<svg width="19" height="19" viewBox="0 0 19 19" fill="none" xmlns="http://www.w3.org/2000/svg">
<g clip-path="url(#clip0_131_3546)">
<path fill-rule="evenodd" clip-rule="evenodd" d="M9.49996 0.791626C4.69058 0.791626 0.791626 4.69058 0.791626 9.49996C0.791626 14.3093 4.69058 18.2083 9.49996 18.2083C14.3093 18.2083 18.2083 14.3093 18.2083 9.49996C18.2083 4.69058 14.3093 0.791626 9.49996 0.791626ZM9.10413 4.74996C8.89416 4.74996 8.6928 4.83337 8.54433 4.98183C8.39587 5.1303 8.31246 5.33166 8.31246 5.54163C8.31246 5.75159 8.39587 5.95295 8.54433 6.10142C8.6928 6.24988 8.89416 6.33329 9.10413 6.33329H9.49996C9.70992 6.33329 9.91129 6.24988 10.0598 6.10142C10.2082 5.95295 10.2916 5.75159 10.2916 5.54163C10.2916 5.33166 10.2082 5.1303 10.0598 4.98183C9.91129 4.83337 9.70992 4.74996 9.49996 4.74996H9.10413ZM7.91663 7.91663C7.70666 7.91663 7.5053 8.00003 7.35683 8.1485C7.20837 8.29697 7.12496 8.49833 7.12496 8.70829C7.12496 8.91825 7.20837 9.11962 7.35683 9.26808C7.5053 9.41655 7.70666 9.49996 7.91663 9.49996H8.70829V11.875H7.91663C7.70666 11.875 7.5053 11.9584 7.35683 12.1068C7.20837 12.2553 7.12496 12.4567 7.12496 12.6666C7.12496 12.8766 7.20837 13.078 7.35683 13.2264C7.5053 13.3749 7.70666 13.4583 7.91663 13.4583H11.0833C11.2933 13.4583 11.4946 13.3749 11.6431 13.2264C11.7916 13.078 11.875 12.8766 11.875 12.6666C11.875 12.4567 11.7916 12.2553 11.6431 12.1068C11.4946 11.9584 11.2933 11.875 11.0833 11.875H10.2916V8.70829C10.2916 8.49833 10.2082 8.29697 10.0598 8.1485C9.91129 8.00003 9.70992 7.91663 9.49996 7.91663H7.91663Z" fill="#97D118"/>
</g>
<defs>
<clipPath id="clip0_131_3546">
<rect width="19" height="19" fill="white"/>
</clipPath>
</defs>
</svg>
