<svg width="25" height="25" viewBox="0 0 25 25" fill="none" xmlns="http://www.w3.org/2000/svg">
<path d="M2.67857 0C1.19978 0 0 1.19978 0 2.67857V8.03571C0 9.51451 1.19978 10.7143 2.67857 10.7143H8.03571C9.51451 10.7143 10.7143 9.51451 10.7143 8.03571V2.67857C10.7143 1.19978 9.51451 0 8.03571 0H2.67857ZM7.14286 3.57143V7.14286H3.57143V3.57143H7.14286ZM2.67857 14.2857C1.19978 14.2857 0 15.4855 0 16.9643V22.3214C0 23.8002 1.19978 25 2.67857 25H8.03571C9.51451 25 10.7143 23.8002 10.7143 22.3214V16.9643C10.7143 15.4855 9.51451 14.2857 8.03571 14.2857H2.67857ZM7.14286 17.8571V21.4286H3.57143V17.8571H7.14286ZM14.2857 2.67857V8.03571C14.2857 9.51451 15.4855 10.7143 16.9643 10.7143H22.3214C23.8002 10.7143 25 9.51451 25 8.03571V2.67857C25 1.19978 23.8002 0 22.3214 0H16.9643C15.4855 0 14.2857 1.19978 14.2857 2.67857ZM17.8571 3.57143H21.4286V7.14286H17.8571V3.57143ZM19.6429 23.2143V25H21.4286V23.2143H19.6429ZM25 23.2143H23.2143V25H25V23.2143ZM23.2143 14.2857V16.0714H19.6429V14.2857H14.2857V25H17.8571V19.6429H19.6429V21.4286H25V14.2857H23.2143Z" fill="#F57046"/>
</svg>
