<svg width="40" height="40" viewBox="0 0 40 40" fill="none" xmlns="http://www.w3.org/2000/svg">
<mask id="mask0_703_1581" style="mask-type:alpha" maskUnits="userSpaceOnUse" x="4" y="6" width="34" height="30">
<path d="M13.1667 6.66675C8.10417 6.66675 4 10.7709 4 15.8334C4 25.0001 14.8333 33.3334 20.6667 35.2718C26.5 33.3334 37.3333 25.0001 37.3333 15.8334C37.3333 10.7709 33.2292 6.66675 28.1667 6.66675C25.0667 6.66675 22.325 8.20592 20.6667 10.5618C19.8214 9.35775 18.6985 8.37516 17.3929 7.69716C16.0874 7.01915 14.6377 6.66571 13.1667 6.66675Z" fill="white"/>
</mask>
<g mask="url(#mask0_703_1581)">
<path d="M0.666687 0H40.6667V40H0.666687V0Z" fill="#EC6D4A"/>
</g>
<path d="M13.1667 6.66675C8.10417 6.66675 4 10.7709 4 15.8334C4 25.0001 14.8333 33.3334 20.6667 35.2718C26.5 33.3334 37.3333 25.0001 37.3333 15.8334C37.3333 10.7709 33.2292 6.66675 28.1667 6.66675C25.0667 6.66675 22.325 8.20592 20.6667 10.5618C19.8214 9.35775 18.6985 8.37516 17.3929 7.69716C16.0874 7.01915 14.6377 6.66571 13.1667 6.66675Z" stroke="#111111" stroke-width="2" stroke-linecap="round" stroke-linejoin="round"/>
</svg>
