<svg width="34" height="34" viewBox="0 0 34 34" fill="none" xmlns="http://www.w3.org/2000/svg">
<g clip-path="url(#clip0_113_748)">
<path d="M14.875 0C12.5309 0 10.625 1.90586 10.625 4.25V19.125C10.625 21.4691 12.5309 23.375 14.875 23.375H29.75C32.0941 23.375 34 21.4691 34 19.125V4.25C34 1.90586 32.0941 0 29.75 0H14.875ZM4.25 10.625C1.90586 10.625 0 12.5309 0 14.875V29.75C0 32.0941 1.90586 34 4.25 34H19.125C21.4691 34 23.375 32.0941 23.375 29.75V25.5H19.125V29.75H4.25V14.875H8.5V10.625H4.25Z" fill="white"/>
</g>
<defs>
<clipPath id="clip0_113_748">
<rect width="34" height="34" fill="white"/>
</clipPath>
</defs>
</svg>
