<svg fill="none" height="44" viewBox="0 0 144 44" width="144" xmlns="http://www.w3.org/2000/svg" xmlns:xlink="http://www.w3.org/1999/xlink"><linearGradient id="a" gradientUnits="userSpaceOnUse" x1="34.498" x2=".988033" y1="9.12864" y2="44.2052"><stop offset=".07" stop-color="#fecc05"/><stop offset=".49" stop-color="#fedc15"/><stop offset=".97" stop-color="#fff52d"/></linearGradient><clipPath id="b"><path d="m0 0h133v44h-133z"/></clipPath><g clip-path="url(#b)"><path d="m47.879 25.5626c.5288-2.2812.831-4.7314.9018-7.3411.0142-.338.1133-.5962.2975-.7792.1841-.1831.4438-.2723.7837-.2723h.2314c.3399 0 .5996.0892.7837.2723.1841.183.2691.4412.2549.7792-.0424 1.333-.1605 2.7693-.3588 4.2995s-.4721 3.0181-.8262 4.4685c.2266.0282.4296.1737.6138.4413l1.9074 2.5722.1039.1455c.0849.0986.1463.2253.1888.3802.085.1971.1275.399.1275.6102 0 .3098-.0897.5961-.2739.8637-.1841.2675-.4249.4553-.7223.5679-.2125.0845-.4155.1267-.6138.1267-.3258 0-.6232-.0891-.8923-.2722s-.4674-.4271-.5949-.7369c-.085-.2253-.118-.4506-.1039-.6759l-.2549-2.2108c-.34 1.0936-.7413 2.1357-1.2087 3.1167-.2125.3943-.4863.5914-.8262.5914-.1983 0-.4013-.0657-.6138-.1878l-.4863-.2957c-.4249-.2534-.6374-.5069-.6374-.7604 0-.0985.0331-.2018.1039-.3145.8782-1.3048 1.5769-3.1026 2.1104-5.3838zm9.2727-8.1203c.1842-.1831.4439-.2723.7838-.2723h.4249c.3399 0 .5996.0892.7837.2723.1842.183.2739.4412.2739.7792v13.3586c0 .338-.0897.5961-.2739.7792-.1841.1831-.4438.2722-.7837.2722h-.4249c-.3399 0-.5996-.0891-.7838-.2722-.1841-.1831-.2738-.4412-.2738-.7792v-5.5199h-.3588c-.1275 0-.2172-.0047-.2739-.0235v5.5434c0 .338-.0897.5961-.2738.7792s-.4438.2722-.7837.2722h-.4249c-.34 0-.5997-.0891-.7838-.2722s-.2738-.4412-.2738-.7792v-13.3586c0-.338.0897-.5962.2738-.7792.1841-.1831.4438-.2723.7838-.2723h.4249c.3399 0 .5996.0892.7837.2723.1841.183.2738.4412.2738.7792v5.3322c.0567-.0141.1464-.0235.2739-.0235h.3588v-5.3087c0-.338.0897-.5962.2738-.7792z" fill="#000111"/><path d="m62.2177 20.0333c.1842-.1831.4438-.2723.7838-.2723h1.3125v-1.1593c0-.338.0897-.5962.2738-.7792.1842-.1831.4439-.2723.7838-.2723h.1463c.34 0 .5997.0892.7838.2723.1841.183.2738.4412.2738.7792v1.1593h1.3126c.3399 0 .5996.0892.7837.2723.1841.183.2738.4412.2738.7792v.2957c0 .3379-.0944.5961-.2738.7791-.1841.1831-.4438.2723-.7837.2723h-4.8961c-.3399 0-.5996-.0892-.7837-.2723-.1841-.183-.2739-.4412-.2739-.7791v-.2957c0-.338.0898-.5962.2739-.7792zm.6657 4.1634c.5997-.7932 1.4637-1.1922 2.5968-1.1922 2.2898 0 3.4324 1.5959 3.4324 4.783s-1.1426 4.8675-3.4324 4.8675c-1.1568 0-2.0302-.4037-2.6156-1.211-.5855-.8073-.8782-2.0277-.8782-3.6565s.3022-2.7975.9018-3.5908zm1.8461 5.52c.1322.413.3871.6195.7507.6195.3399 0 .5713-.2065.6987-.6195.1275-.4131.1889-1.0562.1889-1.9292 0-.8731-.0614-1.4457-.1889-1.8541-.1274-.4083-.3588-.6102-.6987-.6102-.3683 0-.6185.2019-.7507.6102-.1322.4084-.203 1.028-.203 1.8541 0 .873.0661 1.5114.203 1.9292zm8.4228-12.2744c.1842-.1831.4439-.2723.7838-.2723h.4249c.3399 0 .5996.0892.7837.2723.1842.183.2739.4412.2739.7792v13.3586c0 .338-.0944.5961-.2739.7792-.1841.1831-.4438.2722-.7837.2722h-.4249c-.3399 0-.5996-.0891-.7838-.2722-.1841-.1831-.2738-.4412-.2738-.7792v-5.5199h-.3588c-.1275 0-.2172-.0047-.2739-.0235v5.5434c0 .338-.0897.5961-.2738.7792s-.4438.2722-.7837.2722h-.425c-.3399 0-.5996-.0891-.7837-.2722s-.2738-.4412-.2738-.7792v-13.3586c0-.338.0897-.5962.2738-.7792.1841-.1831.4438-.2723.7837-.2723h.425c.3399 0 .5996.0892.7837.2723.1841.183.2738.4412.2738.7792v5.3322c.0567-.0141.1464-.0235.2739-.0235h.3588v-5.3087c0-.338.0897-.5962.2738-.7792z" fill="#000111"/><path d="m85.5836 33.3262c0 .4084-.0755.6994-.2219.8731-.1463.1736-.4343.2628-.8593.2628-.3399 0-.609-.0751-.8073-.23s-.2975-.4553-.2975-.9059v-6.9093c-.1133.1408-.2313.2769-.3588.413-.1274.1315-.2596.2629-.4013.3896-.7648.7323-1.3645.7323-1.8035 0-.1983-.2957-.2786-.5632-.2455-.812.033-.2441.2502-.5492.6468-.9153.8498-.7604 1.5344-1.5208 2.0538-2.2859.524-.7651.982-1.549 1.3786-2.3516.1841-.338.0991-.507-.255-.507h-2.4598c-.4107 0-.694-.0938-.8593-.2863-.1605-.1877-.2455-.4881-.2455-.8965 0-.7745.3683-1.1594 1.1001-1.1594h2.0538c-.0992-.0845-.1889-.1971-.2739-.3379-.1983-.3662-.3966-.6947-.5948-.9904-.1983-.2957-.4014-.5961-.6138-.9059-.1983-.2535-.2739-.4976-.2219-.7276.0472-.23.1794-.4318.3918-.6008.255-.1971.5336-.2769.8357-.2441.3022.0329.5524.1878.7507.4553.0992.1408.1889.2723.2739.3896.0849.1174.1746.2535.2738.399.0991.1455.2125.3192.3399.5163.1275.1972.2739.4271.4438.6947.1558.2394.2172.4835.1889.7369-.0283.2535-.1275.4553-.2975.6102h.1889c.4249 0 .7648.0704 1.0292.2113.2597.1408.4533.3285.5713.5585.1181.23.1653.507.1369.8308-.0283.3239-.118.6619-.2738 1.0092-.2408.5069-.4816.9857-.7224 1.441-.2407.4553-.4957.9012-.7648 1.3378.3541.3661.6799.7134.9773 1.042.2974.3285.5713.6336.8262.9153.3541.3802.5335.7087.5383.9904.0047.2816-.1464.582-.458.9059-.2833.2957-.5807.413-.8923.3473s-.6091-.2863-.8924-.6618c-.0566-.0422-.0991-.0892-.1274-.1361-.0284-.047-.0567-.1033-.085-.1596v6.6793zm14.8584-17.217c0 .3943-.081.6759-.246.8543-.16.1737-.4625.2628-.9016.2628h-9.6457c-.4391 0-.7365-.0891-.9018-.2628-.1605-.1737-.2455-.46-.2455-.8543s.0803-.6524.2455-.8214c.1605-.169.4627-.2535.9018-.2535h9.6457c.4391 0 .7366.0845.9016.2535.161.169.246.4412.246.8214zm-.128 15.7619c0 .7886-.132 1.3471-.4011 1.6851-.2691.3379-.7838.5069-1.5486.5069h-7.7808c-.7507 0-1.27-.1643-1.558-.4928-.288-.3286-.4344-.8965-.4344-1.6945v-5.3744c0-.7745.1464-1.3284.4344-1.6757.288-.3427.8073-.5164 1.558-.5164h7.7808c.7648 0 1.2795.1737 1.5486.5164.2691.3426.4011.9012.4011 1.6757v5.3744zm-.8497-10.5564c0 .8026-.1652 1.333-.4957 1.6006-.3305.2675-.8593.3989-1.5769.3989h-5.8922c-.7224 0-1.2418-.1314-1.5675-.3989-.3258-.2676-.4863-.8027-.4863-1.6006v-1.2439c0-.8026.1605-1.3283.4863-1.5818.3257-.2535.8498-.3802 1.5675-.3802h5.8922c.3541 0 .661.0235.9206.0751.2597.0516.4769.1408.6469.2722.1699.1315.2974.3286.3824.5774.085.2534.1275.5773.1275.9716v1.3049zm-6.0621 5.0975h-2.2049c-.1133 0-.1983.0141-.255.0422-.0566.0282-.0849.1174-.0849.2723v1.4316h2.5448v-1.7508zm0 3.8161h-2.5448v1.4128c0 .1408.0188.23.0519.2723.033.0422.1322.061.288.061h2.2049v-1.7508zm3.7534-9.9463c0-.1408-.033-.2253-.0944-.2534-.0614-.0282-.1605-.0423-.288-.0423h-4.7497c-.1841 0-.2738.0986-.2738.2957v.6759c0 .169.0897.2535.2738.2535h4.8299c.1983 0 .2975-.0704.2975-.2112v-.7182zm.9962 6.4494c0-.1549-.0236-.2441-.0755-.2723-.052-.0281-.1181-.0422-.203-.0422h-2.3324v1.7508h2.6062v-1.4316zm0 3.4969h-2.6062v1.7508h2.3513c.1699 0 .2549-.0986.2549-.2957z" fill="#d42e1c"/><path d="m106.169 17.4188c.184-.169.443-.2535.783-.2535h4.896c.34 0 .6.0845.784.2535s.274.4131.274.7369v5.9847c0 .3379-.094.5961-.274.7792-.184.183-.444.2722-.784.2722h-.085c-.311 0-.566-.0845-.764-.2535h-3.202c-.184.169-.439.2535-.764.2535h-.085c-.34 0-.6-.0892-.784-.2722-.184-.1831-.274-.4413-.274-.7792v-5.9847c0-.3238.09-.5679.274-.7369zm2.861 9.6693c.892-.5633 2.096-.8449 3.626-.8449 1.529 0 2.743.2723 3.654.8121.911.5397 1.369 1.3518 1.369 2.4361 0 1.0842-.453 1.854-1.355 2.4032-.906.5492-2.124.8214-3.668.8214s-2.734-.2769-3.626-.8308c-.893-.5539-1.336-1.3518-1.336-2.3892 0-1.0373.443-1.8399 1.336-2.4032zm-.935-7.6885v3.3937h2.606v-3.3937zm2.894 10.8005c.359.1314.916.2019 1.662.2019s1.331-.0658 1.704-.2019c.373-.1314.562-.3708.562-.7041 0-.3661-.184-.6102-.552-.7369s-.94-.1877-1.719-.1877-1.303.0657-1.662.2018c-.358.1314-.538.3755-.538.7275 0 .3521.18.5727.538.7041zm4.396-12.7578c.184-.1831.443-.2723.783-.2723h.425c.34 0 .6.0892.784.2723.184.183.274.4412.274.7792v2.8022c0-.338.09-.5961.264-.7792.175-.1831.435-.2722.775-.2722s.576.0938.75.2722c.175.1831.265.4412.265.7792v.4224c0 .338-.09.5961-.265.7792-.174.1831-.429.2722-.75.2722s-.581-.0891-.765-.2722-.274-.4412-.274-.7792v2.9102c0 .338-.095.5961-.274.7792-.179.183-.444.2722-.784.2722h-.425c-.34 0-.599-.0892-.783-.2722-.184-.1831-.274-.4412-.274-.7792v-6.1301c0-.338.09-.5962.274-.7792z" fill="#000111"/><path d="m121.47 17.4423c.185-.1831.444-.2723.784-.2723h9.452c.354 0 .614.0939.784.2864.17.1924.241.46.213.812l-.657 7.2473c-.056.6759-.425 1.0092-1.1 1.0092h-.425c-.354 0-.613-.0939-.783-.2864-.17-.1877-.241-.46-.213-.812l.529-5.7312h-7.8c-.34 0-.599-.0892-.784-.2722-.184-.1831-.273-.4412-.273-.7792v-.4224c0-.338.089-.5962.273-.7792zm.189 15.086c-.184-.1831-.273-.4413-.273-.7792v-.4225c0-.3379.089-.5961.273-.7791.184-.1831.444-.2723.784-.2723h1.823v-5.2477c0-.3379.089-.5961.273-.7792.184-.183.444-.2722.784-.2722h.425c.34 0 .6.0892.784.2722.184.1831.274.4413.274.7792v5.2477h5.127c.34 0 .6.0939.784.2723.184.183.274.4412.274.7791v.4225c0 .3379-.09.5961-.274.7792-.184.183-.444.2722-.784.2722h-9.495c-.34 0-.599-.0892-.783-.2722z" fill="#000111"/><path d="m31.8832 1.67569c-.0331.01408-.0614.02816-.0945.03755h-.0141c-.3305.11265-.6563.24877-.9679.42714-.3069.18306-.5996.40367-.8735.65244-.5429.50694-1.0103 1.13122-1.3975 1.81652-.3871.6853-.694 1.43631-.9442 2.2061-.2455.76979-.4391 1.57713-.5477 2.37038v.01409c-.0095.06102-.0378.11734-.0756.15959-.0613.06571-.1605.10326-.2549.08918-.1511-.01878-.255-.1502-.255-.29571.0189-.86836.1181-1.70856.2786-2.55345.17-.84019.3966-1.68039.7413-2.49242.3352-.81673.7884-1.6053 1.388-2.31876.3022-.35204.6468-.6806 1.0293-.971622.3824-.286324.8073-.535097 1.2511-.736932.4391-.201835.9632-.0093877 1.1709.427139.203.450608.0095.971625-.4343 1.173455z" fill="#c18017"/><path d="m31.8832 1.67572c-.0331.01408-.0614.02816-.0945.03755h-.0141c-.3305.11265-.6563.24877-.9679.42714-.3069.18306-.5996.40367-.8735.65244-.5429.50693-1.0103 1.13121-1.3975 1.81651-.3871.6853-.694 1.43632-.9442 2.20611-.2455.76978-.4391 1.57712-.5477 2.37038v.01408c-.0095.06102-.0378.11735-.0756.15959.4061-6.43994 3.9046-8.34094 5.3493-8.857262.203.450608.0095.971622-.4343 1.173462z" fill="#c18017" opacity=".33"/><path d="m5.66559 42.8031c-2.66755-.8825-4.23504-1.901-5.018779-3.0651-2.979161-4.3981 5.198189-10.8193 6.784559-19.2588 2.16237-11.53277 9.91003-15.90743 17.73803-14.61662.6563.10796 1.3078.25346 1.9594.44122 21.1232 6.0269 4.2114 44.9622-21.45849 36.4993z" fill="url(#a)"/><path d="m43.1011 9.90399c-3.7346.81201-10.7269 1.16411-13.8194-6.3977 9.4096-3.234049 12.8043 3.64242 13.6116 5.7875.1417.3802.2078.6102.2078.6102z" fill="#6a9e18"/><path d="m43.1011 9.90398c-3.7346.81202-10.7269 1.16412-13.8194-6.39769 0 0 6.7374 6.72161 13.6116 5.78749.1417.3802.2078.6102.2078.6102z" fill="#6a9e18" opacity=".19"/><g fill="#fff" opacity=".4"><path d="m15.5757 11.5234c.3493-.6759 1.3928-1.56307 2.5684-2.19673 1.1756-.63367 2.4787-.99979 3.5221-1.1453 1.0434-.14082 1.8271-.05163 2.2615.22061.4344.27694.5194.73693.2172 1.11713-.3022.37551-.9962.66649-1.7705.89649s-1.6242.4037-2.4882.8168c-.864.413-1.7374 1.0655-2.4031 1.4222s-1.1237.4131-1.5203.2112c-.3966-.2065-.7365-.6712-.3871-1.3471z"/><path d="m13.2292 14.213c-.1747-.399-.1511-.9107.1086-1.197.2596-.2863.7459-.352 1.1331-.0939.3871.2582.6657.8402.5996 1.2721-.0708.4318-.4863.7087-.8876.7041-.3966 0-.7743-.2864-.949-.6853z"/></g><path d="m16.4916 33.7581c.0142.3661-.0425.6336-.17.7979-.1274.1643-.3824.2535-.7648.2676-.3069.0093-.5524-.047-.7318-.1831-.1842-.1314-.2833-.4037-.2975-.8073l-.2408-6.2288c-.0991.1315-.1983.2582-.3116.3849-.1086.1268-.2266.2488-.3494.3662-.6609.6853-1.2039.704-1.6241.061-.1888-.2582-.2738-.4976-.2502-.7229.0236-.2206.2077-.5069.5524-.8496.7365-.7134 1.3267-1.4222 1.7752-2.131.4438-.7087.831-1.4316 1.1614-2.1638.1558-.3098.0709-.46-.2455-.4459l-2.2143.0845c-.3682.014-.6326-.0611-.7837-.2253-.1511-.1643-.2361-.4319-.2502-.798-.0284-.6947.2927-1.0561.9537-1.0843l1.8507-.0704c-.0944-.0704-.1794-.169-.2596-.2957-.1936-.3239-.3825-.6149-.5713-.873-.1889-.2582-.3825-.5258-.5855-.7933-.1888-.2206-.2644-.4365-.2266-.6478.0378-.2112.1464-.3942.3305-.5538.2219-.1878.4721-.2676.746-.2488.2738.0235.5052.1502.694.3802.0944.122.1794.2394.2644.3427.0803.1032.17.2206.2644.352s.203.2816.3258.4553c.1227.1737.2644.3755.4249.6102.1463.2112.2124.4271.1983.6571-.0189.23-.0992.4178-.2455.5633h.1699c.3825-.0235.6941.0281.9349.1455.2408.1173.4202.2769.5335.4835.118.2065.1652.4553.1511.7463-.0142.291-.085.6008-.2125.92-.1983.4647-.3966.9059-.5996 1.3236-.1983.4178-.4155.8308-.6421 1.2345.3305.3192.6374.6196.9159.9059.2786.2863.5383.5539.779.798.3305.3285.5052.6196.5194.873.0142.2535-.1086.5304-.3777.8308-.2455.277-.5099.3896-.7885.3427-.2785-.047-.5571-.2347-.8262-.568-.0519-.0375-.0944-.0751-.118-.1173-.0284-.0423-.0567-.0892-.0803-.1408l.2313 6.0222zm12.7901-16.0295c.0142.3567-.0519.6149-.1889.7792-.1416.1643-.406.2535-.8026.2675l-8.692.3333c-.3966.0141-.6704-.0516-.8215-.2065-.1511-.1502-.236-.4084-.2502-.7604-.0142-.3521.0519-.5915.1888-.751.1417-.1596.4061-.2441.8027-.2582l8.6919-.3333c.3966-.014.6658.0517.8216.1972.151.1455.236.3896.2502.7322zm.4344 14.2083c.0283.7087-.0756 1.2203-.3022 1.5348-.2314.3145-.6893.4835-1.3786.507l-7.0112.2675c-.6752.0282-1.1473-.1032-1.4211-.3943-.2739-.2863-.425-.7932-.4486-1.5161l-.1888-4.844c-.0284-.6947.085-1.2063.3352-1.5255s.7129-.4929 1.3881-.521l7.0111-.2676c.6894-.0281 1.1568.1127 1.4117.4131.255.3004.3966.7979.4202 1.4973l.1889 4.8441zm-1.1332-9.4863c.0284.7229-.1038 1.211-.3918 1.4598-.288.2535-.7602.3896-1.407.4131l-5.3115.2018c-.6515.0235-1.1237-.0751-1.4258-.3051-.3022-.23-.4674-.7041-.4958-1.4269l-.0425-1.1219c-.0283-.7228.0992-1.2016.3825-1.441.2832-.2394.7507-.3708 1.4022-.3943l5.3115-.2018c.3163-.0141.5949 0 .8357.0329.236.0375.4343.1079.5901.2253.1558.1126.2786.2863.3636.5069.085.2253.1369.5163.1463.8684l.0473 1.1781zm-5.2831 4.8065-1.9877.0751c-.1039 0-.1794.0188-.2266.0469-.052.0282-.0709.1127-.0661.2488l.0519 1.2908 2.2946-.0892-.0614-1.5771zm.1322 3.4359-2.2946.0892.0472 1.272c.0047.1267.0236.2065.0567.2441.033.0375.118.0516.2596.0469l1.9877-.0751-.0614-1.5771zm3.0358-9.092c-.0047-.1267-.0378-.2018-.0944-.2253-.0567-.0234-.1464-.0328-.2597-.0281l-4.2776.1642c-.1652.0047-.2455.0986-.236.277l.0236.6102c.0047.1502.0897.2253.2549.2159l4.3531-.169c.1794-.0047.2644-.0751.2597-.2018l-.0236-.6478zm1.1237 5.7781c-.0048-.1408-.0331-.2206-.0756-.244-.0472-.0235-.1086-.0329-.1841-.0329l-2.101.0798.0614 1.5771 2.3512-.0892zm.1227 3.1543-2.3512.0892.0614 1.5771 2.1198-.0798c.1511-.0047.2267-.0986.2172-.2769l-.0519-1.3096z" fill="#f6911b"/></g></svg>