<svg width="158" height="68" viewBox="0 0 158 68" fill="none" xmlns="http://www.w3.org/2000/svg">
<path d="M19.6397 26.1526C19.8665 26.1145 20.0499 26.1496 20.1898 26.2579C20.3379 26.3546 20.431 26.5164 20.4692 26.7432L20.5165 27.0243C20.553 27.2412 20.5171 27.4197 20.4088 27.5596C20.312 27.7077 20.1502 27.8008 19.9234 27.839L14.8645 28.69C14.6672 28.7232 14.5012 28.7004 14.3662 28.6217C14.233 28.5529 14.1531 28.4395 14.1265 28.2818C14.1099 28.1831 14.1139 28.0861 14.1384 27.9908C14.2788 27.3182 14.5162 26.6799 14.8506 26.0761C15.1834 25.4624 15.618 24.7605 16.1544 23.9706C16.4005 23.625 16.5711 23.3732 16.6662 23.2152C17.0254 22.6377 17.2557 22.2288 17.3573 21.9886C17.4572 21.7386 17.5159 21.4549 17.5335 21.1376C17.5399 20.9945 17.5323 20.8589 17.5107 20.7307C17.4659 20.4644 17.3448 20.2567 17.1473 20.1074C16.879 19.899 16.5378 19.8296 16.1236 19.8993C15.67 19.9756 15.3209 20.1611 15.0764 20.4557C14.8417 20.7487 14.7389 21.2224 14.7678 21.8766C14.7883 22.3599 14.5865 22.6372 14.1625 22.7086L13.8814 22.7559C13.6447 22.7957 13.4564 22.7614 13.3165 22.6531C13.1766 22.5448 13.0966 22.3707 13.0765 22.1307C13.0274 21.1756 13.1964 20.3715 13.5833 19.7182C13.9703 19.065 14.4949 18.6269 15.1571 18.4039C15.3477 18.3313 15.5613 18.2751 15.798 18.2353C16.2714 18.1556 16.7144 18.1673 17.1272 18.2702C17.5499 18.3715 17.9061 18.5296 18.1957 18.7445C18.5002 18.9874 18.7415 19.2764 18.9196 19.6115C19.0976 19.9466 19.2165 20.2916 19.2763 20.6466C19.2962 20.765 19.3112 20.9146 19.3213 21.0954C19.3418 21.5787 19.2644 22.0227 19.0891 22.4274C18.9121 22.8222 18.5588 23.4343 18.029 24.2637C17.988 24.3213 17.7904 24.6233 17.4361 25.1696C17.0802 25.7061 16.7842 26.2071 16.5481 26.6727L17.4948 26.5135L19.6397 26.1526ZM24.5638 25.3243C24.9779 25.2546 25.2678 25.0791 25.4335 24.7977C25.6089 24.5147 25.6922 24.1356 25.6833 23.6605C25.6825 23.1739 25.615 22.5312 25.4806 21.7324C25.3479 20.9435 25.2023 20.319 25.0437 19.8589C24.8951 19.3972 24.6915 19.0613 24.4331 18.8513C24.173 18.6314 23.8408 18.5554 23.4365 18.6235C23.0223 18.6931 22.7283 18.8744 22.5545 19.1673C22.379 19.4503 22.2917 19.8352 22.2924 20.3218C22.303 20.8067 22.3747 21.4437 22.5074 22.2326C22.6417 23.0314 22.7833 23.6616 22.9319 24.1234C23.0888 24.5736 23.2964 24.9037 23.5549 25.1137C23.8133 25.3238 24.1496 25.394 24.5638 25.3243ZM20.8211 22.5163C20.5706 21.0272 20.5835 19.7777 20.8598 18.7679C21.1459 17.7564 21.9103 17.1462 23.1528 16.9371C24.3954 16.7281 25.3124 17.0555 25.9039 17.9194C26.4954 18.7832 26.9164 19.9597 27.1669 21.4487C27.4157 22.928 27.3971 24.1733 27.1109 25.1848C26.8346 26.1946 26.0801 26.8032 24.8474 27.0106C23.6049 27.2196 22.6829 26.893 22.0816 26.0309C21.4901 25.167 21.0699 23.9955 20.8211 22.5163ZM34.4896 23.6545C34.7165 23.6163 34.8998 23.6514 35.0397 23.7597C35.1878 23.8565 35.281 24.0183 35.3191 24.2451L35.3664 24.5261C35.4029 24.7431 35.367 24.9215 35.2587 25.0614C35.1619 25.2095 35.0001 25.3026 34.7733 25.3408L29.7144 26.1918C29.5172 26.225 29.3511 26.2023 29.2162 26.1236C29.0829 26.0547 29.003 25.9414 28.9765 25.7836C28.9599 25.685 28.9638 25.588 28.9883 25.4926C29.1287 24.82 29.3661 24.1818 29.7006 23.5779C30.0334 22.9642 30.468 22.2624 31.0044 21.4725C31.2504 21.1268 31.421 20.8751 31.5161 20.7171C31.8753 20.1395 32.1057 19.7306 32.2072 19.4904C32.3071 19.2404 32.3659 18.9567 32.3835 18.6394C32.3898 18.4964 32.3822 18.3608 32.3607 18.2326C32.3159 17.9663 32.1947 17.7585 31.9972 17.6092C31.7289 17.4008 31.3877 17.3315 30.9735 17.4012C30.5199 17.4775 30.1708 17.6629 29.9263 17.9576C29.6917 18.2506 29.5888 18.7242 29.6178 19.3785C29.6382 19.8618 29.4364 20.1391 29.0124 20.2104L28.7313 20.2577C28.4947 20.2975 28.3064 20.2633 28.1665 20.155C28.0266 20.0467 27.9466 19.8726 27.9265 19.6326C27.8774 18.6775 28.0463 17.8733 28.4333 17.2201C28.8203 16.5668 29.3449 16.1287 30.007 15.9058C30.1976 15.8331 30.4113 15.7769 30.6479 15.7371C31.1213 15.6575 31.5644 15.6691 31.9772 15.7721C32.3998 15.8734 32.756 16.0315 33.0457 16.2464C33.3502 16.4892 33.5915 16.7782 33.7695 17.1133C33.9476 17.4484 34.0665 17.7935 34.1262 18.1485C34.1461 18.2668 34.1611 18.4164 34.1713 18.5972C34.1917 19.0805 34.1143 19.5245 33.939 19.9292C33.7621 20.3241 33.4087 20.9362 32.8789 21.7655C32.8379 21.8231 32.6403 22.1251 32.286 22.6714C31.9301 23.2079 31.6341 23.709 31.3981 24.1746L32.3448 24.0153L34.4896 23.6545ZM36.2747 22.9739C36.1874 22.8771 36.1338 22.7695 36.1139 22.6511C36.0725 22.4046 36.2037 22.1899 36.5075 22.0069L36.7564 21.8586C36.8385 21.8042 36.9338 21.7679 37.0422 21.7496C37.2789 21.7098 37.5051 21.8188 37.7209 22.0766C38.2315 22.7005 38.8714 22.9478 39.6406 22.8184C40.252 22.7155 40.6815 22.4658 40.9291 22.0693C41.1768 21.6727 41.2624 21.2476 41.1861 20.7939C40.987 19.6106 40.3944 19.1018 39.4083 19.2677L38.077 19.4917L37.1007 19.6559C36.9035 19.6891 36.7391 19.6762 36.6075 19.6172C36.4857 19.5566 36.4149 19.4671 36.395 19.3488C36.3701 19.2008 36.4142 19.0413 36.5274 18.8701L37.5803 17.172L38.2051 16.1846L36.0307 16.5504C35.8039 16.5886 35.6214 16.5584 35.4831 16.46C35.3432 16.3517 35.2542 16.1842 35.216 15.9573L35.1687 15.6763C35.1306 15.4495 35.1607 15.2669 35.2592 15.1287C35.3674 14.9888 35.5301 14.9006 35.747 14.8641L40.5988 14.0479C40.7862 14.0164 40.935 14.0268 41.0452 14.0793C41.1653 14.1301 41.2353 14.2146 41.2552 14.333C41.2785 14.471 41.231 14.6412 41.113 14.8436L39.6689 17.1096L39.3909 17.5366C40.1502 17.4089 40.7742 17.5017 41.263 17.8149C41.7599 18.1167 42.1312 18.5156 42.377 19.0117C42.621 19.498 42.7862 19.9975 42.8724 20.5103C42.9554 21.0033 42.9036 21.5394 42.717 22.1183C42.5404 22.6956 42.2156 23.2066 41.7428 23.6512C41.27 24.0958 40.6638 24.3803 39.9242 24.5047C39.086 24.6457 38.3666 24.5589 37.7661 24.2441C37.1738 23.9179 36.6766 23.4945 36.2747 22.9739ZM48.9267 13.3618C48.8869 13.1252 48.9203 12.9319 49.0269 12.7822C49.1336 12.6324 49.3052 12.5376 49.5419 12.4978L49.8377 12.448C50.0744 12.4082 50.2676 12.4416 50.4174 12.5483C50.5672 12.6549 50.662 12.8266 50.7018 13.0632L51.7245 19.1428C51.7643 19.3795 51.7309 19.5727 51.6243 19.7225C51.5177 19.8722 51.346 19.967 51.1093 20.0068L50.8135 20.0566C50.5768 20.0964 50.3836 20.063 50.2338 19.9564C50.0841 19.8497 49.9893 19.6781 49.9495 19.4414L49.6061 17.4001L49.5173 17.415C49.3102 17.4499 49.1367 17.4131 48.9968 17.3048C48.8668 17.1949 48.7818 17.0216 48.742 16.7849L48.7171 16.637C48.6773 16.4003 48.7009 16.2088 48.7878 16.0623C48.8747 15.9159 49.0266 15.8244 49.2436 15.7879L49.3323 15.773L49.2328 15.1813L49.144 15.1962C48.9369 15.231 48.7635 15.1943 48.6235 15.086C48.4935 14.9761 48.4086 14.8028 48.3688 14.5661L48.3439 14.4182C48.3041 14.1815 48.3276 13.9899 48.4145 13.8435C48.5014 13.697 48.6534 13.6056 48.8703 13.5691L48.9591 13.5541L48.9267 13.3618ZM43.2761 14.3124C43.2363 14.0757 43.2697 13.8825 43.3763 13.7328C43.483 13.583 43.6546 13.4882 43.8913 13.4484L44.1871 13.3986C44.4238 13.3588 44.617 13.3922 44.7668 13.4988C44.9166 13.6055 45.0114 13.7771 45.0512 14.0138L45.5265 16.8391L47.4808 16.0692C47.5761 16.0329 47.6435 16.0114 47.6829 16.0048C47.8802 15.9716 48.0389 16.0108 48.159 16.1224C48.2874 16.2225 48.3699 16.3811 48.4064 16.598L48.4536 16.8791C48.5266 17.313 48.3553 17.6206 47.9397 17.8021L44.9084 19.0422C44.7934 19.0818 44.7161 19.1049 44.6767 19.1116C44.4992 19.1414 44.3462 19.1063 44.2178 19.0062C44.0993 18.9045 44.0218 18.7451 43.9853 18.5282L43.2761 14.3124ZM44.7314 21.0645C44.6916 20.8279 44.725 20.6347 44.8317 20.4849C44.9383 20.3351 45.1099 20.2403 45.3466 20.2005L45.6425 20.1508C45.8791 20.1109 46.0723 20.1443 46.2221 20.251C46.3719 20.3576 46.4667 20.5293 46.5065 20.7659L46.7653 22.3043L51.3804 21.5279C51.6171 21.4881 51.8103 21.5215 51.9601 21.6282C52.1099 21.7348 52.2046 21.9064 52.2445 22.1431L52.2942 22.439C52.334 22.6756 52.3006 22.8689 52.194 23.0186C52.0874 23.1684 51.9157 23.2632 51.679 23.303L46.4574 24.1814L46.3835 24.1938L46.3243 24.2038L46.0284 24.2536C45.7918 24.2934 45.5985 24.26 45.4488 24.1533C45.299 24.0467 45.2042 23.8751 45.1644 23.6384L44.7314 21.0645ZM54.1819 14.6681C54.2549 15.102 54.3532 15.4151 54.4768 15.6072C54.6103 15.7977 54.8052 15.8714 55.0616 15.8283C55.2983 15.7885 55.4436 15.6575 55.4975 15.4355C55.5514 15.2135 55.5419 14.8855 55.4689 14.4516C55.3992 14.0374 55.3034 13.7392 55.1814 13.5569C55.0579 13.3647 54.8777 13.2886 54.6411 13.3284C54.3847 13.3715 54.2246 13.5049 54.1608 13.7286C54.1052 13.9408 54.1123 14.2539 54.1819 14.6681ZM52.4069 14.9667C52.2493 14.0299 52.3517 13.2825 52.7142 12.7247C53.0865 12.1652 53.6376 11.824 54.3673 11.7013C55.0379 11.5884 55.6085 11.6953 56.0792 12.0217C56.5482 12.3383 56.886 12.8392 57.0925 13.5244C57.2124 13.3927 57.3758 13.3094 57.5829 13.2746L57.79 13.2398L57.566 11.9085C57.5262 11.6718 57.5596 11.4786 57.6663 11.3288C57.7729 11.1791 57.9445 11.0843 58.1812 11.0444L58.4771 10.9947C58.7137 10.9549 58.9069 10.9883 59.0567 11.0949C59.2065 11.2015 59.3013 11.3732 59.3411 11.6099L60.2394 16.9498C60.2792 17.1865 60.2458 17.3797 60.1392 17.5295C60.0325 17.6793 59.8609 17.774 59.6242 17.8139L59.3284 17.8636C59.0917 17.9034 58.8985 17.87 58.7487 17.7634C58.599 17.6568 58.5042 17.4851 58.4643 17.2484L58.0886 15.0148L57.8815 15.0497C57.6448 15.0895 57.4574 15.0602 57.3191 14.9617C57.3169 15.672 57.1386 16.2394 56.7841 16.6641C56.4395 17.0871 55.9566 17.3509 55.3353 17.4554C54.576 17.5831 53.9371 17.432 53.4186 17.0021C52.9001 16.5722 52.5628 15.8937 52.4069 14.9667ZM54.8352 19.3648C54.7953 19.1282 54.8288 18.9349 54.9354 18.7852C55.042 18.6354 55.2137 18.5406 55.4503 18.5008L55.7462 18.451C55.9829 18.4112 56.1761 18.4446 56.3258 18.5513C56.4756 18.6579 56.5704 18.8296 56.6102 19.0662L56.869 20.6046L62.2238 19.7038C62.4604 19.664 62.6537 19.6974 62.8034 19.804C62.9532 19.9107 63.048 20.0823 63.0878 20.319L63.1376 20.6148C63.1774 20.8515 63.144 21.0447 63.0373 21.1945C62.9307 21.3443 62.7591 21.439 62.5224 21.4789L56.5611 22.4817L56.4872 22.4941L56.428 22.5041L56.1322 22.5539C55.8955 22.5937 55.7023 22.5603 55.5525 22.4536C55.4027 22.347 55.308 22.1753 55.2681 21.9387L54.8352 19.3648ZM59.7848 11.5352C59.745 11.2985 59.7784 11.1053 59.8851 10.9556C59.9917 10.8058 60.1634 10.711 60.4 10.6712L60.6959 10.6214C60.9326 10.5816 61.1258 10.615 61.2755 10.7216C61.4253 10.8283 61.5201 10.9999 61.5599 11.2366L62.4582 16.5766C62.498 16.8132 62.4646 17.0065 62.358 17.1562C62.2514 17.306 62.0797 17.4008 61.843 17.4406L61.5472 17.4904C61.3105 17.5302 61.1173 17.4968 60.9675 17.3901C60.8178 17.2835 60.723 17.1119 60.6832 16.8752L59.7848 11.5352Z" fill="#666666"/>
<path d="M8.15845 48.9737C8.90792 48.8476 9.45767 48.7399 9.80771 48.6506C10.1693 48.5695 10.3451 48.4994 10.3351 48.4402C10.3252 48.381 10.1361 48.3723 9.76789 48.4139C9.40956 48.4539 8.85566 48.537 8.10619 48.663C7.38631 48.7841 6.85052 48.8844 6.49883 48.9639C6.14713 49.0433 5.97626 49.1126 5.98622 49.1718C5.99617 49.231 6.17538 49.2414 6.52385 49.203C6.88384 49.1729 7.42871 49.0964 8.15845 48.9737ZM4.06324 49.4953C3.99024 49.0614 4.09821 48.7086 4.38714 48.4369C4.67607 48.1652 5.09168 47.9533 5.63397 47.8012C6.18446 47.6376 6.93305 47.4762 7.87975 47.317C8.83631 47.156 9.60144 47.0628 10.1752 47.0373C10.7571 47.0002 11.229 47.0628 11.5909 47.225C11.9627 47.3856 12.1851 47.6828 12.2581 48.1167C12.3327 48.5605 12.2207 48.919 11.9219 49.1924C11.6329 49.4641 11.2075 49.6776 10.6455 49.833C10.095 49.9966 9.34146 50.1588 8.3849 50.3198C7.4382 50.479 6.67799 50.5714 6.10428 50.5969C5.54209 50.6307 5.08003 50.5664 4.7181 50.4042C4.35618 50.242 4.13789 49.939 4.06324 49.4953ZM3.00068 43.179C2.89368 43.0855 2.83271 42.9943 2.81778 42.9056C2.7929 42.7577 2.86252 42.5989 3.02667 42.4293C3.19081 42.2598 3.43633 42.0917 3.76323 41.9252C4.22976 41.6844 4.6609 41.4142 5.05665 41.1144L3.50347 41.3756C3.2668 41.4155 3.07441 41.387 2.9263 41.2902C2.77819 41.1934 2.68589 41.0366 2.64939 40.8196L2.63944 40.7604C2.60294 40.5435 2.63884 40.3651 2.74713 40.2252C2.85542 40.0853 3.02791 39.9954 3.26458 39.9556L9.89146 38.8408C10.1281 38.801 10.3205 38.8294 10.4686 38.9262C10.6167 39.023 10.709 39.1798 10.7455 39.3968L10.7555 39.456C10.792 39.6729 10.7561 39.8513 10.6478 39.9912C10.5395 40.1311 10.367 40.221 10.1304 40.2608L8.57718 40.5221L9.99045 40.695L10.0867 40.7245C10.1376 40.7261 10.2174 40.7481 10.326 40.7907C10.4888 40.8546 10.6164 40.9497 10.7086 41.0762C10.8091 41.1911 10.8718 41.3225 10.8966 41.4705C10.9315 41.6775 10.8989 41.8757 10.7989 42.0649C10.7219 42.2097 10.6152 42.329 10.4789 42.423C10.3524 42.5152 10.2054 42.5754 10.0377 42.6036C9.81092 42.6418 9.60457 42.6207 9.41868 42.5405C9.33149 42.5044 9.24592 42.4478 9.16196 42.3707L9.14467 42.3584L7.71246 41.0783C7.6285 41.0011 7.57002 40.9248 7.53703 40.8492C6.85124 41.7758 5.76506 42.643 4.27847 43.4508C4.17663 43.5085 4.07147 43.5465 3.963 43.5647C3.72632 43.6046 3.48702 43.5383 3.24509 43.3661L3.00068 43.179ZM3.70947 47.1211C3.67297 46.9041 3.70969 46.7306 3.81964 46.6006C3.92794 46.4607 4.10042 46.3708 4.33709 46.331L6.7778 45.9204C6.80554 45.7839 6.87277 45.6712 6.9795 45.5823C7.08622 45.4933 7.23327 45.4331 7.42063 45.4016L7.71648 45.3518C8.10107 45.2871 8.36014 45.3804 8.49369 45.6318L10.964 45.2162C11.2007 45.1764 11.393 45.2049 11.5411 45.3016C11.6876 45.3885 11.7791 45.5405 11.8156 45.7574C11.8521 45.9744 11.8162 46.1528 11.7079 46.2927C11.5996 46.4326 11.4271 46.5225 11.1904 46.5623L4.56354 47.6771C4.32687 47.7169 4.13448 47.6884 3.98637 47.5917C3.83826 47.4949 3.74596 47.338 3.70947 47.1211ZM3.32874 44.8579C3.29224 44.6409 3.32814 44.4625 3.43643 44.3226C3.54472 44.1827 3.7172 44.0928 3.95388 44.053L6.37979 43.6449L6.29767 43.1568C6.26615 42.9694 6.30619 42.8156 6.4178 42.6954C6.52941 42.5753 6.70355 42.4953 6.94023 42.4555L7.23607 42.4057C7.47275 42.3659 7.66348 42.3845 7.80827 42.4615C7.95305 42.5386 8.04121 42.6708 8.07273 42.8582L8.15485 43.3463L10.5808 42.9382C10.8174 42.8984 11.0098 42.9269 11.1579 43.0236C11.306 43.1204 11.3983 43.2773 11.4348 43.4942L11.4796 43.7605C11.5161 43.9774 11.4802 44.1559 11.3719 44.2958C11.262 44.4258 11.0887 44.5107 10.852 44.5505L4.22511 45.6654C3.98844 45.7052 3.79688 45.6816 3.65043 45.5947C3.50233 45.4979 3.41002 45.3411 3.37353 45.1241L3.32874 44.8579ZM15.2102 49.1107L14.9143 49.1605C14.6777 49.2003 14.4845 49.1669 14.3347 49.0603C14.1849 48.9536 14.0901 48.782 14.0503 48.5453L13.7169 46.5632C13.6771 46.3265 13.7105 46.1333 13.8171 45.9835C13.9237 45.8337 14.0954 45.7389 14.3321 45.6991L14.6279 45.6494C14.8646 45.6096 15.0578 45.643 15.2076 45.7496C15.3573 45.8562 15.4521 46.0279 15.4919 46.2646L15.6512 47.2112L21.2426 46.2706C21.4793 46.2308 21.6725 46.2642 21.8223 46.3708C21.972 46.4775 22.0668 46.6491 22.1066 46.8858L22.1564 47.1817C22.1962 47.4183 22.1628 47.6115 22.0562 47.7613C21.9496 47.9111 21.7779 48.0059 21.5412 48.0457L15.3433 49.0883L15.2694 49.1008L15.2102 49.1107ZM12.6547 40.5206C12.5286 39.7712 12.7891 39.1798 13.4362 38.7464C14.0932 38.3114 15.0725 37.9844 16.3742 37.7654C17.7055 37.5415 18.7527 37.5275 19.5158 37.7237C20.2772 37.9099 20.7218 38.3827 20.8496 39.142C20.9773 39.9014 20.7127 40.4986 20.0558 40.9336C19.3972 41.3587 18.4022 41.6833 17.0709 41.9072C15.7692 42.1262 14.7368 42.1376 13.9737 41.9415C13.2205 41.7437 12.7808 41.2701 12.6547 40.5206ZM13.2864 44.0041C13.2466 43.7674 13.28 43.5742 13.3866 43.4245C13.4932 43.2747 13.6649 43.1799 13.9016 43.1401L20.5284 42.0253C20.7651 41.9855 20.9583 42.0189 21.1081 42.1255C21.2579 42.2321 21.3527 42.4038 21.3925 42.6405L21.4422 42.9363C21.4821 43.173 21.4486 43.3662 21.342 43.516C21.2354 43.6657 21.0637 43.7605 20.8271 43.8003L14.2002 44.9152C13.9635 44.955 13.7703 44.9216 13.6205 44.8149C13.4707 44.7083 13.376 44.5366 13.3361 44.3L13.2864 44.0041ZM14.5777 40.1971C14.6059 40.3648 14.8033 40.4533 15.1699 40.4626C15.5349 40.462 16.0773 40.4012 16.7972 40.2801C17.5467 40.154 18.094 40.0315 18.439 39.9126C18.7923 39.7822 18.9548 39.6332 18.9266 39.4655C18.8984 39.2979 18.6969 39.2152 18.3221 39.2174C17.9554 39.2081 17.3974 39.2665 16.6479 39.3926C15.928 39.5137 15.3964 39.6386 15.053 39.7673C14.7079 39.8862 14.5495 40.0295 14.5777 40.1971ZM31.9105 35.8971C31.8706 35.6605 31.9041 35.4672 32.0107 35.3175C32.1173 35.1677 32.289 35.0729 32.5256 35.0331L32.8215 34.9833C33.0582 34.9435 33.2514 34.9769 33.4012 35.0836C33.5509 35.1902 33.6457 35.3619 33.6855 35.5985L34.4097 39.903C34.4495 40.1397 34.4161 40.3329 34.3094 40.4827C34.2028 40.6325 34.0311 40.7273 33.7945 40.7671L33.4986 40.8168C33.262 40.8567 33.0687 40.8232 32.919 40.7166C32.7692 40.61 32.6744 40.4383 32.6346 40.2017L31.9105 35.8971ZM25.8339 38.9272C25.6863 38.0495 25.7962 37.3465 26.1636 36.8183C26.541 36.2883 27.0945 35.962 27.8242 35.8392C28.5836 35.7115 29.2101 35.8494 29.7039 36.2531C30.2076 36.6551 30.53 37.2753 30.671 38.1135C30.8203 39.001 30.717 39.713 30.361 40.2495C30.0051 40.786 29.4623 41.1156 28.7325 41.2384C27.9732 41.3661 27.3367 41.2298 26.8232 40.8294C26.3097 40.4291 25.9799 39.795 25.8339 38.9272ZM28.2612 45.9417L28.102 44.995C28.0837 44.8865 28.0819 44.7854 28.0966 44.6917C28.0587 44.6474 28.034 44.5907 28.0224 44.5217C27.9975 44.3737 28.0425 44.2496 28.1574 44.1491C28.2707 44.0388 28.4457 43.9637 28.6823 43.9239L33.1496 43.1724L33.0699 42.699L28.6027 43.4505C28.366 43.4904 28.1736 43.4619 28.0255 43.3651C27.8758 43.2585 27.7818 43.0918 27.7437 42.8649C27.7055 42.6381 27.7406 42.4548 27.8489 42.3149C27.9555 42.1651 28.1271 42.0703 28.3638 42.0305L33.8665 41.1048C34.1032 41.065 34.2964 41.0984 34.4462 41.205C34.5943 41.3018 34.6874 41.4636 34.7255 41.6904C34.7388 41.7693 34.743 41.8244 34.7381 41.8556C34.7546 41.8934 34.7695 41.9517 34.7828 42.0306L34.942 42.9773C34.9537 43.0464 34.9562 43.122 34.9498 43.2042C34.9795 43.26 34.9976 43.3077 35.0043 43.3471C35.0291 43.495 34.9849 43.6242 34.8717 43.7345C34.7567 43.8349 34.5809 43.9051 34.3443 43.9449L29.877 44.6964L29.9567 45.1697L34.4239 44.4182C34.6606 44.3784 34.853 44.4069 35.0011 44.5037C35.1508 44.6103 35.2448 44.777 35.283 45.0038C35.3211 45.2307 35.286 45.414 35.1778 45.5539C35.0711 45.7037 34.8995 45.7985 34.6628 45.8383L29.1601 46.764C28.9234 46.8038 28.7302 46.7704 28.5805 46.6638C28.4323 46.567 28.3392 46.4052 28.3011 46.1784L28.2812 46.06L28.2612 45.9417ZM27.609 38.6286C27.6754 39.023 27.7695 39.3114 27.8914 39.4937C28.0232 39.6744 28.2173 39.7431 28.4737 39.7C28.7104 39.6602 28.8573 39.5391 28.9146 39.3368C28.9701 39.1246 28.9639 38.8164 28.8959 38.4121C28.8296 38.0176 28.7362 37.7342 28.616 37.5617C28.4957 37.3893 28.3172 37.323 28.0805 37.3628C27.8241 37.4059 27.6624 37.5295 27.5953 37.7334C27.5381 37.9357 27.5426 38.2341 27.609 38.6286ZM41.9034 34.2161C41.8636 33.9794 41.897 33.7862 42.0036 33.6364C42.1102 33.4866 42.2819 33.3919 42.5186 33.352L42.8144 33.3023C43.0511 33.2625 43.2443 33.2959 43.3941 33.4025C43.5438 33.5091 43.6386 33.6808 43.6784 33.9175L44.0094 35.8848C43.9696 35.6481 43.9981 35.4557 44.0948 35.3076C44.2015 35.1579 44.3731 35.0631 44.6098 35.0233C44.8366 34.9851 45.02 35.0202 45.1599 35.1285C45.3096 35.2351 45.4044 35.4068 45.4442 35.6434L45.494 35.9393C45.5338 36.176 45.5004 36.3692 45.3938 36.5189C45.297 36.667 45.1352 36.7602 44.9084 36.7983C44.6816 36.8365 44.4933 36.8022 44.3435 36.6956C44.1938 36.589 44.099 36.4173 44.0592 36.1807L44.7012 39.997C44.741 40.2337 44.7076 40.4269 44.6009 40.5767C44.4943 40.7265 44.3227 40.8212 44.086 40.8611L43.7901 40.9108C43.5535 40.9506 43.3602 40.9172 43.2105 40.8106C43.0607 40.704 42.9659 40.5323 42.9261 40.2956L41.9034 34.2161ZM35.4613 35.2542C35.4232 35.0273 35.4582 34.844 35.5665 34.7041C35.6748 34.5642 35.8473 34.4743 36.084 34.4345L39.501 33.8597C39.7376 33.8199 39.93 33.8483 40.0781 33.9451C40.2262 34.0419 40.3194 34.2037 40.3575 34.4305L41.0642 38.6315C41.1041 38.8681 41.0706 39.0614 40.964 39.2111C40.8574 39.3609 40.6857 39.4557 40.449 39.4955L40.3899 39.5054C40.1729 39.5419 39.9855 39.5126 39.8275 39.4175L37.5939 39.7933C37.4856 39.9332 37.318 40.0222 37.0912 40.0604L37.0321 40.0703C36.7954 40.1101 36.6022 40.0767 36.4524 39.9701C36.3026 39.8635 36.2078 39.6918 36.168 39.4551L35.4613 35.2542ZM37.7081 41.9188C37.6683 41.6821 37.7017 41.4889 37.8083 41.3391C37.9149 41.1894 38.0866 41.0946 38.3233 41.0548L38.6191 41.005C38.8558 40.9652 39.049 40.9986 39.1988 41.1052C39.3485 41.2118 39.4433 41.3835 39.4831 41.6202L39.7419 43.1586L44.3571 42.3822C44.5938 42.3423 44.787 42.3758 44.9367 42.4824C45.0865 42.589 45.1813 42.7607 45.2211 42.9973L45.2709 43.2932C45.3107 43.5299 45.2773 43.7231 45.1707 43.8729C45.064 44.0226 44.8924 44.1174 44.6557 44.1572L39.4341 45.0356L39.3601 45.0481L39.3009 45.058L39.0051 45.1078C38.7684 45.1476 38.5752 45.1142 38.4254 45.0076C38.2757 44.9009 38.1809 44.7293 38.1411 44.4926L37.7081 41.9188ZM37.1465 35.8681L37.5472 38.2496L39.3666 37.9436L38.966 35.562L37.1465 35.8681ZM51.1472 32.661C51.1136 32.1596 51.3235 31.8708 51.7772 31.7945L52.073 31.7447C52.3097 31.7049 52.5037 31.7433 52.6552 31.8597C52.8148 31.9647 52.9104 32.1413 52.942 32.3895C53.0502 33.2738 53.0365 34.0062 52.901 34.5868L54.4013 35.2774L54.4507 35.2995C54.5165 35.329 54.6087 35.3947 54.7272 35.4964C54.9066 35.6589 55.0171 35.8634 55.0585 36.1099C55.0851 36.2677 55.0763 36.4264 55.0321 36.5859C54.9863 36.7356 54.9068 36.8656 54.7935 36.9759C54.6327 37.1652 54.4241 37.2814 54.1677 37.3245C53.8324 37.381 53.5438 37.2926 53.3017 37.0595C53.254 37.0169 53.1923 36.9512 53.1165 36.8625L53.0745 36.7936L52.4884 35.7513C52.3508 36.0787 52.1083 36.5657 51.7607 37.2123C51.6329 37.4772 51.4556 37.6287 51.2288 37.6668C51.0808 37.6917 50.9255 37.6722 50.7626 37.6084L50.4048 37.4708C50.1235 37.366 49.9655 37.2101 49.9306 37.003C49.9074 36.8649 49.9516 36.7054 50.0631 36.5244C50.4715 35.8777 50.7681 35.2599 50.953 34.6711C51.1362 34.0724 51.2009 33.4024 51.1472 32.661ZM52.656 40.545C52.5283 39.7856 52.7682 39.1622 53.3757 38.6746C53.9914 38.1756 54.8959 37.8257 56.0892 37.6249C57.3218 37.4176 58.3058 37.4498 59.0411 37.7216C59.7747 37.9835 60.2054 38.4941 60.3331 39.2535C60.4592 40.0029 60.2136 40.6223 59.5962 41.1115C58.9804 41.6105 58.0661 41.9621 56.8531 42.1661C55.6599 42.3669 54.6907 42.3322 53.9456 42.062C53.2119 41.8001 52.7821 41.2944 52.656 40.545ZM54.579 40.2215C54.6188 40.4581 54.7999 40.6001 55.1222 40.6473C55.4526 40.6829 55.9384 40.6468 56.5794 40.539C57.2401 40.4279 57.7208 40.3014 58.0214 40.1595C58.3204 40.0078 58.45 39.8136 58.4102 39.577C58.367 39.3206 58.1802 39.1745 57.8497 39.1389C57.5192 39.1032 57.0236 39.1409 56.3629 39.2521C55.7219 39.3599 55.2519 39.4897 54.9529 39.6414C54.6622 39.7816 54.5375 39.9749 54.579 40.2215ZM55.0079 32.0115C54.9681 31.7749 55.0015 31.5816 55.1082 31.4319C55.2148 31.2821 55.3865 31.1873 55.6231 31.1475L55.919 31.0977C56.1556 31.0579 56.3489 31.0913 56.4986 31.198C56.6484 31.3046 56.7432 31.4762 56.783 31.7129L57.007 33.0442L57.4507 32.9696L57.2268 31.6383C57.187 31.4016 57.2204 31.2084 57.327 31.0586C57.4336 30.9088 57.6053 30.8141 57.842 30.7742L58.1378 30.7245C58.3745 30.6847 58.5677 30.7181 58.7175 30.8247C58.8672 30.9313 58.962 31.103 59.0018 31.3397L59.7508 35.7921C59.7907 36.0288 59.7572 36.222 59.6506 36.3718C59.544 36.5215 59.3723 36.6163 59.1357 36.6561L58.8398 36.7059C58.6031 36.7457 58.4099 36.7123 58.2602 36.6057C58.1104 36.499 58.0156 36.3274 57.9758 36.0907L57.7493 34.7446L57.3056 34.8193L57.532 36.1654C57.5718 36.402 57.5384 36.5953 57.4318 36.745C57.3252 36.8948 57.1535 36.9896 56.9168 37.0294L56.621 37.0792C56.3843 37.119 56.1911 37.0856 56.0413 36.9789C55.8916 36.8723 55.7968 36.7006 55.757 36.464L55.0079 32.0115ZM60.7772 31.041C60.7374 30.8043 60.7708 30.6111 60.8775 30.4613C60.9841 30.3116 61.1557 30.2168 61.3924 30.177L64.7502 29.6121C65.2039 29.5358 65.4639 29.6948 65.5302 30.0893C65.5385 30.1386 65.5411 30.2142 65.538 30.3162L65.1212 40.0451C65.1054 40.494 64.8756 40.7557 64.4319 40.8303L64.0917 40.8876C63.638 40.9639 63.378 40.8048 63.3117 40.4104C63.3034 40.3611 63.3008 40.2854 63.3039 40.1835L63.6732 31.6186L61.691 31.952C61.4544 31.9918 61.2611 31.9584 61.1114 31.8518C60.9616 31.7452 60.8668 31.5735 60.827 31.3368L60.7772 31.041ZM67.2118 29.9585C67.172 29.7218 67.2054 29.5286 67.312 29.3789C67.4187 29.2291 67.5903 29.1343 67.827 29.0945L68.1228 29.0447C68.3595 29.0049 68.5527 29.0383 68.7025 29.145C68.8523 29.2516 68.9471 29.4232 68.9869 29.6599L70.5645 39.0381C70.6044 39.2748 70.5709 39.468 70.4643 39.6178C70.3577 39.7676 70.186 39.8623 69.9493 39.9022L69.6535 39.9519C69.4168 39.9917 69.2236 39.9583 69.0738 39.8517C68.9241 39.7451 68.8293 39.5734 68.7895 39.3367L67.2118 29.9585ZM70.759 29.3618C70.7192 29.1251 70.7526 28.9319 70.8593 28.7821C70.9659 28.6324 71.1376 28.5376 71.3742 28.4978L74.732 27.9329C75.1857 27.8566 75.4457 28.0156 75.512 28.4101C75.5203 28.4594 75.5229 28.535 75.5198 28.637L75.103 38.3659C75.0872 38.8147 74.8575 39.0765 74.4137 39.1511L74.0735 39.2084C73.6198 39.2847 73.3599 39.1256 73.2935 38.7312C73.2852 38.6819 73.2826 38.6062 73.2858 38.5043L73.655 29.9394L71.6728 30.2728C71.4362 30.3126 71.2429 30.2792 71.0932 30.1726C70.9434 30.066 70.8486 29.8943 70.8088 29.6576L70.759 29.3618ZM76.4242 37.9915C76.4142 37.9324 76.4108 37.8518 76.4139 37.7499C76.3776 37.6546 76.3545 37.5774 76.3445 37.5182L76.2674 37.0596C76.2375 36.8821 76.248 36.7333 76.2988 36.6133C76.2165 36.546 76.1629 36.4384 76.138 36.2904C76.1081 36.1129 76.149 35.9641 76.2606 35.8439C76.3722 35.7237 76.5464 35.6437 76.7831 35.6039L78.6469 35.2904C78.5037 35.2232 78.4033 35.1083 78.3455 34.9456L76.7184 35.2193C76.4817 35.2591 76.2885 35.2257 76.1387 35.1191C75.9889 35.0125 75.8941 34.8408 75.8543 34.6041L75.8444 34.545C75.8046 34.3083 75.838 34.1151 75.9446 33.9653C76.0512 33.8156 76.2229 33.7208 76.4596 33.6809L78.6636 33.3102L78.7376 33.2977L78.7967 33.2878L79.0926 33.238C79.3292 33.1982 79.5225 33.2316 79.6722 33.3382C79.822 33.4449 79.9168 33.6165 79.9566 33.8532L80.0536 34.4301C80.1084 34.7555 80.0274 34.9973 79.8106 35.1555C80.0589 35.1847 80.2054 35.3324 80.2502 35.5987C80.2817 35.786 80.2417 35.9398 80.1301 36.06C80.0185 36.1802 79.8443 36.2602 79.6077 36.3L77.9953 36.5712C78.0118 36.609 78.0275 36.6723 78.0425 36.761L78.0748 36.9533L79.6724 36.6846C79.909 36.6448 80.1023 36.6782 80.252 36.7848C80.4018 36.8914 80.4966 37.0631 80.5364 37.2998L80.5463 37.3589C80.5862 37.5956 80.5528 37.7888 80.4461 37.9386C80.3395 38.0884 80.1678 38.1831 79.9312 38.223L77.2982 38.6659C77.0615 38.7057 76.8683 38.6723 76.7185 38.5657C76.5687 38.459 76.4739 38.2874 76.4341 38.0507L76.4242 37.9915ZM77.1862 28.2349C77.148 28.0081 77.1831 27.8248 77.2914 27.6849C77.3997 27.545 77.5721 27.4551 77.8088 27.4153L78.1047 27.3655C78.3413 27.3257 78.5337 27.3542 78.6818 27.451C78.8299 27.5477 78.9231 27.7095 78.9612 27.9363L79.6381 31.9598C79.6762 32.1866 79.6412 32.37 79.5329 32.5099C79.4246 32.6498 79.2521 32.7396 79.0154 32.7794L78.7196 32.8292C78.4829 32.869 78.2905 32.8406 78.1424 32.7438C77.9943 32.647 77.9012 32.4852 77.863 32.2584L77.1862 28.2349Z" fill="#666666"/>
<path d="M153.428 32.8882C153.175 32.8882 152.929 32.7447 152.814 32.4979L151.707 30.1845C151.546 29.8458 151.684 29.4325 152.022 29.266C152.361 29.0995 152.768 29.2431 152.935 29.5875L154.042 31.9009C154.202 32.2396 154.065 32.6529 153.726 32.8194C153.629 32.8653 153.531 32.8882 153.434 32.8882H153.428Z" fill="black"/>
<path d="M131.183 53.4736C130.89 53.4736 130.718 53.4678 130.684 53.4621C130.311 53.4391 130.018 53.1176 130.041 52.7388C130.064 52.3599 130.385 52.0729 130.758 52.0901C130.804 52.0901 135.468 52.3082 140.481 49.9891C147.164 46.9007 151.294 40.9995 152.757 32.452C152.757 32.429 152.768 32.4003 152.774 32.3774L153.795 28.8355C153.898 28.4738 154.277 28.2614 154.638 28.3705C155 28.4738 155.206 28.8585 155.103 29.2201L154.093 32.7218C153.244 37.6643 151.489 41.8376 148.879 45.1154C146.78 47.7561 144.124 49.8226 140.997 51.2635C136.603 53.2784 132.565 53.4736 131.188 53.4736H131.183Z" fill="black"/>
<path d="M153.428 32.8883C153.158 32.8883 152.9 32.7218 152.797 32.4577C152.659 32.1076 152.831 31.7057 153.181 31.568L156.078 30.4084C156.428 30.2706 156.824 30.4428 156.961 30.793C157.099 31.1432 156.927 31.545 156.577 31.6828L153.68 32.8423C153.6 32.8768 153.514 32.8883 153.428 32.8883Z" fill="black"/>
<path d="M72.581 65.7065C72.4835 65.7065 72.3802 65.7237 72.2884 65.7639C71.95 65.9074 71.8066 66.2633 71.9729 66.5618L73.08 68.5825C73.2407 68.881 73.6479 69.0072 73.9921 68.8637C74.3305 68.7202 74.474 68.3643 74.3076 68.0658L73.2005 66.0452C73.0858 65.8328 72.8391 65.7065 72.5867 65.7065H72.581Z" fill="black"/>
<path d="M94.8262 47.7331C93.4438 47.7331 89.4054 47.8996 85.0172 49.6619C81.8852 50.9133 79.2351 52.7216 77.1356 55.0292C74.5256 57.8937 72.7703 61.5332 71.9213 65.85L70.9117 68.9097C70.8085 69.2254 71.015 69.5583 71.3764 69.6502C71.7378 69.742 72.1163 69.5583 72.2196 69.2426L73.2407 66.1542C73.2407 66.1542 73.2521 66.1083 73.2579 66.0911C74.7263 58.6055 78.8737 53.4449 85.5851 50.7526C90.5986 48.7434 95.2105 48.9386 95.2564 48.9386C95.635 48.9558 95.9505 48.7032 95.9735 48.3703C95.9964 48.0373 95.7039 47.7561 95.331 47.7388C95.2966 47.7388 95.1245 47.7274 94.8319 47.7274L94.8262 47.7331Z" fill="black"/>
<path d="M72.581 65.7065C72.4949 65.7065 72.4146 65.718 72.3286 65.7467L69.4318 66.757C69.0819 66.8775 68.9098 67.2277 69.0475 67.5377C69.1851 67.8477 69.5809 67.9969 69.9308 67.8706L72.8276 66.8603C73.1776 66.7398 73.3496 66.3896 73.212 66.0796C73.1087 65.8443 72.8506 65.7007 72.581 65.7007V65.7065Z" fill="black"/>
<path d="M125.171 3.8817C125.119 3.92188 125.068 3.95059 125.016 3.98503L124.993 3.99651C124.448 4.31798 123.926 4.68537 123.444 5.12738C122.974 5.57514 122.544 6.0803 122.154 6.62564C121.385 7.73355 120.8 9.03089 120.387 10.4029C119.963 11.7748 119.71 13.2272 119.567 14.6967C119.435 16.1605 119.4 17.676 119.509 19.1284V19.1513C119.521 19.2661 119.492 19.3752 119.441 19.4671C119.354 19.6106 119.2 19.7139 119.022 19.7254C118.746 19.7483 118.506 19.5589 118.46 19.2948C118.156 17.7392 118.006 16.2065 117.966 14.6393C117.938 13.0722 118.018 11.4878 118.31 9.90919C118.592 8.32482 119.079 6.74045 119.871 5.24219C120.272 4.50167 120.754 3.78411 121.316 3.11248C121.884 2.45233 122.538 1.84958 123.244 1.31571C123.943 0.787592 124.942 0.925363 125.481 1.6257C125.481 1.6257 125.481 1.63144 125.487 1.63718C126.02 2.349 125.877 3.35358 125.171 3.8817Z" fill="#C18017"/>
<g style="mix-blend-mode:multiply" opacity="0.33">
<path d="M125.171 3.88171C125.119 3.92189 125.068 3.95059 125.016 3.98503L124.993 3.99652C124.448 4.31798 123.926 4.68537 123.444 5.12739C122.974 5.57514 122.544 6.0803 122.154 6.62565C121.385 7.73356 120.8 9.0309 120.387 10.4029C119.963 11.7748 119.71 13.2272 119.567 14.6967C119.435 16.1606 119.4 17.676 119.509 19.1284V19.1513C119.521 19.2661 119.492 19.3752 119.441 19.4671C117.662 7.83114 123.117 3.09526 125.481 1.61996C125.481 1.61996 125.481 1.62571 125.487 1.63145C126.02 2.34326 125.877 3.34784 125.171 3.87597V3.88171Z" fill="#C18017"/>
</g>
<path d="M94.7 87.2849C89.6349 86.7453 86.4685 85.5283 84.6271 83.7545C77.6518 77.0611 89.6406 62.4631 89.1703 46.8146C88.5335 25.4257 100.557 14.6451 114.909 13.9275C116.108 13.8644 117.324 13.8758 118.546 13.9562C158.281 16.5509 143.43 92.4685 94.7 87.2791V87.2849Z" fill="url(#paint0_linear_152_1645)"/>
<path d="M148.225 14.2203C141.927 17.1077 129.685 20.4314 121.276 8.14686C136.684 -1.24454 145.357 9.69678 147.617 13.2099C148.019 13.8299 148.219 14.2203 148.219 14.2203H148.225Z" fill="#6A9E18"/>
<g style="mix-blend-mode:multiply" opacity="0.19">
<path d="M148.225 14.2203C141.927 17.1077 129.685 20.4314 121.276 8.14685C121.276 8.14685 135.812 17.5268 147.617 13.2099C148.019 13.8299 148.219 14.2203 148.219 14.2203H148.225Z" fill="#6A9E18"/>
</g>
<g opacity="0.4">
<path d="M100.115 27.7218C100.476 26.3786 101.974 24.3924 103.809 22.8195C105.645 21.2466 107.813 20.0756 109.603 19.4211C111.398 18.7667 112.821 18.6232 113.693 18.9447C114.57 19.2661 114.897 20.0641 114.507 20.8505C114.117 21.637 113.004 22.4234 111.725 23.1352C110.446 23.847 109.006 24.4842 107.635 25.552C106.264 26.6197 104.968 28.1237 103.93 29.0134C102.886 29.9032 102.1 30.1845 101.314 29.9778C100.528 29.7655 99.7479 29.0651 100.109 27.7218H100.115Z" fill="white"/>
<path d="M97.006 33.4221C96.5414 32.7792 96.3922 31.8607 96.7364 31.2465C97.0806 30.6323 97.9181 30.3338 98.7039 30.6437C99.4841 30.9537 100.213 31.8837 100.253 32.6759C100.299 33.4681 99.6619 34.1225 98.9563 34.2717C98.2508 34.421 97.4706 34.0593 97.006 33.4164V33.4221Z" fill="white"/>
</g>
<path d="M105.857 44.0592C105.857 43.1522 105.129 42.4117 104.222 42.4059C103.316 42.4059 102.576 43.135 102.57 44.042C102.57 44.949 103.299 45.6895 104.205 45.6952C105.111 45.6952 105.851 44.9662 105.857 44.0592Z" fill="#E53C0E"/>
<path d="M126.955 44.1625C126.955 43.2555 127.695 42.5208 128.607 42.5265C129.513 42.5265 130.248 43.267 130.242 44.1797C130.242 45.0867 129.502 45.8215 128.59 45.8158C127.684 45.8158 126.949 45.0753 126.955 44.1625Z" fill="#E53C0E"/>
<path d="M113.635 39.088C113.601 38.4221 113.297 37.8997 112.66 37.5897C111.806 37.1764 110.905 37.2797 110.022 37.3716C109.408 37.4347 108.771 37.5036 108.226 37.871C107.888 38.0949 107.681 38.3647 107.687 38.7894C107.704 39.5931 107.675 40.3968 107.773 41.1947C107.853 41.8491 108.18 42.1935 108.828 42.2395C109.494 42.2854 110.165 42.3141 110.83 42.3485C111.593 42.3485 112.356 42.3485 113.09 42.0902C113.297 42.0156 113.463 41.9295 113.486 41.6941C113.572 40.8273 113.676 39.9605 113.635 39.0937V39.088Z" fill="white"/>
<path d="M109.551 41.7573C109.316 41.6195 109.167 41.4129 109.161 41.1431C109.161 40.3681 109.098 39.5931 109.201 38.8182C109.247 38.4623 109.442 38.3187 109.786 38.29C110.458 38.2269 111.117 38.3015 111.783 38.3876C111.937 38.4049 112.006 38.4565 112.064 38.646C112.339 39.5702 112.207 40.5001 112.184 41.4301C112.184 41.6195 112.046 41.7056 111.886 41.7688C111.794 41.8204 111.679 41.786 111.588 41.8319C111.427 41.8491 111.261 41.8376 111.1 41.8836C111.043 41.8836 110.98 41.8951 110.934 41.8376C110.825 41.8376 110.71 41.8376 110.601 41.8376C110.245 41.8778 109.895 41.8606 109.551 41.763V41.7573Z" fill="#242424"/>
<path d="M126.949 38.5771C126.915 37.9112 126.611 37.3888 125.974 37.0788C125.119 36.6655 124.219 36.7688 123.335 36.8607C122.722 36.9238 122.085 36.9927 121.54 37.3601C121.202 37.584 120.995 37.8538 121.001 38.2786C121.018 39.0822 120.989 39.8859 121.087 40.6838C121.167 41.3382 121.494 41.6826 122.142 41.7286C122.808 41.7745 123.479 41.8032 124.144 41.8376C124.907 41.8376 125.67 41.8376 126.404 41.5793C126.611 41.5047 126.777 41.4186 126.8 41.1832C126.886 40.3164 126.989 39.4496 126.949 38.5828V38.5771Z" fill="white"/>
<path d="M122.865 41.2464C122.63 41.1086 122.481 40.9019 122.475 40.6321C122.475 39.8572 122.412 39.0822 122.515 38.3072C122.561 37.9513 122.756 37.8078 123.1 37.7791C123.771 37.716 124.431 37.7906 125.096 37.8767C125.251 37.8939 125.32 37.9456 125.378 38.135C125.653 39.0592 125.521 39.9892 125.498 40.9192C125.498 41.1086 125.36 41.1947 125.2 41.2578C125.108 41.3095 124.993 41.2751 124.901 41.321C124.741 41.3382 124.574 41.3267 124.414 41.3726C124.356 41.3726 124.293 41.3841 124.247 41.3267C124.139 41.3267 124.024 41.3267 123.915 41.3267C123.559 41.3669 123.209 41.3497 122.865 41.2521V41.2464Z" fill="#242424"/>
<path d="M117.209 47.7216C116.584 47.7216 116.01 47.6527 115.678 47.469C114.903 47.05 113.744 45.5574 113.693 44.1797C113.676 43.7033 114.048 43.3072 114.519 43.29C115.018 43.2785 115.391 43.6459 115.408 44.1166C115.437 44.8399 116.194 45.7871 116.492 45.9535C116.894 46.0971 118.769 45.9363 119.165 45.7469C119.314 45.6723 119.796 45.3795 119.745 44.6447C119.71 44.1683 120.066 43.7607 120.542 43.7205C121.007 43.6918 121.425 44.042 121.465 44.5184C121.569 45.965 120.737 46.9007 119.922 47.2968C119.458 47.5207 118.265 47.7216 117.215 47.7216H117.209Z" fill="black"/>
<defs>
<linearGradient id="paint0_linear_152_1645" x1="132.697" y1="16.1548" x2="86.471" y2="91.296" gradientUnits="userSpaceOnUse">
<stop offset="0.07" stop-color="#FECC05"/>
<stop offset="0.49" stop-color="#FEDC15"/>
<stop offset="0.97" stop-color="#FFF52D"/>
</linearGradient>
</defs>
</svg>
