<svg width="108" height="95" viewBox="0 0 108 95" fill="none" xmlns="http://www.w3.org/2000/svg">
<g clip-path="url(#clip0_88_425)">
<path d="M35.6173 3.98061C35.6871 4.02735 35.7569 4.0663 35.8345 4.10525L35.8655 4.12083C36.6257 4.51812 37.3625 4.97772 38.0451 5.53859C38.7121 6.10725 39.3326 6.7616 39.9066 7.47828C41.0235 8.9272 41.9155 10.6332 42.5748 12.4638C43.2496 14.2944 43.6995 16.2419 44.002 18.2205C44.289 20.1914 44.4441 22.2479 44.4053 24.2265V24.2577C44.4053 24.4135 44.4441 24.5615 44.5217 24.6784C44.6458 24.8653 44.863 24.99 45.1034 24.9977C45.4757 25.0055 45.786 24.7329 45.8325 24.3746C46.1272 22.2479 46.2126 20.1524 46.1505 18.0258C46.0729 15.8992 45.8403 13.7569 45.3283 11.6381C44.8319 9.51144 44.0563 7.40817 42.8773 5.42953C42.2801 4.4558 41.5742 3.52101 40.7676 2.64854C39.9532 1.79165 39.0301 1.02824 38.0296 0.358311C37.0445 -0.30383 35.7104 -0.0467636 35.0356 0.942553C35.0356 0.942553 35.0356 0.950343 35.0278 0.958133C34.3608 1.96303 34.6323 3.31068 35.6251 3.97282L35.6173 3.98061Z" fill="#C18017"/>
<g style="mix-blend-mode:multiply" opacity="0.33">
<path d="M35.6173 3.98059C35.6871 4.02733 35.7569 4.06628 35.8345 4.10523L35.8655 4.1208C36.6257 4.51809 37.3625 4.97769 38.0451 5.53857C38.7121 6.10723 39.3326 6.76158 39.9066 7.47825C41.0235 8.92717 41.9155 10.6332 42.5748 12.4638C43.2496 14.2944 43.6995 16.2419 44.002 18.2205C44.289 20.1914 44.4441 22.2479 44.4053 24.2265V24.2577C44.4053 24.4135 44.4441 24.5615 44.5217 24.6783C46.0574 8.77916 38.3321 2.76536 35.0356 0.950317C35.0356 0.950317 35.0356 0.958107 35.0278 0.965897C34.3608 1.97079 34.6323 3.31845 35.6251 3.98059H35.6173Z" fill="#C18017"/>
</g>
<path d="M18.8481 119.824C11.9992 119.092 7.71763 117.44 5.22783 115.033C-4.20394 105.95 12.0069 86.1407 11.3709 64.9054C10.5099 35.8803 26.7673 21.2508 46.1738 20.2771C47.7949 20.1914 49.4393 20.207 51.0914 20.316C104.82 23.8371 84.7386 126.858 18.8481 119.816V119.824Z" fill="url(#paint0_linear_88_425)"/>
<path d="M5.27435 19.7162C13.9925 23.1516 30.7696 26.7427 41.202 9.46471C19.6935 -2.10328 8.80351 13.3752 6.01121 18.3062C5.5148 19.1787 5.27435 19.7162 5.27435 19.7162Z" fill="#6A9E18"/>
<g style="mix-blend-mode:multiply" opacity="0.19">
<path d="M5.27435 19.7162C13.9925 23.1516 30.7696 26.7427 41.202 9.46472C41.202 9.46472 22.2764 23.2684 6.01121 18.3063C5.5148 19.1787 5.27435 19.7162 5.27435 19.7162Z" fill="#6A9E18"/>
</g>
<g opacity="0.4">
<path d="M26.1778 38.9884C26.6665 37.1655 28.6909 34.4702 31.173 32.3358C33.655 30.2014 36.5869 28.6122 39.0069 27.7242C41.4347 26.8361 43.3583 26.6414 44.5372 27.0776C45.724 27.5139 46.1661 28.5967 45.6386 29.6639C45.1112 30.7311 43.6065 31.7983 41.8768 32.7643C40.1471 33.7302 38.2003 34.5949 36.3465 36.0438C34.4927 37.4927 32.7398 39.5337 31.3359 40.7411C29.9242 41.9485 28.8616 42.3302 27.7989 42.0498C26.7363 41.7616 25.6814 40.8112 26.1701 38.9884H26.1778Z" fill="white"/>
<path d="M21.9661 46.7237C21.3378 45.8513 21.1362 44.6049 21.6016 43.7714C22.067 42.9379 23.1994 42.5328 24.262 42.9534C25.3169 43.3741 26.3019 44.6361 26.3562 45.7111C26.4183 46.7861 25.5573 47.6741 24.6033 47.8767C23.6493 48.0792 22.5944 47.5884 21.9661 46.716V46.7237Z" fill="white"/>
</g>
<path d="M33.942 61.1585C33.942 59.9277 32.9569 58.9228 31.7314 58.915C30.5059 58.915 29.5053 59.9043 29.4976 61.1351C29.4976 62.3659 30.4826 63.3708 31.7081 63.3786C32.9336 63.3786 33.9342 62.3893 33.942 61.1585Z" fill="#E53C0E"/>
<path d="M62.4622 61.2987C62.4622 60.0679 63.4628 59.0707 64.696 59.0785C65.9216 59.0785 66.9144 60.0834 66.9066 61.322C66.9066 62.5528 65.906 63.5499 64.6728 63.5421C63.4473 63.5421 62.4544 62.5373 62.4622 61.2987Z" fill="#E53C0E"/>
<path d="M44.4519 54.4124C44.4053 53.5088 43.9942 52.7999 43.1333 52.3792C41.9776 51.8184 40.7598 51.9586 39.5653 52.0832C38.7354 52.1689 37.8744 52.2624 37.1376 52.7609C36.68 53.0648 36.4007 53.4309 36.4085 54.0073C36.4318 55.0979 36.393 56.1885 36.5248 57.2713C36.6334 58.1593 37.0755 58.6267 37.952 58.6891C38.8517 58.7514 39.7592 58.7903 40.659 58.8371C41.6906 58.8371 42.7222 58.8371 43.715 58.4865C43.9942 58.3853 44.2192 58.2684 44.2502 57.949C44.3665 56.7727 44.5062 55.5965 44.4519 54.4202V54.4124Z" fill="white"/>
<path d="M38.9293 58.0347C38.6113 57.8477 38.4097 57.5673 38.4019 57.2012C38.4019 56.1495 38.3166 55.0979 38.4562 54.0463C38.5183 53.5633 38.782 53.3686 39.2474 53.3296C40.1549 53.2439 41.0468 53.3452 41.9466 53.462C42.156 53.4854 42.2491 53.5555 42.3266 53.8126C42.6989 55.0668 42.5206 56.3287 42.4895 57.5907C42.4895 57.8477 42.3034 57.9646 42.0862 58.0503C41.9621 58.1204 41.807 58.0736 41.6829 58.136C41.4657 58.1593 41.2407 58.1438 41.0236 58.2061C40.946 58.2061 40.8607 58.2217 40.7986 58.1438C40.6513 58.1438 40.4961 58.1438 40.3488 58.1438C39.8679 58.1983 39.3947 58.1749 38.9293 58.0425V58.0347Z" fill="#242424"/>
<path d="M62.4545 53.7191C62.4079 52.8155 61.9969 52.1066 61.1359 51.6859C59.9802 51.1251 58.7624 51.2653 57.568 51.3899C56.738 51.4756 55.8771 51.5691 55.1402 52.0676C54.6826 52.3715 54.4034 52.7376 54.4111 53.314C54.4344 54.4046 54.3956 55.4952 54.5275 56.578C54.636 57.466 55.0782 57.9334 55.9546 57.9958C56.8544 58.0581 57.7619 58.097 58.6616 58.1438C59.6932 58.1438 60.7248 58.1438 61.7176 57.7932C61.9969 57.692 62.2218 57.5751 62.2528 57.2557C62.3692 56.0794 62.5088 54.9032 62.4545 53.7269V53.7191Z" fill="white"/>
<path d="M56.9319 57.3414C56.6139 57.1544 56.4122 56.874 56.4045 56.5079C56.4045 55.4562 56.3192 54.4046 56.4588 53.353C56.5208 52.87 56.7845 52.6753 57.2499 52.6363C58.1574 52.5506 59.0494 52.6519 59.9491 52.7687C60.1586 52.7921 60.2516 52.8622 60.3292 53.1193C60.7015 54.3735 60.5231 55.6354 60.4921 56.8974C60.4921 57.1544 60.3059 57.2713 60.0888 57.357C59.9647 57.4271 59.8095 57.3803 59.6854 57.4427C59.4682 57.466 59.2433 57.4505 59.0261 57.5128C58.9486 57.5128 58.8632 57.5284 58.8012 57.4505C58.6538 57.4505 58.4987 57.4505 58.3513 57.4505C57.8704 57.505 57.3973 57.4816 56.9319 57.3492V57.3414Z" fill="#242424"/>
<path d="M50.1838 60.691C50.1838 60.691 56.6759 59.0552 56.5518 60.691C56.4277 62.3269 53.3097 63.2383 53.3097 63.2383C53.3097 63.2383 57.3507 62.9501 57.9247 64.3757C58.4987 65.8012 50.1838 66.9775 50.1838 66.9775" stroke="black" stroke-width="2.5" stroke-linecap="round" stroke-linejoin="round"/>
<path d="M107.317 43.2183C108.357 45.0567 108.062 47.1211 107.379 49.3724C106.743 51.46 105.355 53.0648 104.083 54.7707C102.392 57.0454 100.197 58.7202 97.8934 60.2626C95.7372 61.7115 93.3016 62.5684 90.8041 63.2306C89.9354 63.4643 89.0667 63.6824 88.1824 63.7759C86.3209 63.955 84.599 64.7262 82.7917 65.1079C82.3884 65.1936 81.9851 65.2793 81.5895 65.4117C81.1319 65.5675 80.6742 65.4741 80.2864 65.1703C79.7357 64.734 79.2781 64.2121 78.8592 63.6434C77.8819 62.3269 77.2537 60.878 77.021 59.2266C76.7417 57.2557 76.2298 55.316 75.9118 53.353C75.5085 50.8758 75.5317 48.3752 75.6946 45.8825C75.9428 42.081 76.8891 38.4431 78.5102 35.0078C79.6271 32.6474 81.1706 30.5753 83.4278 29.1654C84.7851 28.3163 86.2899 28.3085 87.7946 28.7058C89.7492 29.2199 91.316 30.404 92.557 31.9152C93.8136 33.4342 94.3953 35.2571 94.1936 37.298C94.0463 38.708 93.8756 40.1102 93.4645 41.5591C94.2557 41.3721 94.8839 41.0294 95.52 40.7256C96.9316 40.0556 98.4054 39.5649 99.9411 39.3468C102.524 38.9728 104.541 40.1569 106.309 41.9018C106.736 42.3303 107.077 42.7665 107.333 43.2183H107.317Z" fill="#D42E1C"/>
<path d="M80.4493 55.1602C80.2942 55.4173 80.1391 55.5731 79.9762 55.6198C79.821 55.6744 79.6039 55.6198 79.3401 55.4562C79.1307 55.3238 78.9911 55.1758 78.9291 55.0044C78.867 54.833 78.9213 54.6071 79.0919 54.3267L81.7369 50.0033C81.6128 50.05 81.4887 50.089 81.3568 50.1202C81.2249 50.1591 81.0931 50.1825 80.9612 50.2136C80.2089 50.3772 79.8366 50.1513 79.8443 49.5281C79.8366 49.2711 79.8908 49.0685 80.0072 48.9283C80.1235 48.7881 80.3717 48.679 80.7596 48.6011C81.574 48.4531 82.2876 48.235 82.9081 47.9546C83.5208 47.6741 84.1103 47.3625 84.661 47.012C84.9015 46.8718 84.917 46.7316 84.6998 46.5991L83.1796 45.6643C82.9236 45.5085 82.784 45.3372 82.753 45.158C82.7219 44.9788 82.7917 44.7607 82.9469 44.5036C83.2416 44.0207 83.6139 43.9194 84.0715 44.1998L85.3436 44.9866C85.3126 44.8931 85.2971 44.7919 85.3048 44.6672C85.3203 44.3634 85.3281 44.083 85.3126 43.8181C85.3048 43.5611 85.2893 43.2884 85.2815 43.0158C85.2583 42.7821 85.3048 42.6029 85.4212 42.4783C85.5375 42.3536 85.7004 42.2757 85.8943 42.2524C86.127 42.229 86.3287 42.2835 86.507 42.4237C86.6854 42.564 86.7785 42.7509 86.8018 42.9924C86.8018 43.117 86.8173 43.2339 86.8251 43.3429C86.8251 43.452 86.8406 43.5689 86.8406 43.7013C86.8406 43.8337 86.8483 43.9817 86.8561 44.1531C86.8561 44.3245 86.8561 44.527 86.8638 44.7607C86.8638 44.971 86.8173 45.1502 86.701 45.2982C86.5846 45.4462 86.445 45.5319 86.2821 45.5709L86.3985 45.641C86.6622 45.8046 86.8483 45.9759 86.9569 46.1629C87.0655 46.3498 87.112 46.5368 87.0965 46.7316C87.081 46.9185 87.0035 47.1133 86.8638 47.308C86.7242 47.5028 86.5381 47.6741 86.3054 47.8377C85.9641 48.0636 85.6306 48.274 85.3048 48.4687C84.979 48.6634 84.6533 48.8426 84.3197 49.014C84.3973 49.3801 84.4671 49.7229 84.5214 50.0423C84.5757 50.3616 84.63 50.6577 84.6843 50.9303C84.7619 51.3042 84.7464 51.5769 84.6378 51.756C84.5369 51.9352 84.3275 52.0676 84.0095 52.1455C83.7225 52.2234 83.4898 52.1845 83.3269 52.0209C83.164 51.8573 83.0555 51.608 83.0322 51.2653C83.0167 51.2185 83.0012 51.1718 83.0089 51.1328C83.0089 51.0939 83.0089 51.0472 83.0167 51.0004L80.4648 55.1836L80.4493 55.1602ZM96.2336 50.0578C96.0862 50.3071 95.9233 50.4473 95.7527 50.5019C95.582 50.5486 95.3648 50.4863 95.0934 50.3227L89.121 46.6381C88.8495 46.4745 88.6944 46.3031 88.6633 46.1317C88.6323 45.9604 88.6866 45.75 88.8417 45.5007C88.9969 45.2515 89.1442 45.1268 89.3071 45.0801C89.47 45.0334 89.6872 45.0957 89.9586 45.2671L95.9311 48.9517C96.2025 49.1153 96.3577 49.2866 96.3887 49.4502C96.4275 49.6216 96.3732 49.8164 96.2258 50.0578H96.2336ZM90.1293 59.8731C89.8268 60.3639 89.532 60.6677 89.2373 60.7767C88.9426 60.8858 88.5547 60.7923 88.0894 60.5041L83.2726 57.5361C82.8073 57.2479 82.5513 56.9519 82.497 56.6325C82.4427 56.3131 82.5668 55.9081 82.8771 55.4017L84.9325 52.0365C85.2272 51.5535 85.5297 51.2575 85.84 51.1562C86.1503 51.0549 86.5381 51.1406 87.0035 51.4289L91.8202 54.3968C92.2933 54.685 92.5493 54.9888 92.5803 55.3082C92.6113 55.6276 92.4872 56.0249 92.1925 56.5079L90.137 59.8731H90.1293ZM93.6429 52.9401C93.3404 53.4387 93.0302 53.7113 92.7199 53.7502C92.4097 53.7892 92.0374 53.6724 91.5875 53.3997L87.9342 51.1484C87.4844 50.8758 87.2129 50.5876 87.112 50.2993C87.0112 50.0111 87.112 49.6138 87.4223 49.1075L87.8954 48.3285C88.1979 47.8299 88.5004 47.5573 88.8029 47.5261C89.0977 47.495 89.47 47.6118 89.9199 47.8845L93.5731 50.1357C93.7903 50.2682 93.9765 50.4006 94.1161 50.533C94.2557 50.6655 94.3565 50.8057 94.4108 50.9537C94.4651 51.1017 94.4729 51.2731 94.4263 51.46C94.3798 51.647 94.2867 51.8729 94.1316 52.1144L93.6352 52.9323L93.6429 52.9401ZM87.942 53.8204L86.5769 52.979C86.5071 52.9323 86.445 52.9089 86.4062 52.9089C86.3597 52.9089 86.3054 52.9479 86.2511 53.0492L85.7004 53.945L87.2749 54.9187L87.942 53.8204ZM86.4838 56.2041L84.9092 55.2303L84.3663 56.1106C84.312 56.1963 84.2887 56.2586 84.2965 56.3053C84.2965 56.3443 84.3508 56.391 84.4516 56.4533L85.8167 57.2947L86.4838 56.2041ZM92.6113 51.4133C92.6656 51.3276 92.6811 51.2575 92.6501 51.2185C92.6191 51.1796 92.5648 51.1328 92.4872 51.0861L89.5476 49.2711C89.4312 49.2009 89.3381 49.2243 89.2606 49.349L89.0046 49.7696C88.9426 49.8787 88.9658 49.9644 89.0822 50.0345L92.0761 51.8807C92.2002 51.9586 92.2856 51.9508 92.3399 51.8651L92.6113 51.4133ZM90.7653 55.8301C90.8274 55.7367 90.8429 55.6666 90.8274 55.6276C90.8041 55.5887 90.7731 55.5575 90.7188 55.5263L89.2761 54.6383L88.609 55.7367L90.2224 56.7338L90.7731 55.8379L90.7653 55.8301ZM89.4312 58.0191L87.8179 57.022L87.1508 58.1126L88.609 59.0084C88.7176 59.0707 88.8029 59.0474 88.8805 58.9227L89.439 58.0113L89.4312 58.0191Z" fill="white"/>
<path d="M11.3709 64.9054C11.3709 64.9054 -3.40505 70.4206 2.26487 78.0392C7.94255 85.6577 31.7159 83.2584 31.7159 83.2584L30.8239 78.2651" stroke="black" stroke-width="2.5" stroke-linecap="round" stroke-linejoin="round"/>
<path d="M35.9586 78.0469L31.7159 83.2584" stroke="black" stroke-width="2.5" stroke-linecap="round" stroke-linejoin="round"/>
<path d="M80.4648 71.2542C80.4648 71.2542 88.4694 76.0995 82.7917 83.718C77.114 91.3365 57.9557 87.1533 57.9557 87.1533L58.8477 82.16" stroke="black" stroke-width="2.5" stroke-linecap="round" stroke-linejoin="round"/>
<path d="M54.4809 83.3285L57.9558 87.1533" stroke="black" stroke-width="2.5" stroke-linecap="round" stroke-linejoin="round"/>
</g>
<defs>
<linearGradient id="paint0_linear_88_425" x1="70.2264" y1="23.2918" x2="7.40382" y2="125.067" gradientUnits="userSpaceOnUse">
<stop offset="0.07" stop-color="#FECC05"/>
<stop offset="0.49" stop-color="#FEDC15"/>
<stop offset="0.97" stop-color="#FFF52D"/>
</linearGradient>
<clipPath id="clip0_88_425">
<rect width="108" height="95" fill="white"/>
</clipPath>
</defs>
</svg>
