<svg width="111" height="123" viewBox="0 0 111 123" fill="none" xmlns="http://www.w3.org/2000/svg">
<g clip-path="url(#clip0_126_2111)">
<path d="M68.7042 122.424C68.8241 122.473 68.9581 122.494 69.0921 122.48C72.3781 122.199 74.6135 122.944 74.6346 122.951C75.0718 123.098 75.5514 122.867 75.6994 122.431C75.8475 121.996 75.6148 121.525 75.1776 121.371C75.086 121.342 73.2666 120.731 70.4812 120.745C74.3032 112.732 72.23 96.1708 72.1313 95.4263C72.0749 94.9698 71.6518 94.6467 71.1934 94.7029C70.7351 94.7591 70.4107 95.1805 70.4671 95.637C70.4883 95.8266 72.8153 114.396 68.3164 121.181C68.1401 121.448 68.133 121.792 68.2952 122.066C68.3939 122.227 68.535 122.347 68.7042 122.41V122.424Z" fill="black"/>
<path d="M29.765 113.476C29.8144 113.525 29.8637 113.561 29.9272 113.596C29.9484 113.61 31.9933 114.832 33.9114 117.473C34.1018 117.732 34.4191 117.859 34.7364 117.803C35.0537 117.747 35.3076 117.515 35.3993 117.206C37.6135 109.375 53.247 98.9871 53.4021 98.8888C53.79 98.636 53.8957 98.1162 53.6348 97.73C53.381 97.3437 52.8592 97.2383 52.4713 97.4982C51.8437 97.9126 37.9026 107.176 34.3133 115.288C32.501 113.181 30.851 112.205 30.7734 112.156C30.3715 111.924 29.8637 112.058 29.624 112.451C29.4265 112.788 29.49 113.209 29.765 113.469V113.476Z" fill="black"/>
<path d="M4.39318 91.0929C4.70345 91.0929 5.00667 91.2685 5.1477 91.5635L6.50867 94.3798C6.70612 94.7942 6.53688 95.2929 6.12083 95.4965C5.70478 95.6932 5.20412 95.5246 4.99962 95.1103L3.63865 92.2939C3.4412 91.8795 3.61044 91.3809 4.02649 91.1772C4.14637 91.121 4.26625 91.0929 4.38613 91.0929H4.39318Z" fill="black"/>
<path d="M31.7395 66.0687C32.0991 66.0687 32.3107 66.0757 32.353 66.0828C32.8113 66.1109 33.171 66.5042 33.1427 66.9607C33.1145 67.4172 32.7196 67.7684 32.2613 67.7473C32.2049 67.7473 26.4719 67.4804 20.3087 70.2968C12.0936 74.0473 7.01639 81.2251 5.21822 91.6197C5.21822 91.6478 5.20412 91.6829 5.19706 91.711L3.94187 96.0163C3.81494 96.4588 3.34953 96.7116 2.90528 96.5852C2.46102 96.4588 2.20717 95.9952 2.3341 95.5528L3.57519 91.2966C4.61883 85.2846 6.77663 80.2138 9.98513 76.2315C12.566 73.0218 15.831 70.5075 19.6741 68.7587C25.0757 66.3075 30.04 66.0758 31.7324 66.0758L31.7395 66.0687Z" fill="black"/>
<path d="M4.39318 91.0929C4.7246 91.0929 5.04193 91.2895 5.16886 91.6196C5.3381 92.0481 5.12655 92.5327 4.6964 92.7012L1.13532 94.1059C0.705165 94.2745 0.218601 94.0638 0.0493616 93.6354C-0.119878 93.2069 0.0916715 92.7223 0.521822 92.5538L4.0829 91.1491C4.18163 91.1069 4.2874 91.0929 4.39318 91.0929Z" fill="black"/>
<path d="M106.6 91.0929C106.72 91.0929 106.847 91.121 106.959 91.1772C107.375 91.3738 107.552 91.8725 107.347 92.2939L105.986 95.1103C105.789 95.5246 105.288 95.7002 104.865 95.4965C104.449 95.2999 104.273 94.8012 104.477 94.3869L105.838 91.5705C105.979 91.2685 106.282 91.0999 106.593 91.0999L106.6 91.0929Z" fill="black"/>
<path d="M79.2535 66.0687C80.9529 66.0687 85.9173 66.3004 91.3118 68.7516C95.162 70.5004 98.4199 73.0077 101.001 76.2244C104.209 80.2137 106.367 85.2775 107.411 91.2895L108.652 95.5457C108.779 95.9882 108.525 96.4517 108.081 96.5781C107.636 96.7045 107.171 96.4517 107.044 96.0092L105.789 91.7039C105.789 91.7039 105.775 91.6407 105.768 91.6126C103.962 81.19 98.8641 74.0051 90.6137 70.2616C84.4505 67.4663 78.781 67.7332 78.7246 67.7402C78.2592 67.7613 77.8714 67.4101 77.8431 66.9536C77.8149 66.4971 78.1746 66.1038 78.6329 66.0757C78.6752 66.0757 78.8868 66.0616 79.2464 66.0616L79.2535 66.0687Z" fill="black"/>
<path d="M106.6 91.0929C106.706 91.0929 106.804 91.114 106.91 91.1491L110.471 92.5538C110.901 92.7223 111.113 93.2069 110.944 93.6354C110.774 94.0638 110.288 94.2745 109.858 94.1059L106.297 92.7012C105.866 92.5327 105.655 92.0481 105.824 91.6196C105.951 91.2895 106.268 91.0929 106.6 91.0929Z" fill="black"/>
<path d="M39.1296 5.40095C39.1931 5.45012 39.2565 5.48523 39.32 5.52737L39.3482 5.54142C40.0181 5.93473 40.6598 6.38422 41.2521 6.92502C41.8304 7.47284 42.3593 8.0909 42.8388 8.75812C43.7837 10.1136 44.503 11.7009 45.0107 13.3795C45.5325 15.0581 45.8428 16.835 46.0191 18.633C46.1812 20.4239 46.2236 22.2781 46.0896 24.055V24.0831C46.0755 24.2235 46.1107 24.357 46.1742 24.4694C46.28 24.6449 46.4704 24.7714 46.689 24.7854C47.0274 24.8135 47.3236 24.5817 47.38 24.2587C47.7538 22.3553 47.9371 20.4801 47.9865 18.5627C48.0217 16.6453 47.923 14.7069 47.5634 12.7755C47.2178 10.837 46.6185 8.89858 45.6453 7.06549C45.1517 6.15948 44.5594 5.28156 43.8683 4.45982C43.1702 3.65214 42.3663 2.91469 41.499 2.26151C40.6386 1.61537 39.4117 1.78393 38.7488 2.64078C38.7488 2.64078 38.7488 2.6478 38.7418 2.65482C38.086 3.52572 38.2622 4.75481 39.1296 5.40095Z" fill="#C18017"/>
<g style="mix-blend-mode:multiply" opacity="0.33">
<path d="M39.1296 5.40099C39.1931 5.45015 39.2565 5.48527 39.32 5.52741L39.3482 5.54146C40.0181 5.93477 40.6598 6.38426 41.2521 6.92506C41.8304 7.47288 42.3593 8.09094 42.8388 8.75815C43.7837 10.1137 44.503 11.7009 45.0107 13.3795C45.5325 15.0581 45.8428 16.835 46.0191 18.633C46.1812 20.4239 46.2236 22.2781 46.0896 24.055V24.0831C46.0755 24.2236 46.1107 24.357 46.1742 24.4694C48.3602 10.2331 41.6541 4.43879 38.7488 2.63379C38.7488 2.63379 38.7488 2.64081 38.7418 2.64784C38.086 3.51873 38.2622 4.74782 39.1296 5.39397V5.40099Z" fill="#C18017"/>
</g>
<path d="M76.595 107.436C82.8216 106.776 86.7141 105.287 88.9777 103.117C97.5525 94.9276 82.8146 77.0672 83.3928 57.9215C84.1755 31.7525 69.3953 18.5626 51.752 17.6847C50.2782 17.6074 48.7833 17.6215 47.2813 17.7198C-1.56546 20.9014 16.6913 113.785 76.595 107.436Z" fill="url(#paint0_linear_126_2111)"/>
<path d="M8.33505 3.11831C12.693 9.26375 22.4101 19.0683 37.0564 12.1293C27.6848 -5.09199 13.511 0.442414 9.45626 2.50026C8.73699 2.86547 8.33505 3.11831 8.33505 3.11831Z" fill="#6A9E18"/>
<g style="mix-blend-mode:multiply" opacity="0.19">
<path d="M8.33505 3.1183C12.693 9.26373 22.4101 19.0683 37.0564 12.1293C37.0564 12.1293 18.2215 13.0002 9.45626 2.50024C8.73699 2.86546 8.33505 3.1183 8.33505 3.1183Z" fill="#6A9E18"/>
</g>
<g opacity="0.4">
<path d="M28.3335 35.0184C28.6649 33.3469 30.3362 30.8044 32.4517 28.7255C34.5672 26.6466 37.1269 25.0453 39.2777 24.0971C41.4214 23.149 43.1561 22.854 44.2561 23.1771C45.3562 23.5001 45.8287 24.4413 45.4126 25.4316C44.9966 26.4289 43.6991 27.4754 42.19 28.4516C40.681 29.4278 38.9674 30.3268 37.3737 31.7456C35.7871 33.1643 34.3204 35.1097 33.1145 36.2826C31.9087 37.4555 30.9708 37.8629 29.9907 37.6733C29.0105 37.4836 27.995 36.69 28.3265 35.0184H28.3335Z" fill="white"/>
<path d="M24.991 42.2384C24.3705 41.4939 24.1025 40.3842 24.4763 39.6046C24.85 38.825 25.8513 38.3896 26.8386 38.7056C27.8258 39.0217 28.7919 40.0963 28.9118 41.0585C29.0316 42.0207 28.3124 42.8775 27.4521 43.1163C26.5988 43.3551 25.6116 42.9829 24.991 42.2384Z" fill="white"/>
</g>
<path d="M52.0976 53.8128C52.3091 54.1148 52.6123 54.3465 52.9297 54.5362C54.0156 55.2034 55.3836 55.5335 56.5824 55.098C57.7812 54.6626 58.6697 53.3141 58.303 52.092C58.1126 51.4599 57.6402 50.9613 57.1818 50.4837C55.8914 49.1422 54.8759 48.777 53.2329 49.9569C52.154 50.7295 51.2514 52.5907 52.0976 53.8128Z" fill="white"/>
<path d="M35.5474 53.265C35.4204 54.2834 35.907 55.4071 36.8449 55.8215C37.55 56.1305 38.3751 56.0111 39.1155 55.7934C39.6937 55.6248 40.2649 55.4001 40.7303 55.0208C41.8515 54.1007 42.049 52.2606 41.1534 51.1229C39.2988 48.763 35.8647 50.7506 35.5474 53.265Z" fill="white"/>
<path d="M53.3669 49.7674C54.1143 49.6409 54.5163 50.0343 54.8266 50.6664C55.3061 51.6215 55.3695 51.6426 56.0606 50.856C56.6388 50.1888 57.3369 50.4627 57.9998 50.4837C58.2819 50.4908 58.1267 50.6945 57.9998 50.8279C57.4568 51.4108 56.801 51.8673 56.2016 52.3871C55.9689 52.5908 55.9266 52.7102 56.1382 52.963C56.6811 53.5951 56.9139 54.4028 57.2946 55.1262C57.4145 55.358 57.2946 55.5546 57.0337 55.5968C56.6106 55.66 56.1805 55.6389 55.7503 55.6038C55.6446 55.5968 55.5247 55.5616 55.5106 55.4282C55.4683 54.8804 55.0875 54.466 54.9323 53.9603C54.8336 53.6443 54.6291 53.4406 54.2765 53.7847C54.0156 54.0376 53.6771 54.1991 53.4444 54.4941C53.2611 54.7329 52.9931 54.6275 52.7604 54.6486C52.5348 54.6626 52.3021 54.6486 52.0764 54.6486C51.9213 54.6486 51.745 54.6697 51.6886 54.4871C51.6322 54.3045 51.8014 54.2202 51.9142 54.1289C52.5066 53.6794 53.0989 53.2158 53.7124 52.7944C53.9804 52.6118 54.0086 52.4503 53.8393 52.2045C53.3457 51.5021 53.1342 50.6172 52.4361 50.0413C52.2598 49.8938 52.4784 49.8236 52.57 49.8165C52.8239 49.7814 53.0848 49.7814 53.3457 49.7674H53.3669Z" fill="#242424"/>
<path d="M41.8445 54.6346C41.3227 54.754 40.8714 54.4941 40.4412 54.15C40.3918 54.1149 40.3425 54.0798 40.2931 54.0446C39.2565 53.3704 39.3411 53.3072 38.7629 54.5082C38.3046 55.4563 38.3539 55.4844 37.2821 55.4493C36.5769 55.4282 36.6122 55.4353 36.8167 54.7891C37.0212 54.15 37.4301 53.6373 37.7616 53.0754C37.9238 52.8085 37.8673 52.6821 37.6205 52.5416C36.9859 52.1905 36.3512 51.8253 35.7236 51.4671C35.6602 51.432 35.5685 51.4109 35.5756 51.3196C35.5756 51.2072 35.6813 51.1651 35.766 51.1651C36.5416 51.144 37.3385 50.9473 38.0084 51.5865C38.4385 51.9938 38.4738 51.9517 38.7629 51.453C39.045 50.9614 39.3341 50.4838 39.6021 49.9851C39.7149 49.7815 39.8489 49.634 40.0886 49.634C40.4835 49.634 40.8855 49.6199 41.2803 49.641C41.4637 49.648 41.647 49.6831 41.4637 49.9711C40.963 50.7647 40.5047 51.6005 40.004 52.3942C39.8418 52.647 39.8982 52.7594 40.1309 52.8788C40.9066 53.2651 41.7317 53.56 42.4016 54.1289C42.5355 54.2413 42.8106 54.3045 42.7612 54.4871C42.7048 54.6768 42.4439 54.5995 42.2676 54.6065C42.1477 54.6135 42.0208 54.6065 41.8374 54.6065L41.8445 54.6346Z" fill="#242424"/>
<path d="M64.9809 36.9357C64.8822 37.5959 64.9175 38.2561 64.9175 38.9163C64.9175 42.428 64.713 45.9326 64.5931 49.4443C64.5437 50.9122 64.5014 52.3871 64.4944 53.855C64.4944 54.5433 64.4873 54.5433 63.8245 54.5713C62.6186 54.6135 62.5904 54.6135 62.6186 53.4265C62.7174 49.5496 62.8443 45.6798 63.0417 41.8099C63.1193 40.342 63.0911 38.8671 63.077 37.3992C63.077 36.6056 63.2251 35.826 63.1616 35.0324C63.1969 34.5126 63.2392 33.9999 63.2674 33.4802C63.2815 33.1993 63.4225 33.0869 63.6834 33.0869C64.1418 33.0869 64.7059 32.9394 65.0232 33.1571C65.3617 33.3889 65.0585 33.9719 65.0585 34.3933C65.0585 35.2431 65.0091 36.0929 64.9809 36.9427V36.9357Z" fill="#242424"/>
<path d="M57.753 33.3819C57.7953 35.7488 57.6543 38.1156 57.7953 40.4825C57.9363 42.7721 57.9857 45.2022 57.894 47.5059C57.8729 48.0818 57.7248 48.2222 57.1466 48.2433C56.5613 48.2644 55.7362 48.3978 55.8067 47.562C56.0183 44.9915 56.0747 42.2664 55.8843 39.6889C55.8138 38.7126 55.8491 37.7364 55.8632 36.7601C55.8773 35.517 55.9055 34.2739 55.8279 33.0307C55.8279 32.6374 55.842 32.2511 55.8491 31.8578C55.8538 31.3428 56.1076 31.0572 56.6106 31.001C56.7728 31.001 56.928 31.001 57.0901 31.001C57.7459 31.0712 57.7389 31.0712 57.7318 31.7384C57.7318 32.2862 57.753 32.8411 57.7601 33.3889L57.753 33.3819Z" fill="#242424"/>
<path d="M71.2005 45.7219C71.0665 46.347 71.0524 46.9791 71.0383 47.6112C71.0101 48.8473 70.8268 50.0694 70.6928 51.2914C70.6575 51.6075 70.5235 51.7479 70.178 51.769C68.7042 51.8463 68.7254 51.8252 68.9299 50.2309C69.2542 47.7727 69.3036 45.2865 69.4517 42.8142C69.4658 42.2172 69.4799 41.6132 69.4869 41.0163C69.494 39.2604 69.494 37.5046 69.501 35.7487C69.501 35.0253 69.5998 34.92 70.312 34.9059C70.6575 34.9059 71.0736 34.8146 71.3415 34.9691C71.6871 35.1658 71.3697 35.5872 71.3697 35.9103C71.3556 38.5019 71.4473 41.1005 71.3063 43.6922C71.271 44.3734 71.1582 45.0477 71.2005 45.7289V45.7219Z" fill="#242424"/>
<path d="M46.6396 61.075C47.5563 61.2646 48.4378 61.5034 48.7621 62.29C48.8397 62.4726 48.9173 62.5779 49.2135 62.5288C49.6154 62.4656 50.0173 62.585 50.4263 62.585C50.1654 63.3856 49.9468 64.2003 49.157 64.8254C48.7692 65.1345 48.4801 65.1345 48.057 64.8676C47.0839 64.2425 46.5902 63.4488 46.6184 62.4796C46.6325 62.0161 46.6325 61.5455 46.6396 61.082V61.075Z" fill="#F36749"/>
<path d="M51.336 58.1673C50.1231 56.9663 48.3743 56.7696 46.5197 56.9592C46.1671 56.9944 45.744 57.1559 45.6312 57.4509C45.5113 57.7669 45.3632 58.083 45.2716 58.4061C44.9543 59.4736 44.7004 60.5412 44.7498 61.6017C44.7498 61.9107 44.7498 62.1916 44.7498 62.4656C44.7498 63.5682 45.3421 64.4532 46.4986 65.1204C46.6749 65.2257 46.8653 65.2889 47.0909 65.3241C47.9371 65.4294 48.7904 65.4083 49.6366 65.3873C50.3488 65.3732 50.8565 65.1063 51.2443 64.6779C51.8649 64.0037 52.1117 63.2241 52.3303 62.4375C52.5136 61.7773 52.3867 61.096 52.4502 60.4288C52.5348 59.5298 51.9777 58.8064 51.3289 58.1602L51.336 58.1673ZM50.4263 62.585C50.1654 63.3856 49.9468 64.2003 49.157 64.8254C48.7692 65.1344 48.4801 65.1344 48.057 64.8675C47.0839 64.2425 46.5902 63.4488 46.6184 62.4796C46.6325 62.0161 46.6325 61.5455 46.6396 61.082C46.6678 59.8739 46.8935 58.7081 47.5916 57.6054C47.7538 57.3526 47.923 57.3104 48.2474 57.4649C49.7423 58.1743 50.5815 59.1716 50.6097 60.5271C50.6238 61.2154 50.6872 61.9177 50.4334 62.592L50.4263 62.585Z" fill="#242424"/>
<path d="M97.8968 29.0142C97.7762 29.906 97.4369 30.55 96.8788 30.946C96.3493 31.3795 95.6385 31.5364 94.7465 31.4168L93.6563 31.2706C92.7643 31.151 92.104 30.8102 91.6754 30.2482C91.2754 29.7238 91.1356 29.0156 91.2562 28.1237L91.4036 27.0336C91.5241 26.1417 91.8469 25.4955 92.372 25.0951C92.9345 24.6661 93.6618 24.5114 94.5538 24.631L95.644 24.7772C96.5361 24.8968 97.1798 25.2354 97.5754 25.7929C98.0084 26.3218 98.1647 27.0322 98.0441 27.9241L97.8968 29.0142ZM88.4106 4.38491C88.616 2.86539 89.1616 1.44195 90.0474 0.114567C90.9377 -1.24585 92.094 -2.33516 93.5164 -3.15337C94.9389 -3.97157 96.5202 -4.34808 98.2605 -4.28287C98.9302 -4.26033 99.4467 -4.2247 99.8102 -4.17597C101.892 -3.89686 103.698 -3.20061 105.229 -2.08721C106.765 -1.00685 107.89 0.371632 108.606 2.04822C109.325 3.69178 109.558 5.455 109.303 7.33787C109.107 8.79132 108.621 10.021 107.846 11.0269C107.108 12.0042 106.263 12.7821 105.311 13.3606C104.358 13.9391 102.848 14.7793 100.782 15.8811C99.6972 16.4419 98.9761 17.4214 98.6189 18.8197C98.4501 19.5706 98.134 20.1672 97.6706 20.6095C97.2402 21.0563 96.6879 21.2849 96.0138 21.2954L95.016 21.2121C94.2141 21.1718 93.5802 20.885 93.1141 20.3517C92.6525 19.7853 92.4775 19.0892 92.5891 18.2634C92.7945 16.7439 93.2883 15.3303 94.0705 14.0226C94.8572 12.682 96.1734 11.53 98.0191 10.5668C98.7093 10.1885 99.2683 9.91031 99.696 9.73224C101.101 9.04616 102.053 8.46766 102.554 7.99672C103.088 7.53022 103.361 6.87741 103.374 6.0383C103.416 4.73229 103.128 3.752 102.51 3.0974C101.925 2.44724 100.956 2.03134 99.6011 1.8497C99.3037 1.80983 98.7872 1.77419 98.0514 1.74279C97.0139 1.70456 96.2227 1.83389 95.6781 2.1308C95.1709 2.39911 94.7945 2.81948 94.5489 3.39192C94.3409 3.93576 94.1257 4.78132 93.9033 5.92862C93.7765 6.61788 93.5091 7.1033 93.101 7.3849C92.7304 7.63789 92.1938 7.75091 91.4911 7.72394L90.6285 7.75962C89.6945 7.70164 89.0418 7.42914 88.6704 6.94212C88.332 6.45953 88.2454 5.60712 88.4106 4.38491Z" fill="white"/>
</g>
<defs>
<linearGradient id="paint0_linear_126_2111" x1="29.9272" y1="20.473" x2="86.3553" y2="112.653" gradientUnits="userSpaceOnUse">
<stop stop-color="#79AED7"/>
<stop offset="0.25" stop-color="#E7DF05"/>
<stop offset="0.59" stop-color="#F1E415"/>
<stop offset="0.97" stop-color="#FFEB2D"/>
</linearGradient>
<clipPath id="clip0_126_2111">
<rect width="111" height="123" fill="white"/>
</clipPath>
</defs>
</svg>
