<svg width="117" height="131" viewBox="0 0 117 131" fill="none" xmlns="http://www.w3.org/2000/svg">
<g clip-path="url(#clip0_152_95)">
<path d="M42.6862 130.385C42.5566 130.438 42.4117 130.461 42.2667 130.446C38.7127 130.142 36.2951 130.947 36.2722 130.955C35.7994 131.114 35.2808 130.863 35.1206 130.392C34.9604 129.922 35.2121 129.413 35.685 129.245C35.7841 129.215 37.7518 128.554 40.7643 128.569C36.6307 119.902 38.8729 101.991 38.9797 101.186C39.0407 100.692 39.4983 100.343 39.994 100.404C40.4897 100.464 40.8406 100.92 40.7796 101.414C40.7567 101.619 38.2399 121.703 43.1057 129.04C43.2963 129.329 43.304 129.701 43.1286 129.997C43.0218 130.172 42.8693 130.301 42.6862 130.37V130.385Z" fill="black"/>
<path d="M84.8004 120.708C84.7471 120.761 84.6937 120.799 84.625 120.837C84.6022 120.852 82.3904 122.174 80.316 125.03C80.1101 125.311 79.7669 125.448 79.4237 125.387C79.0805 125.326 78.8059 125.075 78.7068 124.741C76.312 116.272 59.4038 105.037 59.236 104.931C58.8165 104.657 58.7021 104.095 58.9843 103.677C59.2589 103.26 59.8233 103.146 60.2427 103.427C60.9215 103.875 75.9993 113.894 79.8813 122.667C81.8413 120.389 83.6259 119.333 83.7098 119.28C84.1446 119.029 84.6937 119.173 84.953 119.599C85.1665 119.963 85.0979 120.419 84.8004 120.7V120.708Z" fill="black"/>
<path d="M112.241 42.1956C111.905 42.1956 111.577 42.0057 111.425 41.6791L109.953 38.6179C109.739 38.1697 109.922 37.6228 110.372 37.4025C110.822 37.1822 111.364 37.3721 111.585 37.8279L113.057 40.8891C113.271 41.3372 113.088 41.8841 112.638 42.1044C112.508 42.1652 112.378 42.1956 112.249 42.1956H112.241Z" fill="black"/>
<path d="M82.6649 69.4348C82.276 69.4348 82.0472 69.4272 82.0014 69.4196C81.5057 69.3892 81.1167 68.9638 81.1472 68.4625C81.1778 67.9611 81.6048 67.5813 82.1006 67.6041C82.1616 67.6041 88.362 67.8928 95.0277 64.824C103.913 60.7374 109.404 52.9287 111.349 41.6183C111.349 41.588 111.364 41.55 111.372 41.5196L112.729 36.8329C112.866 36.3543 113.37 36.0733 113.85 36.2176C114.331 36.3543 114.605 36.8633 114.468 37.3418L113.126 41.9753C111.997 48.5155 109.663 54.0377 106.193 58.375C103.402 61.8692 99.8706 64.6037 95.7141 66.5103C89.8721 69.1765 84.503 69.4348 82.6726 69.4348H82.6649Z" fill="black"/>
<path d="M112.241 42.1956C111.883 42.1956 111.539 41.9753 111.402 41.6259C111.219 41.1626 111.448 40.6308 111.913 40.4485L115.764 38.9142C116.23 38.7319 116.756 38.9597 116.939 39.4231C117.122 39.8864 116.893 40.4182 116.428 40.6005L112.577 42.1348C112.47 42.1804 112.355 42.1956 112.241 42.1956Z" fill="black"/>
<path d="M4.75141 85.6218C4.62176 85.6218 4.48448 85.6446 4.36245 85.6978C3.91248 85.8877 3.72182 86.3586 3.94299 86.7536L5.41493 89.4274C5.62847 89.8224 6.16996 89.9895 6.62756 89.7996C7.07753 89.6097 7.2682 89.1388 7.04702 88.7438L5.57509 86.07C5.42255 85.7889 5.09461 85.6218 4.75904 85.6218H4.75141Z" fill="black"/>
<path d="M34.3274 61.8389C32.4894 61.8389 27.1203 62.0592 21.2859 64.3911C17.1218 66.0471 13.5983 68.4398 10.8069 71.4934C7.33681 75.2838 5.00307 80.0996 3.87433 85.8118L2.53204 89.8604C2.39476 90.2782 2.66932 90.7187 3.1498 90.8403C3.63028 90.9618 4.13363 90.7187 4.27091 90.301L5.62845 86.2143C5.62845 86.2143 5.6437 86.1536 5.65133 86.1308C7.60375 76.2256 13.1178 69.3969 22.0409 65.8344C28.7066 63.1758 34.8384 63.434 34.8994 63.434C35.4028 63.4568 35.8222 63.1226 35.8527 62.682C35.8833 62.2415 35.4943 61.8693 34.9986 61.8465C34.9528 61.8465 34.724 61.8313 34.3351 61.8313L34.3274 61.8389Z" fill="black"/>
<path d="M4.75138 85.6219C4.63698 85.6219 4.53021 85.637 4.41581 85.675L0.564368 87.0119C0.0991443 87.1714 -0.129654 87.6348 0.0533845 88.045C0.236423 88.4552 0.76266 88.6526 1.22788 88.4855L5.07933 87.1486C5.54455 86.9891 5.77335 86.5258 5.59031 86.1156C5.45303 85.8042 5.10983 85.6143 4.75138 85.6143V85.6219Z" fill="black"/>
<path d="M74.6723 3.81319C74.6036 3.86636 74.535 3.90434 74.4664 3.94992L74.4359 3.96511C73.7113 4.39048 73.0173 4.87662 72.3767 5.46151C71.7513 6.054 71.1793 6.72244 70.6607 7.44406C69.6387 8.91008 68.8608 10.6268 68.3117 12.4422C67.7473 14.2576 67.4117 16.1794 67.2211 18.124C67.0457 20.061 66.9999 22.0663 67.1448 23.9881V24.0185C67.1601 24.1704 67.1219 24.3147 67.0533 24.4362C66.9389 24.6261 66.733 24.7629 66.4965 24.778C66.1305 24.8084 65.8101 24.5578 65.7491 24.2084C65.3449 22.1498 65.1466 20.1217 65.0932 18.048C65.0551 15.9743 65.1619 13.8778 65.5508 11.789C65.9245 9.69246 66.5728 7.59598 67.6253 5.61343C68.1591 4.63355 68.7998 3.68406 69.5472 2.79533C70.3022 1.92179 71.1717 1.12422 72.1097 0.417792C73.0402 -0.281036 74.3672 -0.0987331 75.0841 0.827975C75.0841 0.827975 75.0841 0.83557 75.0917 0.843166C75.801 1.78507 75.6104 3.11436 74.6723 3.81319Z" fill="#C18017"/>
<g style="mix-blend-mode:multiply" opacity="0.33">
<path d="M74.6723 3.81324C74.6036 3.86642 74.535 3.9044 74.4664 3.94997L74.4358 3.96516C73.7113 4.39054 73.0173 4.87668 72.3767 5.46157C71.7513 6.05405 71.1793 6.7225 70.6607 7.44412C69.6387 8.91014 68.8608 10.6268 68.3117 12.4423C67.7473 14.2577 67.4117 16.1795 67.2211 18.124C67.0457 20.061 66.9999 22.0663 67.1448 23.9881V24.0185C67.1601 24.1704 67.1219 24.3148 67.0533 24.4363C64.689 9.03927 71.9419 2.7726 75.0841 0.820435C75.0841 0.820435 75.0841 0.828031 75.0917 0.835626C75.801 1.77753 75.6104 3.10682 74.6723 3.80565V3.81324Z" fill="#C18017"/>
</g>
<path d="M34.1597 114.175C27.4253 113.461 23.2154 111.851 20.7673 109.503C11.4933 100.647 27.433 81.33 26.8076 60.6234C25.961 32.3208 41.9464 18.0556 61.0282 17.1061C62.6222 17.0226 64.239 17.0377 65.8635 17.1441C118.693 20.5775 98.9478 121.034 34.1597 114.167V114.175Z" fill="url(#paint0_linear_152_95)"/>
<path d="M105.324 17.4935C96.9496 21.3143 80.6744 25.7124 69.4938 9.457C89.9789 -2.97 101.51 11.5079 104.515 16.1566C105.049 16.977 105.316 17.4935 105.316 17.4935H105.324Z" fill="#6A9E18"/>
<g style="mix-blend-mode:multiply" opacity="0.19">
<path d="M105.324 17.4936C96.9496 21.3143 80.6744 25.7124 69.4938 9.45703C69.4938 9.45703 88.8196 21.8688 104.515 16.1567C105.049 16.977 105.316 17.4936 105.316 17.4936H105.324Z" fill="#6A9E18"/>
</g>
<g opacity="0.4">
<path d="M41.3591 35.3592C41.8396 33.5817 43.8302 30.9535 46.2707 28.8722C48.7112 26.791 51.5941 25.2414 53.9736 24.3754C56.3607 23.5095 58.2521 23.3196 59.4113 23.745C60.5782 24.1703 61.0129 25.2262 60.4943 26.2668C59.9757 27.3075 58.4962 28.3481 56.7954 29.29C55.0947 30.2319 53.1804 31.0751 51.3576 32.4879C49.5349 33.9008 47.8113 35.8909 46.4308 37.0683C45.0428 38.2457 43.9979 38.6179 42.9531 38.3444C41.9083 38.0634 40.871 37.1367 41.3515 35.3592H41.3591Z" fill="white"/>
<path d="M37.2255 42.902C36.6078 42.0513 36.4095 40.8359 36.8671 40.0231C37.3247 39.2104 38.4382 38.8154 39.483 39.2256C40.5202 39.6357 41.4888 40.8663 41.5422 41.9145C41.6032 42.9628 40.7567 43.8287 39.8186 44.0262C38.8805 44.2237 37.8433 43.7452 37.2255 42.8944V42.902Z" fill="white"/>
</g>
<path d="M48.9934 56.9774C48.9934 55.7773 48.0248 54.7974 46.8198 54.7898C45.6148 54.7898 44.631 55.7545 44.6234 56.9546C44.6234 58.1548 45.5919 59.1347 46.7969 59.1423C48.0019 59.1423 48.9858 58.1776 48.9934 56.9774Z" fill="#E53C0E"/>
<path d="M77.0441 57.1141C77.0441 55.914 78.0279 54.9417 79.2406 54.9493C80.4456 54.9493 81.4218 55.9291 81.4142 57.1369C81.4142 58.3371 80.4303 59.3093 79.2177 59.3018C78.0127 59.3018 77.0365 58.3219 77.0441 57.1141Z" fill="#E53C0E"/>
<path d="M59.3351 50.3992C59.2894 49.5181 58.8851 48.8269 58.0386 48.4167C56.9022 47.8698 55.7048 48.0065 54.5303 48.128C53.7143 48.2116 52.8677 48.3027 52.1432 48.7889C51.6932 49.0851 51.4187 49.4421 51.4263 50.0042C51.4492 51.0677 51.4111 52.1311 51.5407 53.1869C51.6475 54.0529 52.0822 54.5086 52.944 54.5694C53.8287 54.6302 54.721 54.6682 55.6057 54.7137C56.62 54.7137 57.6344 54.7137 58.6106 54.3719C58.8851 54.2732 59.1063 54.1592 59.1368 53.8478C59.2512 52.7008 59.3885 51.5538 59.3351 50.4068V50.3992Z" fill="white"/>
<path d="M53.905 53.9314C53.5923 53.7491 53.394 53.4756 53.3863 53.1186C53.3863 52.0931 53.3024 51.0677 53.4397 50.0422C53.5007 49.5713 53.76 49.3814 54.2176 49.3434C55.11 49.2598 55.987 49.3586 56.8717 49.4725C57.0776 49.4953 57.1691 49.5637 57.2454 49.8143C57.6115 51.0373 57.4361 52.2678 57.4056 53.4984C57.4056 53.7491 57.2225 53.863 57.009 53.9465C56.887 54.0149 56.7344 53.9693 56.6124 54.0301C56.3989 54.0529 56.1777 54.0377 55.9641 54.0985C55.8879 54.0985 55.804 54.1137 55.743 54.0377C55.5981 54.0377 55.4455 54.0377 55.3006 54.0377C54.8278 54.0909 54.3625 54.0681 53.905 53.939V53.9314Z" fill="#242424"/>
<path d="M77.0365 49.7232C76.9907 48.8421 76.5865 48.1508 75.7399 47.7407C74.6036 47.1937 73.4062 47.3305 72.2317 47.452C71.4156 47.5356 70.5691 47.6267 69.8446 48.1129C69.3946 48.4091 69.12 48.7661 69.1277 49.3282C69.1505 50.3916 69.1124 51.4551 69.2421 52.5109C69.3488 53.3769 69.7835 53.8326 70.6454 53.8934C71.53 53.9541 72.4224 53.9921 73.307 54.0377C74.3214 54.0377 75.3357 54.0377 76.3119 53.6959C76.5865 53.5971 76.8077 53.4832 76.8382 53.1718C76.9526 52.0248 77.0899 50.8778 77.0365 49.7308V49.7232Z" fill="white"/>
<path d="M71.6064 53.2553C71.2937 53.073 71.0954 52.7996 71.0878 52.4426C71.0878 51.4171 71.0039 50.3917 71.1411 49.3662C71.2022 48.8952 71.4615 48.7053 71.9191 48.6674C72.8114 48.5838 73.6884 48.6826 74.5731 48.7965C74.779 48.8193 74.8706 48.8877 74.9468 49.1383C75.3129 50.3613 75.1375 51.5918 75.107 52.8224C75.107 53.073 74.9239 53.187 74.7104 53.2705C74.5884 53.3389 74.4358 53.2933 74.3138 53.3541C74.1003 53.3769 73.8791 53.3617 73.6656 53.4224C73.5893 53.4224 73.5054 53.4376 73.4444 53.3617C73.2995 53.3617 73.1469 53.3617 73.002 53.3617C72.5292 53.4148 72.064 53.3921 71.6064 53.2629V53.2553Z" fill="#242424"/>
<path d="M60.5477 57.0989C60.6011 58.4662 61.8443 60.0841 62.5917 60.4867C63.3391 60.8893 66.3897 60.6234 67.1905 60.236C67.9684 59.8562 68.7006 58.9827 68.6014 57.6686" stroke="black" stroke-width="3" stroke-linecap="round" stroke-linejoin="round"/>
</g>
<defs>
<linearGradient id="paint0_linear_152_95" x1="84.6784" y1="20.0533" x2="23.6424" y2="119.742" gradientUnits="userSpaceOnUse">
<stop offset="0.07" stop-color="#FECC05"/>
<stop offset="0.49" stop-color="#FEDC15"/>
<stop offset="0.97" stop-color="#FFF52D"/>
</linearGradient>
<clipPath id="clip0_152_95">
<rect width="117" height="131" fill="white"/>
</clipPath>
</defs>
</svg>
