<svg width="113" height="95" viewBox="0 0 113 95" fill="none" xmlns="http://www.w3.org/2000/svg">
<g clip-path="url(#clip0_88_372)">
<path d="M92.4212 71.0373C92.4212 71.0373 115.369 74.8142 111.613 82.2746C107.857 89.735 90.0369 91.8566 90.0369 91.8566L92.6628 96.3406" stroke="black" stroke-width="2.5" stroke-linecap="round" stroke-linejoin="round"/>
<path d="M79.4086 3.90119C79.3385 3.95559 79.2684 3.99444 79.1982 4.04107L79.1671 4.05661C78.4268 4.4918 77.7178 4.98917 77.0632 5.58756C76.4243 6.19372 75.8399 6.87759 75.31 7.61586C74.2659 9.11572 73.4711 10.872 72.9101 12.7294C72.3335 14.5867 71.9906 16.5528 71.7958 18.5423C71.6166 20.524 71.5698 22.5756 71.7179 24.5417V24.5728C71.7335 24.7282 71.6945 24.8759 71.6244 25.0002C71.5075 25.1945 71.2971 25.3344 71.0556 25.3499C70.6816 25.381 70.3543 25.1246 70.292 24.7671C69.879 22.6611 69.6764 20.5861 69.6218 18.4646C69.5829 16.343 69.692 14.1981 70.0894 12.061C70.4712 9.91616 71.1335 7.77129 72.2088 5.74298C72.7542 4.74049 73.4088 3.76907 74.1724 2.85983C74.9438 1.96614 75.8321 1.15015 76.7905 0.427422C77.7411 -0.287537 79.0969 -0.101026 79.8294 0.847071C79.8294 0.847071 79.8294 0.854842 79.8372 0.862614C80.5618 1.82625 80.367 3.18623 79.4086 3.90119V3.90119Z" fill="#C18017"/>
<g style="mix-blend-mode:multiply" opacity="0.33">
<path d="M79.4087 3.90118C79.3385 3.95558 79.2684 3.99444 79.1983 4.04107L79.1671 4.05661C78.4269 4.4918 77.7178 4.98916 77.0632 5.58755C76.4243 6.19371 75.8399 6.87759 75.31 7.61586C74.2659 9.11572 73.4711 10.872 72.9101 12.7294C72.3335 14.5867 71.9906 16.5528 71.7958 18.5423C71.6166 20.524 71.5699 22.5756 71.7179 24.5417V24.5728C71.7335 24.7282 71.6945 24.8759 71.6244 25.0002C69.2089 9.24783 76.6191 2.83652 79.8294 0.839298C79.8294 0.839298 79.8294 0.84707 79.8372 0.854841C80.5619 1.81848 80.3671 3.17846 79.4087 3.89341V3.90118Z" fill="#C18017"/>
</g>
<path d="M38.0174 116.81C31.137 116.08 26.8358 114.432 24.3346 112.031C14.8594 102.97 31.1448 83.2072 30.5058 62.0226C29.6409 33.0668 45.973 18.4723 65.4687 17.5009C67.0972 17.4155 68.7491 17.431 70.4088 17.5398C124.384 21.0524 104.211 123.828 38.0174 116.802V116.81Z" fill="url(#paint0_linear_88_372)"/>
<path d="M110.725 17.8973C102.169 21.8062 85.5409 26.3058 74.1178 9.67525C95.0472 -3.03857 106.829 11.7735 109.899 16.5295C110.444 17.3688 110.717 17.8973 110.717 17.8973H110.725Z" fill="#6A9E18"/>
<g style="mix-blend-mode:multiply" opacity="0.19">
<path d="M110.725 17.8973C102.169 21.8062 85.5409 26.3058 74.1178 9.67525C74.1178 9.67525 93.8628 22.3735 109.899 16.5295C110.444 17.3688 110.717 17.8973 110.717 17.8973H110.725Z" fill="#6A9E18"/>
</g>
<g opacity="0.4">
<path d="M45.373 36.1753C45.8639 34.3569 47.8976 31.668 50.3911 29.5387C52.8845 27.4093 55.8299 25.824 58.261 24.9381C60.6999 24.0521 62.6324 23.8578 63.8168 24.293C65.0089 24.7282 65.4531 25.8084 64.9232 26.8731C64.3934 27.9378 62.8817 29.0024 61.1441 29.9661C59.4065 30.9297 57.4507 31.7923 55.5884 33.2378C53.7261 34.6832 51.9651 36.7193 50.5547 37.9239C49.1366 39.1284 48.0691 39.5092 47.0016 39.2295C45.9341 38.9419 44.8743 37.9938 45.3652 36.1753H45.373Z" fill="white"/>
<path d="M41.1497 43.8922C40.5186 43.0218 40.316 41.7784 40.7835 40.9469C41.251 40.1154 42.3887 39.7113 43.4562 40.1309C44.5159 40.5506 45.5055 41.8095 45.56 42.882C45.6224 43.9544 44.7575 44.8403 43.799 45.0424C42.8406 45.2444 41.7809 44.7548 41.1497 43.8845V43.8922Z" fill="white"/>
</g>
<path d="M55.1754 55.1295C55.1754 53.9016 54.1858 52.8991 52.9547 52.8914C51.7235 52.8914 50.7184 53.8783 50.7106 55.1062C50.7106 56.3341 51.7002 57.3366 52.9313 57.3443C54.1624 57.3443 55.1676 56.3574 55.1754 55.1295Z" fill="#E53C0E"/>
<path d="M83.8345 55.2694C83.8345 54.0415 84.8396 53.0468 86.0786 53.0546C87.3097 53.0546 88.3071 54.0571 88.2993 55.2927C88.2993 56.5206 87.2941 57.5153 86.0552 57.5075C84.824 57.5075 83.8267 56.505 83.8345 55.2694Z" fill="#E53C0E"/>
<path d="M83.5228 52.1065C82.7981 52.3707 82.0657 52.3396 81.38 52.1997C79.6813 51.8423 77.9749 51.5003 76.4009 50.7154C76.2217 50.6299 76.0347 50.5522 75.871 50.4434C75.2555 50.0549 75.1775 49.6197 75.6606 49.0524C76.2217 48.3996 76.9775 47.9722 77.6866 47.4981C78.2164 47.1484 78.7774 46.8375 79.245 46.4024C80.0008 45.7029 80.8969 45.8972 81.7774 45.9205C81.8709 45.9205 82.0111 45.9672 82.0111 46.0993C82.0111 46.2314 81.8787 46.2469 81.793 46.3091C80.554 47.1639 79.3151 48.0188 78.0762 48.8736C78.006 48.928 77.9359 48.9902 77.8736 49.0601C77.3203 49.6352 77.3827 49.9849 78.0995 50.3346C79.6112 51.0729 81.2397 51.4226 82.8605 51.7801C83.0864 51.8345 83.328 51.85 83.5228 52.0987V52.1065Z" fill="#242424"/>
<path d="M77.4528 56.4662C77.4217 55.2228 76.6658 54.4456 75.4503 54.399C75.3022 54.399 75.162 54.399 75.0139 54.399C74.3594 54.3757 73.7049 54.4379 73.0659 54.5855C71.1958 55.0129 69.3258 55.4559 67.4557 55.8833C65.9518 56.2253 64.4324 56.4584 62.9753 56.9868C62.609 57.119 62.4844 57.2666 62.6168 57.6474C62.7649 58.0904 62.8584 58.5566 62.9675 59.0151C63.3493 60.6471 63.8168 62.2402 64.9155 63.5769C65.3596 64.1209 65.8583 64.5716 66.505 64.8669C68.2816 65.6751 70.1283 66.087 72.0608 65.7295C73.3776 65.4809 74.5698 64.9446 75.2477 63.6779C75.5516 63.1028 75.8711 62.5278 76.1048 61.9216C76.7905 60.1653 77.5074 58.4168 77.4528 56.4817V56.4662ZM75.2087 57.9505C75.0841 58.782 74.7412 59.5825 74.4919 60.3984C74.0789 61.774 73.5334 63.1106 72.6218 64.2297C71.788 65.2555 70.5335 65.4187 69.1154 64.898C67.2063 64.1908 66.2167 62.7065 65.6479 60.8569C65.196 59.8389 65.1103 58.7121 64.783 57.6552C64.6661 57.2899 65.0012 57.2433 65.2271 57.1656C66.2245 56.8159 67.2609 56.6527 68.2894 56.4195C70.2686 55.9766 72.2478 55.5258 74.2114 55.044C74.5854 54.9508 74.7646 55.0518 74.9516 55.3549C75.4659 56.1864 75.3256 57.0956 75.2009 57.9505H75.2087Z" fill="#242424"/>
<path d="M65.7414 48.3996C65.6946 47.4981 65.2816 46.7909 64.4167 46.3713C63.2557 45.8117 62.0324 45.9516 60.8324 46.076C59.9987 46.1614 59.1337 46.2547 58.3935 46.7521C57.9338 47.0551 57.6533 47.4204 57.661 47.9955C57.6844 49.0834 57.6455 50.1714 57.7779 51.2516C57.887 52.1376 58.3312 52.6038 59.2117 52.666C60.1155 52.7282 61.0272 52.767 61.9311 52.8137C62.9674 52.8137 64.0038 52.8137 65.0011 52.464C65.2816 52.3629 65.5076 52.2464 65.5388 51.9277C65.6557 50.7543 65.7959 49.5808 65.7414 48.4073V48.3996Z" fill="white"/>
<path d="M96.2082 56.948C95.803 56.9946 95.3901 57.0257 94.9849 57.0335C95.0862 54.0415 93.2862 50.6532 91.2914 48.454C90.2006 47.2494 88.9772 46.1925 87.4188 45.6097C87.263 45.5553 87.1149 45.4853 86.9669 45.4154C86.8266 45.3455 86.6084 45.2988 86.6162 45.1123C86.624 44.9258 86.8344 44.8947 86.9902 44.8403C89.172 44.1409 90.9564 42.7188 92.2343 40.8381C93.6368 38.7709 94.268 36.595 94.8446 34.2247C95.5771 34.1548 96.5666 33.6963 97.2757 34.0149C97.8367 34.2714 97.6264 34.8931 97.6342 35.4837C97.642 36.5794 97.7277 37.6597 97.9848 38.7165C98.2965 39.991 99.0835 40.978 100.089 41.7551C101.476 42.812 102.754 44.0088 104.25 44.9258C104.881 45.3144 105.566 45.5397 106.244 45.804C106.424 45.8739 106.665 45.9438 106.696 46.1537C106.735 46.4101 106.463 46.449 106.307 46.5422C104.46 47.5991 102.715 48.8348 101.359 50.4434C100.541 51.4148 99.6835 52.3629 98.9978 53.4354C98.7952 53.754 97.6887 56.676 97.5562 56.7071C97.1121 56.8159 96.6602 56.8936 96.2082 56.948V56.948Z" fill="#FFB431"/>
<path d="M60.1935 52.0132C59.874 51.8267 59.6714 51.5469 59.6636 51.1817C59.6636 50.1326 59.5779 49.0834 59.7182 48.0343C59.7805 47.5525 60.0454 47.3582 60.513 47.3194C61.4246 47.2339 62.3207 47.3349 63.2246 47.4515C63.435 47.4748 63.5285 47.5447 63.6064 47.8012C63.9804 49.0524 63.8012 50.3113 63.77 51.5703C63.77 51.8267 63.583 51.9433 63.3648 52.0288C63.2402 52.0987 63.0843 52.0521 62.9597 52.1142C62.7415 52.1376 62.5155 52.122 62.2973 52.1842C62.2194 52.1842 62.1337 52.1997 62.0714 52.122C61.9233 52.122 61.7675 52.122 61.6194 52.122C61.1363 52.1764 60.661 52.1531 60.1935 52.021V52.0132Z" fill="#242424"/>
<path d="M65.6635 60.8569C66.77 60.1653 67.9855 60.1109 69.24 60.1808C69.7465 60.2119 70.1439 60.4451 70.4712 60.7948C70.6738 61.0124 70.8062 61.0745 71.0945 60.8492C71.9283 60.1886 72.9335 60.2974 73.9075 60.3285C74.1023 60.3285 74.3049 60.3673 74.4997 60.3907C74.0867 61.7662 73.5412 63.1028 72.6296 64.2219C71.7958 65.2477 70.5413 65.4109 69.1232 64.8902C67.2141 64.1831 66.2245 62.6987 65.6557 60.8492L65.6635 60.8569Z" fill="#F36749"/>
<path d="M35.4001 71.6565C35.4001 71.6565 15.6072 83.8669 13.5448 75.7731C11.4824 67.6793 23.5357 54.3833 23.5357 54.3833L18.6116 52.7233" stroke="black" stroke-width="2.5" stroke-linecap="round" stroke-linejoin="round"/>
</g>
<defs>
<linearGradient id="paint0_linear_88_372" x1="89.6318" y1="20.5162" x2="27.1483" y2="122.43" gradientUnits="userSpaceOnUse">
<stop offset="0.07" stop-color="#FECC05"/>
<stop offset="0.49" stop-color="#FEDC15"/>
<stop offset="0.97" stop-color="#FFF52D"/>
</linearGradient>
<clipPath id="clip0_88_372">
<rect width="113" height="95" fill="white"/>
</clipPath>
</defs>
</svg>
