<svg width="115" height="102" viewBox="0 0 115 102" fill="none" xmlns="http://www.w3.org/2000/svg">
<g clip-path="url(#clip0_88_425)">
<path d="M37.9258 3.98049C38.0002 4.02723 38.0745 4.06618 38.1571 4.10513L38.1901 4.12071C38.9995 4.51799 39.7841 4.9776 40.5109 5.53847C41.2212 6.10713 41.882 6.76148 42.4931 7.47815C43.6824 8.92707 44.6322 10.6331 45.3343 12.4637C46.0528 14.2943 46.5318 16.2418 46.8539 18.2204C47.1595 20.1913 47.3247 22.2478 47.2834 24.2264V24.2576C47.2834 24.4134 47.3247 24.5614 47.4073 24.6782C47.5395 24.8652 47.7707 24.9898 48.0267 24.9976C48.4232 25.0054 48.7535 24.7328 48.8031 24.3744C49.1169 22.2478 49.2078 20.1523 49.1417 18.0257C49.0591 15.899 48.8114 13.7568 48.2663 11.638C47.7377 9.51132 46.9118 7.40804 45.6564 5.42941C45.0204 4.45567 44.2688 3.52089 43.4099 2.64842C42.5427 1.79153 41.5599 1.02812 40.4944 0.358189C39.4455 -0.303952 38.0249 -0.0468856 37.3064 0.942431C37.3064 0.942431 37.3064 0.950221 37.2981 0.958011C36.5879 1.96291 36.8769 3.31056 37.9341 3.9727L37.9258 3.98049Z" fill="#C18017"/>
<g style="mix-blend-mode:multiply" opacity="0.33">
<path d="M37.9258 3.98046C38.0002 4.0272 38.0745 4.06615 38.1571 4.1051L38.1901 4.12068C38.9995 4.51797 39.7841 4.97757 40.5109 5.53844C41.2212 6.10711 41.882 6.76146 42.4931 7.47813C43.6824 8.92705 44.6322 10.633 45.3343 12.4637C46.0528 14.2943 46.5318 16.2418 46.8539 18.2204C47.1595 20.1912 47.3247 22.2478 47.2834 24.2264V24.2576C47.2834 24.4134 47.3247 24.5614 47.4073 24.6782C49.0426 8.77904 40.8165 2.76524 37.3064 0.950195C37.3064 0.950195 37.3064 0.957985 37.2981 0.965775C36.5879 1.97067 36.8769 3.31832 37.9341 3.98046H37.9258Z" fill="#C18017"/>
</g>
<path d="M20.0697 119.824C12.7769 119.092 8.21782 117.44 5.56664 115.033C-4.47645 105.95 12.7851 86.1407 12.1079 64.9054C11.1911 35.8803 28.5022 21.2508 49.1665 20.2771C50.8927 20.1914 52.6436 20.207 54.4028 20.316C111.614 23.8371 90.2309 126.858 20.0697 119.816V119.824Z" fill="url(#paint0_linear_88_425)"/>
<path d="M5.61621 19.7162C14.8995 23.1516 32.7639 26.7427 43.8725 9.46471C20.9699 -2.10328 9.37411 13.3752 6.40083 18.3062C5.87224 19.1787 5.61621 19.7162 5.61621 19.7162Z" fill="#6A9E18"/>
<g style="mix-blend-mode:multiply" opacity="0.19">
<path d="M5.61621 19.7162C14.8995 23.1516 32.7639 26.7427 43.8725 9.46472C43.8725 9.46472 23.7202 23.2684 6.40083 18.3063C5.87224 19.1787 5.61621 19.7162 5.61621 19.7162Z" fill="#6A9E18"/>
</g>
<g opacity="0.4">
<path d="M27.8745 38.9884C28.3948 37.1656 30.5504 34.4703 33.1934 32.3359C35.8363 30.2014 38.9582 28.6123 41.5351 27.7243C44.1202 26.8362 46.1684 26.6415 47.4238 27.0777C48.6875 27.5139 49.1582 28.5967 48.5966 29.6639C48.035 30.7312 46.4327 31.7984 44.591 32.7643C42.7492 33.7303 40.6761 34.5949 38.7022 36.0439C36.7283 37.4928 34.8617 39.5337 33.3668 40.7412C31.8637 41.9486 30.7321 42.3303 29.6006 42.0499C28.4692 41.7616 27.3459 40.8113 27.8662 38.9884H27.8745Z" fill="white"/>
<path d="M23.3898 46.7238C22.7208 45.8513 22.5061 44.605 23.0016 43.7714C23.4972 42.9379 24.703 42.5328 25.8345 42.9535C26.9577 43.3742 28.0067 44.6361 28.0645 45.7111C28.1305 46.7861 27.2138 47.6742 26.1979 47.8767C25.182 48.0793 24.0588 47.5885 23.3898 46.716V46.7238Z" fill="white"/>
</g>
<path d="M36.1419 61.1585C36.1419 59.9277 35.093 58.9228 33.7881 58.915C32.4831 58.915 31.4177 59.9043 31.4094 61.1351C31.4094 62.3659 32.4583 63.3708 33.7633 63.3786C35.0682 63.3786 36.1336 62.3893 36.1419 61.1585Z" fill="#E53C0E"/>
<path d="M66.5107 61.2987C66.5107 60.0679 67.5761 59.0707 68.8893 59.0785C70.1942 59.0785 71.2514 60.0834 71.2431 61.322C71.2431 62.5528 70.1777 63.5499 68.8645 63.5421C67.5596 63.5421 66.5024 62.5373 66.5107 61.2987Z" fill="#E53C0E"/>
<path d="M47.333 54.4124C47.2835 53.5088 46.8457 52.7999 45.929 52.3792C44.6983 51.8184 43.4017 51.9586 42.1298 52.0832C41.246 52.1689 40.3293 52.2624 39.5447 52.7609C39.0574 53.0648 38.76 53.4309 38.7683 54.0073C38.7931 55.0979 38.7518 56.1885 38.8922 57.2713C39.0078 58.1593 39.4786 58.6267 40.4119 58.6891C41.3699 58.7514 42.3362 58.7903 43.2943 58.8371C44.3928 58.8371 45.4912 58.8371 46.5484 58.4865C46.8457 58.3853 47.0852 58.2684 47.1183 57.949C47.2422 56.7727 47.3908 55.5965 47.333 54.4202V54.4124Z" fill="white"/>
<path d="M41.4525 58.0347C41.1139 57.8477 40.8991 57.5673 40.8909 57.2012C40.8909 56.1495 40.8 55.0979 40.9487 54.0463C41.0148 53.5633 41.2956 53.3686 41.7911 53.3296C42.7574 53.2439 43.7072 53.3452 44.6653 53.462C44.8883 53.4854 44.9874 53.5555 45.07 53.8126C45.4664 55.0668 45.2765 56.3287 45.2434 57.5907C45.2434 57.8477 45.0452 57.9646 44.814 58.0503C44.6818 58.1204 44.5166 58.0736 44.3845 58.136C44.1532 58.1593 43.9137 58.1438 43.6825 58.2061C43.5999 58.2061 43.509 58.2217 43.443 58.1438C43.286 58.1438 43.1208 58.1438 42.9639 58.1438C42.4519 58.1983 41.9481 58.1749 41.4525 58.0425V58.0347Z" fill="#242424"/>
<path d="M66.5024 53.7191C66.4529 52.8155 66.0151 52.1066 65.0984 51.6859C63.8678 51.1251 62.5711 51.2653 61.2992 51.3899C60.4155 51.4756 59.4987 51.5691 58.7141 52.0676C58.2268 52.3715 57.9295 52.7376 57.9377 53.314C57.9625 54.4046 57.9212 55.4952 58.0616 56.578C58.1772 57.466 58.648 57.9334 59.5813 57.9958C60.5394 58.0581 61.5057 58.097 62.4637 58.1438C63.5622 58.1438 64.6607 58.1438 65.7178 57.7932C66.0151 57.692 66.2547 57.5751 66.2877 57.2557C66.4116 56.0794 66.5602 54.9032 66.5024 53.7269V53.7191Z" fill="white"/>
<path d="M60.6219 57.3414C60.2833 57.1544 60.0686 56.874 60.0603 56.5079C60.0603 55.4562 59.9695 54.4046 60.1181 53.353C60.1842 52.87 60.465 52.6753 60.9606 52.6363C61.9269 52.5506 62.8767 52.6519 63.8347 52.7687C64.0577 52.7921 64.1568 52.8622 64.2394 53.1193C64.6359 54.3735 64.4459 55.6354 64.4129 56.8974C64.4129 57.1544 64.2147 57.2713 63.9834 57.357C63.8513 57.4271 63.6861 57.3803 63.5539 57.4427C63.3227 57.466 63.0832 57.4505 62.8519 57.5128C62.7693 57.5128 62.6785 57.5284 62.6124 57.4505C62.4555 57.4505 62.2903 57.4505 62.1334 57.4505C61.6213 57.505 61.1175 57.4816 60.6219 57.3492V57.3414Z" fill="#242424"/>
<path d="M53.4365 60.691C53.4365 60.691 60.3494 59.0552 60.2173 60.691C60.0851 62.3269 56.765 63.2383 56.765 63.2383C56.765 63.2383 61.068 62.9501 61.6791 64.3757C62.2903 65.8012 53.4365 66.9775 53.4365 66.9775" stroke="black" stroke-width="1.5" stroke-linecap="round" stroke-linejoin="round"/>
<path d="M114.273 43.2183C115.38 45.0567 115.066 47.1211 114.339 49.3724C113.662 51.46 112.184 53.0648 110.829 54.7707C109.029 57.0454 106.691 58.7202 104.238 60.2626C101.942 61.7115 99.349 62.5684 96.6895 63.2306C95.7645 63.4643 94.8395 63.6824 93.8979 63.7759C91.9158 63.955 90.0822 64.7262 88.1579 65.1079C87.7284 65.1936 87.2989 65.2793 86.8777 65.4117C86.3904 65.5675 85.9031 65.4741 85.4902 65.1703C84.9038 64.734 84.4165 64.2121 83.9705 63.6434C82.9298 62.3269 82.2608 60.878 82.0131 59.2266C81.7157 57.2557 81.1706 55.316 80.832 53.353C80.4025 50.8758 80.4273 48.3752 80.6008 45.8825C80.865 42.081 81.8727 38.4431 83.5988 35.0078C84.7881 32.6474 86.4317 30.5753 88.8351 29.1654C90.2804 28.3163 91.8827 28.3085 93.485 28.7058C95.5663 29.2199 97.2346 30.404 98.5561 31.9152C99.8941 33.4342 100.514 35.2571 100.299 37.298C100.142 38.708 99.9601 40.1102 99.5224 41.5591C100.365 41.3721 101.034 41.0294 101.711 40.7256C103.214 40.0556 104.783 39.5649 106.419 39.3468C109.169 38.9728 111.316 40.1569 113.2 41.9018C113.654 42.3303 114.017 42.7665 114.29 43.2183H114.273Z" fill="#D42E1C"/>
<path d="M85.6636 55.1603C85.4984 55.4173 85.3332 55.5731 85.1598 55.6199C84.9946 55.6744 84.7633 55.6199 84.4825 55.4563C84.2595 55.3239 84.1109 55.1759 84.0448 55.0045C83.9787 54.8331 84.0365 54.6072 84.2182 54.3268L87.0346 50.0034C86.9025 50.0501 86.7703 50.0891 86.6299 50.1202C86.4895 50.1592 86.3491 50.1825 86.2087 50.2137C85.4076 50.3773 85.0111 50.1514 85.0194 49.5282C85.0111 49.2711 85.0689 49.0686 85.1928 48.9284C85.3167 48.7881 85.581 48.6791 85.994 48.6012C86.8612 48.4532 87.621 48.2351 88.2817 47.9546C88.9342 47.6742 89.5619 47.3626 90.1483 47.012C90.4043 46.8718 90.4208 46.7316 90.1896 46.5992L88.5708 45.6644C88.2982 45.5086 88.1496 45.3372 88.1165 45.1581C88.0835 44.9789 88.1578 44.7608 88.323 44.5037C88.6369 44.0207 89.0333 43.9195 89.5206 44.1999L90.8751 44.9867C90.8421 44.8932 90.8255 44.7919 90.8338 44.6673C90.8503 44.3635 90.8586 44.083 90.8421 43.8182C90.8338 43.5611 90.8173 43.2885 90.809 43.0158C90.7842 42.7821 90.8338 42.603 90.9577 42.4783C91.0816 42.3537 91.255 42.2758 91.4615 42.2524C91.7093 42.2291 91.924 42.2836 92.114 42.4238C92.3039 42.564 92.403 42.751 92.4278 42.9925C92.4278 43.1171 92.4443 43.2339 92.4526 43.343C92.4526 43.4521 92.4691 43.5689 92.4691 43.7013C92.4691 43.8338 92.4774 43.9818 92.4856 44.1532C92.4856 44.3245 92.4856 44.5271 92.4939 44.7608C92.4939 44.9711 92.4443 45.1503 92.3204 45.2983C92.1966 45.4463 92.0479 45.532 91.8744 45.5709L91.9983 45.641C92.2791 45.8046 92.4774 45.976 92.593 46.1629C92.7086 46.3499 92.7582 46.5369 92.7417 46.7316C92.7251 46.9186 92.6425 47.1133 92.4939 47.3081C92.3452 47.5028 92.147 47.6742 91.8992 47.8378C91.5358 48.0637 91.1807 48.274 90.8338 48.4688C90.4869 48.6635 90.14 48.8427 89.7849 49.0141C89.8675 49.3802 89.9418 49.7229 89.9996 50.0423C90.0574 50.3617 90.1153 50.6577 90.1731 50.9304C90.2557 51.3043 90.2391 51.5769 90.1235 51.7561C90.0161 51.9353 89.7931 52.0677 89.4545 52.1456C89.1489 52.2235 88.9012 52.1845 88.7277 52.021C88.5543 51.8574 88.4387 51.6081 88.4139 51.2653C88.3974 51.2186 88.3808 51.1719 88.3891 51.1329C88.3891 51.094 88.3891 51.0472 88.3974 51.0005L85.6801 55.1836L85.6636 55.1603ZM102.471 50.0579C102.314 50.3072 102.141 50.4474 101.959 50.5019C101.777 50.5487 101.546 50.4863 101.257 50.3228L94.8973 46.6381C94.6082 46.4745 94.443 46.3032 94.41 46.1318C94.377 45.9604 94.4348 45.7501 94.6 45.5008C94.7651 45.2515 94.9221 45.1269 95.0955 45.0802C95.2689 45.0334 95.5002 45.0957 95.7893 45.2671L102.149 48.9517C102.438 49.1153 102.603 49.2867 102.636 49.4503C102.677 49.6217 102.62 49.8164 102.463 50.0579H102.471ZM95.971 59.8732C95.6489 60.3639 95.335 60.6677 95.0212 60.7768C94.7073 60.8859 94.2944 60.7924 93.7988 60.5041L88.6699 57.5362C88.1744 57.248 87.9018 56.952 87.844 56.6326C87.7862 56.3132 87.9183 55.9081 88.2487 55.4018L90.4374 52.0365C90.7512 51.5536 91.0733 51.2575 91.4037 51.1563C91.734 51.055 92.147 51.1407 92.6425 51.4289L97.7715 54.3969C98.2753 54.6851 98.5478 54.9889 98.5809 55.3083C98.6139 55.6277 98.4817 56.025 98.1679 56.5079L95.9792 59.8732H95.971ZM99.7124 52.9402C99.3902 53.4387 99.0599 53.7114 98.7295 53.7503C98.3992 53.7893 98.0027 53.6724 97.5237 53.3998L93.6336 51.1485C93.1546 50.8758 92.8655 50.5876 92.7582 50.2994C92.6508 50.0112 92.7582 49.6139 93.0885 49.1075L93.5923 48.3285C93.9144 47.83 94.2366 47.5573 94.5587 47.5262C94.8725 47.495 95.2689 47.6119 95.748 47.8845L99.638 50.1358C99.8693 50.2682 100.067 50.4007 100.216 50.5331C100.365 50.6655 100.472 50.8057 100.53 50.9537C100.588 51.1017 100.596 51.2731 100.547 51.4601C100.497 51.647 100.398 51.8729 100.233 52.1144L99.7041 52.9324L99.7124 52.9402ZM93.6419 53.8204L92.1883 52.9791C92.114 52.9324 92.0479 52.909 92.0066 52.909C91.957 52.909 91.8992 52.9479 91.8414 53.0492L91.255 53.9451L92.9316 54.9188L93.6419 53.8204V53.8204ZM92.0892 56.2041L90.4126 55.2304L89.8344 56.1106C89.7766 56.1963 89.7519 56.2587 89.7601 56.3054C89.7601 56.3443 89.8179 56.3911 89.9253 56.4534L91.3789 57.2947L92.0892 56.2041V56.2041ZM98.6139 51.4133C98.6717 51.3277 98.6882 51.2575 98.6552 51.2186C98.6221 51.1796 98.5643 51.1329 98.4817 51.0862L95.3515 49.2711C95.2276 49.201 95.1285 49.2244 95.0459 49.349L94.7734 49.7697C94.7073 49.8787 94.7321 49.9644 94.856 50.0345L98.044 51.8807C98.1762 51.9586 98.267 51.9508 98.3248 51.8652L98.6139 51.4133V51.4133ZM96.6482 55.8302C96.7143 55.7367 96.7308 55.6666 96.7143 55.6277C96.6895 55.5887 96.6565 55.5576 96.5987 55.5264L95.0625 54.6384L94.3522 55.7367L96.0701 56.7338L96.6565 55.838L96.6482 55.8302ZM95.2277 58.0192L93.5098 57.0221L92.7995 58.1127L94.3522 59.0085C94.4678 59.0708 94.5587 59.0474 94.6412 58.9228L95.2359 58.0114L95.2277 58.0192Z" fill="white"/>
<path d="M12.1079 64.9054C12.1079 64.9054 -3.62577 70.4206 2.41165 78.0392C8.45733 85.6577 33.7715 83.2584 33.7715 83.2584L32.8217 78.2651" stroke="black" stroke-width="2.1" stroke-linecap="round" stroke-linejoin="round"/>
<path d="M38.2893 78.0469L33.7715 83.2584" stroke="black" stroke-width="2.1" stroke-linecap="round" stroke-linejoin="round"/>
<path d="M85.6801 71.2542C85.6801 71.2542 94.2035 76.0995 88.1579 83.718C82.1122 91.3365 61.7122 87.1533 61.7122 87.1533L62.662 82.16" stroke="black" stroke-width="2.1" stroke-linecap="round" stroke-linejoin="round"/>
<path d="M58.012 83.3285L61.7121 87.1533" stroke="black" stroke-width="2.1" stroke-linecap="round" stroke-linejoin="round"/>
</g>
<defs>
<linearGradient id="paint0_linear_88_425" x1="74.7781" y1="23.2918" x2="13.7935" y2="128.493" gradientUnits="userSpaceOnUse">
<stop offset="0.07" stop-color="#FECC05"/>
<stop offset="0.49" stop-color="#FEDC15"/>
<stop offset="0.97" stop-color="#FFF52D"/>
</linearGradient>
<clipPath id="clip0_88_425">
<rect width="115" height="101.157" fill="white"/>
</clipPath>
</defs>
</svg>
