<svg width="57" height="58" viewBox="0 0 57 58" fill="none" xmlns="http://www.w3.org/2000/svg">
<g clip-path="url(#clip0_126_942)">
<path d="M41.8668 2.17144C41.8244 2.18968 41.7881 2.20792 41.7457 2.22008H41.7276C41.304 2.36602 40.8864 2.54236 40.487 2.77342C40.0936 3.01056 39.7184 3.29635 39.3674 3.61862C38.6715 4.27533 38.0724 5.08405 37.5761 5.97181C37.0799 6.85958 36.6865 7.83248 36.3658 8.8297C36.0511 9.82692 35.803 10.8728 35.6638 11.9004V11.9186C35.6517 11.9977 35.6154 12.0707 35.567 12.1254C35.4883 12.2105 35.3612 12.2592 35.2402 12.2409C35.0465 12.2166 34.9134 12.0463 34.9134 11.8578C34.9376 10.7329 35.0647 9.6445 35.2704 8.54999C35.4883 7.46156 35.7788 6.37313 36.2206 5.32119C36.6502 4.26317 37.2312 3.24162 37.9997 2.31737C38.3871 1.86133 38.8288 1.43569 39.319 1.05869C39.8092 0.687772 40.3538 0.3655 40.9227 0.104034C41.4855 -0.157432 42.1572 0.0918727 42.4235 0.657369C42.6837 1.24111 42.4356 1.91605 41.8668 2.17752V2.17144Z" fill="#C18017"/>
<g style="mix-blend-mode:multiply" opacity="0.33">
<path d="M41.8667 2.1714C41.8244 2.18964 41.7881 2.20788 41.7457 2.22004H41.7276C41.3039 2.36597 40.8864 2.54231 40.487 2.77338C40.0936 3.01052 39.7184 3.29631 39.3674 3.61858C38.6715 4.27528 38.0723 5.084 37.5761 5.97177C37.0799 6.85954 36.6865 7.83244 36.3658 8.82965C36.0511 9.82687 35.803 10.8727 35.6638 11.9004V11.9186C35.6517 11.9976 35.6154 12.0706 35.567 12.1253C36.0874 3.78276 40.5717 1.32011 42.4235 0.651245C42.6837 1.23498 42.4356 1.90993 41.8667 2.1714Z" fill="#C18017"/>
</g>
<path d="M8.26183 55.4497C4.84264 54.3065 2.83348 52.987 1.8289 51.479C-1.9897 45.7815 8.4918 37.4632 10.5252 26.5303C13.2968 11.5903 23.2276 5.92315 33.2613 7.59532C34.1025 7.73517 34.9376 7.92367 35.7727 8.1669C62.8479 15.9744 41.1708 66.413 8.26789 55.4497H8.26183Z" fill="url(#paint0_linear_126_942)"/>
<path d="M56.2455 12.8308C51.4587 13.8827 42.4961 14.3388 38.5323 4.54293C50.5933 0.353393 54.9444 9.26147 55.9793 12.0403C56.1608 12.5328 56.2455 12.8308 56.2455 12.8308Z" fill="#6A9E18"/>
<g style="mix-blend-mode:multiply" opacity="0.19">
<path d="M56.2455 12.8307C51.4587 13.8827 42.4961 14.3387 38.5323 4.54285C38.5323 4.54285 47.168 13.2503 55.9793 12.0402C56.1608 12.5328 56.2455 12.8307 56.2455 12.8307Z" fill="#6A9E18"/>
</g>
<g opacity="0.4">
<path d="M20.9643 14.9285C21.4121 14.0529 22.7496 12.9037 24.2564 12.0828C25.7633 11.2619 27.4336 10.7876 28.771 10.5991C30.1084 10.4167 31.113 10.5323 31.6697 10.8849C32.2265 11.2437 32.3354 11.8396 31.9481 12.3321C31.5608 12.8186 30.6712 13.1956 29.6787 13.4935C28.6862 13.7915 27.5969 14.0164 26.4895 14.5515C25.382 15.0866 24.2625 15.9318 23.4092 16.394C22.5559 16.8561 21.9689 16.9291 21.4605 16.6676C20.9522 16.4 20.5165 15.7981 20.9643 14.9225V14.9285Z" fill="white"/>
<path d="M17.9566 18.4127C17.7327 17.8959 17.763 17.2331 18.0958 16.8622C18.4286 16.4913 19.052 16.4061 19.5482 16.7406C20.0444 17.075 20.4015 17.829 20.3168 18.3884C20.226 18.9478 19.6934 19.3066 19.179 19.3005C18.6707 19.3005 18.1866 18.9296 17.9627 18.4127H17.9566Z" fill="white"/>
</g>
<path d="M33.77 43.6003C33.5678 43.6003 33.3466 43.5876 33.1254 43.5558L32.4491 43.4669L31.5264 43.4923C30.768 43.4923 30.0917 43.3399 29.5103 43.0415C28.5686 42.5588 28.36 41.9238 28.3474 41.4729L28.1388 37.1802L27.5195 41.4475C27.4689 41.8349 27.2414 42.4001 26.4261 42.8065C25.9394 43.0478 25.377 43.1748 24.7513 43.1748C24.6754 43.1748 24.5933 43.1748 24.5111 43.1748C24.2583 43.1621 24.0687 43.1431 23.9233 43.105L23.2724 43.0034L22.5772 43.0478C22.5203 43.0542 22.4192 43.0605 22.2928 43.0605C22.2359 43.0605 22.1727 43.0605 22.1032 43.0605C21.4396 43.0288 20.8834 42.8446 20.4473 42.5144C19.9796 42.1588 19.6952 41.7015 19.6067 41.1491L17.6349 30.2456L16.453 30.1885C15.8147 30.1567 15.2712 30.0107 14.8477 29.744C14.1272 29.3058 14.0451 28.7152 14.0577 28.4041L14.0767 28.0294C14.0893 27.7182 14.2284 27.1404 14.9868 26.772C15.3849 26.5752 15.8526 26.4799 16.3709 26.4799C16.4404 26.4799 16.5162 26.4799 16.5857 26.4799L16.9586 26.499L16.8828 26.0672C16.8449 25.9275 16.8322 25.7623 16.8449 25.5528C16.8765 24.9051 17.2936 24.0668 19.1138 23.7557L19.5246 23.6858C19.632 23.6604 19.8027 23.6414 20.0112 23.6414C20.0871 23.6414 20.1692 23.6414 20.2577 23.6414C20.9023 23.6731 21.4901 23.8636 22.002 24.2002C22.5772 24.5875 22.8995 25.0702 22.9564 25.629L23.0638 26.7847L25.0546 26.88L25.2695 25.7433C25.377 25.121 25.7498 24.6257 26.3566 24.3145C26.7295 24.124 27.1655 24.0287 27.6585 24.0287C27.886 24.0287 28.1325 24.0478 28.3853 24.0922L28.8404 24.1621C28.8404 24.1621 29.2764 24.1494 29.3396 24.1494C30.0412 24.1494 30.6353 24.2954 31.1029 24.5812C31.6781 24.9368 32.0067 25.4512 32.0573 26.0799L32.1647 27.2229L34.1555 27.3182L34.3704 26.1815C34.4779 25.6226 34.8444 25.1781 35.4575 24.8479C35.9441 24.5875 36.4813 24.4542 37.0628 24.4542C37.126 24.4542 37.1892 24.4542 37.2524 24.4542C37.581 24.4732 37.8275 24.505 38.0171 24.5748L38.3773 24.6701C40.1659 25.1591 40.5009 26.0354 40.4693 26.6831C40.4566 26.8864 40.4314 27.0515 40.3808 27.1912L40.2607 27.6103H40.3492C40.9875 27.6484 41.531 27.7944 41.9545 28.0548C42.675 28.4993 42.7571 29.0835 42.7445 29.3947L42.7255 29.7376C42.7066 30.1123 42.5359 30.6394 41.8218 31.0077C41.4173 31.2109 40.937 31.3188 40.3934 31.3188C40.3176 31.3188 40.2418 31.3188 40.1659 31.3188L39.2242 31.2744L36.2096 41.9492C36.0263 42.5588 35.6471 43.0161 35.0783 43.3082C34.6991 43.4987 34.2503 43.5939 33.7384 43.5939L33.77 43.6003ZM32.8599 34.0939L33.454 31.0013L32.5502 30.9569L32.8599 34.0939ZM23.7401 33.6367L24.3468 30.5568L23.443 30.5124L23.7401 33.6367Z" fill="#F6911B"/>
<path d="M20.0239 24.2764C20.0934 24.2764 20.1629 24.2764 20.2388 24.2764C20.776 24.3018 21.25 24.4542 21.6608 24.7336C22.0779 25.013 22.2991 25.3306 22.337 25.6989L22.495 27.3944L25.5792 27.5468L25.9015 25.8703C25.9774 25.4322 26.2239 25.1083 26.6536 24.8924C26.938 24.7463 27.273 24.6765 27.6648 24.6765C27.8608 24.6765 28.0693 24.6955 28.2905 24.7273L28.8088 24.8098L29.169 24.7971C29.2322 24.7971 29.2891 24.7971 29.346 24.7971C29.9337 24.7971 30.4141 24.9114 30.7806 25.1337C31.1851 25.3814 31.4 25.7179 31.4379 26.137L31.5959 27.8326L34.6801 27.985L35.0024 26.3085C35.072 25.9465 35.3311 25.6544 35.7672 25.4131C36.1653 25.1972 36.5951 25.0956 37.0691 25.0956C37.1197 25.0956 37.1765 25.0956 37.2271 25.0956C37.4925 25.1083 37.6948 25.14 37.8275 25.1845L38.2257 25.2925C39.338 25.5973 39.8752 26.0481 39.8499 26.6578C39.8436 26.8102 39.8246 26.9245 39.793 27.0007L39.4518 28.2136L40.3366 28.258C40.8738 28.2834 41.3099 28.4041 41.6448 28.6073C41.9798 28.8169 42.1441 29.0709 42.1315 29.3757L42.1125 29.7186C42.0999 30.0234 41.9103 30.2647 41.5563 30.4489C41.2467 30.6076 40.8611 30.6902 40.4124 30.6902C40.3492 30.6902 40.286 30.6902 40.2165 30.6902L38.7755 30.6203L35.6281 41.7778C35.5017 42.2096 35.23 42.5335 34.8192 42.743C34.5284 42.8891 34.1808 42.9653 33.7637 42.9653C33.5867 42.9653 33.3971 42.9526 33.2012 42.9272L32.525 42.8383H32.4428L31.6781 42.8573C31.6275 42.8573 31.5706 42.8573 31.5201 42.8573C30.8628 42.8573 30.2877 42.7303 29.7884 42.4763C29.2512 42.2032 28.9794 41.8667 28.9731 41.4603L28.4485 30.6076L26.8875 41.3587C26.8432 41.7206 26.5968 42.0127 26.1417 42.2413C25.7435 42.4382 25.2759 42.5398 24.7513 42.5398C24.6818 42.5398 24.6123 42.5398 24.5427 42.5398C24.3278 42.5271 24.1698 42.5144 24.0624 42.489L23.304 42.3683L22.5393 42.4192C22.4697 42.4255 22.3876 42.4319 22.2928 42.4319C22.2422 42.4319 22.1917 42.4319 22.1348 42.4319C21.5976 42.4065 21.1678 42.2667 20.8265 42.0127C20.4916 41.7587 20.2893 41.4412 20.2324 41.0538L18.1721 29.6424L16.491 29.5598C15.9538 29.5344 15.5177 29.4201 15.1827 29.2106C14.8414 29.001 14.6834 28.747 14.6961 28.4422L14.715 28.0739C14.7277 27.7691 14.9173 27.5277 15.2712 27.3563C15.5809 27.2039 15.9538 27.1277 16.3835 27.1277C16.4467 27.1277 16.5036 27.1277 16.5668 27.1277L17.7297 27.1848L17.5085 25.9402C17.4832 25.864 17.4769 25.7497 17.4832 25.5973C17.5148 24.9876 18.0963 24.5876 19.2276 24.3907L19.632 24.3272C19.7268 24.3018 19.8596 24.2955 20.0176 24.2955M23.5126 38.0375L25.1052 29.979L22.7415 29.8647L23.5126 38.0375ZM32.6514 38.5074L34.2061 30.4171L31.8424 30.3028L32.6514 38.5074ZM20.0176 23.0254C19.7774 23.0254 19.5752 23.0445 19.3919 23.0826L19.019 23.1461C16.6616 23.5461 16.2508 24.8225 16.2129 25.5401C16.2129 25.6544 16.2129 25.7624 16.2129 25.8576C15.6567 25.8767 15.1511 25.9973 14.7087 26.2132C13.9377 26.5879 13.4763 27.242 13.4384 28.0104L13.4194 28.3787C13.3815 29.1471 13.7797 29.8456 14.5128 30.2901C15.031 30.6076 15.6694 30.7854 16.4214 30.8235L17.104 30.8553L18.9874 41.2761C19.0948 41.9556 19.4677 42.5716 20.0681 43.0224C20.6116 43.4352 21.2816 43.6575 22.0716 43.7019C22.1474 43.7019 22.2233 43.7019 22.2928 43.7019C22.4192 43.7019 22.5393 43.7019 22.6467 43.6829L23.2408 43.6448L23.8286 43.74C24.0055 43.7781 24.2141 43.7972 24.4795 43.8099C24.5743 43.8099 24.6628 43.8162 24.7513 43.8162C25.4718 43.8162 26.1291 43.6702 26.7042 43.3844C27.3172 43.0796 27.6775 42.6922 27.8924 42.3112C28.082 42.7494 28.4675 43.232 29.2196 43.613C29.8958 43.9559 30.6669 44.1337 31.5264 44.1337C31.5896 44.1337 31.6591 44.1337 31.7223 44.1337L32.4239 44.1147L33.0432 44.1972C33.296 44.229 33.5425 44.248 33.7763 44.248C34.3894 44.248 34.9329 44.1274 35.4006 43.8924C36.1211 43.5241 36.6267 42.9272 36.8542 42.1588L39.7362 31.9539L40.1786 31.9729C40.2671 31.9729 40.3492 31.9729 40.4314 31.9729C41.0823 31.9729 41.6575 31.8459 42.1504 31.5919C43.1869 31.0585 43.3765 30.233 43.3955 29.7884L43.4144 29.4455C43.4524 28.6771 43.0542 27.9786 42.3274 27.5341C41.9735 27.3182 41.5627 27.1658 41.1013 27.0769C41.1203 26.9689 41.1329 26.8546 41.1392 26.7276C41.1708 26.0037 40.8864 24.7019 38.5859 24.0732L38.213 23.9716C37.9729 23.8954 37.6885 23.8573 37.3219 23.8382C37.2461 23.8382 37.1765 23.8382 37.1007 23.8382C36.4181 23.8382 35.7798 23.997 35.1984 24.3082C34.2188 24.8352 33.8901 25.5592 33.789 26.0735L33.6752 26.6705L32.7778 26.626L32.7209 26.0227C32.6577 25.2162 32.209 24.5114 31.4695 24.0541C30.9007 23.7049 30.1992 23.5271 29.3776 23.5271C29.3017 23.5271 29.2322 23.5271 29.1564 23.5271H28.9225L28.5244 23.4699C28.24 23.4255 27.9619 23.4001 27.7028 23.4001C27.115 23.4001 26.5778 23.5207 26.1164 23.7557C25.3391 24.1558 24.8335 24.8289 24.6944 25.6544L24.587 26.2196L23.6895 26.1751L23.6326 25.5719C23.5758 25.0384 23.323 24.2891 22.4002 23.6731C21.7935 23.2667 21.0983 23.0445 20.3336 23.0064C20.2324 23.0064 20.144 23 20.0555 23L20.0176 23.0254Z" fill="white"/>
</g>
<defs>
<linearGradient id="paint0_linear_126_942" x1="45.2188" y1="11.8233" x2="1.78859" y2="56.8086" gradientUnits="userSpaceOnUse">
<stop offset="0.07" stop-color="#FECC05"/>
<stop offset="0.49" stop-color="#FEDC15"/>
<stop offset="0.97" stop-color="#FFF52D"/>
</linearGradient>
<clipPath id="clip0_126_942">
<rect width="57" height="58" fill="white"/>
</clipPath>
</defs>
</svg>
