<svg width="27" height="27" viewBox="0 0 27 27" fill="none" xmlns="http://www.w3.org/2000/svg">
<path d="M24.75 16.875L18 10.125M24.75 10.125L18 16.875" stroke="white" stroke-width="2" stroke-linecap="round"/>
<path d="M2.25 16.8289V10.17C2.25 9.52426 2.754 9.00001 3.375 9.00001H7.40925C7.55812 8.99949 7.70535 8.96881 7.84205 8.90984C7.97875 8.85087 8.10208 8.76482 8.20463 8.65689L11.5796 4.84539C12.2884 4.10739 13.5 4.63051 13.5 5.67339V21.3266C13.5 22.3774 12.2738 22.896 11.5695 22.1434L8.20575 18.3533C8.10292 18.2423 7.97833 18.1536 7.83975 18.0928C7.70117 18.0321 7.55157 18.0005 7.40025 18H3.375C2.754 18 2.25 17.4758 2.25 16.8289Z" stroke="white" stroke-width="2" stroke-linecap="round" stroke-linejoin="round"/>
</svg>
