<svg width="66" height="77" viewBox="0 0 66 77" fill="none" xmlns="http://www.w3.org/2000/svg">
<path d="M3.46995 38.64C3.46995 38.64 4.73995 70.22 9.39995 74.04C14.0599 77.87 54.3399 77.39 57.2999 73.08C60.2699 68.77 63.2299 41.5 63.2299 36.72C63.2299 31.94 56.0199 21.89 50.9399 21.41C45.8499 20.93 17.0299 20.93 12.3599 23.32C7.68995 25.71 2.60995 32.89 3.45995 38.63L3.46995 38.64Z" fill="#F3D54C"/>
<path d="M6.26996 65.78C7.07996 69.82 8.10996 72.99 9.39996 74.05C14.06 77.88 54.34 77.4 57.3 73.09C58.08 71.96 58.86 69.24 59.58 65.78H6.26996Z" fill="#CD5A48"/>
<path d="M52.6714 51.2161C53.5549 40.5161 45.597 31.1258 34.897 30.2424C24.197 29.3589 14.8067 37.3168 13.9233 48.0168C13.0398 58.7168 20.9977 68.1071 31.6977 68.9905C42.3977 69.874 51.7879 61.9161 52.6714 51.2161Z" fill="#F9E9E6"/>
<path d="M34.65 67.5C24.79 68.24 16.16 60.83 15.42 50.96C14.68 41.09 22.09 32.47 31.96 31.73C41.82 30.99 50.45 38.4 51.19 48.27C51.93 58.14 44.51 66.76 34.65 67.5ZM32.03 32.72C22.72 33.42 15.71 41.57 16.41 50.88C17.11 60.19 25.26 67.2 34.57 66.5C43.88 65.8 50.89 57.65 50.19 48.34C49.49 39.03 41.34 32.02 32.03 32.72Z" fill="#FDB04D"/>
<path d="M30.26 41.63L21.84 41.34C21.21 41.32 20.7099 40.79 20.7299 40.15C20.7499 39.51 21.28 39.02 21.92 39.04L30.34 39.33C30.97 39.35 31.47 39.88 31.45 40.52C31.43 41.16 30.9 41.65 30.26 41.63Z" fill="#513F3F"/>
<path d="M45.64 42.1699L33.5 41.7499C32.87 41.7299 32.37 41.1999 32.39 40.5599C32.41 39.9199 32.94 39.4299 33.58 39.4499L45.72 39.8699C46.35 39.8899 46.85 40.4199 46.83 41.0599C46.81 41.6999 46.28 42.1899 45.64 42.1699Z" fill="#513F3F"/>
<path d="M21.48 45.49C20.87 45.47 20.38 44.97 20.37 44.35C20.37 43.72 20.88 43.2 21.51 43.19L30.73 43.13C31.35 43.13 31.88 43.64 31.89 44.27C31.89 44.9 31.38 45.42 30.75 45.43L21.53 45.49C21.53 45.49 21.5 45.49 21.48 45.49Z" fill="#513F3F"/>
<path d="M25.9299 61.96C25.2999 61.94 24.7999 61.41 24.8199 60.77L25.3899 44.48C25.4099 43.85 25.9399 43.35 26.5799 43.37C27.2199 43.39 27.7099 43.92 27.6899 44.56L27.1199 60.85C27.0999 61.48 26.5699 61.98 25.9299 61.96Z" fill="#513F3F"/>
<path d="M20.7 55.5099C20.47 55.5099 20.25 55.4299 20.05 55.2799C19.54 54.8999 19.44 54.1799 19.81 53.6699C21.17 51.8499 21.78 49.19 21.78 49.16C21.92 48.54 22.53 48.1499 23.15 48.2899C23.77 48.4299 24.16 49.04 24.02 49.66C23.99 49.79 23.31 52.82 21.65 55.05C21.42 55.36 21.05 55.5199 20.69 55.5099H20.7Z" fill="#513F3F"/>
<path d="M30.35 55.52C29.9 55.5 29.48 55.22 29.31 54.77C28.73 53.18 28.02 50.01 28 49.88C27.86 49.26 28.25 48.65 28.87 48.51C29.49 48.37 30.1 48.76 30.24 49.38C30.24 49.41 30.94 52.53 31.47 53.98C31.69 54.58 31.38 55.24 30.79 55.45C30.65 55.5 30.5 55.53 30.35 55.52V55.52Z" fill="#513F3F"/>
<path d="M39.1999 49.82C38.4799 49.8 34.8599 49.65 33.8299 49.18C33.4799 49.02 32.8599 48.6 32.6899 47.56C32.4999 46.42 32.9399 44.85 33.6199 44.22C33.8599 44 34.4799 43.42 38.5199 43.41L42.4499 43.55C43.1499 43.57 44.4399 44.14 44.3699 46.12V46.42C44.3199 47.67 44.2699 49.38 42.1999 49.76C41.5299 49.88 40.1899 49.87 39.1799 49.83L39.1999 49.82ZM34.9499 47.13C35.5299 47.26 37.1799 47.45 39.2799 47.52C40.7199 47.57 41.5499 47.53 41.8099 47.48C41.9499 47.45 41.9999 47.42 41.9999 47.42C42.0499 47.31 42.0699 46.75 42.0799 46.33V46.01C42.0899 45.93 42.0899 45.86 42.0799 45.81L38.4899 45.69C37.1499 45.69 35.6599 45.81 35.1499 45.96C35.0299 46.21 34.9099 46.8 34.9399 47.13H34.9499Z" fill="#513F3F"/>
<path d="M40.66 61.33L34.4599 61.11C34.3699 61.11 34.28 61.09 34.2 61.07C33.51 60.88 32.21 60.04 32.27 58.21L32.4599 52.73C32.5199 51.08 34.04 50.37 35.05 50.4L41.9 50.64C42.05 50.64 42.2 50.68 42.33 50.74C43.03 51.05 44.1899 51.97 44.1399 53.43L43.9399 59.12C43.9699 59.5 43.8699 59.99 43.5099 60.42C42.9599 61.07 42.03 61.37 40.66 61.32V61.33ZM34.75 58.82L40.74 59.03C41.19 59.05 41.5 59 41.65 58.97L41.8499 53.36C41.8499 53.2 41.68 53.03 41.54 52.93L34.98 52.7C34.98 52.7 34.7999 52.76 34.7599 52.8L34.58 58.28C34.58 58.54 34.64 58.72 34.77 58.81L34.75 58.82Z" fill="#513F3F"/>
<path d="M38.01 61.23C37.38 61.21 36.88 60.68 36.9 60.04L37.19 51.62C37.21 50.99 37.74 50.49 38.38 50.51C39.02 50.53 39.51 51.06 39.49 51.7L39.2 60.12C39.18 60.75 38.65 61.25 38.01 61.23Z" fill="#513F3F"/>
<path d="M42.87 56.71L33.47 56.38C32.84 56.36 32.34 55.83 32.36 55.19C32.38 54.55 32.91 54.06 33.53 54.56L42.93 54.89C43.58 54.44 44.08 54.97 44.06 55.6C44.04 56.23 43.51 56.73 42.87 56.71V56.71Z" fill="#513F3F"/>
<path d="M41.62 17.15C41.62 17.15 54.34 8.25 50.52 4.86C46.7 1.47 37.8 9.10001 37.8 9.10001C37.8 9.10001 38.65 0.619995 34.41 0.619995C30.17 0.619995 28.05 8.67 28.05 8.67C28.05 8.67 21.69 0.620002 17.88 3.58C14.06 6.55 23.81 17.57 23.81 17.57C23.81 17.57 4.93997 18.58 1.33997 23.08C-2.05003 27.32 1.75997 42.16 3.87997 43C5.99997 43.85 17.45 25.62 21.68 26.47C25.92 27.32 31.01 34.95 34.82 34.52C38.64 34.1 43.3 26.04 47.11 26.04C50.92 26.04 58.98 42.57 61.95 42.57C64.92 42.57 66.61 25.61 64.07 21.8C61.53 17.98 41.6 17.14 41.6 17.14L41.62 17.15Z" fill="#CD5A48"/>
<path d="M33.87 19.55C35.36 18.09 37.14 16.95 39.11 16.26C40.9 15.63 43.2 15.1 44.95 16.14C46.09 16.82 46.9 18.76 45.67 19.75C44.94 20.34 43.83 20.48 42.93 20.57C41.96 20.66 40.97 20.65 40 20.52C37.73 20.22 35.51 19.29 33.73 17.84C33.38 17.56 32.89 17.5 32.55 17.84C32.26 18.13 32.2 18.74 32.55 19.02C34.48 20.59 36.77 21.67 39.22 22.08C40.45 22.29 41.69 22.36 42.93 22.24C44.13 22.12 45.45 21.93 46.47 21.23C48.44 19.87 48.26 17.2 46.8 15.53C45.16 13.64 42.28 13.69 40.06 14.23C37.28 14.91 34.72 16.37 32.69 18.37C31.92 19.12 33.1 20.31 33.87 19.55V19.55Z" fill="#F3D54C"/>
<path d="M32.3 19.76C35.27 25.49 40.69 29.83 46.92 31.51C47.96 31.79 48.4 30.18 47.36 29.9C41.52 28.33 36.52 24.28 33.74 18.92C33.24 17.96 31.8 18.81 32.3 19.76Z" fill="#F3D54C"/>
<path d="M32.7999 18.37C30.9799 16.59 28.7599 15.25 26.3299 14.49C24.0299 13.77 21.1699 13.46 19.1599 15.07C17.5399 16.37 16.8899 19.02 18.3599 20.67C19.1899 21.6 20.4699 21.95 21.6699 22.13C22.8699 22.31 24.0899 22.35 25.2999 22.22C28.1199 21.91 30.7399 20.82 32.9399 19.03C33.2899 18.74 33.2399 18.14 32.9399 17.85C32.5899 17.5 32.1099 17.56 31.7599 17.85C30.1899 19.13 28.2999 19.98 26.3099 20.39C25.3199 20.59 24.3099 20.67 23.2999 20.63C22.3499 20.59 21.2999 20.49 20.4099 20.11C19.6899 19.8 19.1999 19.24 19.1999 18.44C19.1999 17.7 19.5599 16.98 20.0899 16.48C21.4999 15.15 23.8699 15.53 25.5499 16.01C27.8299 16.67 29.9099 17.9 31.6099 19.56C32.3799 20.31 33.5599 19.13 32.7899 18.38L32.7999 18.37Z" fill="#F3D54C"/>
<path d="M31.7499 18.91C28.9699 24.27 23.9699 28.32 18.1299 29.89C17.0899 30.17 17.5299 31.78 18.5699 31.5C24.7999 29.83 30.2199 25.48 33.1899 19.75C33.6799 18.8 32.2399 17.95 31.7499 18.91V18.91Z" fill="#F3D54C"/>
</svg>
