<svg width="64" height="79" viewBox="0 0 64 79" fill="none" xmlns="http://www.w3.org/2000/svg">
<path d="M39.8299 23.6C39.8299 23.6 47.4199 13.97 47.0799 9.29001C46.7399 4.61001 40.44 10.37 37.1 7.48001C33.76 4.59001 36.8699 -0.509993 29.0599 0.0500067C21.2499 0.610007 24.7499 10.25 19.6099 8.74001C14.4799 7.23001 13.5099 5.31001 9.89995 9.49001C6.28995 13.67 18.2899 25.15 18.2899 25.15C18.2899 25.15 0.759946 34.57 0.0599459 55.34C-0.640054 76.11 20.7499 81.16 40.2899 77.87C55.4199 75.32 65.96 66.09 63.16 51.11C60.1 34.72 50.2999 28.8 39.8299 23.6V23.6Z" fill="#F27B18"/>
<path d="M52.9748 54.5969C53.9902 42.7774 45.2317 32.3726 33.4121 31.3572C21.5926 30.3419 11.1878 39.1004 10.1725 50.9199C9.15711 62.7395 17.9156 73.1442 29.7352 74.1596C41.5547 75.175 51.9595 66.4165 52.9748 54.5969Z" fill="#F9E9E6"/>
<path d="M33.0099 72.52C22.1099 73.31 12.5999 65.08 11.8199 54.18C11.0399 43.28 19.2599 33.77 30.1599 32.99C41.0599 32.21 50.5699 40.43 51.3499 51.33C52.1399 62.23 43.9099 71.74 33.0099 72.52V72.52ZM30.2399 34.08C19.9499 34.82 12.1799 43.8 12.9199 54.09C13.6599 64.38 22.6399 72.15 32.9299 71.41C43.2199 70.67 50.9899 61.69 50.2499 51.4C49.5099 41.11 40.5299 33.34 30.2399 34.08V34.08Z" fill="#FDB04D"/>
<path d="M20.7999 24.71C20.7999 24.71 11.0299 12.31 15.9299 13.97C20.8299 15.63 25.9899 23.32 25.7899 20.6C25.5899 17.88 26.1499 11.98 27.4599 12.93C28.7599 13.88 29.1099 22.74 30.9399 20.95C32.7699 19.16 36.4899 10.33 36.6799 13.05C36.8699 15.77 35.2499 20.42 35.8099 19.88C36.3699 19.34 40.9999 11.44 41.2399 14.74C41.4799 18.04 36.0299 20.59 38.1099 23.46C40.1899 26.33 46.5399 29.19 44.3399 29.35C42.1399 29.51 35.4899 24.95 34.5299 25.88C33.5699 26.81 29.3299 31.87 29.2299 30.44C29.1299 29.01 28.9499 25.35 27.7499 26.51C26.5499 27.68 23.6799 33.97 23.4799 31.12C23.2799 28.27 23.9299 25.49 23.1299 26.27C22.3299 27.05 14.7099 33.93 15.7199 30.69C16.7299 27.45 20.7999 24.71 20.7999 24.71V24.71Z" fill="#EE6615"/>
<path d="M29.8999 27.43C31.1999 25.83 32.8299 24.5 34.6899 23.6C36.3799 22.78 38.5899 22 40.4199 22.83C41.6199 23.37 42.6299 25.19 41.5299 26.3C40.8799 26.96 39.7999 27.22 38.9299 27.41C37.9799 27.61 37.0099 27.71 36.0399 27.69C33.7699 27.65 31.4899 26.98 29.5699 25.76C29.1899 25.52 28.6999 25.52 28.4099 25.89C28.1499 26.21 28.1599 26.81 28.5399 27.05C30.6099 28.38 32.9899 29.18 35.4499 29.31C36.6799 29.37 37.9099 29.31 39.1199 29.05C40.2899 28.8 41.5699 28.46 42.4899 27.66C44.2699 26.1 43.7899 23.5 42.1799 22.02C40.3499 20.35 37.5299 20.72 35.3999 21.5C32.7399 22.48 30.3899 24.2 28.6099 26.4C27.9399 27.23 29.2299 28.26 29.9099 27.43H29.8999Z" fill="#FFBB22"/>
<path d="M28.3799 27.8C31.9399 33.11 37.7599 36.77 44.0799 37.72C45.1299 37.88 45.3899 36.24 44.3399 36.08C38.4199 35.19 33.0499 31.77 29.7099 26.81C29.1199 25.93 27.7899 26.92 28.3799 27.8V27.8Z" fill="#FFBB22"/>
<path d="M28.7199 26.38C26.7299 24.83 24.3999 23.76 21.9199 23.28C19.5799 22.83 16.7299 22.85 14.9399 24.66C13.4899 26.12 13.1499 28.8 14.7799 30.26C15.6999 31.09 16.9999 31.28 18.1999 31.32C19.3999 31.36 20.5999 31.27 21.7799 31C24.5199 30.37 26.9699 29.01 28.9399 27C29.2499 26.68 29.1299 26.09 28.8099 25.84C28.4299 25.54 27.9599 25.65 27.6499 25.97C26.2499 27.41 24.4799 28.46 22.5799 29.08C21.6299 29.39 20.6399 29.58 19.6499 29.65C18.7099 29.72 17.6699 29.74 16.7499 29.47C16.0099 29.25 15.4599 28.75 15.3699 27.96C15.2899 27.23 15.5599 26.48 16.0199 25.93C17.2599 24.46 19.6299 24.57 21.3399 24.85C23.6599 25.24 25.8399 26.22 27.6999 27.66C28.5399 28.32 29.5699 27.02 28.7299 26.36L28.7199 26.38Z" fill="#FFBB22"/>
<path d="M27.7399 27.03C25.6099 32.62 21.1399 37.16 15.5799 39.36C14.5899 39.75 15.1999 41.29 16.1999 40.9C22.1399 38.55 26.9799 33.67 29.2599 27.7C29.6399 26.71 28.1199 26.03 27.7399 27.03V27.03Z" fill="#FFBB22"/>
<path d="M28.8699 44.56L20.4499 44.27C19.8199 44.25 19.3199 43.72 19.3399 43.08C19.3599 42.44 19.8899 41.95 20.5299 41.97L28.9499 42.26C29.5799 42.28 30.0799 42.81 30.0599 43.45C30.0399 44.09 29.5099 44.58 28.8699 44.56Z" fill="#C17017"/>
<path d="M44.2598 45.1L32.1199 44.68C31.4899 44.66 30.9899 44.13 31.0099 43.49C31.0299 42.85 31.5599 42.36 32.1999 42.38L44.3399 42.8C44.9699 42.82 45.4699 43.35 45.4499 43.99C45.4299 44.63 44.8998 45.12 44.2598 45.1Z" fill="#C17017"/>
<path d="M20.0999 48.42C19.4899 48.4 18.9999 47.9 18.9899 47.28C18.9899 46.65 19.4999 46.13 20.1299 46.12L29.3499 46.06C29.9699 46.06 30.4999 46.57 30.5099 47.2C30.5099 47.83 29.9999 48.35 29.3699 48.36L20.1499 48.42C20.1499 48.42 20.1199 48.42 20.0999 48.42Z" fill="#C17017"/>
<path d="M24.5499 64.89C23.9199 64.87 23.4199 64.34 23.4399 63.7L24.0099 47.41C24.0299 46.78 24.5599 46.28 25.1999 46.3C25.8399 46.32 26.3299 46.85 26.3099 47.49L25.7399 63.78C25.7199 64.41 25.1899 64.91 24.5499 64.89Z" fill="#C17017"/>
<path d="M19.3099 58.44C19.0799 58.44 18.8599 58.36 18.6599 58.21C18.1499 57.83 18.0499 57.11 18.4199 56.6C19.7799 54.78 20.3899 52.12 20.3899 52.09C20.5299 51.47 21.1399 51.08 21.7599 51.22C22.3799 51.36 22.7699 51.97 22.6299 52.59C22.5999 52.72 21.9199 55.75 20.2599 57.98C20.0299 58.29 19.6599 58.45 19.2999 58.44H19.3099Z" fill="#C17017"/>
<path d="M28.9599 58.45C28.5099 58.43 28.0899 58.15 27.9199 57.7C27.3399 56.11 26.6299 52.94 26.6099 52.81C26.4699 52.19 26.8599 51.58 27.4799 51.44C28.0999 51.3 28.7099 51.69 28.8499 52.31C28.8499 52.34 29.5499 55.46 30.0799 56.91C30.2999 57.51 29.9899 58.17 29.3999 58.38C29.2599 58.43 29.1099 58.46 28.9599 58.45Z" fill="#C17017"/>
<path d="M37.8199 52.75C37.0999 52.73 33.4799 52.58 32.4499 52.11C32.0999 51.95 31.4799 51.53 31.3099 50.49C31.1199 49.35 31.5599 47.78 32.2399 47.15C32.4799 46.93 33.0999 46.35 37.1399 46.34L41.0699 46.48C41.7699 46.5 43.0599 47.07 42.9899 49.05V49.35C42.9399 50.6 42.8899 52.31 40.8199 52.69C40.1499 52.81 38.8099 52.8 37.7999 52.76L37.8199 52.75ZM33.5699 50.06C34.1499 50.19 35.7999 50.38 37.8999 50.45C39.3399 50.5 40.1699 50.46 40.4299 50.41C40.5699 50.38 40.6199 50.35 40.6199 50.35C40.6699 50.24 40.6899 49.68 40.6999 49.26V48.94C40.7099 48.86 40.7099 48.79 40.6999 48.74L37.1099 48.62C35.7699 48.62 34.2799 48.74 33.7699 48.89C33.6499 49.14 33.5299 49.73 33.5599 50.06H33.5699Z" fill="#C17017"/>
<path d="M39.2699 64.25L33.0699 64.03C32.9799 64.03 32.8899 64.01 32.8099 63.99C32.1199 63.8 30.8199 62.96 30.8799 61.13L31.0699 55.65C31.1299 54 32.6499 53.29 33.6599 53.32L40.5099 53.56C40.6599 53.56 40.8099 53.6 40.9399 53.66C41.6399 53.97 42.7999 54.89 42.7499 56.35L42.5499 62.04C42.5799 62.42 42.4799 62.91 42.1199 63.34C41.5699 63.99 40.6399 64.29 39.2699 64.24V64.25ZM33.3599 61.74L39.3499 61.95C39.7999 61.97 40.1099 61.92 40.2599 61.89L40.4599 56.28C40.4599 56.12 40.2899 55.95 40.1499 55.85L33.5899 55.62C33.5899 55.62 33.4099 55.68 33.3699 55.72L33.1899 61.2C33.1899 61.46 33.2499 61.64 33.3799 61.73L33.3599 61.74Z" fill="#C17017"/>
<path d="M36.6299 64.16C35.9999 64.14 35.4999 63.61 35.5199 62.97L35.8099 54.55C35.8299 53.92 36.3599 53.42 36.9999 53.44C37.6399 53.46 38.1299 53.99 38.1099 54.63L37.8199 63.05C37.7999 63.68 37.2699 64.18 36.6299 64.16V64.16Z" fill="#C17017"/>
<path d="M41.49 59.64L32.0899 59.31C31.4599 59.29 30.9599 58.76 30.9799 58.12C30.9999 57.48 31.5299 56.99 32.1499 57.49L41.5499 57.82C42.1999 57.37 42.6999 57.9 42.6799 58.53C42.6599 59.16 42.13 59.66 41.49 59.64Z" fill="#C17017"/>
</svg>
