<svg width="350" height="150" viewBox="0 0 350 150" fill="none" xmlns="http://www.w3.org/2000/svg">
<g clip-path="url(#clip0_261_1714)">
<g opacity="0.4" clip-path="url(#clip1_261_1714)">
<path d="M27.7367 82.0423C27.7367 82.0423 27.7808 96.3929 33.2384 103.733C38.696 111.074 50.0525 139.702 113.771 146.543C177.49 153.384 222.283 148.977 259.001 142.805C295.718 136.632 330.229 106.441 324.36 73.0501C318.483 39.6594 27.744 82.0423 27.744 82.0423H27.7367Z" fill="#BC8050"/>
<path opacity="0.1" d="M328.162 44.9613C318.277 45.6301 286.399 58.2483 263.061 56.9027C212.376 53.9858 161.168 52.6483 109.858 54.9205C86.6008 55.9519 63.3729 57.2572 40.1965 58.8365C27.1409 59.7309 14.0927 60.7059 1.06652 61.7695C0.522227 61.8098 -0.147101 62.124 0.125043 62.5349C4.97951 69.6498 9.24556 76.9097 12.9158 84.2904C26.5819 90.9943 41.947 96.3123 58.1948 100.236C59.4526 100.543 60.725 100.833 61.9975 101.123C61.9754 101.147 61.9534 101.163 61.946 101.187C61.1958 102.468 61.7033 104.048 61.8136 105.385C61.8651 106.046 61.8357 106.747 61.9239 107.432C56.8341 106.239 51.8031 104.942 46.8309 103.564C46.7427 103.508 46.625 103.476 46.4926 103.467C39.3506 101.485 32.3043 99.3339 25.3168 97.0778C24.7505 96.8925 24.2944 97.384 24.8167 97.6015C27.3248 98.649 29.8918 99.6401 32.5029 100.599C32.194 101.324 32.0101 102.025 31.9218 102.734C32.2308 102.887 32.5323 103.04 32.8486 103.194C32.9736 103.379 33.0987 103.564 33.2311 103.741C33.5915 104.233 33.9887 104.813 34.4153 105.482C34.1284 104.007 34.0034 102.517 33.7239 101.042C37.4236 102.364 41.2115 103.596 45.073 104.749C44.4111 106.094 44.5067 107.77 44.5729 109.019C44.6464 110.405 44.6317 112.307 45.735 113.612C43.2269 112.919 40.7702 112.178 38.3283 111.412C38.7622 112.025 39.2256 112.661 39.7258 113.314C42.9988 114.353 46.3528 115.288 49.6921 116.158C54.3921 117.383 59.1951 118.438 64.0496 119.397C63.4832 121.202 64.1231 123.2 64.4026 124.997C64.5792 126.093 64.7263 127.189 64.9249 128.285C64.9616 128.478 64.9837 128.672 65.0205 128.865C62.9316 128.398 60.8501 127.922 58.7906 127.415C56.4957 126.851 54.245 126.238 52.0164 125.602C53.0241 126.375 54.0832 127.141 55.2012 127.906C58.6361 128.841 62.1078 129.711 65.6163 130.509C65.7045 130.63 65.8075 130.742 65.9325 130.855C66.2709 131.153 66.8667 131.121 67.1682 130.863C71.6182 131.854 76.1269 132.749 80.6798 133.554C87.6232 134.779 94.6622 135.786 101.753 136.624C101.642 138.163 101.907 139.63 102.341 141.169C102.532 141.862 102.643 142.99 103.128 143.892C98.8915 143.361 94.6695 142.797 90.4697 142.2C89.1016 142.007 87.7482 141.789 86.3875 141.588C94.2429 143.699 103.297 145.423 113.779 146.551C166.575 152.224 206.374 150.161 239.355 145.778C239.899 145.681 240.443 145.593 240.988 145.496C249.689 143.884 258.199 141.862 266.378 139.42C267.643 139.042 268.901 138.647 270.151 138.252C269.909 138.969 269.644 139.686 269.386 140.411C291.393 133.949 311.208 119.244 320.086 101.05C338.974 91.3166 350 78.5212 350 62.4866C350 56.5884 348.5 51.1254 345.668 46.0894C340.74 44.9372 334.914 44.5101 328.162 44.9613V44.9613ZM252.602 121.968C252.749 122.403 253.845 122.491 254.176 122.097C254.977 121.13 255.007 120.058 255.22 118.986C255.441 117.874 255.647 116.843 255.588 115.747C259.773 115.159 263.929 114.506 268.048 113.773C267.864 114.563 267.834 115.393 267.643 116.134C267.327 117.375 266.533 118.72 266.621 119.994C261.965 120.985 257.235 121.863 252.469 122.628C234.846 125.457 216.657 126.907 198.504 127.632C197.54 127.672 196.577 127.705 195.613 127.737C196.378 126.472 196.179 124.844 196.349 123.507C196.496 122.362 196.738 121.17 196.753 120.01C203.777 119.897 210.794 119.663 217.789 119.293C218.032 119.349 218.311 119.341 218.525 119.252C229.697 118.64 240.819 117.673 251.822 116.247C252.462 116.166 253.102 116.078 253.742 115.989C253.345 116.899 253.139 117.818 252.911 118.785C252.661 119.849 252.241 120.896 252.602 121.96V121.968ZM227.542 136.06C223.894 136.431 220.231 136.737 216.554 137.019C216.774 136.987 216.995 136.906 217.164 136.761C218.422 135.706 218.15 133.812 218.304 132.547C218.481 131.153 218.547 129.775 218.385 128.39C221.982 128.132 225.564 127.834 229.138 127.487C228.646 128.776 228.403 130.09 228.094 131.403C227.763 132.829 226.917 134.618 227.542 136.052V136.06ZM145.472 132.588C145.141 131.476 144.884 130.259 144.362 129.123C149.121 129.365 153.894 129.558 158.66 129.687C158.3 130.863 158.373 132.144 158.27 133.264C158.109 134.981 157.939 136.697 157.792 138.421C154.041 138.349 150.297 138.252 146.554 138.123C146.576 138.067 146.59 138.01 146.59 137.946C146.59 136.165 145.987 134.336 145.465 132.596L145.472 132.588ZM121.421 125.755C121.744 124.441 120.523 122.838 120.31 121.541C120.097 120.227 120.347 118.922 120.31 117.617C126.393 118.068 132.498 118.43 138.61 118.753C152.511 119.478 166.516 119.986 180.52 120.09C180.292 121.049 180.358 122.04 180.322 122.999C180.263 124.675 180.013 126.407 180.189 128.091C160.529 128.269 140.868 127.479 121.413 125.755H121.421ZM160.852 133.498C160.882 132.33 161.132 130.984 160.896 129.743C171.341 129.993 181.807 129.977 192.252 129.679C200.328 129.453 208.411 129.083 216.465 128.527C216.193 129.703 216.009 130.887 215.84 132.08C215.73 132.853 215.605 133.619 215.458 134.384C215.311 135.158 214.965 135.875 215.428 136.608C215.605 136.882 215.98 137.027 216.355 137.019C210.596 137.454 204.822 137.793 199.033 138.026C186.294 138.542 173.496 138.663 160.72 138.462C160.779 136.802 160.808 135.142 160.845 133.49L160.852 133.498ZM193.421 127.817C189.854 127.93 186.294 128.011 182.727 128.059C182.896 126.391 182.653 124.667 182.594 122.999C182.558 122.048 182.631 121.049 182.403 120.098C186.478 120.122 190.545 120.098 194.613 120.05C194.311 121.122 194.179 122.226 193.98 123.289C193.715 124.723 192.987 126.391 193.421 127.817V127.817ZM169.384 110.655C185.625 110.55 201.843 109.978 218.025 109.172C217.951 109.204 217.892 109.245 217.87 109.301C217.238 110.888 217.569 112.5 217.466 114.12C217.399 115.207 217.135 116.319 217.127 117.415C212.192 117.673 207.257 117.866 202.314 117.995C189.074 118.342 175.82 118.253 162.588 117.891C162.595 117.858 162.61 117.826 162.617 117.786C162.794 116.319 162.566 114.804 162.507 113.338C162.47 112.444 162.478 111.557 162.36 110.671C164.706 110.671 167.045 110.671 169.392 110.655H169.384ZM112.006 108.632C121.744 109.47 131.541 110.01 141.353 110.324C141.353 110.961 141.456 111.606 141.486 112.226C141.567 113.636 141.559 115.095 141.957 116.489C142.177 117.262 144.016 117.028 144.075 116.311C144.2 114.885 143.884 113.411 143.685 111.984C143.611 111.469 143.589 110.921 143.501 110.389C149.062 110.55 154.637 110.631 160.205 110.663C160.08 111.549 160.095 112.444 160.05 113.338C159.992 114.804 159.764 116.319 159.94 117.786C159.94 117.794 159.94 117.802 159.947 117.818C155.395 117.681 150.849 117.512 146.311 117.31C126.224 116.432 106.092 115.248 86.5052 112.234C84.3795 111.904 82.2759 111.549 80.1797 111.187C80.1061 110.276 79.8928 109.349 79.8266 108.463C79.731 107.198 80.0032 105.812 79.503 104.571C90.1681 106.368 101.054 107.698 111.999 108.64L112.006 108.632ZM102.981 119.438C102.849 118.737 102.76 118.028 102.753 117.318C102.753 116.891 102.819 116.456 102.797 116.037C107.96 116.593 113.153 117.069 118.368 117.463C117.691 118.825 117.787 120.364 118.015 121.75C118.206 122.91 118.398 124.538 119.567 125.586C114.426 125.11 109.292 124.57 104.18 123.966C104.393 122.475 103.26 120.92 102.981 119.438V119.438ZM78.2085 104.346C77.4068 105.546 77.5465 106.948 77.5244 108.221C77.5097 109.003 77.4509 109.865 77.5244 110.703C73.1333 109.889 68.8011 108.995 64.513 108.028C64.6233 106.997 64.2776 105.885 64.1673 104.91C64.0349 103.79 64.1231 102.533 63.4832 101.461C68.3304 102.533 73.2437 103.5 78.2085 104.354V104.346ZM54.8114 115.868C52.3547 115.32 49.9569 114.732 47.5885 114.112C47.6915 114.047 47.7724 113.966 47.7945 113.87C47.9931 113.112 47.6694 112.5 47.4341 111.751C47.1325 110.776 46.956 109.785 46.8824 108.794C46.8089 107.698 47.1325 106.505 47.184 105.361C52.2959 106.836 57.5181 108.165 62.8066 109.374C62.9537 109.462 63.1449 109.503 63.3361 109.495C68.1759 110.59 73.0598 111.581 77.9657 112.476C78.0246 112.597 78.0834 112.718 78.157 112.83C78.4586 113.33 79.9002 113.499 80.0914 112.855C86.7994 114.031 93.5736 114.982 100.392 115.763C99.752 117.012 100.068 118.729 100.282 119.857C100.51 121.097 100.745 122.572 101.811 123.684C95.9861 122.975 90.1828 122.177 84.4163 121.299C74.4205 119.776 64.513 118.019 54.8187 115.868H54.8114ZM78.9219 128.188C79.0764 129.163 79.1794 130.605 79.7972 131.782C75.6856 131.065 71.6182 130.283 67.5801 129.421C67.5433 128.881 67.3815 128.325 67.2859 127.817C67.08 126.722 66.8593 125.626 66.646 124.53C66.3371 122.943 66.2268 121.178 65.3147 119.647C68.9335 120.348 72.5817 121.009 76.2299 121.637C77.4877 121.855 78.7381 122.064 79.9958 122.274C79.4442 123.136 78.9808 123.893 78.8116 124.885C78.6204 125.98 78.7454 127.108 78.9219 128.196V128.188ZM88.4249 133.176C86.4758 132.886 84.534 132.58 82.5996 132.257C82.5039 131.774 82.2318 131.29 82.0479 130.823C81.6507 129.808 81.3271 128.792 81.1506 127.753C80.9888 126.794 80.9814 125.843 80.9226 124.876C80.8711 124.022 80.6431 123.192 80.518 122.354C97.9794 125.215 115.772 127.245 133.726 128.486C136.543 128.68 139.36 128.857 142.177 129.01C142.324 130.356 142.854 131.725 143.082 133.031C143.369 134.691 143.442 136.383 143.876 138.034C143.795 138.034 143.714 138.034 143.626 138.026C125.047 137.342 106.541 135.867 88.4249 133.184V133.176ZM119.471 141.749C119.471 143.046 119.302 144.561 119.905 145.834C115.198 145.343 110.505 144.803 105.827 144.231C105.879 143.191 104.879 141.878 104.584 141.016C104.106 139.614 103.753 138.204 103.312 136.81C108.821 137.438 114.367 137.962 119.928 138.397C119.391 139.461 119.464 140.661 119.471 141.749V141.749ZM178.873 144.303C178.836 145.858 178.556 147.502 178.85 149.057C159.977 149.122 141.052 147.978 122.362 146.092C122.7 144.755 122.252 143.336 122.186 141.991C122.134 140.895 122.333 139.67 121.98 138.558C126.738 138.913 131.505 139.203 136.271 139.445C150.503 140.162 164.839 140.476 179.137 140.347C178.615 141.588 178.902 143.079 178.873 144.303ZM191.553 144.585C191.465 145.512 191.384 146.431 191.332 147.357C191.303 147.841 191.171 148.348 191.207 148.832C187.868 148.944 184.521 149.009 181.175 149.041C181.447 147.494 181.153 145.85 181.109 144.303C181.072 143.07 181.351 141.58 180.807 140.331C184.58 140.291 188.346 140.218 192.112 140.113C191.803 141.596 191.7 143.087 191.553 144.585ZM250.108 141.354C250.167 141.451 250.27 141.531 250.388 141.58C248.703 141.967 247.012 142.337 245.305 142.692C229.822 145.899 213.663 147.8 197.393 148.59C196.26 148.646 195.135 148.695 194.002 148.735C194.017 148.525 194.024 148.308 194.039 148.05C194.113 147.051 194.194 146.052 194.23 145.045C194.297 143.377 194.429 141.709 194.297 140.049C212.324 139.493 230.359 138.131 247.88 135.4C248.88 135.247 249.88 135.085 250.881 134.916C250.63 135.738 250.447 136.568 250.277 137.39C250.027 138.631 249.395 140.146 250.101 141.346L250.108 141.354ZM263.76 134.924C263.414 136.06 262.664 137.197 262.642 138.357C262.642 138.381 262.642 138.397 262.642 138.421C259.001 139.469 255.294 140.436 251.543 141.314C252.462 140.307 252.41 138.969 252.609 137.849C252.8 136.761 252.955 135.658 252.977 134.562C256.779 133.901 260.545 133.176 264.274 132.37C264.113 133.224 264.01 134.078 263.752 134.924H263.76ZM270.953 135.843C269.916 136.189 268.879 136.528 267.827 136.858C266.989 137.124 266.143 137.382 265.297 137.64C265.826 136.802 266.04 135.851 266.238 135.005C266.481 133.949 266.628 132.934 266.415 131.895C268.504 131.427 270.578 130.944 272.637 130.428C272.093 132.233 271.541 134.038 270.96 135.835L270.953 135.843ZM274.594 124.006C274.16 125.392 273.741 126.786 273.321 128.172C266.599 129.921 259.699 131.387 252.69 132.62C245.129 133.949 237.465 135.005 229.727 135.835C230.58 134.578 230.514 132.918 230.734 131.629C230.977 130.178 231.286 128.736 231.264 127.286C236.67 126.746 242.047 126.109 247.379 125.36C257.096 123.99 266.68 122.226 275.918 119.913C275.462 121.275 275.021 122.636 274.601 124.006H274.594ZM276.698 117.633C274.197 118.285 271.659 118.89 269.107 119.462C269.761 118.479 269.982 117.351 270.21 116.343C270.416 115.417 270.71 114.329 270.512 113.338C273.344 112.814 276.161 112.258 278.956 111.662C278.146 113.644 277.396 115.634 276.698 117.633V117.633ZM281.787 105.401C281.125 106.723 280.508 108.06 279.919 109.398C272.667 110.993 265.275 112.339 257.794 113.451C249.307 114.716 240.723 115.683 232.081 116.4C232.809 115.385 232.897 114.16 233.073 113.08C233.301 111.662 233.537 110.22 232.779 108.85C232.507 108.358 231.374 108.334 231.124 108.85C230.47 110.187 230.551 111.59 230.256 112.967C229.999 114.184 229.374 115.385 229.536 116.609C226.248 116.867 222.953 117.085 219.657 117.278C219.915 116.239 219.878 115.143 219.849 114.12C219.797 112.436 219.812 110.768 218.591 109.237C218.554 109.196 218.503 109.164 218.444 109.148C221.217 109.011 223.99 108.866 226.763 108.713C245.07 107.706 267.886 100.808 286.156 99.6159C286.289 99.6079 281.831 105.329 281.795 105.401H281.787Z" fill="black"/>
<path d="M174.996 124.957C271.644 124.957 349.993 96.9844 349.993 62.4785C349.993 27.9726 271.644 0 174.996 0C78.3485 0 0 27.9726 0 62.4785C0 96.9844 78.3485 124.957 174.996 124.957Z" fill="#D38C5B"/>
<path d="M175.526 113.709C262.843 113.709 333.627 90.2274 333.627 61.2618C333.627 32.2962 262.843 8.815 175.526 8.815C88.209 8.815 17.4246 32.2962 17.4246 61.2618C17.4246 90.2274 88.209 113.709 175.526 113.709Z" fill="#BA8156"/>
<path opacity="0.1" d="M333.929 61.2377C334.422 50.3841 332.09 50.513 320.689 40.2879C312.466 32.9152 286.693 24.0761 281.706 22.5612C282.641 25.0188 282.339 23.7779 283.111 26.2677C281.898 25.8407 280.684 25.4217 279.456 25.0188C271.534 22.4162 263.289 20.2648 254.86 18.5486C250.895 17.7348 246.894 17.0257 242.878 16.4053C243.055 15.4142 242.922 14.4714 242.782 13.4562C242.628 12.3603 242.569 11.2645 241.856 10.2573C241.517 9.78192 240.363 9.91084 240.201 10.4024C239.848 11.4901 240.171 12.5779 240.392 13.6737C240.568 14.5359 240.73 15.3417 241.083 16.1313C237.428 15.5914 233.75 15.1241 230.058 14.7212C231.235 12.9808 230.69 10.354 229.344 8.78278C228.969 8.33961 228.138 8.5894 228.057 9.01645C227.844 10.1687 228.145 11.2242 228.256 12.3765C228.337 13.1419 228.396 13.8671 228.734 14.5762C211.464 12.7955 193.885 12.5296 176.401 13.2789C176.504 12.2878 176.585 11.3048 176.703 10.3137C176.842 9.1212 177.607 7.5822 176.923 6.4622C176.644 6.00291 175.673 5.64838 175.085 6.13183C173.805 7.17932 173.974 8.75861 173.93 10.072C173.893 11.2242 173.974 12.2959 174.217 13.3837C171.01 13.5368 167.81 13.7221 164.618 13.9396C164.986 12.8357 165.059 11.6432 165.258 10.5796C165.53 9.11314 166.347 7.1068 165.648 5.69673C165.346 5.09241 164.111 4.9232 163.61 5.51946C162.507 6.82479 162.713 8.8553 162.551 10.3379C162.419 11.5304 162.095 12.868 162.228 14.1169C159.087 14.3425 155.961 14.6004 152.835 14.8904C135.771 16.4455 118.699 18.5727 102.069 21.6105C102.047 21.6105 102.025 21.6185 101.995 21.6266C102.165 20.9497 102.245 20.2568 102.378 19.5719C102.628 18.2827 103.481 16.5745 102.525 15.39C102.275 15.0838 101.569 15.0032 101.216 15.2772C99.958 16.236 100.157 17.8637 99.98 19.0884C99.8403 20.0715 99.5681 21.0787 99.5976 22.0778C95.508 22.8513 91.3744 23.7054 87.2849 24.6804C87.7924 23.5684 88.0277 22.3679 88.3146 21.2237C88.572 20.1923 89.1457 19.1045 88.3881 18.1376C88.1601 17.8476 87.5717 17.8314 87.2481 18.0409C86.0124 18.8306 86.086 20.1762 85.8285 21.2559C85.5343 22.4887 85.1739 23.7941 85.2475 25.043C85.2475 25.0913 85.2548 25.1316 85.2695 25.1719C76.708 27.3152 68.426 30.0306 61.3061 33.7452C61.3429 33.6082 61.3796 33.4793 61.4091 33.3423C61.4973 32.9475 60.8206 32.746 60.4676 33.0764C57.5623 35.7596 56.5693 39.8931 57.5475 43.1161C57.5696 43.1806 57.6211 43.237 57.6873 43.2692C55.2601 44.3087 52.9358 45.4287 50.7586 46.6776C50.641 46.7421 50.7881 46.8468 50.9057 46.8065C60.1072 43.8413 68.882 40.3927 78.385 37.8384C80.3856 37.2986 82.401 36.7829 84.4237 36.2914C84.3942 36.5009 84.3648 36.7104 84.3354 36.9118C84.1442 38.0802 83.9971 39.2485 83.8279 40.4169C83.5484 42.3346 82.9379 44.4618 83.4822 46.3795C78.7822 47.4028 74.1263 48.5308 69.5734 49.8362C61.7621 52.0681 53.8184 54.6868 47.309 58.4256C46.9486 58.6351 47.412 59.0138 47.8018 58.8607C49.7877 58.0871 51.781 57.3297 53.7743 56.5884C53.0167 57.8051 52.7519 59.2716 52.546 60.4722C52.1856 62.5349 52.1561 64.4204 52.9284 66.4187C50.3982 67.4339 47.9122 68.4975 45.4849 69.6095C44.9774 69.8432 45.4187 70.3669 45.9704 70.1735C52.7372 67.7643 59.5555 65.4759 66.4768 63.3649C66.6019 63.3649 66.7122 63.3246 66.8005 63.2682C71.6182 61.8017 76.4873 60.4238 81.4227 59.1507C81.3345 59.8759 81.3639 60.6253 81.3124 61.3263C81.2094 62.7525 80.7166 64.4365 81.4448 65.8063C81.4595 65.8305 81.4816 65.8547 81.4963 65.8708C80.2679 66.177 61.5341 73.8317 60.3131 74.162L39.7184 85.4426C40.8658 86.0389 48.8095 89.7051 50.0158 90.2772C50.1408 90.4625 130.791 80.4308 130.924 80.6081C131.836 81.8328 205.955 85.6441 207.418 87.8599C215.31 88.5287 250.263 99.35 258.17 99.9463C280.618 101.63 332.458 93.5002 333.929 61.2699V61.2377ZM65.1088 61.979C61.3649 63.2037 57.702 64.5171 54.1126 65.9272C54.4289 64.0981 54.5245 62.2529 54.9217 60.4238C55.238 58.9574 56.0177 57.3056 55.8779 55.8068C59.1216 54.6465 62.3947 53.5427 65.7413 52.5274C64.6748 53.9214 64.6821 55.9438 64.6159 57.4264C64.5571 58.7559 64.4615 60.5447 65.1014 61.979H65.1088ZM291.629 54.6063C288.922 53.9697 286.193 53.3735 283.45 52.8175C283.641 51.7619 283.361 50.6097 283.155 49.6186C282.935 48.547 282.721 47.3383 282.089 46.2908C284.56 46.9032 287.017 47.5478 289.444 48.2408C290.121 50.368 290.842 52.4871 291.629 54.5982V54.6063ZM287.407 41.4482C287.819 42.9066 288.245 44.357 288.687 45.8074C279.735 43.3418 270.453 41.4563 261.046 40.0059C255.882 39.2082 250.675 38.5314 245.438 37.9593C245.46 36.4122 245.158 34.8813 244.923 33.3262C244.717 31.9483 244.776 30.1837 243.952 28.8462C251.447 29.7325 258.876 30.8525 266.194 32.2706C272.983 33.584 279.669 35.1553 286.178 37.0166C286.583 38.4991 286.995 39.9817 287.414 41.4563L287.407 41.4482ZM280.853 27.7503C281.868 28.1049 282.876 28.4675 283.884 28.8381C284.45 30.7558 284.98 32.6816 285.509 34.5993C283.516 34.0514 281.508 33.5357 279.485 33.0361C279.691 31.9322 279.551 30.8525 279.316 29.7244C279.125 28.822 278.919 27.8067 278.404 26.9204C279.22 27.1944 280.044 27.4683 280.853 27.7503V27.7503ZM275.837 26.0905C275.837 26.0905 275.837 26.1388 275.837 26.163C275.859 27.3958 276.587 28.6125 276.918 29.8211C277.168 30.7236 277.264 31.6341 277.426 32.5446C273.814 31.6905 270.166 30.9089 266.481 30.2079C266.459 29.0395 266.312 27.8631 266.121 26.7028C265.929 25.5023 265.981 24.0841 265.091 23.0044C268.732 23.9391 272.314 24.9705 275.844 26.0824L275.837 26.0905ZM212.633 15.2611C228.396 16.0991 244.047 18.1215 259.045 21.546C260.692 21.9247 262.333 22.3195 263.966 22.7305C263.848 22.7869 263.745 22.8674 263.693 22.9722C263.009 24.2533 263.62 25.8649 263.863 27.1944C264.024 28.0726 264.201 28.959 264.444 29.8292C263.48 29.6519 262.509 29.4827 261.538 29.3135C244.57 26.4047 227.101 24.9463 209.64 24.3581C209.772 22.5854 209.64 20.8047 209.581 19.032C209.544 17.9684 209.47 16.8968 209.397 15.8332C209.382 15.5673 209.375 15.3255 209.36 15.108C210.456 15.1563 211.552 15.2047 212.641 15.2611H212.633ZM232.897 32.3512C232.742 31.0056 233.007 28.9831 231.794 27.8631C231.632 27.71 231.419 27.6295 231.205 27.5892C234.765 27.8873 238.31 28.2177 241.848 28.6125C241.245 30.1434 242.062 32.045 242.385 33.5679C242.679 34.9699 242.922 36.3719 243.4 37.7417C239.936 37.3791 236.464 37.0649 232.985 36.7829C233.14 35.3083 233.073 33.8419 232.904 32.3512H232.897ZM196.864 19.8217C196.908 18.1779 197.194 16.4214 196.93 14.7696C200.173 14.8018 203.41 14.8743 206.646 14.9952C206.609 15.5109 206.734 16.0507 206.764 16.5664C206.823 17.5494 206.889 18.5325 206.984 19.5235C207.124 21.1109 207.227 22.7063 207.529 24.2856C203.88 24.1728 200.232 24.1002 196.577 24.06C197.106 22.7385 196.834 21.1351 196.871 19.8297L196.864 19.8217ZM214.237 26.4933C219.841 26.7431 225.431 27.1057 231.014 27.565C230.646 27.565 230.286 27.71 230.117 28.0001C229.661 28.7817 229.999 29.5552 230.139 30.3771C230.278 31.199 230.404 32.0128 230.506 32.8347C230.668 34.1078 230.852 35.3647 231.117 36.6217C223.313 36.0335 215.48 35.6387 207.661 35.397C197.548 35.0827 187.412 35.0586 177.291 35.3245C177.519 34.003 177.269 32.5688 177.247 31.3279C177.21 29.5633 177.181 27.7906 177.122 26.026C189.501 25.8085 201.894 25.9374 214.237 26.4853V26.4933ZM198.43 37.1294C201.887 37.1777 205.337 37.2663 208.786 37.3872C208.36 38.9101 209.066 40.6828 209.323 42.2137C209.515 43.3418 209.647 44.5262 209.934 45.6623C205.991 45.6059 202.049 45.5898 198.107 45.614C198.327 44.5987 198.261 43.5432 198.298 42.5279C198.357 40.7472 198.592 38.9101 198.423 37.1294H198.43ZM137.977 44.075C138.183 42.6891 139.36 40.9889 139.051 39.5789C157.895 37.7417 176.938 36.8957 195.981 37.0891C195.804 38.8779 196.047 40.723 196.106 42.5199C196.135 43.5432 196.076 44.6068 196.297 45.6221C182.727 45.7349 169.164 46.2747 155.696 47.0482C149.768 47.3867 143.854 47.7815 137.97 48.2569C138.014 46.8629 137.764 45.469 137.97 44.075H137.977ZM136.087 48.418C131.041 48.8451 126.01 49.3447 121.009 49.9409C121.031 49.4897 120.965 49.0304 120.965 48.5711C120.972 47.8137 121.06 47.0644 121.185 46.315C121.457 44.7277 122.553 43.0759 122.347 41.4885C127.297 40.8439 132.262 40.2718 137.249 39.7642C136.116 40.8842 135.933 42.6166 135.749 43.8494C135.528 45.3239 135.44 46.9677 136.094 48.418H136.087ZM99.4284 43.2048C99.5534 42.3104 99.7741 41.4241 99.8256 40.5135C99.8844 39.4902 99.8918 38.475 100.046 37.4517C100.215 36.3478 100.524 35.26 100.914 34.1722C101.091 33.6727 101.348 33.157 101.444 32.6413C103.319 32.3029 105.202 31.9725 107.085 31.6663C124.635 28.8059 142.552 27.2346 160.551 26.5014C160.632 26.5014 160.712 26.5014 160.786 26.4933C160.367 28.2499 160.293 30.0548 160.021 31.8275C159.8 33.2214 159.293 34.6799 159.146 36.1141C156.417 36.2833 153.688 36.4606 150.959 36.6701C133.572 37.9915 116.331 40.159 99.421 43.2048H99.4284ZM163.404 26.3967C167.031 26.2597 170.657 26.1549 174.29 26.0824C174.43 27.9115 174.592 29.7486 174.754 31.5777C174.857 32.7702 174.783 34.14 175.136 35.3889C170.517 35.5259 165.898 35.7273 161.286 35.9852C161.794 34.7765 162.036 33.4793 162.36 32.2948C162.86 30.4335 163.449 28.4836 163.449 26.59C163.449 26.5256 163.434 26.4611 163.412 26.3967H163.404ZM139.779 22.2792C139.838 20.845 140.28 19.3302 139.949 17.912C158.05 15.9057 176.379 14.6809 194.664 14.7534C194.385 16.4053 194.657 18.1618 194.686 19.8136C194.716 21.1109 194.429 22.7063 194.936 24.0277C181.086 23.8988 167.207 24.2292 153.416 24.9946C148.797 25.2525 144.178 25.5587 139.573 25.9374C139.912 24.7529 139.721 23.4556 139.772 22.2792H139.779ZM122.737 23.3106C123.024 22.4001 123.988 20.99 123.936 19.8861C128.46 19.2738 133.013 18.7017 137.573 18.1779C136.992 19.5397 137.161 21.1512 137.154 22.5371C137.154 23.6974 137.08 24.9785 137.595 26.1066C132.211 26.5739 126.841 27.1299 121.502 27.7987C121.928 26.308 122.266 24.8013 122.73 23.3106H122.737ZM67.6537 35.7032C67.5139 36.8715 67.2565 38.3138 67.6831 39.5305C64.5792 40.5538 61.5047 41.6497 58.5626 42.8744C59.026 41.3193 59.2613 39.7481 59.7541 38.201C60.1734 36.8957 60.725 35.6306 61.1296 34.3253C63.7848 33.3181 66.4621 32.3432 69.1615 31.4085C67.7199 32.3351 67.8081 34.422 67.6537 35.7032V35.7032ZM74.0527 37.5242C72.4493 38.0076 70.8385 38.5072 69.2351 39.0229C69.4925 38.0076 69.4631 36.9037 69.6396 35.9368C69.8823 34.5912 70.9341 32.7541 70.1103 31.4649C70.0074 31.3037 69.7499 31.2554 69.5146 31.2796C74.1851 29.6761 78.944 28.2177 83.8794 26.9768C89.1457 25.6554 94.5151 24.5434 99.9433 23.5604C100.105 23.8585 100.716 23.923 100.966 23.6329C101.054 23.5362 101.127 23.4315 101.201 23.3348C103.812 22.8755 106.431 22.4404 109.056 22.0375C113.124 21.409 117.213 20.8047 121.318 20.2326C120.847 21.1915 120.744 22.392 120.56 23.1333C120.141 24.769 119.883 26.3403 119.994 27.9759C113.124 28.8623 106.313 29.942 99.5829 31.2473C95.1771 32.1014 90.808 33.0522 86.4978 34.1158C86.2036 33.8419 85.6299 33.8016 85.3063 34.1239C85.1886 34.2447 85.093 34.3656 85.0047 34.4945C81.3124 35.4212 77.6568 36.4284 74.0601 37.5161L74.0527 37.5242ZM97.7735 40.5135C97.9353 41.561 98.3913 42.3748 98.9209 43.2934C97.6999 43.511 96.4863 43.7366 95.2727 43.9702C91.7348 44.639 88.2043 45.34 84.6958 46.0894C85.5858 44.4618 85.6888 42.5763 85.9903 40.8923C86.1963 39.7239 86.4096 38.5556 86.6082 37.3872C86.7038 36.8393 86.8583 36.2511 86.895 35.6709C90.8007 34.7524 94.7504 33.9144 98.7296 33.157C98.1339 34.414 98.0382 35.953 97.8838 36.9843C97.7146 38.1446 97.5969 39.3533 97.7735 40.5135V40.5135ZM82.9232 65.484C83.5484 64.3398 83.4601 63.0023 83.5852 61.8097C83.6955 60.7703 84.0338 59.5859 83.9235 58.482C88.0719 57.4506 92.2717 56.4917 96.5231 55.6296C96.4495 56.532 96.5084 57.4425 96.5231 58.2725C96.5451 59.6342 96.4127 61.1249 97.185 62.3979C92.3821 63.3085 87.6232 64.3318 82.9232 65.484V65.484ZM97.1335 53.3493C97.0674 53.4701 97.0085 53.5991 96.9497 53.728C92.2055 54.6868 87.4687 55.7424 82.7834 56.9107C82.5996 56.9107 82.4157 56.943 82.2686 57.0397C77.1493 58.3289 72.0889 59.747 67.1388 61.3182C67.0873 60.1015 66.7784 58.8365 66.8519 57.6601C66.9181 56.6045 67.0947 55.549 67.3815 54.5015C67.6095 53.7038 67.9185 53.0511 67.7272 52.2373C67.7052 52.1406 67.6316 52.052 67.5286 51.9795C69.8235 51.3107 72.1477 50.6822 74.5235 50.1021C83.9162 47.8137 93.5074 45.9363 103.194 44.3167C108.784 43.382 114.404 42.5279 120.045 41.7705C119.008 42.955 118.787 44.5262 118.559 45.8477C118.353 47.0482 118.045 48.8773 118.67 50.2149C112.065 51.0448 105.504 52.0601 99.0091 53.317C98.8253 52.6322 97.4278 52.8094 97.1409 53.3412L97.1335 53.3493ZM160.433 55.9599C160.521 55.3878 160.543 54.8077 160.609 54.2598C160.801 52.745 161.11 51.1657 160.992 49.6508C160.933 48.8934 159.153 48.6356 158.94 49.4655C158.557 50.9481 158.557 52.5032 158.484 54.01C158.447 54.6707 158.344 55.3637 158.351 56.0405C148.841 56.3709 139.353 56.951 129.923 57.8454C119.317 58.8526 108.777 60.2627 98.4428 62.1804C98.9282 60.8589 98.6634 59.3844 98.7591 58.0388C98.8253 57.088 99.0312 56.105 99.1048 55.13C101.135 54.7352 103.172 54.3565 105.232 54.01C124.201 50.795 143.7 49.53 163.154 48.5953C167.553 48.3858 171.959 48.2005 176.364 48.0554C176.364 48.0635 176.364 48.0716 176.357 48.0877C176.188 49.6508 176.409 51.2624 176.467 52.8255C176.504 53.7844 176.497 54.7352 176.614 55.6779C171.223 55.7101 165.824 55.7988 160.433 55.968V55.9599ZM185.5 55.6779C183.227 55.6618 180.961 55.6537 178.689 55.6618C178.806 54.7191 178.799 53.7763 178.836 52.8175C178.895 51.2543 179.115 49.6347 178.946 48.0796C178.946 48.0393 178.931 48.0071 178.917 47.9668C191.737 47.572 204.579 47.4834 217.399 47.854C222.188 47.991 226.976 48.1924 231.749 48.4744C231.749 49.6428 232.014 50.8353 232.073 51.9875C232.169 53.7199 231.852 55.4362 232.463 57.1283C232.485 57.1847 232.544 57.233 232.61 57.2653C216.936 56.4031 201.225 55.7988 185.5 55.6779V55.6779ZM232.389 46.46C225.615 46.0652 218.819 45.8154 212.015 45.6946C212.001 44.4537 211.765 43.1887 211.626 41.9639C211.456 40.5458 211.655 38.8053 210.912 37.4597C211.846 37.492 212.78 37.5322 213.714 37.5725C231.293 38.3461 248.909 39.8851 265.981 42.9066C270.6 43.7205 275.175 44.6551 279.684 45.7107C279.595 47.0724 280.368 48.4986 280.677 49.8281C280.861 50.6178 280.89 51.5041 281.067 52.3421C277.073 51.5686 273.049 50.8675 268.997 50.239C269.055 49.0707 268.857 47.9668 268.643 46.7904C268.438 45.6543 268.408 44.5101 267.636 43.4787C267.32 43.0517 266.26 43.1484 266.113 43.6157C265.76 44.7518 266.172 45.8638 266.407 46.9999C266.628 48.0313 266.827 49.0062 267.209 49.9812C266.591 49.8926 265.974 49.7959 265.348 49.7072C254.691 48.1924 243.922 47.1611 233.096 46.5084C232.89 46.4198 232.617 46.4036 232.382 46.4681L232.389 46.46ZM241.061 57.7487C238.377 57.5876 235.692 57.4345 233.007 57.2814C233.066 57.2653 233.118 57.233 233.147 57.1847C234.331 55.5571 234.316 53.7763 234.368 51.9875C234.397 50.8998 234.434 49.7314 234.184 48.6195C237.384 48.8209 240.568 49.0626 243.753 49.3285C243.599 50.6339 244.202 51.915 244.452 53.2123C244.732 54.6788 244.658 56.1694 245.291 57.5956C245.533 58.1435 246.637 58.1194 246.894 57.5956C247.622 56.1372 247.401 54.5982 247.181 53.0834C247.012 51.9311 246.923 50.6258 246.217 49.5461C254.588 50.3196 262.906 51.351 271.122 52.6966C278.367 53.8811 285.531 55.3153 292.555 57.0155C293.122 58.4417 293.725 59.8598 294.365 61.2699C294.402 61.3424 298.719 67.442 298.594 67.4339C280.897 66.1608 258.795 58.8123 241.061 57.7407V57.7487Z" fill="black"/>
<path d="M63.6083 22.3759C63.6083 22.3759 109.785 8.815 142.442 8.815" stroke="#EAAC7D" stroke-width="5" stroke-linecap="round" stroke-linejoin="round"/>
<path d="M320.711 40.4813C320.711 40.4813 331.575 48.0716 332.384 54.6707" stroke="#EAAC7D" stroke-width="5" stroke-linecap="round" stroke-linejoin="round"/>
<path opacity="0.5" d="M182.418 62.5913C122.362 62.5913 70.125 73.7027 43.3666 90.0596C71.6329 104.313 120.266 113.717 175.526 113.717C235.582 113.717 287.819 102.605 314.577 86.2484C286.311 71.9945 237.678 62.5913 182.418 62.5913V62.5913Z" fill="#704E37"/>
<path d="M336.054 68.7957C335.532 65.2181 330.612 65.9916 330.972 69.6659C331.531 75.3465 325.676 78.1828 322.388 80.0924C317.394 82.9851 312.282 85.5474 307.104 87.8519C296.66 92.485 285.921 96.0142 275.065 98.7135C253.403 104.112 231.33 106.288 209.309 107.649C163.986 110.453 118.008 110.002 73.4864 97.7224C61.2325 94.3463 49.1111 90.0838 37.2765 84.8303C29.1857 81.2366 18.1969 74.5971 18.0572 61.979C18.0351 60.2949 16.2036 60.0532 15.7917 61.5922C12.7614 72.8245 21.036 81.6072 28.0824 86.2484C32.7235 89.3022 37.7693 91.3489 42.7267 93.4197C48.4344 95.8047 54.2009 97.9561 60.0189 99.8818C83.0262 107.504 106.673 111.735 130.379 113.821C154.549 115.949 178.814 115.804 203.012 114.579C226.343 113.402 249.733 111.485 272.726 106.151C285.487 103.194 298.116 99.1486 310.326 93.5727C316.372 90.809 322.55 87.8519 328.243 84.0406C332.877 80.9465 337.099 75.9347 336.062 68.7796L336.054 68.7957Z" fill="#EAAC7D"/>
<path d="M170.363 7.20346C170.363 7.20346 183.448 5.88201 191.766 7.20346" stroke="#EAAC7D" stroke-width="5" stroke-linecap="round" stroke-linejoin="round"/>
<path d="M40.8879 22.3759C40.8879 22.3759 44.1021 23.4959 45.6247 31.3601" stroke="#EAAC7D" stroke-width="5" stroke-linecap="round" stroke-linejoin="round"/>
<path d="M30.7523 27.4522C30.7523 27.4522 35.5185 29.3457 37.2397 35.8321" stroke="#EAAC7D" stroke-width="5" stroke-linecap="round" stroke-linejoin="round"/>
<path d="M18.2631 36.6862L26.4716 42.7535" stroke="#EAAC7D" stroke-width="5" stroke-linecap="round" stroke-linejoin="round"/>
<path d="M310.796 38.346C310.796 38.346 315.121 30.8364 320.711 29.2974" stroke="#EAAC7D" stroke-width="5" stroke-linecap="round" stroke-linejoin="round"/>
<path d="M307.347 22.4807C307.347 22.4807 299.499 30.1837 300.411 33.8257" stroke="#EAAC7D" stroke-width="5" stroke-linecap="round" stroke-linejoin="round"/>
<path d="M23.0514 92.3883L32.5029 85.0639" stroke="#EAAC7D" stroke-width="5" stroke-linecap="round" stroke-linejoin="round"/>
<path d="M43.3666 90.0596L35.9451 97.4082" stroke="#EAAC7D" stroke-width="5" stroke-linecap="round" stroke-linejoin="round"/>
<path d="M255.691 105.119C255.691 105.119 258.103 112.927 255.588 115.747" stroke="#EAAC7D" stroke-width="5" stroke-linecap="round" stroke-linejoin="round"/>
<path d="M266.025 104.579C266.025 104.579 270.107 107.222 268.048 113.773" stroke="#EAAC7D" stroke-width="5" stroke-linecap="round" stroke-linejoin="round"/>
<path d="M143.685 111.984C146.098 111.976 140.25 113.878 138.477 118.567" stroke="#EAAC7D" stroke-width="5" stroke-linecap="round" stroke-linejoin="round"/>
</g>
<path d="M339.213 85.2637C339.613 84.8086 340.006 84.3456 340.385 83.8826C340.399 83.8591 340.421 83.8356 340.436 83.8199C340.8 83.3726 341.142 82.9175 341.477 82.4702C341.586 82.3211 341.688 82.172 341.797 82.0308C342.052 81.6777 342.292 81.3246 342.532 80.9715C342.634 80.8224 342.729 80.6733 342.83 80.5242C343.143 80.0377 343.456 79.5512 343.74 79.0568C343.748 79.0411 343.762 79.0254 343.769 79.0098C344.046 78.5311 344.315 78.0446 344.563 77.5502C344.643 77.3933 344.716 77.2442 344.796 77.0873C344.985 76.7106 345.16 76.334 345.334 75.9573C345.407 75.8004 345.473 75.6513 345.545 75.4944C345.771 74.9765 345.989 74.4586 346.186 73.9329L346.2 73.9015C346.39 73.3836 346.564 72.8657 346.732 72.34C346.783 72.183 346.826 72.0182 346.877 71.8613C346.994 71.4611 347.103 71.0609 347.205 70.6607C347.249 70.4959 347.285 70.339 347.329 70.1742C347.46 69.6249 347.576 69.0757 347.678 68.5185V68.5029C347.78 67.9536 347.86 67.3964 347.933 66.8315C347.955 66.6667 347.969 66.4941 347.991 66.3293C348.035 65.9134 348.071 65.4897 348.1 65.0659C348.115 64.8933 348.122 64.7285 348.137 64.5559C348.166 63.9831 348.188 63.4024 348.188 62.8139C348.188 62.1234 348.166 61.4407 348.122 60.7659C348.108 60.5619 348.086 60.3657 348.071 60.1617C348.035 59.6909 347.991 59.2122 347.933 58.7414C347.904 58.5138 347.867 58.2941 347.831 58.0744C347.765 57.6271 347.693 57.1877 347.613 56.7483C347.569 56.5286 347.518 56.3167 347.474 56.097C347.38 55.6497 347.278 55.2103 347.161 54.7709C347.11 54.5747 347.052 54.3707 346.994 54.1745C346.863 53.7194 346.725 53.2643 346.572 52.8092C346.513 52.6366 346.455 52.4639 346.397 52.2913C346.23 51.8048 346.048 51.3261 345.851 50.8553C345.793 50.7219 345.742 50.5807 345.684 50.4473C345.465 49.9216 345.225 49.4037 344.978 48.8936C344.934 48.8073 344.898 48.721 344.854 48.6347C344.555 48.0305 344.242 47.442 343.908 46.8534C326.409 16.2508 257.436 1.96173 174.996 1.96173C79.3532 1.96173 1.81969 19.6249 1.81969 62.8061C1.81969 79.8258 13.8733 92.883 34.334 102.456C34.4577 102.637 34.5815 102.817 34.7125 102.99C34.8872 103.225 35.0764 103.484 35.2657 103.767L35.2875 103.806C35.4768 104.08 35.666 104.371 35.8698 104.677C38.6649 108.938 43.1777 116.659 53.2952 124.294C53.7902 124.67 54.2997 125.047 54.8237 125.416C64.3298 132.203 78.4288 138.771 99.8648 142.632C102.027 143.024 104.261 143.385 106.576 143.715C106.838 143.754 107.093 143.785 107.355 143.825C108.221 143.942 109.094 144.06 109.982 144.17C110.295 144.209 110.601 144.248 110.914 144.288C112.057 144.429 113.214 144.562 114.393 144.688C116.213 144.884 118.018 145.064 119.809 145.237C120.384 145.292 120.951 145.347 121.526 145.402C122.749 145.519 123.958 145.629 125.166 145.739C125.821 145.794 126.469 145.857 127.124 145.912C128.252 146.006 129.38 146.1 130.501 146.194C131.142 146.249 131.782 146.296 132.416 146.343C133.609 146.438 134.788 146.524 135.968 146.61C136.499 146.649 137.03 146.689 137.554 146.728C139.228 146.846 140.888 146.955 142.54 147.05C142.81 147.065 143.079 147.081 143.348 147.097C144.731 147.175 146.107 147.254 147.468 147.324C148.065 147.356 148.654 147.379 149.244 147.411C150.278 147.458 151.311 147.513 152.33 147.552C152.978 147.583 153.626 147.607 154.266 147.63C155.242 147.67 156.21 147.701 157.171 147.74C157.804 147.764 158.437 147.787 159.063 147.803C160.082 147.834 161.094 147.858 162.098 147.889C162.644 147.905 163.19 147.921 163.736 147.928C165.221 147.96 166.691 147.991 168.147 148.007C168.671 148.007 169.181 148.015 169.705 148.023C170.68 148.03 171.655 148.046 172.616 148.046C173.279 148.046 173.941 148.046 174.596 148.046C175.404 148.046 176.212 148.046 177.013 148.046C177.704 148.046 178.396 148.046 179.08 148.038C179.844 148.038 180.601 148.023 181.351 148.015C182.042 148.007 182.734 147.999 183.418 147.991C184.168 147.976 184.91 147.968 185.652 147.952C186.322 147.936 186.999 147.928 187.661 147.913C188.935 147.881 190.202 147.842 191.461 147.803C192.218 147.779 192.968 147.748 193.725 147.724C194.322 147.701 194.911 147.685 195.501 147.654C196.272 147.622 197.044 147.591 197.808 147.552C198.361 147.528 198.914 147.505 199.46 147.473C200.246 147.434 201.025 147.395 201.804 147.356C202.306 147.332 202.801 147.301 203.296 147.269C204.111 147.222 204.919 147.175 205.727 147.128C206.084 147.105 206.441 147.081 206.797 147.057C209.811 146.861 212.766 146.642 215.67 146.406C215.91 146.383 216.158 146.367 216.398 146.343C217.301 146.265 218.203 146.186 219.098 146.108C219.382 146.084 219.659 146.061 219.943 146.03C220.853 145.943 221.762 145.857 222.658 145.771C222.847 145.755 223.044 145.731 223.233 145.716C235.76 144.476 247.296 142.844 258.12 141.047C278.253 137.72 297.709 127.205 310.076 112.963L310.098 112.939C311.794 110.986 313.359 108.953 314.771 106.866L314.807 106.819C315.142 106.317 315.469 105.815 315.79 105.312L315.841 105.226C316.838 103.641 317.748 102.017 318.57 100.369C318.643 100.33 318.709 100.298 318.774 100.259C319.4 99.9372 320.019 99.6155 320.63 99.286C320.848 99.1683 321.067 99.0506 321.285 98.925C321.758 98.6661 322.231 98.4071 322.697 98.1403C322.908 98.0226 323.119 97.9049 323.323 97.7794C323.957 97.4106 324.59 97.0418 325.201 96.6651C325.259 96.6337 325.31 96.5945 325.369 96.5631C325.936 96.2178 326.49 95.8647 327.035 95.5038C327.232 95.3782 327.421 95.2527 327.61 95.1193C328.033 94.8368 328.455 94.5543 328.862 94.2718C329.044 94.1463 329.226 94.0207 329.408 93.8952C329.969 93.495 330.529 93.0948 331.068 92.6868C331.104 92.6554 331.141 92.6319 331.184 92.6005C331.694 92.216 332.182 91.8315 332.669 91.4391C332.837 91.3057 332.997 91.1723 333.164 91.0389C333.535 90.7329 333.899 90.4269 334.256 90.1209C334.409 89.9875 334.569 89.8541 334.722 89.7207C335.21 89.2969 335.683 88.8654 336.141 88.426C336.17 88.4024 336.192 88.371 336.221 88.3475C336.658 87.9316 337.08 87.5157 337.495 87.092C337.633 86.9507 337.764 86.8095 337.903 86.6683C338.216 86.3387 338.521 86.0091 338.82 85.6796C338.944 85.5383 339.075 85.3971 339.198 85.2558L339.213 85.2637Z" stroke="#EAAC7D" stroke-width="3" stroke-linecap="round" stroke-linejoin="round" stroke-dasharray="10 10"/>
</g>
<defs>
<clipPath id="clip0_261_1714">
<rect width="350" height="150" fill="white"/>
</clipPath>
<clipPath id="clip1_261_1714">
<rect width="350" height="150" fill="white"/>
</clipPath>
</defs>
</svg>
