<svg width="64" height="79" viewBox="0 0 64 79" fill="none" xmlns="http://www.w3.org/2000/svg">
<path d="M40 23.6C40 23.6 47.59 13.97 47.25 9.29001C46.91 4.61001 40.61 10.37 37.27 7.48001C33.93 4.59001 37.04 -0.509993 29.23 0.0500067C21.42 0.610007 24.92 10.25 19.78 8.74001C14.65 7.23001 13.68 5.31001 10.07 9.49001C6.45999 13.67 18.46 25.15 18.46 25.15C18.46 25.15 0.92999 34.57 0.22999 55.34C-0.47001 76.11 20.92 81.16 40.46 77.87C55.59 75.32 66.13 66.09 63.33 51.11C60.27 34.72 50.47 28.8 40 23.6V23.6Z" fill="#5483F7"/>
<path d="M53.1395 54.5896C54.1549 42.7701 45.3964 32.3653 33.5768 31.35C21.7573 30.3346 11.3525 39.0931 10.3371 50.9127C9.32178 62.7322 18.0803 73.137 29.8998 74.1523C41.7194 75.1677 52.1241 66.4092 53.1395 54.5896Z" fill="#F9E9E6"/>
<path d="M33.1699 72.52C22.2699 73.31 12.7599 65.08 11.9799 54.18C11.1899 43.28 19.4199 33.77 30.3199 32.99C41.2199 32.21 50.7299 40.43 51.5099 51.33C52.2999 62.23 44.0699 71.74 33.1699 72.52ZM30.3999 34.08C20.1099 34.82 12.3399 43.8 13.0799 54.09C13.8199 64.38 22.7999 72.15 33.0899 71.41C43.3799 70.67 51.1499 61.69 50.4099 51.4C49.6699 41.11 40.6899 33.34 30.3999 34.08V34.08Z" fill="#3E73DD"/>
<path d="M20.8799 24.4C20.8799 24.4 11.5499 11.67 16.3899 13.5C21.2299 15.33 26.1199 23.2 26.0099 20.47C25.8999 17.74 26.6699 11.87 27.9399 12.86C29.2099 13.85 29.2399 22.72 31.1399 21C33.0399 19.28 37.0599 10.58 37.1599 13.3C37.2599 16.02 35.4699 20.62 36.0499 20.1C36.6299 19.58 41.5399 11.85 41.6599 15.15C41.7799 18.45 36.2499 20.81 38.2299 23.76C40.2099 26.7 46.4599 29.78 44.2499 29.86C42.0399 29.94 35.5599 25.15 34.5699 26.05C33.5799 26.95 29.1599 31.86 29.1099 30.42C29.0599 28.98 29.0099 25.32 27.7699 26.45C26.5299 27.57 23.4399 33.76 23.3399 30.91C23.2399 28.06 23.9799 25.3 23.1599 26.05C22.3399 26.8 14.4799 33.41 15.5999 30.21C16.7199 27.01 20.8799 24.41 20.8799 24.41V24.4Z" fill="#3E73DD"/>
<path d="M30.07 27.43C31.37 25.83 33 24.5 34.86 23.6C36.55 22.78 38.76 22 40.59 22.83C41.79 23.37 42.8 25.19 41.7 26.3C41.05 26.96 39.97 27.22 39.1 27.41C38.15 27.61 37.18 27.71 36.21 27.69C33.94 27.65 31.66 26.98 29.74 25.76C29.36 25.52 28.87 25.52 28.58 25.89C28.32 26.21 28.33 26.81 28.71 27.05C30.78 28.38 33.16 29.18 35.62 29.31C36.85 29.37 38.08 29.31 39.29 29.05C40.46 28.8 41.74 28.46 42.66 27.66C44.44 26.1 43.96 23.5 42.35 22.02C40.52 20.35 37.7 20.72 35.57 21.5C32.91 22.48 30.56 24.2 28.78 26.4C28.11 27.23 29.4 28.26 30.08 27.43H30.07Z" fill="#FFBB22"/>
<path d="M28.5499 27.8C32.1099 33.11 37.93 36.77 44.25 37.72C45.3 37.88 45.56 36.24 44.51 36.08C38.59 35.19 33.22 31.77 29.88 26.81C29.29 25.93 27.9599 26.92 28.5499 27.8V27.8Z" fill="#FFBB22"/>
<path d="M28.89 26.38C26.9 24.83 24.57 23.76 22.09 23.28C19.75 22.83 16.9 22.85 15.11 24.66C13.66 26.12 13.32 28.8 14.95 30.26C15.87 31.09 17.17 31.28 18.37 31.32C19.57 31.36 20.77 31.27 21.95 31C24.69 30.37 27.14 29.01 29.11 27C29.42 26.68 29.3 26.09 28.98 25.84C28.6 25.54 28.13 25.65 27.82 25.97C26.42 27.41 24.65 28.46 22.75 29.08C21.8 29.39 20.81 29.58 19.82 29.65C18.88 29.72 17.84 29.74 16.92 29.47C16.18 29.25 15.63 28.75 15.54 27.96C15.46 27.23 15.73 26.48 16.19 25.93C17.43 24.46 19.8 24.57 21.51 24.85C23.83 25.24 26.01 26.22 27.87 27.66C28.71 28.32 29.74 27.02 28.9 26.36L28.89 26.38Z" fill="#FFBB22"/>
<path d="M27.9099 27.03C25.7799 32.62 21.3099 37.16 15.7499 39.36C14.7599 39.75 15.3699 41.29 16.3699 40.9C22.3099 38.55 27.1499 33.67 29.4299 27.7C29.8099 26.71 28.2899 26.03 27.9099 27.03V27.03Z" fill="#FFBB22"/>
<path d="M29.04 44.56L20.62 44.27C19.99 44.25 19.49 43.72 19.51 43.08C19.53 42.44 20.06 41.95 20.7 41.97L29.12 42.26C29.75 42.28 30.25 42.81 30.23 43.45C30.21 44.09 29.68 44.58 29.04 44.56Z" fill="#513F3F"/>
<path d="M44.42 45.1L32.28 44.68C31.65 44.66 31.15 44.13 31.17 43.49C31.19 42.85 31.72 42.36 32.36 42.38L44.5 42.8C45.13 42.82 45.63 43.35 45.61 43.99C45.59 44.63 45.06 45.12 44.42 45.1Z" fill="#513F3F"/>
<path d="M20.2599 48.42C19.6499 48.4 19.1599 47.9 19.1499 47.28C19.1499 46.65 19.6599 46.13 20.2899 46.12L29.5099 46.06C30.1299 46.06 30.6599 46.57 30.6699 47.2C30.6699 47.83 30.1599 48.35 29.5299 48.36L20.3099 48.42C20.3099 48.42 20.2799 48.42 20.2599 48.42Z" fill="#513F3F"/>
<path d="M24.7099 64.89C24.0799 64.87 23.5799 64.34 23.5999 63.7L24.17 47.41C24.19 46.78 24.7199 46.28 25.3599 46.3C25.9999 46.32 26.4899 46.85 26.4699 47.49L25.8999 63.78C25.8799 64.41 25.3499 64.91 24.7099 64.89Z" fill="#513F3F"/>
<path d="M19.48 58.44C19.25 58.44 19.0299 58.36 18.8299 58.21C18.3199 57.83 18.2199 57.11 18.5899 56.6C19.9499 54.78 20.5599 52.12 20.5599 52.09C20.6999 51.47 21.3099 51.08 21.9299 51.22C22.5499 51.36 22.9399 51.97 22.7999 52.59C22.7699 52.72 22.0899 55.75 20.4299 57.98C20.1999 58.29 19.8299 58.45 19.4699 58.44H19.48Z" fill="#513F3F"/>
<path d="M29.1299 58.45C28.6799 58.43 28.2599 58.15 28.0899 57.7C27.5099 56.11 26.7999 52.94 26.7799 52.81C26.6399 52.19 27.0299 51.58 27.6499 51.44C28.2699 51.3 28.8799 51.69 29.0199 52.31C29.0199 52.34 29.7199 55.46 30.2499 56.91C30.4699 57.51 30.1599 58.17 29.5699 58.38C29.4299 58.43 29.2799 58.46 29.1299 58.45Z" fill="#513F3F"/>
<path d="M37.98 52.75C37.26 52.73 33.6399 52.58 32.6099 52.11C32.2599 51.95 31.64 51.53 31.47 50.49C31.28 49.35 31.7199 47.78 32.3999 47.15C32.6399 46.93 33.2599 46.35 37.2999 46.34L41.23 46.48C41.93 46.5 43.2199 47.07 43.1499 49.05V49.35C43.0999 50.6 43.05 52.31 40.98 52.69C40.31 52.81 38.9699 52.8 37.9599 52.76L37.98 52.75ZM33.73 50.06C34.31 50.19 35.96 50.38 38.06 50.45C39.5 50.5 40.3299 50.46 40.5899 50.41C40.7299 50.38 40.78 50.35 40.78 50.35C40.83 50.24 40.8499 49.68 40.8599 49.26V48.94C40.8699 48.86 40.8699 48.79 40.8599 48.74L37.2699 48.62C35.9299 48.62 34.4399 48.74 33.9299 48.89C33.8099 49.14 33.69 49.73 33.72 50.06H33.73Z" fill="#513F3F"/>
<path d="M39.43 64.25L33.23 64.03C33.14 64.03 33.05 64.01 32.97 63.99C32.28 63.8 30.98 62.96 31.04 61.13L31.23 55.65C31.29 54 32.81 53.29 33.82 53.32L40.67 53.56C40.82 53.56 40.97 53.6 41.1 53.66C41.8 53.97 42.96 54.89 42.91 56.35L42.71 62.04C42.74 62.42 42.64 62.91 42.28 63.34C41.73 63.99 40.8 64.29 39.43 64.24V64.25ZM33.52 61.74L39.51 61.95C39.96 61.97 40.27 61.92 40.42 61.89L40.62 56.28C40.62 56.12 40.45 55.95 40.31 55.85L33.75 55.62C33.75 55.62 33.57 55.68 33.53 55.72L33.35 61.2C33.35 61.46 33.41 61.64 33.54 61.73L33.52 61.74Z" fill="#513F3F"/>
<path d="M36.7899 64.16C36.1599 64.14 35.6599 63.61 35.6799 62.97L35.9699 54.55C35.9899 53.92 36.5199 53.42 37.1599 53.44C37.7999 53.46 38.2899 53.99 38.2699 54.63L37.9799 63.05C37.9599 63.68 37.4299 64.18 36.7899 64.16Z" fill="#513F3F"/>
<path d="M41.65 59.64L32.25 59.31C31.62 59.29 31.12 58.76 31.14 58.12C31.16 57.48 31.69 56.99 32.31 57.49L41.71 57.82C42.36 57.37 42.86 57.9 42.84 58.53C42.82 59.16 42.29 59.66 41.65 59.64Z" fill="#513F3F"/>
</svg>
