<svg width="61" height="84" viewBox="0 0 61 84" fill="none" xmlns="http://www.w3.org/2000/svg">
<path d="M58.7899 50.59C58.7899 50.59 60.7799 71.94 55.8299 77.77C50.4499 84.1 38.8099 83.76 28.8299 83.47C17.1499 83.13 7.67989 81.55 3.51989 75.8C-0.640112 70.05 1.1399 53.66 2.6299 47.21C4.1199 40.76 15.4599 32.95 31.1599 33.77C50.1799 34.76 58.1199 44.09 58.7999 50.6L58.7899 50.59Z" fill="#A7D134"/>
<path d="M49.3169 60.8089C50.2004 50.1089 42.2425 40.7187 31.5425 39.8352C20.8425 38.9517 11.4522 46.9096 10.5688 57.6096C9.6853 68.3096 17.6432 77.6999 28.3432 78.5834C39.0432 79.4668 48.4334 71.5089 49.3169 60.8089Z" fill="#F9E9E6"/>
<path d="M31.29 77.1C21.43 77.84 12.8 70.43 12.06 60.56C11.32 50.69 18.73 42.07 28.6 41.33C38.47 40.59 47.09 48 47.83 57.87C48.57 67.74 41.15 76.36 31.29 77.1ZM28.67 42.32C19.36 43.02 12.35 51.17 13.05 60.48C13.75 69.79 21.9 76.8 31.21 76.1C40.52 75.4 47.53 67.25 46.83 57.94C46.13 48.63 37.98 41.62 28.67 42.32Z" fill="#177F1C"/>
<path d="M39.64 24.92C39.64 24.92 56.07 10.69 49.78 4.01002C45.79 -0.21998 37.06 9.70002 37.06 9.70002C37.06 9.70002 36.46 0.590015 31.71 0.450015C26.96 0.310015 25.8 10.23 25.8 10.23C25.8 10.23 19.62 -0.339983 14.35 2.10002C9.07998 4.54002 15.53 20.75 21.47 24.82C21.47 24.82 8.49996 24.44 3.48996 32.95C-1.04004 40.64 -0.470021 49.71 2.53998 50.67C5.53998 51.62 16.72 39.4 18.87 39.9C21.02 40.4 24.6 46.44 29.35 46.58C34.1 46.72 40.94 40.12 43.94 41.07C46.94 42.02 54 52.19 57.89 52.3C61.78 52.41 60.5 37.23 57.17 32.8C53.84 28.37 47.89 24.74 39.66 24.93L39.64 24.92Z" fill="#14AD5C"/>
<path d="M32.4399 24.07C33.9999 22.63 35.8599 21.51 37.8899 20.87C39.7399 20.28 42.0999 19.81 43.8499 20.93C44.9999 21.66 45.7599 23.66 44.4799 24.63C43.7199 25.21 42.5799 25.32 41.6599 25.38C40.6599 25.45 39.6499 25.41 38.6699 25.24C36.3599 24.86 34.1299 23.85 32.3599 22.32C32.0099 22.02 31.5099 21.95 31.1499 22.28C30.8399 22.57 30.7599 23.18 31.1099 23.49C33.0299 25.15 35.3299 26.32 37.8299 26.81C39.0699 27.06 40.3399 27.17 41.6099 27.08C42.8399 27 44.1899 26.84 45.2599 26.15C47.3099 24.83 47.1999 22.09 45.7699 20.35C44.1499 18.38 41.2099 18.34 38.9299 18.82C36.0799 19.43 33.4199 20.84 31.2899 22.82C30.4799 23.57 31.6499 24.81 32.4599 24.06L32.4399 24.07Z" fill="#FFBB22"/>
<path d="M30.8299 24.23C33.6899 30.17 39.0799 34.76 45.3899 36.65C46.4399 36.97 46.9399 35.33 45.8899 35.02C39.9799 33.24 34.9999 28.97 32.3299 23.41C31.8499 22.42 30.3599 23.24 30.8299 24.23Z" fill="#FFBB22"/>
<path d="M31.3899 22.83C29.5899 20.96 27.3699 19.52 24.9099 18.67C22.5899 17.87 19.6799 17.47 17.5799 19.05C15.8899 20.33 15.1399 23.01 16.5999 24.74C17.4199 25.72 18.7199 26.11 19.9299 26.33C21.1499 26.55 22.3899 26.63 23.6299 26.53C26.5099 26.29 29.2199 25.26 31.5199 23.5C31.8899 23.22 31.8499 22.6 31.5599 22.29C31.2199 21.93 30.7199 21.97 30.3499 22.25C28.7099 23.51 26.7499 24.32 24.7199 24.68C23.7099 24.86 22.6699 24.9 21.6499 24.83C20.6799 24.76 19.6099 24.63 18.7199 24.22C17.9899 23.88 17.5099 23.3 17.5399 22.48C17.5599 21.73 17.9499 21 18.4999 20.51C19.9799 19.19 22.3899 19.65 24.0899 20.19C26.3999 20.93 28.4799 22.25 30.1599 24C30.9199 24.79 32.1599 23.62 31.3999 22.83H31.3899Z" fill="#FFBB22"/>
<path d="M30.2899 23.35C27.2899 28.74 22.0699 32.72 16.0699 34.14C14.9999 34.39 15.3999 36.05 16.4799 35.8C22.8899 34.28 28.5399 30.01 31.7399 24.25C32.2699 23.29 30.8299 22.38 30.2899 23.35V23.35Z" fill="#FFBB22"/>
<path d="M26.9 51.23L18.48 50.94C17.85 50.92 17.35 50.39 17.37 49.75C17.39 49.11 17.92 48.62 18.56 48.64L26.98 48.93C27.61 48.95 28.11 49.48 28.09 50.12C28.07 50.76 27.54 51.25 26.9 51.23Z" fill="#177F1C"/>
<path d="M42.28 51.77L30.14 51.35C29.51 51.33 29.01 50.8 29.03 50.16C29.05 49.52 29.58 49.03 30.22 49.05L42.36 49.47C42.99 49.49 43.49 50.02 43.47 50.66C43.45 51.3 42.92 51.79 42.28 51.77Z" fill="#177F1C"/>
<path d="M18.12 55.08C17.51 55.06 17.02 54.56 17.01 53.94C17.01 53.31 17.52 52.79 18.15 52.78L27.37 52.72C27.99 52.72 28.52 53.23 28.53 53.86C28.53 54.49 28.02 55.01 27.39 55.02L18.17 55.08C18.17 55.08 18.14 55.08 18.12 55.08Z" fill="#177F1C"/>
<path d="M22.5701 71.55C21.9401 71.53 21.4401 71 21.4601 70.36L22.0301 54.07C22.0501 53.44 22.5801 52.94 23.2201 52.96C23.8601 52.98 24.35 53.51 24.33 54.15L23.7601 70.44C23.7401 71.07 23.2101 71.57 22.5701 71.55Z" fill="#177F1C"/>
<path d="M17.34 65.1C17.11 65.1 16.89 65.02 16.69 64.87C16.18 64.49 16.08 63.77 16.45 63.26C17.81 61.44 18.42 58.78 18.42 58.75C18.56 58.13 19.17 57.74 19.79 57.88C20.41 58.02 20.8 58.63 20.66 59.25C20.63 59.38 19.95 62.41 18.29 64.64C18.06 64.95 17.69 65.11 17.33 65.1H17.34Z" fill="#177F1C"/>
<path d="M26.99 65.12C26.54 65.1 26.12 64.82 25.95 64.37C25.37 62.78 24.66 59.61 24.64 59.48C24.5 58.86 24.89 58.25 25.51 58.11C26.13 57.97 26.74 58.36 26.88 58.98C26.88 59.01 27.58 62.13 28.11 63.58C28.33 64.18 28.02 64.84 27.43 65.05C27.29 65.1 27.14 65.13 26.99 65.12Z" fill="#177F1C"/>
<path d="M35.8401 59.42C35.1201 59.4 31.5001 59.25 30.4701 58.78C30.1201 58.62 29.5001 58.2 29.3301 57.16C29.1401 56.02 29.5801 54.45 30.2601 53.82C30.5001 53.6 31.1201 53.02 35.1601 53.01L39.0901 53.15C39.7901 53.17 41.0801 53.74 41.0101 55.72V56.02C40.9601 57.27 40.9101 58.98 38.8401 59.36C38.1701 59.48 36.8301 59.47 35.8201 59.43L35.8401 59.42ZM31.5901 56.73C32.1701 56.86 33.8201 57.05 35.9201 57.12C37.3601 57.17 38.1901 57.13 38.4501 57.08C38.5901 57.05 38.6401 57.02 38.6401 57.02C38.6901 56.91 38.7101 56.35 38.7201 55.93V55.61C38.7301 55.53 38.7301 55.46 38.7201 55.41L35.1301 55.29C33.7901 55.29 32.3001 55.41 31.7901 55.56C31.6701 55.81 31.5501 56.4 31.5801 56.73H31.5901Z" fill="#177F1C"/>
<path d="M37.48 70.83H31.27C31.18 70.83 31.09 70.82 31.01 70.8C30.31 70.63 28.99 69.84 28.99 68.01V62.53C28.99 60.88 30.49 60.11 31.5 60.11H38.36C38.51 60.11 38.66 60.14 38.79 60.2C39.5 60.49 40.7 61.37 40.7 62.83V68.52C40.74 68.9 40.66 69.39 40.31 69.83C39.78 70.5 38.86 70.83 37.49 70.83H37.48ZM31.39 68.41L37.38 68.62C37.83 68.64 38.14 68.59 38.29 68.56L38.49 62.95C38.49 62.79 38.32 62.62 38.18 62.52L31.62 62.29C31.62 62.29 31.44 62.35 31.4 62.39L31.22 67.87C31.22 68.13 31.28 68.31 31.41 68.4L31.39 68.41Z" fill="#177F1C"/>
<path d="M34.65 70.83C34.02 70.81 33.52 70.28 33.54 69.64L33.83 61.22C33.85 60.59 34.38 60.09 35.02 60.11C35.66 60.13 36.15 60.66 36.13 61.3L35.84 69.72C35.82 70.35 35.29 70.85 34.65 70.83Z" fill="#177F1C"/>
<path d="M39.5101 66.31L30.1101 65.98C29.4801 65.96 28.9801 65.43 29.0001 64.79C29.0201 64.15 29.5501 63.66 30.1701 64.16L39.5701 64.49C40.2201 64.04 40.7201 64.57 40.7001 65.2C40.6801 65.83 40.1501 66.33 39.5101 66.31V66.31Z" fill="#177F1C"/>
</svg>
