<svg width="61" height="84" viewBox="0 0 61 84" fill="none" xmlns="http://www.w3.org/2000/svg">
<path d="M58.88 50.59C58.88 50.59 60.87 71.94 55.92 77.77C50.54 84.1 38.9 83.76 28.92 83.47C17.24 83.13 7.76998 81.55 3.60998 75.8C-0.550017 70.05 1.22998 53.66 2.71998 47.21C4.20998 40.76 15.55 32.95 31.25 33.77C50.27 34.76 58.21 44.09 58.89 50.6L58.88 50.59Z" fill="#FFB727"/>
<path d="M49.4026 60.8093C50.2861 50.1093 42.3282 40.719 31.6282 39.8356C20.9282 38.9521 11.5379 46.91 10.6545 57.61C9.771 68.31 17.7289 77.7003 28.4289 78.5837C39.1289 79.4672 48.5191 71.5093 49.4026 60.8093Z" fill="#F9E9E6"/>
<path d="M31.3701 77.1C21.5101 77.84 12.88 70.43 12.14 60.56C11.4 50.7 18.8101 42.07 28.68 41.33C38.55 40.59 47.1701 48 47.9101 57.87C48.6501 67.74 41.2301 76.36 31.3701 77.1ZM28.75 42.32C19.44 43.02 12.43 51.17 13.13 60.48C13.83 69.79 21.9801 76.8 31.2901 76.1C40.6001 75.4 47.6101 67.25 46.9101 57.94C46.2101 48.63 38.0601 41.62 28.75 42.32Z" fill="#FDB04D"/>
<path d="M39.72 24.92C39.72 24.92 56.15 10.69 49.86 4.01002C45.87 -0.21998 37.14 9.70002 37.14 9.70002C37.14 9.70002 36.54 0.590015 31.79 0.450015C27.04 0.310015 25.88 10.23 25.88 10.23C25.88 10.23 19.7 -0.339983 14.43 2.10002C9.16005 4.54002 15.61 20.75 21.55 24.82C21.55 24.82 8.58005 24.44 3.57005 32.95C-0.959954 40.64 -0.389951 49.71 2.62005 50.67C5.62005 51.62 16.8 39.4 18.95 39.9C21.1 40.4 24.68 46.44 29.43 46.58C34.18 46.72 41.0201 40.12 44.0201 41.07C47.0201 42.02 54.08 52.19 57.97 52.3C61.86 52.41 60.58 37.23 57.25 32.8C53.92 28.37 47.97 24.74 39.74 24.93L39.72 24.92Z" fill="#F27B18"/>
<path d="M32.52 24.07C34.08 22.63 35.94 21.51 37.97 20.87C39.82 20.28 42.18 19.81 43.93 20.93C45.08 21.66 45.84 23.66 44.56 24.63C43.8 25.21 42.66 25.32 41.74 25.38C40.74 25.45 39.73 25.41 38.75 25.24C36.44 24.86 34.21 23.85 32.44 22.32C32.09 22.02 31.59 21.95 31.23 22.28C30.92 22.57 30.84 23.18 31.19 23.49C33.11 25.15 35.41 26.32 37.91 26.81C39.15 27.06 40.42 27.17 41.69 27.08C42.92 27 44.27 26.84 45.34 26.15C47.39 24.83 47.28 22.09 45.85 20.35C44.23 18.38 41.29 18.34 39.01 18.82C36.16 19.43 33.5 20.84 31.37 22.82C30.56 23.57 31.73 24.81 32.54 24.06L32.52 24.07Z" fill="#513F3F"/>
<path d="M30.92 24.23C33.78 30.17 39.17 34.76 45.48 36.65C46.53 36.97 47.03 35.33 45.98 35.02C40.07 33.24 35.09 28.97 32.42 23.41C31.94 22.42 30.45 23.24 30.92 24.23V24.23Z" fill="#513F3F"/>
<path d="M31.47 22.83C29.67 20.96 27.45 19.52 24.99 18.67C22.67 17.87 19.76 17.47 17.66 19.05C15.97 20.33 15.22 23.01 16.68 24.74C17.5 25.72 18.8 26.11 20.01 26.33C21.23 26.55 22.47 26.63 23.71 26.53C26.59 26.29 29.3 25.26 31.6 23.5C31.97 23.22 31.93 22.6 31.64 22.29C31.3 21.93 30.8 21.97 30.43 22.25C28.79 23.51 26.83 24.32 24.8 24.68C23.79 24.86 22.75 24.9 21.73 24.83C20.76 24.76 19.69 24.63 18.8 24.22C18.07 23.88 17.59 23.3 17.62 22.48C17.64 21.73 18.03 21 18.58 20.51C20.06 19.19 22.47 19.65 24.17 20.19C26.48 20.93 28.56 22.25 30.24 24C31 24.79 32.24 23.62 31.48 22.83H31.47Z" fill="#513F3F"/>
<path d="M30.38 23.35C27.38 28.74 22.16 32.72 16.16 34.14C15.09 34.39 15.49 36.05 16.57 35.8C22.98 34.28 28.63 30.01 31.83 24.25C32.36 23.29 30.92 22.38 30.38 23.35V23.35Z" fill="#513F3F"/>
<path d="M26.98 51.23L18.56 50.94C17.93 50.92 17.43 50.39 17.45 49.75C17.47 49.11 18 48.62 18.64 48.64L27.06 48.93C27.69 48.95 28.19 49.48 28.17 50.12C28.15 50.76 27.62 51.25 26.98 51.23Z" fill="#C17017"/>
<path d="M42.37 51.77L30.23 51.35C29.6 51.33 29.1 50.8 29.12 50.16C29.14 49.52 29.67 49.03 30.31 49.05L42.45 49.47C43.08 49.49 43.58 50.02 43.56 50.66C43.54 51.3 43.01 51.79 42.37 51.77Z" fill="#C17017"/>
<path d="M18.2 55.08C17.59 55.06 17.1 54.56 17.09 53.94C17.09 53.31 17.6 52.79 18.23 52.78L27.45 52.72C28.07 52.72 28.6 53.23 28.61 53.86C28.61 54.49 28.1 55.01 27.47 55.02L18.25 55.08C18.25 55.08 18.22 55.08 18.2 55.08Z" fill="#C17017"/>
<path d="M22.65 71.55C22.02 71.53 21.52 71 21.54 70.36L22.11 54.07C22.13 53.44 22.66 52.94 23.3 52.96C23.94 52.98 24.43 53.51 24.41 54.15L23.84 70.44C23.82 71.07 23.29 71.57 22.65 71.55Z" fill="#C17017"/>
<path d="M17.42 65.1C17.19 65.1 16.97 65.02 16.77 64.87C16.26 64.49 16.16 63.77 16.53 63.26C17.89 61.44 18.5 58.78 18.5 58.75C18.64 58.13 19.25 57.74 19.87 57.88C20.49 58.02 20.88 58.63 20.74 59.25C20.71 59.38 20.03 62.41 18.37 64.64C18.14 64.95 17.77 65.11 17.41 65.1H17.42Z" fill="#C17017"/>
<path d="M27.07 65.12C26.62 65.1 26.2 64.82 26.03 64.37C25.45 62.78 24.74 59.61 24.72 59.48C24.58 58.86 24.97 58.25 25.59 58.11C26.21 57.97 26.82 58.36 26.96 58.98C26.96 59.01 27.66 62.13 28.19 63.58C28.41 64.18 28.1 64.84 27.51 65.05C27.37 65.1 27.22 65.13 27.07 65.12Z" fill="#C17017"/>
<path d="M35.92 59.42C35.2 59.4 31.58 59.25 30.55 58.78C30.2 58.62 29.58 58.2 29.41 57.16C29.22 56.02 29.66 54.45 30.34 53.82C30.58 53.6 31.2 53.02 35.24 53.01L39.17 53.15C39.87 53.17 41.16 53.74 41.09 55.72V56.02C41.04 57.27 40.99 58.98 38.92 59.36C38.25 59.48 36.91 59.47 35.9 59.43L35.92 59.42ZM31.67 56.73C32.25 56.86 33.9 57.05 36 57.12C37.44 57.17 38.27 57.13 38.53 57.08C38.67 57.05 38.72 57.02 38.72 57.02C38.77 56.91 38.79 56.35 38.8 55.93V55.61C38.81 55.53 38.81 55.46 38.8 55.41L35.21 55.29C33.87 55.29 32.38 55.41 31.87 55.56C31.75 55.81 31.63 56.4 31.66 56.73H31.67Z" fill="#C17017"/>
<path d="M37.38 70.92L31.18 70.7C31.09 70.7 31 70.68 30.92 70.66C30.23 70.47 28.93 69.63 28.99 67.8L29.18 62.32C29.24 60.67 30.76 59.96 31.77 59.99L38.62 60.23C38.77 60.23 38.92 60.27 39.05 60.33C39.75 60.64 40.91 61.56 40.86 63.02L40.66 68.71C40.69 69.09 40.59 69.58 40.23 70.01C39.68 70.66 38.75 70.96 37.38 70.91V70.92ZM31.47 68.41L37.46 68.62C37.91 68.64 38.22 68.59 38.37 68.56L38.57 62.95C38.57 62.79 38.4 62.62 38.26 62.52L31.7 62.29C31.7 62.29 31.52 62.35 31.48 62.39L31.3 67.87C31.3 68.13 31.36 68.31 31.49 68.4L31.47 68.41Z" fill="#C17017"/>
<path d="M34.74 70.83C34.11 70.81 33.61 70.28 33.63 69.64L33.92 61.22C33.94 60.59 34.47 60.09 35.11 60.11C35.75 60.13 36.24 60.66 36.22 61.3L35.93 69.72C35.91 70.35 35.38 70.85 34.74 70.83Z" fill="#C17017"/>
<path d="M39.59 66.31L30.19 65.98C29.56 65.96 29.06 65.43 29.08 64.79C29.1 64.15 29.63 63.66 30.25 64.16L39.65 64.49C40.3 64.04 40.8 64.57 40.78 65.2C40.76 65.83 40.23 66.33 39.59 66.31V66.31Z" fill="#C17017"/>
</svg>
