<svg width="66" height="77" viewBox="0 0 66 77" fill="none" xmlns="http://www.w3.org/2000/svg">
<path d="M3.57991 38.64C3.57991 38.64 4.84994 70.22 9.50993 74.04C14.1699 77.87 54.4499 77.39 57.4099 73.08C60.3799 68.77 63.3399 41.5 63.3399 36.72C63.3399 31.94 56.1299 21.89 51.0499 21.41C45.9599 20.93 17.1399 20.93 12.4699 23.32C7.79993 25.71 2.71993 32.89 3.56993 38.63L3.57991 38.64Z" fill="#A7D134"/>
<path opacity="0.5" d="M6.38989 65.78C7.19989 69.82 8.22987 72.99 9.51987 74.05C14.1799 77.88 54.4599 77.4 57.4199 73.09C58.1999 71.96 58.9799 69.24 59.6999 65.78H6.38989V65.78Z" fill="#177F1C"/>
<path d="M52.788 51.218C53.6714 40.518 45.7136 31.1277 35.0136 30.2443C24.3136 29.3608 14.9233 37.3187 14.0398 48.0187C13.1564 58.7187 21.1143 68.1089 31.8143 68.9924C42.5143 69.8759 51.9045 61.918 52.788 51.218Z" fill="#F9E9E6"/>
<path d="M34.76 67.5C24.9 68.24 16.2699 60.83 15.5299 50.96C14.7899 41.09 22.2 32.47 32.07 31.73C41.9299 30.99 50.5599 38.4 51.2999 48.27C52.0399 58.13 44.62 66.76 34.76 67.5ZM32.14 32.72C22.83 33.42 15.8199 41.57 16.5199 50.88C17.2199 60.19 25.3699 67.2 34.6799 66.5C43.9899 65.8 50.9999 57.65 50.2999 48.34C49.5999 39.03 41.45 32.02 32.14 32.72Z" fill="#177F1C"/>
<path d="M30.3699 41.63L21.95 41.34C21.32 41.32 20.8199 40.79 20.8399 40.15C20.8599 39.51 21.3899 39.02 22.0299 39.04L30.45 39.33C31.08 39.35 31.5799 39.88 31.5599 40.52C31.5399 41.16 31.0099 41.65 30.3699 41.63Z" fill="#513F3F"/>
<path d="M45.76 42.1699L33.62 41.7499C32.99 41.7299 32.49 41.1999 32.51 40.5599C32.53 39.9199 33.06 39.4299 33.7 39.4499L45.84 39.8699C46.47 39.8899 46.97 40.4199 46.95 41.0599C46.93 41.6999 46.4 42.1899 45.76 42.1699Z" fill="#513F3F"/>
<path d="M21.59 45.49C20.98 45.47 20.49 44.97 20.48 44.35C20.48 43.72 20.99 43.2 21.62 43.19L30.84 43.13C31.46 43.13 31.99 43.64 32 44.27C32 44.9 31.49 45.42 30.86 45.43L21.64 45.49C21.64 45.49 21.61 45.49 21.59 45.49Z" fill="#513F3F"/>
<path d="M26.04 61.96C25.41 61.94 24.91 61.41 24.93 60.77L25.5 44.48C25.52 43.85 26.05 43.35 26.69 43.37C27.33 43.39 27.82 43.92 27.8 44.56L27.23 60.85C27.21 61.48 26.68 61.98 26.04 61.96Z" fill="#513F3F"/>
<path d="M20.81 55.5099C20.58 55.5099 20.36 55.4299 20.16 55.2799C19.65 54.8999 19.55 54.1799 19.92 53.6699C21.28 51.8499 21.89 49.19 21.89 49.16C22.03 48.54 22.64 48.1499 23.26 48.2899C23.88 48.4299 24.27 49.04 24.13 49.66C24.1 49.79 23.42 52.82 21.76 55.05C21.53 55.36 21.16 55.5199 20.8 55.5099H20.81Z" fill="#513F3F"/>
<path d="M30.46 55.52C30.01 55.5 29.59 55.22 29.42 54.77C28.84 53.18 28.13 50.01 28.11 49.88C27.97 49.26 28.36 48.65 28.98 48.51C29.6 48.37 30.21 48.76 30.35 49.38C30.35 49.41 31.05 52.53 31.58 53.98C31.8 54.58 31.49 55.24 30.9 55.45C30.76 55.5 30.61 55.53 30.46 55.52Z" fill="#513F3F"/>
<path d="M39.31 49.82C38.59 49.8 34.97 49.65 33.94 49.18C33.59 49.02 32.97 48.6 32.8 47.56C32.61 46.42 33.0501 44.85 33.7301 44.22C33.9701 44 34.59 43.42 38.63 43.41L42.56 43.55C43.26 43.57 44.5501 44.14 44.4801 46.12V46.42C44.4301 47.67 44.38 49.38 42.31 49.76C41.64 49.88 40.3001 49.87 39.2901 49.83L39.31 49.82ZM35.06 47.13C35.64 47.26 37.2901 47.45 39.3901 47.52C40.8301 47.57 41.6601 47.53 41.9201 47.48C42.0601 47.45 42.11 47.42 42.11 47.42C42.16 47.31 42.18 46.75 42.19 46.33V46.01C42.2 45.93 42.2 45.86 42.19 45.81L38.6 45.69C37.26 45.69 35.7701 45.81 35.2601 45.96C35.1401 46.21 35.02 46.8 35.05 47.13H35.06Z" fill="#513F3F"/>
<path d="M40.7699 61.33L34.5699 61.11C34.4799 61.11 34.3899 61.09 34.3099 61.07C33.6199 60.88 32.3199 60.04 32.3799 58.21L32.5699 52.73C32.6299 51.08 34.1499 50.37 35.1599 50.4L42.0099 50.64C42.1599 50.64 42.3099 50.68 42.4399 50.74C43.1399 51.05 44.2999 51.97 44.2499 53.43L44.0499 59.12C44.0799 59.5 43.9799 59.99 43.6199 60.42C43.0699 61.07 42.1399 61.37 40.7699 61.32V61.33ZM34.8599 58.82L40.8499 59.03C41.2999 59.05 41.6099 59 41.7599 58.97L41.9599 53.36C41.9599 53.2 41.7899 53.03 41.6499 52.93L35.0899 52.7C35.0899 52.7 34.9099 52.76 34.8699 52.8L34.6899 58.28C34.6899 58.54 34.7499 58.72 34.8799 58.81L34.8599 58.82Z" fill="#513F3F"/>
<path d="M38.13 61.23C37.5 61.21 37 60.68 37.02 60.04L37.31 51.62C37.33 50.99 37.86 50.49 38.5 50.51C39.14 50.53 39.63 51.06 39.61 51.7L39.32 60.12C39.3 60.75 38.77 61.25 38.13 61.23Z" fill="#513F3F"/>
<path d="M42.9801 56.71L33.58 56.38C32.95 56.36 32.4501 55.83 32.4701 55.19C32.4901 54.55 33.0201 54.06 33.6401 54.56L43.0401 54.89C43.6901 54.44 44.1901 54.97 44.1701 55.6C44.1501 56.23 43.6201 56.73 42.9801 56.71V56.71Z" fill="#513F3F"/>
<path d="M41.73 17.15C41.73 17.15 54.45 8.25 50.63 4.86C46.81 1.47 37.91 9.10001 37.91 9.10001C37.91 9.10001 38.76 0.619995 34.52 0.619995C30.28 0.619995 28.16 8.67 28.16 8.67C28.16 8.67 21.8 0.620002 17.99 3.58C14.17 6.55 23.92 17.57 23.92 17.57C23.92 17.57 5.05002 18.58 1.45002 23.08C-1.93998 27.32 1.87 42.16 3.99 43C6.11 43.85 17.56 25.62 21.79 26.47C26.03 27.32 31.12 34.95 34.93 34.52C38.75 34.1 43.41 26.04 47.22 26.04C51.03 26.04 59.09 42.57 62.06 42.57C65.03 42.57 66.72 25.61 64.18 21.8C61.64 17.98 41.71 17.14 41.71 17.14L41.73 17.15Z" fill="#14AD5C"/>
<path d="M33.98 19.55C35.47 18.09 37.25 16.95 39.22 16.26C41.01 15.63 43.31 15.1 45.06 16.14C46.2 16.82 47.01 18.76 45.78 19.75C45.05 20.34 43.94 20.48 43.04 20.57C42.07 20.66 41.0799 20.65 40.1099 20.52C37.8399 20.22 35.62 19.29 33.84 17.84C33.49 17.56 33 17.5 32.66 17.84C32.37 18.13 32.31 18.74 32.66 19.02C34.59 20.59 36.8799 21.67 39.3299 22.08C40.5599 22.29 41.8 22.36 43.04 22.24C44.24 22.12 45.5599 21.93 46.5799 21.23C48.5499 19.87 48.37 17.2 46.91 15.53C45.27 13.64 42.39 13.69 40.17 14.23C37.39 14.91 34.8299 16.37 32.7999 18.37C32.0299 19.12 33.21 20.31 33.98 19.55Z" fill="#F3D54C"/>
<path d="M32.4099 19.76C35.3799 25.49 40.7999 29.83 47.0299 31.51C48.0699 31.79 48.5099 30.18 47.4699 29.9C41.6299 28.33 36.6299 24.28 33.8499 18.92C33.3499 17.96 31.9099 18.81 32.4099 19.76Z" fill="#F3D54C"/>
<path d="M32.91 18.37C31.09 16.59 28.87 15.25 26.44 14.49C24.14 13.77 21.28 13.46 19.27 15.07C17.65 16.37 17 19.02 18.47 20.67C19.3 21.6 20.58 21.95 21.78 22.13C22.98 22.31 24.2 22.35 25.41 22.22C28.23 21.91 30.85 20.82 33.05 19.03C33.4 18.74 33.35 18.14 33.05 17.85C32.7 17.5 32.22 17.56 31.87 17.85C30.3 19.13 28.41 19.98 26.42 20.39C25.43 20.59 24.42 20.67 23.41 20.63C22.46 20.59 21.41 20.49 20.52 20.11C19.8 19.8 19.31 19.24 19.31 18.44C19.31 17.7 19.67 16.98 20.2 16.48C21.61 15.15 23.98 15.53 25.66 16.01C27.94 16.67 30.02 17.9 31.72 19.56C32.49 20.31 33.67 19.13 32.9 18.38L32.91 18.37Z" fill="#F3D54C"/>
<path d="M31.8599 18.91C29.0799 24.27 24.0799 28.32 18.2399 29.89C17.1999 30.17 17.6399 31.78 18.6799 31.5C24.9099 29.83 30.3299 25.48 33.2999 19.75C33.7899 18.8 32.3499 17.95 31.8599 18.91Z" fill="#F3D54C"/>
</svg>
