<svg width="61" height="84" viewBox="0 0 61 84" fill="none" xmlns="http://www.w3.org/2000/svg">
<path d="M58.94 50.59C58.94 50.59 60.93 71.94 55.98 77.77C50.6 84.1 38.96 83.76 28.98 83.47C17.3 83.13 7.83005 81.55 3.67005 75.8C-0.489952 70.05 1.29003 53.66 2.78003 47.21C4.27003 40.76 15.61 32.95 31.31 33.77C50.33 34.76 58.27 44.09 58.95 50.6L58.94 50.59Z" fill="#61BFFF"/>
<path d="M49.4519 60.8112C50.3354 50.1112 42.3775 40.7209 31.6775 39.8375C20.9775 38.954 11.5872 46.9119 10.7038 57.6119C9.82031 68.3119 17.7782 77.7021 28.4782 78.5856C39.1782 79.4691 48.5684 71.5112 49.4519 60.8112Z" fill="#F9E9E6"/>
<path d="M31.43 77.1C21.57 77.84 12.94 70.43 12.2 60.56C11.46 50.7 18.87 42.07 28.74 41.33C38.61 40.59 47.23 48 47.97 57.87C48.71 67.74 41.29 76.36 31.43 77.1ZM28.81 42.32C19.5 43.02 12.49 51.17 13.19 60.48C13.89 69.79 22.04 76.8 31.35 76.1C40.66 75.4 47.67 67.25 46.97 57.94C46.27 48.63 38.12 41.62 28.81 42.32Z" fill="#5483F7"/>
<path d="M39.78 24.92C39.78 24.92 56.21 10.69 49.92 4.01002C45.93 -0.21998 37.2 9.70002 37.2 9.70002C37.2 9.70002 36.6 0.590015 31.85 0.450015C27.1 0.310015 25.94 10.23 25.94 10.23C25.94 10.23 19.76 -0.339983 14.49 2.10002C9.21998 4.54002 15.67 20.75 21.61 24.82C21.61 24.82 8.63999 24.44 3.62999 32.95C-0.900009 40.64 -0.330021 49.71 2.67998 50.67C5.67998 51.62 16.86 39.4 19.01 39.9C21.16 40.4 24.74 46.44 29.49 46.58C34.24 46.72 41.08 40.12 44.08 41.07C47.08 42.02 54.14 52.19 58.03 52.3C61.92 52.41 60.64 37.23 57.31 32.8C53.98 28.37 48.03 24.74 39.8 24.93L39.78 24.92Z" fill="#3E73DD"/>
<path d="M32.58 24.07C34.14 22.63 36 21.51 38.03 20.87C39.88 20.28 42.24 19.81 43.99 20.93C45.14 21.66 45.9 23.66 44.62 24.63C43.86 25.21 42.72 25.32 41.8 25.38C40.8 25.45 39.79 25.41 38.81 25.24C36.5 24.86 34.27 23.85 32.5 22.32C32.15 22.02 31.65 21.95 31.29 22.28C30.98 22.57 30.9 23.18 31.25 23.49C33.17 25.15 35.47 26.32 37.97 26.81C39.21 27.06 40.48 27.17 41.75 27.08C42.98 27 44.33 26.84 45.4 26.15C47.45 24.83 47.34 22.09 45.91 20.35C44.29 18.38 41.35 18.34 39.07 18.82C36.22 19.43 33.56 20.84 31.43 22.82C30.62 23.57 31.79 24.81 32.6 24.06L32.58 24.07Z" fill="#C7D233"/>
<path d="M30.97 24.23C33.83 30.17 39.22 34.76 45.53 36.65C46.58 36.97 47.08 35.33 46.03 35.02C40.12 33.24 35.14 28.97 32.47 23.41C31.99 22.42 30.5 23.24 30.97 24.23Z" fill="#C7D233"/>
<path d="M31.5301 22.83C29.7301 20.96 27.51 19.52 25.05 18.67C22.73 17.87 19.8201 17.47 17.7201 19.05C16.0301 20.33 15.28 23.01 16.74 24.74C17.56 25.72 18.8601 26.11 20.0701 26.33C21.2901 26.55 22.53 26.63 23.77 26.53C26.65 26.29 29.3601 25.26 31.6601 23.5C32.0301 23.22 31.9901 22.6 31.7001 22.29C31.3601 21.93 30.86 21.97 30.49 22.25C28.85 23.51 26.89 24.32 24.86 24.68C23.85 24.86 22.8101 24.9 21.7901 24.83C20.8201 24.76 19.75 24.63 18.86 24.22C18.13 23.88 17.6501 23.3 17.6801 22.48C17.7001 21.73 18.0901 21 18.6401 20.51C20.1201 19.19 22.5301 19.65 24.2301 20.19C26.5401 20.93 28.62 22.25 30.3 24C31.06 24.79 32.3001 23.62 31.5401 22.83H31.5301Z" fill="#C7D233"/>
<path d="M30.43 23.35C27.43 28.74 22.21 32.72 16.21 34.14C15.14 34.39 15.54 36.05 16.62 35.8C23.03 34.28 28.6801 30.01 31.8801 24.25C32.4101 23.29 30.97 22.38 30.43 23.35V23.35Z" fill="#C7D233"/>
<path d="M27.04 51.23L18.62 50.94C17.99 50.92 17.49 50.39 17.51 49.75C17.53 49.11 18.06 48.62 18.7 48.64L27.12 48.93C27.75 48.95 28.25 49.48 28.23 50.12C28.21 50.76 27.68 51.25 27.04 51.23Z" fill="#513F3F"/>
<path d="M42.42 51.77L30.28 51.35C29.65 51.33 29.15 50.8 29.17 50.16C29.19 49.52 29.72 49.03 30.36 49.05L42.5 49.47C43.13 49.49 43.63 50.02 43.61 50.66C43.59 51.3 43.06 51.79 42.42 51.77Z" fill="#513F3F"/>
<path d="M18.2599 55.08C17.6499 55.06 17.1599 54.56 17.1499 53.94C17.1499 53.31 17.6599 52.79 18.2899 52.78L27.5099 52.72C28.1299 52.72 28.6599 53.23 28.6699 53.86C28.6699 54.49 28.1599 55.01 27.5299 55.02L18.3099 55.08C18.3099 55.08 18.2799 55.08 18.2599 55.08Z" fill="#513F3F"/>
<path d="M22.7099 71.55C22.0799 71.53 21.5799 71 21.5999 70.36L22.17 54.07C22.19 53.44 22.7199 52.94 23.3599 52.96C23.9999 52.98 24.4899 53.51 24.4699 54.15L23.8999 70.44C23.8799 71.07 23.3499 71.57 22.7099 71.55Z" fill="#513F3F"/>
<path d="M17.48 65.1C17.25 65.1 17.0299 65.02 16.8299 64.87C16.3199 64.49 16.2199 63.77 16.5899 63.26C17.9499 61.44 18.5599 58.78 18.5599 58.75C18.6999 58.13 19.3099 57.74 19.9299 57.88C20.5499 58.02 20.9399 58.63 20.7999 59.25C20.7699 59.38 20.0899 62.41 18.4299 64.64C18.1999 64.95 17.8299 65.11 17.4699 65.1H17.48Z" fill="#513F3F"/>
<path d="M27.1299 65.12C26.6799 65.1 26.2599 64.82 26.0899 64.37C25.5099 62.78 24.7999 59.61 24.7799 59.48C24.6399 58.86 25.0299 58.25 25.6499 58.11C26.2699 57.97 26.8799 58.36 27.0199 58.98C27.0199 59.01 27.7199 62.13 28.2499 63.58C28.4699 64.18 28.1599 64.84 27.5699 65.05C27.4299 65.1 27.2799 65.13 27.1299 65.12Z" fill="#513F3F"/>
<path d="M35.98 59.42C35.26 59.4 31.6399 59.25 30.6099 58.78C30.2599 58.62 29.64 58.2 29.47 57.16C29.28 56.02 29.7199 54.45 30.3999 53.82C30.6399 53.6 31.2599 53.02 35.2999 53.01L39.23 53.15C39.93 53.17 41.2199 53.74 41.1499 55.72V56.02C41.0999 57.27 41.05 58.98 38.98 59.36C38.31 59.48 36.9699 59.47 35.9599 59.43L35.98 59.42ZM31.73 56.73C32.31 56.86 33.96 57.05 36.06 57.12C37.5 57.17 38.3299 57.13 38.5899 57.08C38.7299 57.05 38.78 57.02 38.78 57.02C38.83 56.91 38.8499 56.35 38.8599 55.93V55.61C38.8699 55.53 38.8699 55.46 38.8599 55.41L35.2699 55.29C33.9299 55.29 32.4399 55.41 31.9299 55.56C31.8099 55.81 31.69 56.4 31.72 56.73H31.73Z" fill="#513F3F"/>
<path d="M37.6199 70.83H31.4099C31.3199 70.83 31.2299 70.82 31.1499 70.8C30.4499 70.63 29.1299 69.84 29.1299 68.01V62.53C29.1299 60.88 30.6299 60.11 31.6399 60.11H38.4999C38.6499 60.11 38.7999 60.14 38.9299 60.2C39.6399 60.49 40.8399 61.37 40.8399 62.83V68.52C40.8799 68.9 40.7999 69.39 40.4499 69.83C39.9199 70.5 38.9999 70.83 37.6299 70.83H37.6199ZM31.5299 68.41L37.5199 68.62C37.9699 68.64 38.2799 68.59 38.4299 68.56L38.6299 62.95C38.6299 62.79 38.4599 62.62 38.3199 62.52L31.7599 62.29C31.7599 62.29 31.5799 62.35 31.5399 62.39L31.3599 67.87C31.3599 68.13 31.4199 68.31 31.5499 68.4L31.5299 68.41Z" fill="#513F3F"/>
<path d="M34.7899 70.83C34.1599 70.81 33.6599 70.28 33.6799 69.64L33.9699 61.22C33.9899 60.59 34.5199 60.09 35.1599 60.11C35.7999 60.13 36.2899 60.66 36.2699 61.3L35.9799 69.72C35.9599 70.35 35.4299 70.85 34.7899 70.83Z" fill="#513F3F"/>
<path d="M39.65 66.31L30.25 65.98C29.62 65.96 29.12 65.43 29.14 64.79C29.16 64.15 29.69 63.66 30.31 64.16L39.71 64.49C40.36 64.04 40.86 64.57 40.84 65.2C40.82 65.83 40.29 66.33 39.65 66.31V66.31Z" fill="#513F3F"/>
</svg>
