<svg width="65" height="79" viewBox="0 0 65 79" fill="none" xmlns="http://www.w3.org/2000/svg">
<path d="M40.58 23.6C40.58 23.6 48.17 13.97 47.83 9.28998C47.49 4.60998 41.19 10.37 37.85 7.47998C34.51 4.58998 37.62 -0.520018 29.81 0.0399818C22 0.599982 25.5 10.24 20.36 8.72998C15.23 7.21998 14.26 5.29998 10.65 9.47998C7.04001 13.66 19.04 25.14 19.04 25.14C19.04 25.14 1.51001 34.56 0.810007 55.33C0.110007 76.1 21.5 81.15 41.04 77.86C56.17 75.31 66.71 66.08 63.91 51.1C60.85 34.71 51.05 28.79 40.58 23.59V23.6Z" fill="#F54F4F"/>
<path d="M53.7295 54.5914C54.7448 42.7718 45.9863 32.3671 34.1668 31.3517C22.3472 30.3363 11.9425 39.0948 10.9271 50.9144C9.91174 62.7339 18.6703 73.1387 30.4898 74.154C42.3093 75.1694 52.7141 66.4109 53.7295 54.5914Z" fill="#F9E9E6"/>
<path d="M33.76 72.52C22.86 73.31 13.35 65.08 12.57 54.18C11.78 43.28 20.01 33.77 30.91 32.99C41.81 32.2 51.32 40.43 52.1 51.33C52.89 62.23 44.66 71.74 33.76 72.52V72.52ZM30.99 34.08C20.7 34.82 12.93 43.8 13.67 54.09C14.41 64.38 23.39 72.15 33.68 71.41C43.97 70.67 51.74 61.69 51 51.4C50.26 41.11 41.28 33.34 30.99 34.08V34.08Z" fill="#FDB04D"/>
<path d="M21.5501 24.71C21.5501 24.71 11.7801 12.31 16.6801 13.97C21.5801 15.63 26.7401 23.32 26.5401 20.6C26.3401 17.88 26.9001 11.98 28.2101 12.93C29.5101 13.88 29.8601 22.74 31.6901 20.95C33.5201 19.16 37.2401 10.33 37.4301 13.05C37.6201 15.77 36.0001 20.42 36.5601 19.88C37.1201 19.34 41.7501 11.44 41.9901 14.74C42.2301 18.04 36.7801 20.59 38.8601 23.46C40.9401 26.33 47.2901 29.19 45.0901 29.35C42.8901 29.51 36.2401 24.95 35.2801 25.88C34.3201 26.81 30.0801 31.87 29.9801 30.44C29.8801 29.01 29.7001 25.35 28.5001 26.51C27.3001 27.68 24.4301 33.97 24.2301 31.12C24.0301 28.27 24.6801 25.49 23.8801 26.27C23.0801 27.05 15.4601 33.93 16.4701 30.69C17.4801 27.45 21.5501 24.71 21.5501 24.71V24.71Z" fill="#E24242"/>
<path d="M30.66 27.43C31.96 25.83 33.59 24.5 35.45 23.6C37.14 22.78 39.35 22 41.18 22.83C42.38 23.37 43.39 25.19 42.29 26.3C41.64 26.96 40.56 27.22 39.69 27.41C38.74 27.61 37.77 27.71 36.8 27.69C34.53 27.65 32.25 26.98 30.33 25.76C29.95 25.52 29.46 25.52 29.17 25.89C28.91 26.21 28.92 26.81 29.3 27.05C31.37 28.38 33.75 29.18 36.21 29.31C37.44 29.37 38.67 29.31 39.88 29.05C41.05 28.8 42.33 28.46 43.25 27.66C45.03 26.1 44.55 23.5 42.94 22.02C41.11 20.35 38.29 20.72 36.16 21.5C33.5 22.48 31.15 24.2 29.37 26.4C28.7 27.23 29.99 28.26 30.67 27.43H30.66Z" fill="#F3D54C"/>
<path d="M29.13 27.8C32.69 33.11 38.51 36.77 44.83 37.72C45.88 37.88 46.14 36.24 45.09 36.08C39.17 35.19 33.8 31.77 30.46 26.81C29.87 25.93 28.54 26.92 29.13 27.8V27.8Z" fill="#F3D54C"/>
<path d="M29.48 26.38C27.49 24.83 25.16 23.76 22.68 23.28C20.34 22.83 17.49 22.85 15.7 24.66C14.25 26.12 13.91 28.8 15.54 30.26C16.46 31.09 17.76 31.28 18.96 31.32C20.16 31.36 21.36 31.27 22.54 31C25.28 30.37 27.73 29.01 29.7 27C30.01 26.68 29.89 26.09 29.57 25.84C29.19 25.54 28.72 25.65 28.41 25.97C27.01 27.41 25.24 28.46 23.34 29.08C22.39 29.39 21.4 29.58 20.41 29.65C19.47 29.72 18.43 29.74 17.51 29.47C16.77 29.25 16.22 28.75 16.13 27.96C16.05 27.23 16.32 26.48 16.78 25.93C18.02 24.46 20.39 24.57 22.1 24.85C24.42 25.24 26.6 26.22 28.46 27.66C29.3 28.32 30.33 27.02 29.49 26.36L29.48 26.38Z" fill="#F3D54C"/>
<path d="M28.5 27.03C26.37 32.62 21.9 37.16 16.34 39.36C15.35 39.75 15.96 41.29 16.96 40.9C22.9 38.55 27.74 33.67 30.02 27.7C30.4 26.71 28.88 26.03 28.5 27.03V27.03Z" fill="#F3D54C"/>
<path d="M29.6301 44.56L21.2101 44.27C20.5801 44.25 20.0801 43.72 20.1001 43.08C20.1201 42.44 20.6501 41.95 21.2901 41.97L29.7101 42.2599C30.3401 42.2799 30.8401 42.81 30.8201 43.45C30.8001 44.09 30.2701 44.58 29.6301 44.56Z" fill="#513F3F"/>
<path d="M45.01 45.0999L32.87 44.6799C32.24 44.6599 31.74 44.1299 31.76 43.4899C31.78 42.8499 32.31 42.3599 32.95 42.3799L45.09 42.7999C45.72 42.8199 46.22 43.3499 46.2 43.9899C46.18 44.6299 45.65 45.1199 45.01 45.0999Z" fill="#513F3F"/>
<path d="M20.85 48.4199C20.24 48.3999 19.75 47.8999 19.74 47.2799C19.74 46.6499 20.25 46.1299 20.88 46.1199L30.1 46.0599C30.72 46.0599 31.25 46.5699 31.26 47.1999C31.26 47.8299 30.75 48.3499 30.12 48.3599L20.9 48.4199C20.9 48.4199 20.87 48.4199 20.85 48.4199V48.4199Z" fill="#513F3F"/>
<path d="M25.3 64.89C24.67 64.87 24.17 64.34 24.19 63.7L24.76 47.41C24.78 46.78 25.31 46.28 25.95 46.3C26.59 46.32 27.08 46.85 27.06 47.49L26.49 63.78C26.47 64.41 25.94 64.91 25.3 64.89Z" fill="#513F3F"/>
<path d="M20.07 58.4399C19.84 58.4399 19.62 58.3599 19.42 58.2099C18.91 57.8299 18.81 57.1099 19.18 56.5999C20.54 54.7799 21.15 52.1199 21.15 52.0899C21.29 51.4699 21.9 51.0799 22.52 51.2199C23.14 51.3599 23.53 51.9699 23.39 52.5899C23.36 52.7199 22.68 55.7499 21.02 57.9799C20.79 58.2899 20.42 58.4499 20.06 58.4399H20.07Z" fill="#513F3F"/>
<path d="M29.72 58.45C29.27 58.43 28.85 58.15 28.68 57.7C28.1 56.11 27.39 52.94 27.37 52.81C27.23 52.19 27.62 51.58 28.24 51.44C28.86 51.3 29.47 51.69 29.61 52.31C29.61 52.34 30.31 55.46 30.84 56.91C31.06 57.51 30.75 58.17 30.16 58.38C30.02 58.43 29.87 58.46 29.72 58.45V58.45Z" fill="#513F3F"/>
<path d="M38.57 52.75C37.85 52.73 34.23 52.58 33.2 52.11C32.85 51.95 32.23 51.53 32.06 50.49C31.87 49.35 32.31 47.78 32.99 47.15C33.23 46.93 33.85 46.35 37.89 46.34L41.82 46.48C42.52 46.5 43.81 47.07 43.74 49.05V49.35C43.69 50.6 43.64 52.31 41.57 52.69C40.9 52.81 39.56 52.8 38.55 52.76L38.57 52.75ZM34.32 50.06C34.9 50.19 36.55 50.38 38.65 50.45C40.09 50.5 40.92 50.46 41.18 50.41C41.32 50.38 41.37 50.35 41.37 50.35C41.42 50.24 41.44 49.68 41.45 49.26V48.94C41.46 48.86 41.46 48.79 41.45 48.74L37.86 48.62C36.52 48.62 35.03 48.74 34.52 48.89C34.4 49.14 34.28 49.73 34.31 50.06H34.32Z" fill="#513F3F"/>
<path d="M40.0201 64.2499L33.8201 64.0299C33.7301 64.0299 33.6401 64.0099 33.5601 63.9899C32.8701 63.7999 31.5701 62.9599 31.6301 61.1299L31.8201 55.6499C31.8801 53.9999 33.4001 53.2899 34.4101 53.3199L41.2601 53.5599C41.4101 53.5599 41.5601 53.5999 41.6901 53.6599C42.3901 53.9699 43.5501 54.8899 43.5001 56.3499L43.3001 62.0399C43.3301 62.4199 43.2301 62.9099 42.8701 63.3399C42.3201 63.9899 41.3901 64.2899 40.0201 64.2399V64.2499ZM34.1101 61.7399L40.1001 61.9499C40.5501 61.9699 40.8601 61.9199 41.0101 61.8899L41.2101 56.2799C41.2101 56.1199 41.0401 55.9499 40.9001 55.8499L34.3401 55.6199C34.3401 55.6199 34.1601 55.6799 34.1201 55.7199L33.9401 61.1999C33.9401 61.4599 34.0001 61.6399 34.1301 61.7299L34.1101 61.7399Z" fill="#513F3F"/>
<path d="M37.38 64.16C36.75 64.14 36.25 63.61 36.27 62.97L36.56 54.55C36.58 53.92 37.11 53.42 37.75 53.44C38.39 53.46 38.88 53.99 38.86 54.63L38.57 63.05C38.55 63.68 38.02 64.18 37.38 64.16Z" fill="#513F3F"/>
<path d="M42.2401 59.64L32.8401 59.31C32.2101 59.29 31.7101 58.76 31.7301 58.12C31.7501 57.48 32.2801 56.99 32.9001 57.49L42.3001 57.82C42.9501 57.37 43.4501 57.9 43.4301 58.53C43.4101 59.16 42.8801 59.66 42.2401 59.64V59.64Z" fill="#513F3F"/>
</svg>
