<svg width="65" height="79" viewBox="0 0 65 79" fill="none" xmlns="http://www.w3.org/2000/svg">
<path d="M40.55 23.6C40.55 23.6 48.14 13.97 47.8 9.29001C47.46 4.61001 41.16 10.37 37.82 7.48001C34.48 4.59001 37.59 -0.509993 29.78 0.0500067C21.97 0.610007 25.47 10.25 20.33 8.74001C15.2 7.23001 14.23 5.31001 10.62 9.49001C7.01004 13.67 19.01 25.15 19.01 25.15C19.01 25.15 1.48004 34.57 0.780039 55.34C0.0800386 76.11 21.47 81.16 41.01 77.87C56.14 75.32 66.68 66.09 63.88 51.11C60.82 34.72 51.02 28.8 40.55 23.6V23.6Z" fill="#FFBB22"/>
<path d="M53.6963 54.5978C54.7116 42.7782 45.9531 32.3735 34.1336 31.3581C22.314 30.3427 11.9093 39.1012 10.8939 50.9208C9.87854 62.7403 18.6371 73.1451 30.4566 74.1605C42.2761 75.1758 52.6809 66.4173 53.6963 54.5978Z" fill="#F9E9E6"/>
<path d="M33.73 72.52C22.83 73.31 13.32 65.08 12.54 54.18C11.76 43.28 19.98 33.77 30.88 32.99C41.78 32.21 51.29 40.43 52.07 51.33C52.86 62.23 44.63 71.74 33.73 72.52ZM30.96 34.08C20.67 34.82 12.9 43.8 13.64 54.09C14.38 64.38 23.36 72.15 33.65 71.41C43.94 70.67 51.71 61.69 50.97 51.4C50.23 41.11 41.25 33.34 30.96 34.08V34.08Z" fill="#FDB04D"/>
<path d="M21.4301 24.4C21.4301 24.4 12.1001 11.67 16.9401 13.5C21.7801 15.33 26.6701 23.2 26.5601 20.47C26.4501 17.74 27.2201 11.87 28.4901 12.86C29.7601 13.85 29.7901 22.72 31.6901 21C33.5901 19.28 37.6101 10.58 37.7101 13.3C37.8101 16.02 36.0201 20.62 36.6001 20.1C37.1801 19.58 42.0901 11.85 42.2101 15.15C42.3301 18.45 36.8001 20.81 38.7801 23.76C40.7601 26.7 47.0101 29.78 44.8001 29.86C42.5901 29.94 36.1101 25.15 35.1201 26.05C34.1301 26.95 29.7101 31.86 29.6601 30.42C29.6101 28.98 29.5601 25.32 28.3201 26.45C27.0801 27.57 23.9901 33.76 23.8901 30.91C23.7901 28.06 24.5301 25.3 23.7101 26.05C22.8901 26.8 15.0301 33.41 16.1501 30.21C17.2701 27.01 21.4301 24.41 21.4301 24.41V24.4Z" fill="#FBA61F"/>
<path d="M30.63 27.43C31.93 25.83 33.56 24.5 35.42 23.6C37.11 22.78 39.32 22 41.15 22.83C42.35 23.37 43.36 25.19 42.26 26.3C41.61 26.96 40.53 27.22 39.66 27.41C38.71 27.61 37.74 27.71 36.77 27.69C34.5 27.65 32.22 26.98 30.3 25.76C29.92 25.52 29.43 25.52 29.14 25.89C28.88 26.21 28.89 26.81 29.27 27.05C31.34 28.38 33.72 29.18 36.18 29.31C37.41 29.37 38.6401 29.31 39.8501 29.05C41.0201 28.8 42.3 28.46 43.22 27.66C45 26.1 44.52 23.5 42.91 22.02C41.08 20.35 38.26 20.72 36.13 21.5C33.47 22.48 31.12 24.2 29.34 26.4C28.67 27.23 29.96 28.26 30.64 27.43H30.63Z" fill="#AF6935"/>
<path d="M29.1 27.8C32.66 33.11 38.48 36.77 44.8 37.72C45.85 37.88 46.11 36.24 45.06 36.08C39.14 35.19 33.77 31.77 30.43 26.81C29.84 25.93 28.51 26.92 29.1 27.8V27.8Z" fill="#AF6935"/>
<path d="M29.44 26.38C27.45 24.83 25.12 23.76 22.64 23.28C20.3 22.83 17.45 22.85 15.66 24.66C14.21 26.12 13.87 28.8 15.5 30.26C16.42 31.09 17.72 31.28 18.92 31.32C20.12 31.36 21.32 31.27 22.5 31C25.24 30.37 27.69 29.01 29.66 27C29.97 26.68 29.85 26.09 29.53 25.84C29.15 25.54 28.68 25.65 28.37 25.97C26.97 27.41 25.2 28.46 23.3 29.08C22.35 29.39 21.36 29.58 20.37 29.65C19.43 29.72 18.39 29.74 17.47 29.47C16.73 29.25 16.18 28.75 16.09 27.96C16.01 27.23 16.28 26.48 16.74 25.93C17.98 24.46 20.35 24.57 22.06 24.85C24.38 25.24 26.56 26.22 28.42 27.66C29.26 28.32 30.29 27.02 29.45 26.36L29.44 26.38Z" fill="#AF6935"/>
<path d="M28.47 27.03C26.34 32.62 21.87 37.16 16.31 39.36C15.32 39.75 15.93 41.29 16.93 40.9C22.87 38.55 27.71 33.67 29.99 27.7C30.37 26.71 28.85 26.03 28.47 27.03V27.03Z" fill="#AF6935"/>
<path d="M29.59 44.56L21.17 44.27C20.54 44.25 20.04 43.72 20.06 43.08C20.08 42.44 20.61 41.95 21.25 41.97L29.67 42.26C30.3 42.28 30.8 42.81 30.78 43.45C30.76 44.09 30.23 44.58 29.59 44.56Z" fill="#513F3F"/>
<path d="M44.9799 45.1L32.84 44.68C32.21 44.66 31.7099 44.13 31.7299 43.49C31.7499 42.85 32.28 42.36 32.92 42.38L45.06 42.8C45.69 42.82 46.19 43.35 46.17 43.99C46.15 44.63 45.6199 45.12 44.9799 45.1V45.1Z" fill="#513F3F"/>
<path d="M20.82 48.42C20.21 48.4 19.72 47.9 19.71 47.28C19.71 46.65 20.22 46.13 20.85 46.12L30.07 46.06C30.69 46.06 31.2199 46.57 31.2299 47.2C31.2299 47.83 30.72 48.35 30.09 48.36L20.8699 48.42C20.8699 48.42 20.84 48.42 20.82 48.42V48.42Z" fill="#513F3F"/>
<path d="M25.27 64.89C24.64 64.87 24.14 64.34 24.16 63.7L24.73 47.41C24.75 46.78 25.28 46.28 25.92 46.3C26.56 46.32 27.05 46.85 27.03 47.49L26.46 63.78C26.44 64.41 25.91 64.91 25.27 64.89Z" fill="#513F3F"/>
<path d="M20.04 58.44C19.81 58.44 19.59 58.36 19.39 58.21C18.88 57.83 18.78 57.11 19.15 56.6C20.51 54.78 21.12 52.12 21.12 52.09C21.26 51.47 21.87 51.08 22.49 51.22C23.11 51.36 23.5 51.97 23.36 52.59C23.33 52.72 22.65 55.75 20.99 57.98C20.76 58.29 20.39 58.45 20.03 58.44H20.04Z" fill="#513F3F"/>
<path d="M29.68 58.45C29.23 58.43 28.81 58.15 28.64 57.7C28.06 56.11 27.35 52.94 27.33 52.81C27.19 52.19 27.58 51.58 28.2 51.44C28.82 51.3 29.43 51.69 29.57 52.31C29.57 52.34 30.27 55.46 30.8 56.91C31.02 57.51 30.71 58.17 30.12 58.38C29.98 58.43 29.83 58.46 29.68 58.45Z" fill="#513F3F"/>
<path d="M38.54 52.75C37.82 52.73 34.2 52.58 33.17 52.11C32.82 51.95 32.2 51.53 32.03 50.49C31.84 49.35 32.28 47.78 32.96 47.15C33.2 46.93 33.82 46.35 37.86 46.34L41.79 46.48C42.49 46.5 43.78 47.07 43.71 49.05V49.35C43.66 50.6 43.61 52.31 41.54 52.69C40.87 52.81 39.53 52.8 38.52 52.76L38.54 52.75ZM34.29 50.06C34.87 50.19 36.52 50.38 38.62 50.45C40.06 50.5 40.89 50.46 41.15 50.41C41.29 50.38 41.34 50.35 41.34 50.35C41.39 50.24 41.41 49.68 41.42 49.26V48.94C41.43 48.86 41.43 48.79 41.42 48.74L37.83 48.62C36.49 48.62 35 48.74 34.49 48.89C34.37 49.14 34.25 49.73 34.28 50.06H34.29Z" fill="#513F3F"/>
<path d="M39.99 64.25L33.79 64.03C33.7 64.03 33.61 64.01 33.53 63.99C32.84 63.8 31.54 62.96 31.6 61.13L31.79 55.65C31.85 54 33.37 53.29 34.38 53.32L41.23 53.56C41.38 53.56 41.53 53.6 41.66 53.66C42.36 53.97 43.52 54.89 43.47 56.35L43.27 62.04C43.3 62.42 43.2 62.91 42.84 63.34C42.29 63.99 41.36 64.29 39.99 64.24V64.25ZM34.08 61.74L40.07 61.95C40.52 61.97 40.83 61.92 40.98 61.89L41.18 56.28C41.18 56.12 41.01 55.95 40.87 55.85L34.31 55.62C34.31 55.62 34.13 55.68 34.09 55.72L33.91 61.2C33.91 61.46 33.97 61.64 34.1 61.73L34.08 61.74Z" fill="#513F3F"/>
<path d="M37.35 64.16C36.72 64.14 36.22 63.61 36.24 62.97L36.53 54.55C36.55 53.92 37.08 53.42 37.72 53.44C38.36 53.46 38.85 53.99 38.83 54.63L38.5399 63.05C38.5199 63.68 37.99 64.18 37.35 64.16Z" fill="#513F3F"/>
<path d="M42.2101 59.64L32.81 59.31C32.18 59.29 31.68 58.76 31.7 58.12C31.72 57.48 32.25 56.99 32.87 57.49L42.2701 57.82C42.9201 57.37 43.42 57.9 43.4 58.53C43.38 59.16 42.8501 59.66 42.2101 59.64V59.64Z" fill="#513F3F"/>
</svg>
