<svg width="350" height="150" viewBox="0 0 350 150" fill="none" xmlns="http://www.w3.org/2000/svg">
<g clip-path="url(#clip0_119_875)">
<path d="M27.7367 82.0423C27.7367 82.0423 27.7808 96.3929 33.2384 103.733C38.696 111.074 50.0525 139.702 113.771 146.543C177.49 153.384 222.283 148.977 259.001 142.805C295.718 136.632 330.229 106.441 324.36 73.0501C318.483 39.6594 27.7441 82.0423 27.7441 82.0423H27.7367Z" fill="#BC8050"/>
<path opacity="0.1" d="M328.162 44.9613C318.277 45.6301 286.399 58.2483 263.061 56.9027C212.376 53.9858 161.168 52.6483 109.858 54.9205C86.6008 55.9519 63.3729 57.2572 40.1965 58.8365C27.1409 59.7309 14.0926 60.7059 1.06649 61.7695C0.522197 61.8098 -0.147132 62.124 0.125013 62.5349C4.97948 69.6498 9.24553 76.9097 12.9158 84.2904C26.5819 90.9943 41.947 96.3123 58.1948 100.236C59.4525 100.543 60.725 100.833 61.9975 101.123C61.9754 101.147 61.9533 101.163 61.946 101.187C61.1957 102.468 61.7032 104.048 61.8136 105.385C61.8651 106.046 61.8356 106.747 61.9239 107.432C56.8341 106.239 51.8031 104.942 46.8309 103.564C46.7426 103.508 46.625 103.476 46.4926 103.467C39.3506 101.485 32.3043 99.3339 25.3168 97.0778C24.7504 96.8925 24.2944 97.384 24.8166 97.6015C27.3248 98.649 29.8917 99.6401 32.5029 100.599C32.1939 101.324 32.0101 102.025 31.9218 102.734C32.2307 102.887 32.5323 103.04 32.8486 103.194C32.9736 103.379 33.0986 103.564 33.231 103.741C33.5914 104.233 33.9886 104.813 34.4152 105.482C34.1284 104.007 34.0033 102.517 33.7238 101.042C37.4235 102.364 41.2115 103.596 45.073 104.749C44.411 106.094 44.5066 107.77 44.5728 109.019C44.6464 110.405 44.6317 112.307 45.735 113.612C43.2268 112.919 40.7702 112.178 38.3282 111.412C38.7622 112.025 39.2256 112.661 39.7257 113.314C42.9988 114.353 46.3528 115.288 49.6921 116.158C54.3921 117.383 59.1951 118.438 64.0496 119.397C63.4832 121.202 64.1231 123.2 64.4026 124.997C64.5791 126.093 64.7262 127.189 64.9248 128.285C64.9616 128.478 64.9837 128.672 65.0205 128.865C62.9316 128.398 60.85 127.922 58.7906 127.415C56.4957 126.851 54.245 126.238 52.0164 125.602C53.024 126.375 54.0832 127.141 55.2012 127.906C58.6361 128.841 62.1078 129.711 65.6162 130.509C65.7045 130.63 65.8075 130.742 65.9325 130.855C66.2709 131.153 66.8666 131.121 67.1682 130.863C71.6181 131.854 76.1269 132.749 80.6798 133.554C87.6232 134.779 94.6622 135.786 101.753 136.624C101.642 138.163 101.907 139.63 102.341 141.169C102.532 141.862 102.643 142.99 103.128 143.892C98.8914 143.361 94.6695 142.797 90.4697 142.2C89.1016 142.007 87.7482 141.789 86.3875 141.588C94.2429 143.699 103.297 145.423 113.778 146.551C166.575 152.224 206.374 150.161 239.355 145.778C239.899 145.681 240.443 145.593 240.988 145.496C249.689 143.884 258.199 141.862 266.378 139.42C267.643 139.042 268.901 138.647 270.151 138.252C269.909 138.969 269.644 139.686 269.386 140.411C291.393 133.949 311.208 119.244 320.086 101.05C338.974 91.3166 350 78.5212 350 62.4866C350 56.5884 348.5 51.1254 345.668 46.0894C340.74 44.9372 334.914 44.5101 328.162 44.9613ZM252.602 121.968C252.749 122.403 253.845 122.491 254.176 122.097C254.977 121.13 255.007 120.058 255.22 118.986C255.441 117.874 255.647 116.843 255.588 115.747C259.773 115.159 263.929 114.506 268.048 113.773C267.864 114.563 267.834 115.393 267.643 116.134C267.327 117.375 266.533 118.72 266.621 119.994C261.965 120.985 257.235 121.863 252.469 122.628C234.846 125.457 216.656 126.907 198.504 127.632C197.54 127.672 196.577 127.705 195.613 127.737C196.378 126.472 196.179 124.844 196.349 123.507C196.496 122.362 196.738 121.17 196.753 120.01C203.777 119.897 210.794 119.663 217.789 119.293C218.032 119.349 218.311 119.341 218.525 119.252C229.697 118.64 240.819 117.673 251.822 116.247C252.462 116.166 253.102 116.078 253.742 115.989C253.345 116.899 253.139 117.818 252.911 118.785C252.66 119.849 252.241 120.896 252.602 121.96V121.968ZM227.542 136.06C223.894 136.431 220.231 136.737 216.554 137.019C216.774 136.987 216.995 136.906 217.164 136.761C218.422 135.706 218.15 133.812 218.304 132.547C218.481 131.153 218.547 129.775 218.385 128.39C221.982 128.132 225.564 127.834 229.138 127.487C228.646 128.776 228.403 130.09 228.094 131.403C227.763 132.829 226.917 134.618 227.542 136.052V136.06ZM145.472 132.588C145.141 131.476 144.884 130.259 144.362 129.123C149.12 129.365 153.894 129.558 158.66 129.687C158.3 130.863 158.373 132.144 158.27 133.264C158.109 134.981 157.939 136.697 157.792 138.421C154.041 138.349 150.297 138.252 146.554 138.123C146.576 138.067 146.59 138.01 146.59 137.946C146.59 136.165 145.987 134.336 145.465 132.596L145.472 132.588ZM121.421 125.755C121.744 124.441 120.523 122.838 120.31 121.541C120.097 120.227 120.347 118.922 120.31 117.617C126.393 118.068 132.498 118.43 138.61 118.753C152.511 119.478 166.516 119.986 180.52 120.09C180.292 121.049 180.358 122.04 180.322 122.999C180.263 124.675 180.013 126.407 180.189 128.091C160.529 128.269 140.868 127.479 121.413 125.755H121.421ZM160.852 133.498C160.882 132.33 161.132 130.984 160.896 129.743C171.341 129.993 181.807 129.977 192.252 129.679C200.328 129.453 208.411 129.083 216.465 128.527C216.193 129.703 216.009 130.887 215.84 132.08C215.73 132.853 215.605 133.619 215.458 134.384C215.31 135.158 214.965 135.875 215.428 136.608C215.605 136.882 215.98 137.027 216.355 137.019C210.596 137.454 204.822 137.793 199.033 138.026C186.294 138.542 173.496 138.663 160.72 138.462C160.779 136.802 160.808 135.142 160.845 133.49L160.852 133.498ZM193.421 127.817C189.854 127.93 186.294 128.011 182.727 128.059C182.896 126.391 182.653 124.667 182.594 122.999C182.557 122.048 182.631 121.049 182.403 120.098C186.478 120.122 190.545 120.098 194.613 120.05C194.311 121.122 194.179 122.226 193.98 123.289C193.715 124.723 192.987 126.391 193.421 127.817ZM169.384 110.655C185.625 110.55 201.843 109.978 218.025 109.172C217.951 109.204 217.892 109.245 217.87 109.301C217.238 110.888 217.569 112.5 217.466 114.12C217.399 115.207 217.135 116.319 217.127 117.415C212.192 117.673 207.256 117.866 202.314 117.995C189.074 118.342 175.82 118.253 162.588 117.891C162.595 117.858 162.61 117.826 162.617 117.786C162.794 116.319 162.566 114.804 162.507 113.338C162.47 112.444 162.478 111.557 162.36 110.671C164.706 110.671 167.045 110.671 169.392 110.655H169.384ZM112.006 108.632C121.744 109.47 131.541 110.01 141.353 110.324C141.353 110.961 141.456 111.606 141.486 112.226C141.567 113.636 141.559 115.095 141.956 116.489C142.177 117.262 144.016 117.028 144.075 116.311C144.2 114.885 143.884 113.411 143.685 111.984C143.611 111.469 143.589 110.921 143.501 110.389C149.062 110.55 154.637 110.631 160.205 110.663C160.08 111.549 160.095 112.444 160.05 113.338C159.992 114.804 159.764 116.319 159.94 117.786C159.94 117.794 159.94 117.802 159.947 117.818C155.395 117.681 150.849 117.512 146.311 117.31C126.224 116.432 106.092 115.248 86.5052 112.234C84.3795 111.904 82.2759 111.549 80.1796 111.187C80.1061 110.276 79.8928 109.349 79.8266 108.463C79.731 107.198 80.0031 105.812 79.503 104.571C90.1681 106.368 101.054 107.698 111.999 108.64L112.006 108.632ZM102.981 119.438C102.849 118.737 102.76 118.028 102.753 117.318C102.753 116.891 102.819 116.456 102.797 116.037C107.96 116.593 113.153 117.069 118.368 117.463C117.691 118.825 117.787 120.364 118.015 121.75C118.206 122.91 118.398 124.538 119.567 125.586C114.426 125.11 109.292 124.57 104.18 123.966C104.393 122.475 103.26 120.92 102.981 119.438ZM78.2084 104.346C77.4067 105.546 77.5465 106.948 77.5244 108.221C77.5097 109.003 77.4509 109.865 77.5244 110.703C73.1333 109.889 68.8011 108.995 64.5129 108.028C64.6233 106.997 64.2776 105.885 64.1673 104.91C64.0349 103.79 64.1231 102.533 63.4832 101.461C68.3303 102.533 73.2436 103.5 78.2084 104.354V104.346ZM54.8114 115.868C52.3547 115.32 49.9569 114.732 47.5885 114.112C47.6915 114.047 47.7724 113.966 47.7944 113.87C47.993 113.112 47.6694 112.5 47.434 111.751C47.1325 110.776 46.9559 109.785 46.8824 108.794C46.8088 107.698 47.1325 106.505 47.184 105.361C52.2959 106.836 57.5181 108.165 62.8065 109.374C62.9536 109.462 63.1449 109.503 63.3361 109.495C68.1759 110.59 73.0598 111.581 77.9657 112.476C78.0246 112.597 78.0834 112.718 78.157 112.83C78.4585 113.33 79.9002 113.499 80.0914 112.855C86.7994 114.031 93.5736 114.982 100.392 115.763C99.752 117.012 100.068 118.729 100.282 119.857C100.51 121.097 100.745 122.572 101.811 123.684C95.9861 122.975 90.1828 122.177 84.4163 121.299C74.4205 119.776 64.5129 118.019 54.8187 115.868H54.8114ZM78.9219 128.188C79.0764 129.163 79.1793 130.605 79.7972 131.782C75.6856 131.065 71.6181 130.283 67.5801 129.421C67.5433 128.881 67.3815 128.325 67.2859 127.817C67.0799 126.722 66.8593 125.626 66.646 124.53C66.3371 122.943 66.2267 121.178 65.3147 119.647C68.9335 120.348 72.5817 121.009 76.2299 121.637C77.4876 121.855 78.738 122.064 79.9958 122.274C79.4441 123.136 78.9807 123.893 78.8116 124.885C78.6203 125.98 78.7454 127.108 78.9219 128.196V128.188ZM88.4249 133.176C86.4758 132.886 84.534 132.58 82.5995 132.257C82.5039 131.774 82.2318 131.29 82.0479 130.823C81.6507 129.808 81.3271 128.792 81.1505 127.753C80.9887 126.794 80.9814 125.843 80.9225 124.876C80.871 124.022 80.643 123.192 80.518 122.354C97.9794 125.215 115.772 127.245 133.726 128.486C136.543 128.68 139.36 128.857 142.177 129.01C142.324 130.356 142.854 131.725 143.082 133.031C143.369 134.691 143.442 136.383 143.876 138.034C143.795 138.034 143.714 138.035 143.626 138.026C125.047 137.342 106.541 135.867 88.4249 133.184V133.176ZM119.471 141.749C119.471 143.046 119.302 144.561 119.905 145.834C115.198 145.343 110.505 144.803 105.827 144.231C105.879 143.191 104.879 141.878 104.584 141.016C104.106 139.614 103.753 138.204 103.312 136.81C108.821 137.438 114.367 137.962 119.927 138.397C119.391 139.461 119.464 140.661 119.471 141.749ZM178.873 144.303C178.836 145.858 178.556 147.502 178.85 149.057C159.977 149.122 141.052 147.978 122.362 146.092C122.7 144.755 122.252 143.336 122.186 141.991C122.134 140.895 122.333 139.67 121.98 138.558C126.738 138.913 131.505 139.203 136.271 139.445C150.503 140.162 164.839 140.476 179.137 140.347C178.615 141.588 178.902 143.079 178.873 144.303ZM191.553 144.585C191.465 145.512 191.384 146.431 191.332 147.357C191.303 147.841 191.171 148.348 191.207 148.832C187.868 148.944 184.521 149.009 181.175 149.041C181.447 147.494 181.153 145.85 181.109 144.303C181.072 143.07 181.351 141.58 180.807 140.331C184.58 140.291 188.346 140.218 192.112 140.113C191.803 141.596 191.7 143.087 191.553 144.585ZM250.108 141.354C250.167 141.451 250.27 141.531 250.388 141.58C248.703 141.967 247.012 142.337 245.305 142.692C229.822 145.899 213.663 147.8 197.393 148.59C196.26 148.646 195.135 148.695 194.002 148.735C194.017 148.525 194.024 148.308 194.039 148.05C194.113 147.051 194.194 146.052 194.23 145.045C194.297 143.377 194.429 141.709 194.297 140.049C212.324 139.493 230.359 138.131 247.88 135.4C248.88 135.247 249.88 135.085 250.881 134.916C250.63 135.738 250.447 136.568 250.277 137.39C250.027 138.631 249.395 140.146 250.101 141.346L250.108 141.354ZM263.76 134.924C263.414 136.06 262.664 137.197 262.642 138.357C262.642 138.381 262.642 138.397 262.642 138.421C259.001 139.469 255.294 140.436 251.542 141.314C252.462 140.307 252.41 138.969 252.609 137.849C252.8 136.761 252.955 135.658 252.977 134.562C256.779 133.901 260.545 133.176 264.274 132.37C264.113 133.224 264.01 134.078 263.752 134.924H263.76ZM270.953 135.843C269.916 136.189 268.879 136.528 267.827 136.858C266.989 137.124 266.143 137.382 265.297 137.64C265.826 136.802 266.04 135.851 266.238 135.005C266.481 133.949 266.628 132.934 266.415 131.895C268.504 131.427 270.578 130.944 272.637 130.428C272.093 132.233 271.541 134.038 270.96 135.835L270.953 135.843ZM274.594 124.006C274.16 125.392 273.741 126.786 273.321 128.172C266.599 129.921 259.699 131.387 252.69 132.62C245.129 133.949 237.465 135.005 229.727 135.835C230.58 134.578 230.514 132.918 230.734 131.629C230.977 130.178 231.286 128.736 231.264 127.286C236.67 126.746 242.047 126.109 247.379 125.36C257.096 123.99 266.68 122.226 275.918 119.913C275.462 121.275 275.02 122.636 274.601 124.006H274.594ZM276.697 117.633C274.197 118.285 271.659 118.89 269.107 119.462C269.761 118.479 269.982 117.351 270.21 116.343C270.416 115.417 270.71 114.329 270.512 113.338C273.343 112.814 276.161 112.258 278.956 111.662C278.146 113.644 277.396 115.634 276.697 117.633ZM281.787 105.401C281.125 106.723 280.508 108.06 279.919 109.398C272.667 110.993 265.275 112.339 257.794 113.451C249.306 114.716 240.723 115.683 232.08 116.4C232.809 115.385 232.897 114.16 233.073 113.08C233.301 111.662 233.537 110.22 232.779 108.85C232.507 108.358 231.374 108.334 231.124 108.85C230.47 110.187 230.551 111.59 230.256 112.967C229.999 114.184 229.374 115.385 229.536 116.609C226.248 116.867 222.953 117.085 219.657 117.278C219.915 116.239 219.878 115.143 219.849 114.12C219.797 112.436 219.812 110.768 218.591 109.237C218.554 109.196 218.503 109.164 218.444 109.148C221.217 109.011 223.99 108.866 226.763 108.713C245.07 107.706 267.886 100.808 286.156 99.6159C286.289 99.6079 281.831 105.329 281.795 105.401H281.787Z" fill="black"/>
<path d="M174.996 124.957C271.644 124.957 349.993 96.9844 349.993 62.4785C349.993 27.9726 271.644 0 174.996 0C78.3485 0 0 27.9726 0 62.4785C0 96.9844 78.3485 124.957 174.996 124.957Z" fill="#D38C5B"/>
<path d="M175.526 113.709C262.843 113.709 333.627 90.2273 333.627 61.2618C333.627 32.2962 262.843 8.81494 175.526 8.81494C88.209 8.81494 17.4246 32.2962 17.4246 61.2618C17.4246 90.2273 88.209 113.709 175.526 113.709Z" fill="#BA8156"/>
<path opacity="0.1" d="M333.929 61.2376C334.422 50.384 332.09 50.5129 320.689 40.2879C312.466 32.9152 286.693 24.076 281.706 22.5612C282.641 25.0187 282.339 23.7779 283.111 26.2677C281.898 25.8406 280.684 25.4216 279.456 25.0187C271.534 22.4161 263.289 20.2648 254.86 18.5485C250.895 17.7347 246.894 17.0256 242.878 16.4052C243.055 15.4141 242.922 14.4714 242.782 13.4561C242.628 12.3603 242.569 11.2645 241.856 10.2573C241.517 9.78186 240.363 9.91078 240.201 10.4023C239.848 11.4901 240.171 12.5778 240.392 13.6737C240.568 14.5358 240.73 15.3416 241.083 16.1312C237.428 15.5914 233.75 15.124 230.058 14.7212C231.235 12.9807 230.69 10.3539 229.344 8.78272C228.969 8.33955 228.138 8.58934 228.057 9.01639C227.844 10.1686 228.145 11.2242 228.256 12.3764C228.337 13.1419 228.395 13.8671 228.734 14.5761C211.464 12.7954 193.885 12.5295 176.401 13.2789C176.504 12.2878 176.585 11.3047 176.703 10.3137C176.842 9.12114 177.607 7.58214 176.923 6.46213C176.644 6.00285 175.673 5.64832 175.085 6.13177C173.805 7.17926 173.974 8.75855 173.93 10.0719C173.893 11.2242 173.974 12.2958 174.217 13.3836C171.01 13.5367 167.81 13.722 164.618 13.9396C164.986 12.8357 165.059 11.6432 165.258 10.5796C165.53 9.11308 166.347 7.10674 165.648 5.69666C165.346 5.09235 164.111 4.92314 163.61 5.5194C162.507 6.82473 162.713 8.85524 162.551 10.3378C162.419 11.5304 162.095 12.8679 162.228 14.1168C159.087 14.3425 155.961 14.6003 152.835 14.8904C135.771 16.4455 118.699 18.5727 102.069 21.6104C102.047 21.6104 102.025 21.6185 101.995 21.6265C102.165 20.9497 102.245 20.2567 102.378 19.5718C102.628 18.2826 103.481 16.5744 102.525 15.3899C102.275 15.0837 101.569 15.0032 101.216 15.2771C99.958 16.236 100.157 17.8636 99.98 19.0884C99.8403 20.0714 99.5681 21.0786 99.5975 22.0777C95.508 22.8513 91.3744 23.7054 87.2848 24.6803C87.7924 23.5684 88.0277 22.3678 88.3146 21.2236C88.572 20.1923 89.1457 19.1045 88.3881 18.1376C88.1601 17.8475 87.5717 17.8314 87.2481 18.0409C86.0124 18.8305 86.0859 20.1761 85.8285 21.2559C85.5343 22.4887 85.1739 23.794 85.2474 25.0429C85.2474 25.0913 85.2548 25.1316 85.2695 25.1718C76.708 27.3152 68.426 30.0306 61.3061 33.7451C61.3428 33.6081 61.3796 33.4792 61.409 33.3422C61.4973 32.9474 60.8206 32.746 60.4676 33.0763C57.5622 35.7595 56.5693 39.893 57.5475 43.1161C57.5696 43.1805 57.6211 43.2369 57.6873 43.2692C55.26 44.3086 52.9358 45.4286 50.7586 46.6775C50.6409 46.742 50.788 46.8467 50.9057 46.8065C60.1072 43.8413 68.882 40.3926 78.385 37.8384C80.3856 37.2985 82.401 36.7828 84.4236 36.2913C84.3942 36.5008 84.3648 36.7103 84.3354 36.9117C84.1441 38.0801 83.997 39.2484 83.8279 40.4168C83.5484 42.3345 82.9379 44.4617 83.4822 46.3794C78.7822 47.4027 74.1263 48.5308 69.5734 49.8361C61.7621 52.0681 53.8184 54.6868 47.309 58.4255C46.9486 58.635 47.412 59.0137 47.8018 58.8606C49.7877 58.0871 51.781 57.3297 53.7743 56.5884C53.0167 57.8051 52.7519 59.2715 52.546 60.4721C52.1855 62.5349 52.1561 64.4203 52.9284 66.4186C50.3982 67.4339 47.9121 68.4975 45.4849 69.6094C44.9774 69.8431 45.4187 70.3668 45.9704 70.1735C52.7372 67.7642 59.5555 65.4759 66.4768 63.3648C66.6019 63.3648 66.7122 63.3245 66.8004 63.2681C71.6181 61.8016 76.4873 60.4238 81.4227 59.1507C81.3344 59.8759 81.3639 60.6252 81.3124 61.3262C81.2094 62.7524 80.7166 64.4365 81.4448 65.8062C81.4595 65.8304 81.4815 65.8546 81.4963 65.8707C80.2679 66.1769 61.5341 73.8316 60.3131 74.162L39.7184 85.4426C40.8658 86.0388 48.8095 89.705 50.0157 90.2771C50.1408 90.4625 130.791 80.4308 130.924 80.608C131.836 81.8328 205.955 85.644 207.418 87.8599C215.31 88.5286 250.263 99.35 258.17 99.9462C280.618 101.63 332.458 93.5002 333.929 61.2698V61.2376ZM65.1087 61.9789C61.3649 63.2036 57.702 64.517 54.1126 65.9271C54.4289 64.098 54.5245 62.2528 54.9217 60.4238C55.238 58.9573 56.0176 57.3055 55.8779 55.8068C59.1216 54.6465 62.3946 53.5426 65.7413 52.5273C64.6748 53.9213 64.6821 55.9438 64.6159 57.4264C64.5571 58.7559 64.4615 60.5446 65.1014 61.9789H65.1087ZM291.629 54.6062C288.922 53.9696 286.193 53.3734 283.45 52.8174C283.641 51.7619 283.361 50.6096 283.155 49.6186C282.935 48.5469 282.721 47.3383 282.089 46.2908C284.56 46.9031 287.017 47.5478 289.444 48.2407C290.121 50.3679 290.842 52.4871 291.629 54.5981V54.6062ZM287.407 41.4482C287.819 42.9066 288.245 44.357 288.687 45.8073C279.735 43.3417 270.453 41.4562 261.045 40.0059C255.882 39.2082 250.675 38.5313 245.438 37.9592C245.46 36.4122 245.158 34.8812 244.923 33.3261C244.717 31.9483 244.776 30.1837 243.952 28.8461C251.447 29.7324 258.876 30.8524 266.194 32.2706C272.983 33.584 279.669 35.1552 286.178 37.0165C286.583 38.4991 286.995 39.9817 287.414 41.4562L287.407 41.4482ZM280.853 27.7503C281.868 28.1048 282.876 28.4674 283.884 28.838C284.45 30.7558 284.98 32.6815 285.509 34.5992C283.516 34.0513 281.508 33.5356 279.485 33.036C279.691 31.9322 279.551 30.8524 279.316 29.7244C279.125 28.8219 278.919 27.8067 278.404 26.9203C279.22 27.1943 280.044 27.4683 280.853 27.7503ZM275.837 26.0904C275.837 26.0904 275.837 26.1388 275.837 26.1629C275.859 27.3957 276.587 28.6124 276.918 29.8211C277.168 30.7235 277.264 31.634 277.426 32.5445C273.814 31.6904 270.166 30.9088 266.481 30.2078C266.459 29.0395 266.312 27.8631 266.121 26.7028C265.929 25.5022 265.981 24.0841 265.091 23.0044C268.732 23.939 272.314 24.9704 275.844 26.0823L275.837 26.0904ZM212.633 15.261C228.395 16.099 244.047 18.1215 259.045 21.5459C260.692 21.9246 262.333 22.3195 263.966 22.7304C263.848 22.7868 263.745 22.8674 263.693 22.9721C263.009 24.2533 263.62 25.8648 263.863 27.1943C264.024 28.0726 264.201 28.9589 264.444 29.8291C263.48 29.6519 262.509 29.4827 261.538 29.3134C244.57 26.4047 227.101 24.9462 209.64 24.358C209.772 22.5854 209.64 20.8046 209.581 19.032C209.544 17.9684 209.47 16.8967 209.397 15.8331C209.382 15.5672 209.375 15.3255 209.36 15.1079C210.456 15.1563 211.552 15.2046 212.641 15.261H212.633ZM232.897 32.3512C232.742 31.0055 233.007 28.9831 231.794 27.8631C231.632 27.71 231.419 27.6294 231.205 27.5891C234.765 27.8873 238.31 28.2176 241.848 28.6124C241.245 30.1434 242.062 32.045 242.385 33.5678C242.679 34.9699 242.922 36.3719 243.4 37.7417C239.936 37.3791 236.464 37.0648 232.985 36.7828C233.14 35.3083 233.073 33.8418 232.904 32.3512H232.897ZM196.863 19.8216C196.908 18.1779 197.194 16.4213 196.93 14.7695C200.173 14.8017 203.41 14.8743 206.646 14.9951C206.609 15.5108 206.734 16.0507 206.764 16.5663C206.823 17.5494 206.889 18.5324 206.984 19.5235C207.124 21.1108 207.227 22.7062 207.529 24.2855C203.88 24.1727 200.232 24.1002 196.577 24.0599C197.106 22.7385 196.834 21.135 196.871 19.8297L196.863 19.8216ZM214.237 26.4933C219.841 26.7431 225.431 27.1057 231.014 27.5649C230.646 27.5649 230.286 27.71 230.117 28.0001C229.661 28.7816 229.999 29.5552 230.139 30.377C230.278 31.1989 230.403 32.0127 230.506 32.8346C230.668 34.1077 230.852 35.3647 231.117 36.6217C223.313 36.0335 215.48 35.6386 207.661 35.3969C197.548 35.0827 187.412 35.0585 177.291 35.3244C177.519 34.003 177.269 32.5687 177.247 31.3278C177.21 29.5632 177.181 27.7906 177.122 26.0259C189.501 25.8084 201.894 25.9373 214.237 26.4852V26.4933ZM198.43 37.1293C201.887 37.1776 205.337 37.2663 208.786 37.3871C208.36 38.91 209.066 40.6827 209.323 42.2136C209.515 43.3417 209.647 44.5262 209.934 45.6623C205.991 45.6059 202.049 45.5898 198.107 45.6139C198.327 44.5987 198.261 43.5431 198.298 42.5279C198.357 40.7472 198.592 38.91 198.423 37.1293H198.43ZM137.977 44.0749C138.183 42.689 139.36 40.9889 139.051 39.5788C157.895 37.7417 176.938 36.8956 195.981 37.089C195.804 38.8778 196.047 40.723 196.106 42.5198C196.135 43.5431 196.076 44.6067 196.297 45.622C182.727 45.7348 169.164 46.2747 155.696 47.0482C149.768 47.3866 143.854 47.7814 137.97 48.2568C138.014 46.8629 137.764 45.4689 137.97 44.0749H137.977ZM136.087 48.418C131.041 48.845 126.01 49.3446 121.009 49.9409C121.031 49.4896 120.965 49.0303 120.965 48.5711C120.972 47.8137 121.06 47.0643 121.185 46.3149C121.457 44.7276 122.553 43.0758 122.347 41.4885C127.297 40.8438 132.262 40.2718 137.249 39.7641C136.116 40.8841 135.933 42.6165 135.749 43.8493C135.528 45.3239 135.44 46.9676 136.094 48.418H136.087ZM99.4284 43.2047C99.5534 42.3103 99.7741 41.424 99.8256 40.5135C99.8844 39.4902 99.8918 38.4749 100.046 37.4516C100.215 36.3477 100.524 35.2599 100.914 34.1722C101.091 33.6726 101.348 33.1569 101.444 32.6412C103.319 32.3028 105.202 31.9724 107.085 31.6663C124.635 28.8058 142.552 27.2346 160.551 26.5013C160.631 26.5013 160.712 26.5013 160.786 26.4933C160.367 28.2498 160.293 30.0547 160.021 31.8274C159.8 33.2214 159.293 34.6798 159.146 36.114C156.417 36.2833 153.688 36.4605 150.959 36.67C133.571 37.9915 116.331 40.159 99.421 43.2047H99.4284ZM163.404 26.3966C167.031 26.2596 170.657 26.1549 174.29 26.0823C174.43 27.9114 174.592 29.7486 174.754 31.5776C174.857 32.7701 174.783 34.1399 175.136 35.3889C170.517 35.5258 165.898 35.7273 161.286 35.9851C161.794 34.7765 162.036 33.4792 162.36 32.2948C162.86 30.4334 163.449 28.4835 163.449 26.59C163.449 26.5255 163.434 26.4611 163.412 26.3966H163.404ZM139.779 22.2792C139.838 20.8449 140.279 19.3301 139.949 17.912C158.05 15.9056 176.379 14.6809 194.664 14.7534C194.385 16.4052 194.657 18.1617 194.686 19.8136C194.716 21.1108 194.429 22.7062 194.936 24.0277C181.086 23.8987 167.207 24.2291 153.416 24.9946C148.797 25.2524 144.178 25.5586 139.573 25.9373C139.912 24.7528 139.72 23.4556 139.772 22.2792H139.779ZM122.737 23.3105C123.024 22.4 123.988 20.99 123.936 19.8861C128.46 19.2737 133.012 18.7016 137.573 18.1779C136.992 19.5396 137.161 21.1511 137.154 22.537C137.154 23.6973 137.08 24.9785 137.595 26.1065C132.211 26.5739 126.841 27.1298 121.502 27.7986C121.928 26.308 122.266 24.8012 122.73 23.3105H122.737ZM67.6537 35.7031C67.5139 36.8715 67.2565 38.3138 67.6831 39.5305C64.5792 40.5538 61.5047 41.6496 58.5626 42.8744C59.0259 41.3192 59.2613 39.748 59.7541 38.201C60.1734 36.8956 60.725 35.6306 61.1295 34.3253C63.7848 33.3181 66.4621 32.3431 69.1615 31.4084C67.7199 32.335 67.8081 34.422 67.6537 35.7031ZM74.0527 37.5241C72.4493 38.0076 70.8385 38.5071 69.235 39.0228C69.4925 38.0076 69.4631 36.9037 69.6396 35.9368C69.8823 34.5912 70.9341 32.754 70.1103 31.4648C70.0073 31.3037 69.7499 31.2553 69.5145 31.2795C74.1851 29.676 78.944 28.2176 83.8794 26.9767C89.1457 25.6553 94.5151 24.5434 99.9432 23.5603C100.105 23.8585 100.716 23.9229 100.966 23.6328C101.054 23.5362 101.127 23.4314 101.201 23.3347C103.812 22.8754 106.431 22.4403 109.056 22.0374C113.124 21.409 117.213 20.8046 121.318 20.2325C120.847 21.1914 120.744 22.392 120.56 23.1333C120.141 24.769 119.883 26.3402 119.994 27.9759C113.124 28.8622 106.313 29.9419 99.5828 31.2473C95.177 32.1014 90.808 33.0522 86.4978 34.1158C86.2036 33.8418 85.6299 33.8015 85.3063 34.1238C85.1886 34.2447 85.093 34.3655 85.0047 34.4945C81.3124 35.4211 77.6568 36.4283 74.0601 37.5161L74.0527 37.5241ZM97.7734 40.5135C97.9353 41.561 98.3913 42.3748 98.9209 43.2934C97.6999 43.5109 96.4863 43.7365 95.2727 43.9702C91.7348 44.639 88.2043 45.34 84.6958 46.0893C85.5858 44.4617 85.6888 42.5762 85.9903 40.8922C86.1963 39.7238 86.4096 38.5555 86.6082 37.3871C86.7038 36.8392 86.8582 36.251 86.895 35.6709C90.8007 34.7523 94.7504 33.9143 98.7296 33.1569C98.1338 34.4139 98.0382 35.9529 97.8838 36.9843C97.7146 38.1446 97.5969 39.3532 97.7734 40.5135ZM82.9232 65.4839C83.5484 64.3398 83.4601 63.0022 83.5851 61.8097C83.6955 60.7703 84.0338 59.5858 83.9235 58.4819C88.0719 57.4505 92.2717 56.4917 96.523 55.6295C96.4495 56.532 96.5083 57.4425 96.523 58.2724C96.5451 59.6341 96.4127 61.1248 97.185 62.3979C92.382 63.3084 87.6232 64.3317 82.9232 65.4839ZM97.1335 53.3492C97.0673 53.4701 97.0085 53.599 96.9497 53.7279C92.2055 54.6868 87.4687 55.7423 82.7834 56.9107C82.5995 56.9107 82.4157 56.9429 82.2686 57.0396C77.1493 58.3288 72.0889 59.7469 67.1388 61.3182C67.0873 60.1015 66.7784 58.8364 66.8519 57.66C66.9181 56.6045 67.0947 55.5489 67.3815 54.5014C67.6095 53.7038 67.9184 53.0511 67.7272 52.2373C67.7051 52.1406 67.6316 52.0519 67.5286 51.9794C69.8235 51.3106 72.1477 50.6822 74.5235 50.102C83.9161 47.8137 93.5074 45.9362 103.194 44.3167C108.784 43.382 114.404 42.5279 120.045 41.7705C119.008 42.9549 118.787 44.5262 118.559 45.8476C118.353 47.0482 118.045 48.8773 118.67 50.2148C112.065 51.0447 105.504 52.06 99.0091 53.317C98.8252 52.6321 97.4278 52.8094 97.1409 53.3412L97.1335 53.3492ZM160.433 55.9599C160.521 55.3878 160.543 54.8076 160.609 54.2597C160.801 52.7449 161.11 51.1656 160.992 49.6508C160.933 48.8934 159.153 48.6355 158.94 49.4655C158.557 50.9481 158.557 52.5032 158.484 54.0099C158.447 54.6707 158.344 55.3636 158.351 56.0405C148.841 56.3708 139.353 56.951 129.923 57.8454C119.317 58.8526 108.777 60.2626 98.4428 62.1803C98.9282 60.8589 98.6634 59.3843 98.7591 58.0387C98.8252 57.0879 99.0312 56.1049 99.1047 55.1299C101.135 54.7351 103.172 54.3564 105.232 54.0099C124.201 50.795 143.7 49.5299 163.154 48.5952C167.553 48.3857 171.959 48.2004 176.364 48.0554C176.364 48.0634 176.364 48.0715 176.357 48.0876C176.188 49.6508 176.409 51.2623 176.467 52.8255C176.504 53.7843 176.497 54.7351 176.614 55.6779C171.223 55.7101 165.824 55.7987 160.433 55.9679V55.9599ZM185.5 55.6779C183.227 55.6617 180.961 55.6537 178.689 55.6617C178.806 54.719 178.799 53.7763 178.836 52.8174C178.895 51.2542 179.115 49.6347 178.946 48.0796C178.946 48.0393 178.931 48.007 178.917 47.9667C191.737 47.5719 204.579 47.4833 217.399 47.8539C222.188 47.9909 226.976 48.1924 231.749 48.4744C231.749 49.6427 232.014 50.8352 232.073 51.9875C232.169 53.7199 231.852 55.4361 232.463 57.1282C232.485 57.1846 232.544 57.233 232.61 57.2652C216.936 56.403 201.225 55.7987 185.5 55.6779ZM232.389 46.46C225.615 46.0652 218.819 45.8154 212.015 45.6945C212.001 44.4536 211.765 43.1886 211.626 41.9639C211.456 40.5457 211.655 38.8053 210.912 37.4597C211.846 37.4919 212.78 37.5322 213.714 37.5725C231.293 38.346 248.909 39.885 265.981 42.9066C270.6 43.7204 275.175 44.6551 279.684 45.7106C279.595 47.0724 280.368 48.4986 280.677 49.8281C280.861 50.6177 280.89 51.504 281.066 52.342C277.073 51.5685 273.049 50.8675 268.997 50.239C269.055 49.0706 268.857 47.9668 268.643 46.7903C268.438 45.6542 268.408 44.51 267.636 43.4787C267.32 43.0516 266.26 43.1483 266.113 43.6157C265.76 44.7518 266.172 45.8637 266.407 46.9998C266.628 48.0312 266.827 49.0062 267.209 49.9811C266.591 49.8925 265.974 49.7958 265.348 49.7072C254.691 48.1924 243.922 47.161 233.096 46.5083C232.89 46.4197 232.617 46.4036 232.382 46.468L232.389 46.46ZM241.061 57.7487C238.377 57.5875 235.692 57.4344 233.007 57.2813C233.066 57.2652 233.118 57.233 233.147 57.1846C234.331 55.557 234.316 53.7763 234.368 51.9875C234.397 50.8997 234.434 49.7314 234.184 48.6194C237.384 48.8209 240.568 49.0626 243.753 49.3285C243.599 50.6338 244.202 51.915 244.452 53.2122C244.732 54.6787 244.658 56.1694 245.291 57.5956C245.533 58.1435 246.637 58.1193 246.894 57.5956C247.622 56.1371 247.401 54.5981 247.181 53.0833C247.012 51.9311 246.923 50.6258 246.217 49.546C254.588 50.3196 262.906 51.3509 271.122 52.6966C278.367 53.881 285.531 55.3153 292.555 57.0154C293.122 58.4416 293.725 59.8597 294.365 61.2698C294.402 61.3423 298.719 67.4419 298.594 67.4339C280.897 66.1608 258.795 58.8123 241.061 57.7406V57.7487Z" fill="black"/>
<path d="M63.6083 22.3759C63.6083 22.3759 109.785 8.81494 142.442 8.81494" stroke="#EAAC7D" stroke-width="5" stroke-linecap="round" stroke-linejoin="round"/>
<path d="M320.711 40.4813C320.711 40.4813 331.575 48.0716 332.384 54.6707" stroke="#EAAC7D" stroke-width="5" stroke-linecap="round" stroke-linejoin="round"/>
<path opacity="0.5" d="M182.418 62.5913C122.362 62.5913 70.125 73.7027 43.3666 90.0596C71.6328 104.313 120.266 113.717 175.526 113.717C235.582 113.717 287.819 102.605 314.577 86.2484C286.311 71.9945 237.678 62.5913 182.418 62.5913Z" fill="#704E37"/>
<path d="M336.054 68.7956C335.532 65.218 330.612 65.9916 330.972 69.6658C331.531 75.3464 325.676 78.1827 322.388 80.0924C317.394 82.985 312.282 85.5473 307.104 87.8518C296.66 92.4849 285.921 96.0141 275.065 98.7134C253.403 104.112 231.33 106.288 209.309 107.649C163.986 110.453 118.008 110.002 73.4864 97.7223C61.2325 94.3462 49.1111 90.0838 37.2765 84.8302C29.1857 81.2365 18.1969 74.5971 18.0572 61.9789C18.0351 60.2949 16.2036 60.0531 15.7917 61.5921C12.7614 72.8244 21.036 81.6072 28.0824 86.2483C32.7236 89.3022 37.7693 91.3488 42.7267 93.4196C48.4344 95.8046 54.2009 97.956 60.0189 99.8818C83.0262 107.504 106.673 111.734 130.379 113.821C154.549 115.949 178.814 115.804 203.012 114.579C226.343 113.402 249.733 111.485 272.726 106.151C285.487 103.193 298.116 99.1485 310.326 93.5727C316.372 90.8089 322.55 87.8518 328.243 84.0406C332.877 80.9465 337.099 75.9346 336.062 68.7795L336.054 68.7956Z" fill="#EAAC7D"/>
<path d="M170.362 7.20352C170.362 7.20352 183.447 5.88208 191.766 7.20352" stroke="#EAAC7D" stroke-width="5" stroke-linecap="round" stroke-linejoin="round"/>
<path d="M40.8879 22.3759C40.8879 22.3759 44.1021 23.4959 45.6247 31.3601" stroke="#EAAC7D" stroke-width="5" stroke-linecap="round" stroke-linejoin="round"/>
<path d="M30.7523 27.4521C30.7523 27.4521 35.5185 29.3457 37.2397 35.832" stroke="#EAAC7D" stroke-width="5" stroke-linecap="round" stroke-linejoin="round"/>
<path d="M18.2631 36.6862L26.4716 42.7535" stroke="#EAAC7D" stroke-width="5" stroke-linecap="round" stroke-linejoin="round"/>
<path d="M310.797 38.346C310.797 38.346 315.121 30.8364 320.711 29.2974" stroke="#EAAC7D" stroke-width="5" stroke-linecap="round" stroke-linejoin="round"/>
<path d="M307.347 22.4807C307.347 22.4807 299.499 30.1838 300.411 33.8258" stroke="#EAAC7D" stroke-width="5" stroke-linecap="round" stroke-linejoin="round"/>
<path d="M23.0514 92.3883L32.5029 85.064" stroke="#EAAC7D" stroke-width="5" stroke-linecap="round" stroke-linejoin="round"/>
<path d="M43.3666 90.0596L35.9451 97.4081" stroke="#EAAC7D" stroke-width="5" stroke-linecap="round" stroke-linejoin="round"/>
<path d="M255.691 105.119C255.691 105.119 258.103 112.927 255.588 115.747" stroke="#EAAC7D" stroke-width="5" stroke-linecap="round" stroke-linejoin="round"/>
<path d="M266.025 104.579C266.025 104.579 270.107 107.222 268.048 113.773" stroke="#EAAC7D" stroke-width="5" stroke-linecap="round" stroke-linejoin="round"/>
<path d="M143.685 111.984C146.098 111.976 140.25 113.878 138.477 118.567" stroke="#EAAC7D" stroke-width="5" stroke-linecap="round" stroke-linejoin="round"/>
</g>
<defs>
<clipPath id="clip0_119_875">
<rect width="350" height="150" fill="white"/>
</clipPath>
</defs>
</svg>
