<svg width="65" height="79" viewBox="0 0 65 79" fill="none" xmlns="http://www.w3.org/2000/svg">
<path d="M40.27 23.6C40.27 23.6 47.86 13.97 47.52 9.29001C47.18 4.61001 40.88 10.37 37.54 7.48001C34.2 4.59001 37.31 -0.509993 29.5 0.0500067C21.69 0.610007 25.19 10.25 20.05 8.74001C14.92 7.23001 13.95 5.31001 10.34 9.49001C6.73001 13.67 18.73 25.15 18.73 25.15C18.73 25.15 1.20001 34.57 0.500009 55.34C-0.199991 76.11 21.19 81.16 40.73 77.87C55.86 75.32 66.4 66.09 63.6 51.11C60.54 34.72 50.74 28.8 40.27 23.6V23.6Z" fill="#C7D233"/>
<path d="M53.4183 54.5887C54.4337 42.7692 45.6752 32.3644 33.8556 31.349C22.0361 30.3337 11.6313 39.0922 10.616 50.9117C9.60059 62.7313 18.3591 73.136 30.1786 74.1514C41.9982 75.1668 52.4029 66.4083 53.4183 54.5887Z" fill="#F9E9E6"/>
<path d="M33.45 72.52C22.55 73.31 13.04 65.08 12.26 54.18C11.48 43.28 19.7 33.77 30.6 32.99C41.5 32.21 51.01 40.43 51.79 51.33C52.58 62.23 44.35 71.74 33.45 72.52ZM30.6799 34.08C20.3899 34.82 12.6199 43.8 13.3599 54.09C14.0999 64.38 23.08 72.15 33.37 71.41C43.66 70.67 51.43 61.69 50.69 51.4C49.95 41.11 40.9699 33.34 30.6799 34.08V34.08Z" fill="#A1C931"/>
<path d="M21.1599 24.4C21.1599 24.4 11.8299 11.67 16.6699 13.5C21.5099 15.33 26.3999 23.2 26.2899 20.47C26.1799 17.74 26.9499 11.87 28.2199 12.86C29.4899 13.85 29.5199 22.72 31.4199 21C33.3199 19.28 37.3399 10.58 37.4399 13.3C37.5399 16.02 35.7499 20.62 36.3299 20.1C36.9099 19.58 41.8199 11.85 41.9399 15.15C42.0599 18.45 36.5299 20.81 38.5099 23.76C40.4899 26.7 46.7399 29.78 44.5299 29.86C42.3199 29.94 35.8399 25.15 34.8499 26.05C33.8599 26.95 29.4399 31.86 29.3899 30.42C29.3399 28.98 29.2899 25.32 28.0499 26.45C26.8099 27.57 23.7199 33.76 23.6199 30.91C23.5199 28.06 24.2599 25.3 23.4399 26.05C22.6199 26.8 14.7599 33.41 15.8799 30.21C16.9999 27.01 21.1599 24.41 21.1599 24.41V24.4Z" fill="#A1C931"/>
<path d="M30.35 27.43C31.65 25.83 33.28 24.5 35.14 23.6C36.83 22.78 39.04 22 40.87 22.83C42.07 23.37 43.08 25.19 41.98 26.3C41.33 26.96 40.25 27.22 39.38 27.41C38.43 27.61 37.46 27.71 36.49 27.69C34.22 27.65 31.94 26.98 30.02 25.76C29.64 25.52 29.15 25.52 28.86 25.89C28.6 26.21 28.61 26.81 28.99 27.05C31.06 28.38 33.44 29.18 35.9 29.31C37.13 29.37 38.36 29.31 39.57 29.05C40.74 28.8 42.02 28.46 42.94 27.66C44.72 26.1 44.24 23.5 42.63 22.02C40.8 20.35 37.98 20.72 35.85 21.5C33.19 22.48 30.84 24.2 29.06 26.4C28.39 27.23 29.68 28.26 30.36 27.43H30.35Z" fill="#177F1C"/>
<path d="M28.83 27.8C32.39 33.11 38.21 36.77 44.53 37.72C45.58 37.88 45.84 36.24 44.79 36.08C38.87 35.19 33.5 31.77 30.16 26.81C29.57 25.93 28.24 26.92 28.83 27.8V27.8Z" fill="#177F1C"/>
<path d="M29.17 26.38C27.18 24.83 24.85 23.76 22.37 23.28C20.03 22.83 17.18 22.85 15.39 24.66C13.94 26.12 13.6 28.8 15.23 30.26C16.15 31.09 17.45 31.28 18.65 31.32C19.85 31.36 21.05 31.27 22.23 31C24.97 30.37 27.42 29.01 29.39 27C29.7 26.68 29.58 26.09 29.26 25.84C28.88 25.54 28.41 25.65 28.1 25.97C26.7 27.41 24.93 28.46 23.03 29.08C22.08 29.39 21.09 29.58 20.1 29.65C19.16 29.72 18.12 29.74 17.2 29.47C16.46 29.25 15.91 28.75 15.82 27.96C15.74 27.23 16.01 26.48 16.47 25.93C17.71 24.46 20.08 24.57 21.79 24.85C24.11 25.24 26.29 26.22 28.15 27.66C28.99 28.32 30.02 27.02 29.18 26.36L29.17 26.38Z" fill="#177F1C"/>
<path d="M28.19 27.03C26.06 32.62 21.59 37.16 16.03 39.36C15.04 39.75 15.65 41.29 16.65 40.9C22.59 38.55 27.43 33.67 29.71 27.7C30.09 26.71 28.57 26.03 28.19 27.03V27.03Z" fill="#177F1C"/>
<path d="M29.32 44.56L20.9 44.27C20.27 44.25 19.77 43.72 19.79 43.08C19.81 42.44 20.34 41.95 20.98 41.97L29.4 42.26C30.03 42.28 30.53 42.81 30.51 43.45C30.49 44.09 29.96 44.58 29.32 44.56Z" fill="#177F1C"/>
<path d="M44.7 45.1L32.56 44.68C31.93 44.66 31.43 44.13 31.45 43.49C31.47 42.85 32 42.36 32.64 42.38L44.78 42.8C45.41 42.82 45.91 43.35 45.89 43.99C45.87 44.63 45.34 45.12 44.7 45.1Z" fill="#177F1C"/>
<path d="M20.5399 48.42C19.9299 48.4 19.4399 47.9 19.4299 47.28C19.4299 46.65 19.9399 46.13 20.5699 46.12L29.7899 46.06C30.4099 46.06 30.94 46.57 30.95 47.2C30.95 47.83 30.4399 48.35 29.8099 48.36L20.5899 48.42C20.5899 48.42 20.5599 48.42 20.5399 48.42Z" fill="#177F1C"/>
<path d="M24.99 64.89C24.36 64.87 23.86 64.34 23.88 63.7L24.45 47.41C24.47 46.78 25 46.28 25.64 46.3C26.28 46.32 26.77 46.85 26.75 47.49L26.18 63.78C26.16 64.41 25.63 64.91 24.99 64.89Z" fill="#177F1C"/>
<path d="M19.76 58.44C19.53 58.44 19.31 58.36 19.11 58.21C18.6 57.83 18.5 57.11 18.87 56.6C20.23 54.78 20.84 52.12 20.84 52.09C20.98 51.47 21.59 51.08 22.21 51.22C22.83 51.36 23.22 51.97 23.08 52.59C23.05 52.72 22.37 55.75 20.71 57.98C20.48 58.29 20.11 58.45 19.75 58.44H19.76Z" fill="#177F1C"/>
<path d="M29.41 58.45C28.96 58.43 28.54 58.15 28.37 57.7C27.79 56.11 27.08 52.94 27.06 52.81C26.92 52.19 27.31 51.58 27.93 51.44C28.55 51.3 29.16 51.69 29.3 52.31C29.3 52.34 30 55.46 30.53 56.91C30.75 57.51 30.44 58.17 29.85 58.38C29.71 58.43 29.56 58.46 29.41 58.45Z" fill="#177F1C"/>
<path d="M38.26 52.75C37.54 52.73 33.92 52.58 32.89 52.11C32.54 51.95 31.92 51.53 31.75 50.49C31.56 49.35 32 47.78 32.68 47.15C32.92 46.93 33.54 46.35 37.58 46.34L41.51 46.48C42.21 46.5 43.5 47.07 43.43 49.05V49.35C43.38 50.6 43.33 52.31 41.26 52.69C40.59 52.81 39.25 52.8 38.24 52.76L38.26 52.75ZM34.01 50.06C34.59 50.19 36.24 50.38 38.34 50.45C39.78 50.5 40.61 50.46 40.87 50.41C41.01 50.38 41.06 50.35 41.06 50.35C41.11 50.24 41.13 49.68 41.14 49.26V48.94C41.15 48.86 41.15 48.79 41.14 48.74L37.55 48.62C36.21 48.62 34.72 48.74 34.21 48.89C34.09 49.14 33.97 49.73 34 50.06H34.01Z" fill="#177F1C"/>
<path d="M39.71 64.25L33.51 64.03C33.42 64.03 33.33 64.01 33.25 63.99C32.56 63.8 31.26 62.96 31.32 61.13L31.51 55.65C31.57 54 33.09 53.29 34.1 53.32L40.95 53.56C41.1 53.56 41.25 53.6 41.38 53.66C42.08 53.97 43.24 54.89 43.19 56.35L42.99 62.04C43.02 62.42 42.92 62.91 42.56 63.34C42.01 63.99 41.08 64.29 39.71 64.24V64.25ZM33.8 61.74L39.79 61.95C40.24 61.97 40.55 61.92 40.7 61.89L40.9 56.28C40.9 56.12 40.73 55.95 40.59 55.85L34.03 55.62C34.03 55.62 33.85 55.68 33.81 55.72L33.63 61.2C33.63 61.46 33.69 61.64 33.82 61.73L33.8 61.74Z" fill="#177F1C"/>
<path d="M37.0699 64.16C36.4399 64.14 35.9399 63.61 35.9599 62.97L36.2499 54.55C36.2699 53.92 36.7999 53.42 37.4399 53.44C38.0799 53.46 38.5699 53.99 38.5499 54.63L38.2599 63.05C38.2399 63.68 37.7099 64.18 37.0699 64.16Z" fill="#177F1C"/>
<path d="M41.93 59.64L32.53 59.31C31.9 59.29 31.4 58.76 31.42 58.12C31.44 57.48 31.97 56.99 32.59 57.49L41.99 57.82C42.64 57.37 43.14 57.9 43.12 58.53C43.1 59.16 42.57 59.66 41.93 59.64Z" fill="#177F1C"/>
</svg>
