<svg width="67" height="77" viewBox="0 0 67 77" fill="none" xmlns="http://www.w3.org/2000/svg">
<path d="M4.4 38.64C4.4 38.64 5.67 70.22 10.33 74.04C14.99 77.87 55.27 77.39 58.23 73.08C61.2 68.77 64.16 41.5 64.16 36.72C64.16 31.94 56.95 21.89 51.87 21.41C46.78 20.93 17.96 20.93 13.29 23.32C8.62 25.71 3.54 32.89 4.39 38.63L4.4 38.64Z" fill="#F3D54C"/>
<path d="M7.20996 65.78C8.01996 69.82 9.04996 72.99 10.34 74.05C15 77.88 55.28 77.4 58.24 73.09C59.02 71.96 59.8 69.24 60.52 65.78H7.20996V65.78Z" fill="#F27B18"/>
<path d="M53.6046 51.2208C54.4881 40.5208 46.5302 31.1306 35.8302 30.2471C25.1302 29.3637 15.7399 37.3215 14.8565 48.0216C13.973 58.7216 21.9309 68.1118 32.6309 68.9953C43.3309 69.8787 52.7212 61.9209 53.6046 51.2208Z" fill="#F9E9E6"/>
<path d="M35.58 67.5C25.72 68.24 17.09 60.83 16.35 50.96C15.61 41.1 23.02 32.47 32.89 31.73C42.75 30.99 51.38 38.4 52.12 48.27C52.86 58.14 45.44 66.76 35.58 67.5V67.5ZM32.96 32.72C23.65 33.42 16.64 41.57 17.34 50.88C18.04 60.19 26.19 67.2 35.5 66.5C44.81 65.8 51.82 57.65 51.12 48.34C50.42 39.03 42.27 32.02 32.96 32.72V32.72Z" fill="#FDB04D"/>
<path d="M31.19 41.63L22.77 41.34C22.14 41.32 21.64 40.79 21.66 40.15C21.68 39.51 22.21 39.02 22.85 39.04L31.27 39.33C31.9 39.35 32.4 39.88 32.38 40.52C32.36 41.16 31.83 41.65 31.19 41.63Z" fill="#513F3F"/>
<path d="M46.5799 42.1699L34.4399 41.7499C33.8099 41.7299 33.3099 41.1999 33.3299 40.5599C33.3499 39.9199 33.8799 39.4299 34.5199 39.4499L46.6599 39.8699C47.2899 39.8899 47.7899 40.4199 47.7699 41.0599C47.7499 41.6999 47.2199 42.1899 46.5799 42.1699V42.1699Z" fill="#513F3F"/>
<path d="M22.4099 45.49C21.7999 45.47 21.3099 44.97 21.2999 44.35C21.2999 43.72 21.8099 43.2 22.4399 43.19L31.6599 43.13C32.2799 43.13 32.8099 43.64 32.8199 44.27C32.8199 44.9 32.3099 45.42 31.6799 45.43L22.4599 45.49C22.4599 45.49 22.4299 45.49 22.4099 45.49Z" fill="#513F3F"/>
<path d="M26.86 61.96C26.23 61.94 25.73 61.41 25.75 60.77L26.32 44.48C26.34 43.85 26.87 43.35 27.51 43.37C28.15 43.39 28.64 43.92 28.62 44.56L28.05 60.85C28.03 61.48 27.5 61.98 26.86 61.96Z" fill="#513F3F"/>
<path d="M21.63 55.5099C21.4 55.5099 21.18 55.4299 20.98 55.2799C20.47 54.8999 20.37 54.1799 20.74 53.6699C22.1 51.8499 22.71 49.19 22.71 49.16C22.85 48.54 23.46 48.1499 24.08 48.2899C24.7 48.4299 25.09 49.04 24.95 49.66C24.92 49.79 24.24 52.82 22.58 55.05C22.35 55.36 21.98 55.5199 21.62 55.5099H21.63Z" fill="#513F3F"/>
<path d="M31.28 55.52C30.83 55.5 30.41 55.22 30.24 54.77C29.66 53.18 28.95 50.01 28.93 49.88C28.79 49.26 29.18 48.65 29.8 48.51C30.42 48.37 31.03 48.76 31.17 49.38C31.17 49.41 31.87 52.53 32.4 53.98C32.62 54.58 32.31 55.24 31.72 55.45C31.58 55.5 31.43 55.53 31.28 55.52Z" fill="#513F3F"/>
<path d="M40.13 49.82C39.41 49.8 35.79 49.65 34.76 49.18C34.41 49.02 33.79 48.6 33.62 47.56C33.43 46.42 33.87 44.85 34.55 44.22C34.79 44 35.41 43.42 39.45 43.41L43.38 43.55C44.08 43.57 45.37 44.14 45.3 46.12V46.42C45.25 47.67 45.2 49.38 43.13 49.76C42.46 49.88 41.12 49.87 40.11 49.83L40.13 49.82ZM35.88 47.13C36.46 47.26 38.11 47.45 40.21 47.52C41.65 47.57 42.48 47.53 42.74 47.48C42.88 47.45 42.93 47.42 42.93 47.42C42.98 47.31 43 46.75 43.01 46.33V46.01C43.02 45.93 43.02 45.86 43.01 45.81L39.42 45.69C38.08 45.69 36.59 45.81 36.08 45.96C35.96 46.21 35.84 46.8 35.87 47.13H35.88Z" fill="#513F3F"/>
<path d="M41.59 61.33L35.39 61.11C35.3 61.11 35.21 61.09 35.13 61.07C34.44 60.88 33.14 60.04 33.2 58.21L33.39 52.73C33.45 51.08 34.97 50.37 35.98 50.4L42.83 50.64C42.98 50.64 43.13 50.68 43.26 50.74C43.96 51.05 45.12 51.97 45.07 53.43L44.87 59.12C44.9 59.5 44.8 59.99 44.44 60.42C43.89 61.07 42.96 61.37 41.59 61.32V61.33ZM35.68 58.82L41.67 59.03C42.12 59.05 42.43 59 42.58 58.97L42.78 53.36C42.78 53.2 42.61 53.03 42.47 52.93L35.91 52.7C35.91 52.7 35.73 52.76 35.69 52.8L35.51 58.28C35.51 58.54 35.57 58.72 35.7 58.81L35.68 58.82Z" fill="#513F3F"/>
<path d="M38.9499 61.23C38.3199 61.21 37.8199 60.68 37.8399 60.04L38.1299 51.62C38.1499 50.99 38.6799 50.49 39.3199 50.51C39.9599 50.53 40.4499 51.06 40.4299 51.7L40.1399 60.12C40.1199 60.75 39.5899 61.25 38.9499 61.23Z" fill="#513F3F"/>
<path d="M43.8 56.71L34.4 56.38C33.77 56.36 33.27 55.83 33.29 55.19C33.31 54.55 33.84 54.06 34.46 54.56L43.86 54.89C44.51 54.44 45.01 54.97 44.99 55.6C44.97 56.23 44.44 56.73 43.8 56.71V56.71Z" fill="#513F3F"/>
<path d="M42.55 17.15C42.55 17.15 55.27 8.25 51.45 4.86C47.63 1.47 38.73 9.10001 38.73 9.10001C38.73 9.10001 39.58 0.619995 35.34 0.619995C31.1 0.619995 28.98 8.67 28.98 8.67C28.98 8.67 22.62 0.620002 18.81 3.58C14.99 6.55 24.74 17.57 24.74 17.57C24.74 17.57 5.86996 18.58 2.26996 23.08C-1.12004 27.32 2.68996 42.16 4.80996 43C6.92996 43.85 18.38 25.62 22.61 26.47C26.85 27.32 31.94 34.95 35.75 34.52C39.57 34.1 44.23 26.04 48.04 26.04C51.85 26.04 59.91 42.57 62.88 42.57C65.85 42.57 67.54 25.61 65 21.8C62.46 17.98 42.53 17.14 42.53 17.14L42.55 17.15Z" fill="#F27B18"/>
<path d="M34.8 19.55C36.29 18.09 38.07 16.95 40.04 16.26C41.83 15.63 44.13 15.1 45.88 16.14C47.02 16.82 47.83 18.76 46.6 19.75C45.87 20.34 44.76 20.48 43.86 20.57C42.89 20.66 41.9 20.65 40.93 20.52C38.66 20.22 36.44 19.29 34.66 17.84C34.31 17.56 33.82 17.5 33.48 17.84C33.19 18.13 33.13 18.74 33.48 19.02C35.41 20.59 37.7 21.67 40.15 22.08C41.38 22.29 42.62 22.36 43.86 22.24C45.06 22.12 46.38 21.93 47.4 21.23C49.37 19.87 49.19 17.2 47.73 15.53C46.09 13.64 43.21 13.69 40.99 14.23C38.21 14.91 35.65 16.37 33.62 18.37C32.85 19.12 34.03 20.31 34.8 19.55Z" fill="#F3D54C"/>
<path d="M33.23 19.76C36.2 25.49 41.62 29.83 47.85 31.51C48.89 31.79 49.33 30.18 48.29 29.9C42.45 28.33 37.45 24.28 34.67 18.92C34.17 17.96 32.73 18.81 33.23 19.76V19.76Z" fill="#F3D54C"/>
<path d="M33.73 18.37C31.91 16.59 29.69 15.25 27.26 14.49C24.96 13.77 22.1 13.46 20.09 15.07C18.47 16.37 17.82 19.02 19.29 20.67C20.12 21.6 21.4 21.95 22.6 22.13C23.8 22.31 25.02 22.35 26.23 22.22C29.05 21.91 31.67 20.82 33.87 19.03C34.22 18.74 34.17 18.14 33.87 17.85C33.52 17.5 33.04 17.56 32.69 17.85C31.12 19.13 29.23 19.98 27.24 20.39C26.25 20.59 25.24 20.67 24.23 20.63C23.28 20.59 22.23 20.49 21.34 20.11C20.62 19.8 20.13 19.24 20.13 18.44C20.13 17.7 20.49 16.98 21.02 16.48C22.43 15.15 24.8 15.53 26.48 16.01C28.76 16.67 30.84 17.9 32.54 19.56C33.31 20.31 34.49 19.13 33.72 18.38L33.73 18.37Z" fill="#F3D54C"/>
<path d="M32.68 18.91C29.9 24.27 24.9 28.32 19.06 29.89C18.02 30.17 18.46 31.78 19.5 31.5C25.73 29.83 31.15 25.48 34.12 19.75C34.61 18.8 33.17 17.95 32.68 18.91Z" fill="#F3D54C"/>
</svg>
