<svg width="62" height="84" viewBox="0 0 62 84" fill="none" xmlns="http://www.w3.org/2000/svg">
<path d="M59.6001 50.59C59.6001 50.59 61.5901 71.94 56.6401 77.77C51.2601 84.1 39.6201 83.76 29.6401 83.47C17.9601 83.13 8.49008 81.55 4.33008 75.8C0.170075 70.05 1.95008 53.66 3.44008 47.21C4.93008 40.76 16.2701 32.95 31.9701 33.77C50.9901 34.76 58.9301 44.09 59.6101 50.6L59.6001 50.59Z" fill="#FFBB22"/>
<path d="M50.1246 60.8067C51.0081 50.1067 43.0502 40.7164 32.3502 39.8329C21.6502 38.9495 12.26 46.9074 11.3765 57.6074C10.493 68.3074 18.4509 77.6976 29.1509 78.5811C39.8509 79.4646 49.2412 71.5067 50.1246 60.8067Z" fill="#F9E9E6"/>
<path d="M32.09 77.1C22.23 77.84 13.6 70.43 12.86 60.56C12.12 50.69 19.53 42.07 29.4 41.33C39.27 40.59 47.89 48 48.63 57.87C49.37 67.74 41.95 76.36 32.09 77.1ZM29.47 42.32C20.16 43.02 13.15 51.17 13.85 60.48C14.55 69.79 22.7 76.8 32.01 76.1C41.32 75.4 48.33 67.25 47.63 57.94C46.93 48.63 38.78 41.62 29.47 42.32Z" fill="#AF6935"/>
<path d="M40.45 24.92C40.45 24.92 56.88 10.69 50.59 4.01002C46.6 -0.21998 37.87 9.70002 37.87 9.70002C37.87 9.70002 37.27 0.590015 32.52 0.450015C27.77 0.310015 26.61 10.23 26.61 10.23C26.61 10.23 20.43 -0.339983 15.16 2.10002C9.89003 4.54002 16.34 20.75 22.28 24.82C22.28 24.82 9.31003 24.44 4.30003 32.95C-0.229973 40.64 0.34003 49.71 3.35003 50.67C6.35003 51.62 17.53 39.4 19.68 39.9C21.83 40.4 25.41 46.44 30.16 46.58C34.91 46.72 41.75 40.12 44.75 41.07C47.75 42.02 54.81 52.19 58.7 52.3C62.59 52.41 61.31 37.23 57.98 32.8C54.65 28.37 48.7 24.74 40.47 24.93L40.45 24.92Z" fill="#AF6935"/>
<path d="M33.24 24.07C34.8 22.63 36.6599 21.51 38.6899 20.87C40.5399 20.28 42.8999 19.81 44.6499 20.93C45.7999 21.66 46.5599 23.66 45.2799 24.63C44.5199 25.21 43.38 25.32 42.46 25.38C41.46 25.45 40.4499 25.41 39.4699 25.24C37.1599 24.86 34.9299 23.85 33.1599 22.32C32.8099 22.02 32.3099 21.95 31.9499 22.28C31.6399 22.57 31.5599 23.18 31.9099 23.49C33.8299 25.15 36.13 26.32 38.63 26.81C39.87 27.06 41.14 27.17 42.41 27.08C43.64 27 44.9899 26.84 46.0599 26.15C48.1099 24.83 48 22.09 46.57 20.35C44.95 18.38 42.0099 18.34 39.7299 18.82C36.8799 19.43 34.2199 20.84 32.0899 22.82C31.2799 23.57 32.4499 24.81 33.2599 24.06L33.24 24.07Z" fill="#FFBB22"/>
<path d="M31.6399 24.23C34.4999 30.17 39.8899 34.76 46.1999 36.65C47.2499 36.97 47.7499 35.33 46.6999 35.02C40.7899 33.24 35.8099 28.97 33.1399 23.41C32.6599 22.42 31.1699 23.24 31.6399 24.23Z" fill="#FFBB22"/>
<path d="M32.19 22.83C30.39 20.96 28.17 19.52 25.71 18.67C23.39 17.87 20.48 17.47 18.38 19.05C16.69 20.33 15.94 23.01 17.4 24.74C18.22 25.72 19.52 26.11 20.73 26.33C21.95 26.55 23.19 26.63 24.43 26.53C27.31 26.29 30.02 25.26 32.32 23.5C32.69 23.22 32.65 22.6 32.36 22.29C32.02 21.93 31.52 21.97 31.15 22.25C29.51 23.51 27.55 24.32 25.52 24.68C24.51 24.86 23.47 24.9 22.45 24.83C21.48 24.76 20.41 24.63 19.52 24.22C18.79 23.88 18.31 23.3 18.34 22.48C18.36 21.73 18.75 21 19.3 20.51C20.78 19.19 23.19 19.65 24.89 20.19C27.2 20.93 29.28 22.25 30.96 24C31.72 24.79 32.96 23.62 32.2 22.83H32.19Z" fill="#FFBB22"/>
<path d="M31.1 23.35C28.1 28.74 22.88 32.72 16.88 34.14C15.81 34.39 16.21 36.05 17.29 35.8C23.7 34.28 29.35 30.01 32.55 24.25C33.08 23.29 31.64 22.38 31.1 23.35V23.35Z" fill="#FFBB22"/>
<path d="M27.7001 51.23L19.2801 50.94C18.6501 50.92 18.1501 50.39 18.1701 49.75C18.1901 49.11 18.7201 48.62 19.3601 48.64L27.7801 48.93C28.4101 48.95 28.9101 49.48 28.8901 50.12C28.8701 50.76 28.3401 51.25 27.7001 51.23Z" fill="#513F3F"/>
<path d="M43.0901 51.77L30.9501 51.35C30.3201 51.33 29.8201 50.8 29.8401 50.16C29.8601 49.52 30.3901 49.03 31.0301 49.05L43.1701 49.47C43.8001 49.49 44.3001 50.02 44.2801 50.66C44.2601 51.3 43.7301 51.79 43.0901 51.77V51.77Z" fill="#513F3F"/>
<path d="M18.9201 55.08C18.3101 55.06 17.8201 54.56 17.8101 53.94C17.8101 53.31 18.3201 52.79 18.9501 52.78L28.1701 52.72C28.7901 52.72 29.3201 53.23 29.3301 53.86C29.3301 54.49 28.8201 55.01 28.1901 55.02L18.9701 55.08C18.9701 55.08 18.9401 55.08 18.9201 55.08V55.08Z" fill="#513F3F"/>
<path d="M23.3701 71.55C22.7401 71.53 22.2401 71 22.2601 70.36L22.8301 54.07C22.8501 53.44 23.3801 52.94 24.0201 52.96C24.6601 52.98 25.1501 53.51 25.1301 54.15L24.5601 70.44C24.5401 71.07 24.0101 71.57 23.3701 71.55Z" fill="#513F3F"/>
<path d="M18.1401 65.1C17.9101 65.1 17.6901 65.02 17.4901 64.87C16.9801 64.49 16.8801 63.77 17.2501 63.26C18.6101 61.44 19.2201 58.78 19.2201 58.75C19.3601 58.13 19.9701 57.74 20.5901 57.88C21.2101 58.02 21.6001 58.63 21.4601 59.25C21.4301 59.38 20.7501 62.41 19.0901 64.64C18.8601 64.95 18.4901 65.11 18.1301 65.1H18.1401Z" fill="#513F3F"/>
<path d="M27.7901 65.12C27.3401 65.1 26.9201 64.82 26.7501 64.37C26.1701 62.78 25.4601 59.61 25.4401 59.48C25.3001 58.86 25.6901 58.25 26.3101 58.11C26.9301 57.97 27.5401 58.36 27.6801 58.98C27.6801 59.01 28.3801 62.13 28.9101 63.58C29.1301 64.18 28.8201 64.84 28.2301 65.05C28.0901 65.1 27.9401 65.13 27.7901 65.12Z" fill="#513F3F"/>
<path d="M36.6501 59.42C35.9301 59.4 32.3101 59.25 31.2801 58.78C30.9301 58.62 30.3101 58.2 30.1401 57.16C29.9501 56.02 30.3901 54.45 31.0701 53.82C31.3101 53.6 31.9301 53.02 35.9701 53.01L39.9001 53.15C40.6001 53.17 41.8901 53.74 41.8201 55.72V56.02C41.7701 57.27 41.7201 58.98 39.6501 59.36C38.9801 59.48 37.6401 59.47 36.6301 59.43L36.6501 59.42ZM32.4001 56.73C32.9801 56.86 34.6301 57.05 36.7301 57.12C38.1701 57.17 39.0001 57.13 39.2601 57.08C39.4001 57.05 39.4501 57.02 39.4501 57.02C39.5001 56.91 39.5201 56.35 39.5301 55.93V55.61C39.5401 55.53 39.5401 55.46 39.5301 55.41L35.9401 55.29C34.6001 55.29 33.1101 55.41 32.6001 55.56C32.4801 55.81 32.3601 56.4 32.3901 56.73H32.4001Z" fill="#513F3F"/>
<path d="M38.29 70.83H32.08C31.99 70.83 31.9001 70.82 31.8201 70.8C31.1201 70.63 29.8 69.84 29.8 68.01V62.53C29.8 60.88 31.3 60.11 32.31 60.11H39.17C39.32 60.11 39.4701 60.14 39.6001 60.2C40.3101 60.49 41.51 61.37 41.51 62.83V68.52C41.55 68.9 41.47 69.39 41.12 69.83C40.59 70.5 39.67 70.83 38.3 70.83H38.29ZM32.2 68.41L38.19 68.62C38.64 68.64 38.9501 68.59 39.1001 68.56L39.3 62.95C39.3 62.79 39.1301 62.62 38.9901 62.52L32.43 62.29C32.43 62.29 32.2501 62.35 32.2101 62.39L32.03 67.87C32.03 68.13 32.09 68.31 32.22 68.4L32.2 68.41Z" fill="#513F3F"/>
<path d="M35.4601 70.83C34.8301 70.81 34.3301 70.28 34.3501 69.64L34.6401 61.22C34.6601 60.59 35.1901 60.09 35.8301 60.11C36.4701 60.13 36.9601 60.66 36.9401 61.3L36.6501 69.72C36.6301 70.35 36.1001 70.85 35.4601 70.83Z" fill="#513F3F"/>
<path d="M40.3101 66.31L30.9101 65.98C30.2801 65.96 29.7801 65.43 29.8001 64.79C29.8201 64.15 30.3501 63.66 30.9701 64.16L40.3701 64.49C41.0201 64.04 41.5201 64.57 41.5001 65.2C41.4801 65.83 40.9501 66.33 40.3101 66.31V66.31Z" fill="#513F3F"/>
</svg>
