<svg width="67" height="77" viewBox="0 0 67 77" fill="none" xmlns="http://www.w3.org/2000/svg">
<path d="M4.25011 38.64C4.25011 38.64 5.5201 70.22 10.1801 74.04C14.8401 77.87 55.1201 77.39 58.0801 73.08C61.0501 68.77 64.0101 41.5 64.0101 36.72C64.0101 31.94 56.8001 21.89 51.7201 21.41C46.6301 20.93 17.8101 20.93 13.1401 23.32C8.47012 25.71 3.3901 32.89 4.2401 38.63L4.25011 38.64Z" fill="#61BFFF"/>
<path opacity="0.5" d="M7.05005 65.78C7.86005 69.82 8.89005 72.99 10.1801 74.05C14.8401 77.88 55.11 77.4 58.08 73.09C58.86 71.96 59.64 69.24 60.36 65.78H7.05005V65.78Z" fill="#3E73DD"/>
<path d="M53.4523 51.2153C54.3357 40.5153 46.3779 31.1251 35.6779 30.2416C24.9779 29.3581 15.5876 37.316 14.7041 48.016C13.8207 58.716 21.7786 68.1063 32.4786 68.9897C43.1786 69.8732 52.5688 61.9153 53.4523 51.2153Z" fill="#F9E9E6"/>
<path d="M35.4301 67.5C25.5701 68.24 16.9401 60.83 16.2001 50.96C15.4601 41.1 22.8701 32.47 32.7401 31.73C42.6001 30.99 51.2301 38.4 51.9701 48.27C52.7101 58.14 45.2901 66.76 35.4301 67.5ZM32.8101 32.72C23.5001 33.42 16.4901 41.57 17.1901 50.88C17.8901 60.19 26.0401 67.2 35.3501 66.5C44.6601 65.8 51.6701 57.65 50.9701 48.34C50.2701 39.03 42.1201 32.02 32.8101 32.72Z" fill="#5483F7"/>
<path d="M31.0402 41.63L22.6202 41.34C21.9902 41.32 21.4902 40.79 21.5102 40.15C21.5302 39.51 22.0602 39.02 22.7002 39.04L31.1202 39.33C31.7502 39.35 32.2502 39.88 32.2302 40.52C32.2102 41.16 31.6802 41.65 31.0402 41.63Z" fill="#513F3F"/>
<path d="M46.4203 42.1699L34.2802 41.7499C33.6502 41.7299 33.1503 41.1999 33.1703 40.5599C33.1903 39.9199 33.7202 39.4299 34.3602 39.4499L46.5002 39.8699C47.1302 39.8899 47.6302 40.4199 47.6102 41.0599C47.5902 41.6999 47.0603 42.1899 46.4203 42.1699Z" fill="#513F3F"/>
<path d="M22.2602 45.49C21.6502 45.47 21.1601 44.97 21.1501 44.35C21.1501 43.72 21.6602 43.2 22.2902 43.19L31.5102 43.13C32.1302 43.13 32.6602 43.64 32.6702 44.27C32.6702 44.9 32.1602 45.42 31.5302 45.43L22.3102 45.49C22.3102 45.49 22.2802 45.49 22.2602 45.49Z" fill="#513F3F"/>
<path d="M26.7102 61.96C26.0802 61.94 25.5802 61.41 25.6002 60.77L26.1702 44.48C26.1902 43.85 26.7202 43.35 27.3602 43.37C28.0002 43.39 28.4902 43.92 28.4702 44.56L27.9002 60.85C27.8802 61.48 27.3502 61.98 26.7102 61.96Z" fill="#513F3F"/>
<path d="M21.4802 55.5099C21.2502 55.5099 21.0302 55.4299 20.8302 55.2799C20.3202 54.8999 20.2202 54.1799 20.5902 53.6699C21.9502 51.8499 22.5602 49.19 22.5602 49.16C22.7002 48.54 23.3102 48.1499 23.9302 48.2899C24.5502 48.4299 24.9402 49.04 24.8002 49.66C24.7702 49.79 24.0902 52.82 22.4302 55.05C22.2002 55.36 21.8302 55.5199 21.4702 55.5099H21.4802Z" fill="#513F3F"/>
<path d="M31.1302 55.52C30.6802 55.5 30.2602 55.22 30.0902 54.77C29.5102 53.18 28.8002 50.01 28.7802 49.88C28.6402 49.26 29.0302 48.65 29.6502 48.51C30.2702 48.37 30.8802 48.76 31.0202 49.38C31.0202 49.41 31.7202 52.53 32.2502 53.98C32.4702 54.58 32.1602 55.24 31.5702 55.45C31.4302 55.5 31.2802 55.53 31.1302 55.52Z" fill="#513F3F"/>
<path d="M39.9802 49.82C39.2602 49.8 35.6402 49.65 34.6102 49.18C34.2602 49.02 33.6402 48.6 33.4702 47.56C33.2802 46.42 33.7202 44.85 34.4002 44.22C34.6402 44 35.2602 43.42 39.3002 43.41L43.2302 43.55C43.9302 43.57 45.2202 44.14 45.1502 46.12V46.42C45.1002 47.67 45.0502 49.38 42.9802 49.76C42.3102 49.88 40.9702 49.87 39.9602 49.83L39.9802 49.82ZM35.7302 47.13C36.3102 47.26 37.9602 47.45 40.0602 47.52C41.5002 47.57 42.3302 47.53 42.5902 47.48C42.7302 47.45 42.7802 47.42 42.7802 47.42C42.8302 47.31 42.8502 46.75 42.8602 46.33V46.01C42.8702 45.93 42.8702 45.86 42.8602 45.81L39.2702 45.69C37.9302 45.69 36.4402 45.81 35.9302 45.96C35.8102 46.21 35.6902 46.8 35.7202 47.13H35.7302Z" fill="#513F3F"/>
<path d="M41.4302 61.33L35.2302 61.11C35.1402 61.11 35.0502 61.09 34.9702 61.07C34.2802 60.88 32.9802 60.04 33.0402 58.21L33.2302 52.73C33.2902 51.08 34.8102 50.37 35.8202 50.4L42.6702 50.64C42.8202 50.64 42.9702 50.68 43.1002 50.74C43.8002 51.05 44.9602 51.97 44.9102 53.43L44.7102 59.12C44.7402 59.5 44.6402 59.99 44.2802 60.42C43.7302 61.07 42.8002 61.37 41.4302 61.32V61.33ZM35.5202 58.82L41.5102 59.03C41.9602 59.05 42.2702 59 42.4202 58.97L42.6202 53.36C42.6202 53.2 42.4502 53.03 42.3102 52.93L35.7502 52.7C35.7502 52.7 35.5702 52.76 35.5302 52.8L35.3502 58.28C35.3502 58.54 35.4102 58.72 35.5402 58.81L35.5202 58.82Z" fill="#513F3F"/>
<path d="M38.7902 61.23C38.1602 61.21 37.6601 60.68 37.6801 60.04L37.9702 51.62C37.9902 50.99 38.5202 50.49 39.1602 50.51C39.8002 50.53 40.2901 51.06 40.2701 51.7L39.9802 60.12C39.9602 60.75 39.4302 61.25 38.7902 61.23Z" fill="#513F3F"/>
<path d="M43.6502 56.71L34.2502 56.38C33.6202 56.36 33.1202 55.83 33.1402 55.19C33.1602 54.55 33.6902 54.06 34.3102 54.56L43.7102 54.89C44.3602 54.44 44.8602 54.97 44.8402 55.6C44.8202 56.23 44.2902 56.73 43.6502 56.71V56.71Z" fill="#513F3F"/>
<path d="M42.4001 17.15C42.4001 17.15 55.1201 8.25 51.3001 4.86C47.4801 1.47 38.5801 9.10001 38.5801 9.10001C38.5801 9.10001 39.4301 0.619995 35.1901 0.619995C30.9501 0.619995 28.83 8.67 28.83 8.67C28.83 8.67 22.4701 0.620002 18.6601 3.58C14.8401 6.55 24.5901 17.57 24.5901 17.57C24.5901 17.57 5.72006 18.58 2.12006 23.08C-1.26994 27.32 2.54007 42.16 4.66007 43C6.78007 43.85 18.2301 25.62 22.4601 26.47C26.7001 27.32 31.7901 34.95 35.6001 34.52C39.4201 34.1 44.0801 26.04 47.8901 26.04C51.7001 26.04 59.7601 42.57 62.7301 42.57C65.7001 42.57 67.3901 25.61 64.8501 21.8C62.3101 17.98 42.3801 17.14 42.3801 17.14L42.4001 17.15Z" fill="#3E73DD"/>
<path d="M34.6501 19.55C36.1401 18.09 37.9202 16.95 39.8902 16.26C41.6802 15.63 43.9801 15.1 45.7301 16.14C46.8701 16.82 47.6802 18.76 46.4502 19.75C45.7202 20.34 44.6101 20.48 43.7101 20.57C42.7401 20.66 41.7501 20.65 40.7801 20.52C38.5101 20.22 36.2901 19.29 34.5101 17.84C34.1601 17.56 33.6701 17.5 33.3301 17.84C33.0401 18.13 32.9801 18.74 33.3301 19.02C35.2601 20.59 37.5501 21.67 40.0001 22.08C41.2301 22.29 42.4701 22.36 43.7101 22.24C44.9101 22.12 46.2301 21.93 47.2501 21.23C49.2201 19.87 49.0401 17.2 47.5801 15.53C45.9401 13.64 43.0601 13.69 40.8401 14.23C38.0601 14.91 35.5001 16.37 33.4701 18.37C32.7001 19.12 33.8801 20.31 34.6501 19.55Z" fill="#F3D54C"/>
<path d="M33.0801 19.76C36.0501 25.49 41.4701 29.83 47.7001 31.51C48.7401 31.79 49.1801 30.18 48.1401 29.9C42.3001 28.33 37.3001 24.28 34.5201 18.92C34.0201 17.96 32.5801 18.81 33.0801 19.76Z" fill="#F3D54C"/>
<path d="M33.5801 18.37C31.7601 16.59 29.5401 15.25 27.1101 14.49C24.8101 13.77 21.9501 13.46 19.9401 15.07C18.3201 16.37 17.6701 19.02 19.1401 20.67C19.9701 21.6 21.2501 21.95 22.4501 22.13C23.6501 22.31 24.8701 22.35 26.0801 22.22C28.9001 21.91 31.5201 20.82 33.7201 19.03C34.0701 18.74 34.0201 18.14 33.7201 17.85C33.3701 17.5 32.8901 17.56 32.5401 17.85C30.9701 19.13 29.0801 19.98 27.0901 20.39C26.1001 20.59 25.0901 20.67 24.0801 20.63C23.1301 20.59 22.0801 20.49 21.1901 20.11C20.4701 19.8 19.9801 19.24 19.9801 18.44C19.9801 17.7 20.3401 16.98 20.8701 16.48C22.2801 15.15 24.6501 15.53 26.3301 16.01C28.6101 16.67 30.6901 17.9 32.3901 19.56C33.1601 20.31 34.3401 19.13 33.5701 18.38L33.5801 18.37Z" fill="#F3D54C"/>
<path d="M32.5301 18.91C29.7501 24.27 24.7501 28.32 18.9101 29.89C17.8701 30.17 18.3101 31.78 19.3501 31.5C25.5801 29.83 31.0001 25.48 33.9701 19.75C34.4601 18.8 33.0201 17.95 32.5301 18.91Z" fill="#F3D54C"/>
</svg>
