<svg width="67" height="77" viewBox="0 0 67 77" fill="none" xmlns="http://www.w3.org/2000/svg">
<path d="M4.38999 38.64C4.38999 38.64 5.65999 70.22 10.32 74.04C14.98 77.87 55.26 77.39 58.22 73.08C61.19 68.77 64.15 41.5 64.15 36.72C64.15 31.94 56.94 21.89 51.86 21.41C46.77 20.93 17.95 20.93 13.28 23.32C8.60998 25.71 3.52999 32.89 4.37999 38.63L4.38999 38.64Z" fill="#F3D54C"/>
<path d="M7.18994 65.78C7.99994 69.82 9.02995 72.99 10.3199 74.05C14.9799 77.88 55.2599 77.4 58.2199 73.09C58.9999 71.96 59.7799 69.24 60.4999 65.78H7.18994Z" fill="#FFBB22"/>
<path d="M53.5858 51.2157C54.4693 40.5157 46.5114 31.1255 35.8114 30.242C25.1114 29.3585 15.7211 37.3164 14.8377 48.0164C13.9542 58.7164 21.9121 68.1067 32.6121 68.9902C43.3121 69.8736 52.7024 61.9157 53.5858 51.2157Z" fill="#F9E9E6"/>
<path d="M35.57 67.5C25.71 68.24 17.08 60.83 16.34 50.96C15.6 41.1 23.01 32.47 32.88 31.73C42.74 30.99 51.37 38.4 52.11 48.27C52.85 58.14 45.43 66.76 35.57 67.5ZM32.95 32.72C23.64 33.42 16.63 41.57 17.33 50.88C18.03 60.19 26.18 67.2 35.49 66.5C44.8 65.8 51.81 57.65 51.11 48.34C50.41 39.03 42.26 32.02 32.95 32.72Z" fill="#FDB04D"/>
<path d="M31.17 41.63L22.75 41.34C22.12 41.32 21.62 40.79 21.64 40.15C21.66 39.51 22.19 39.02 22.83 39.04L31.25 39.33C31.88 39.35 32.38 39.88 32.36 40.52C32.34 41.16 31.81 41.65 31.17 41.63Z" fill="#513F3F"/>
<path d="M46.5599 42.1699L34.4199 41.7499C33.7899 41.7299 33.2899 41.1999 33.3099 40.5599C33.3299 39.9199 33.8599 39.4299 34.4999 39.4499L46.6399 39.8699C47.2699 39.8899 47.7699 40.4199 47.7499 41.0599C47.7299 41.6999 47.1999 42.1899 46.5599 42.1699Z" fill="#513F3F"/>
<path d="M22.3999 45.49C21.7899 45.47 21.2999 44.97 21.2899 44.35C21.2899 43.72 21.7999 43.2 22.4299 43.19L31.6499 43.13C32.2699 43.13 32.7999 43.64 32.8099 44.27C32.8099 44.9 32.2999 45.42 31.6699 45.43L22.4499 45.49C22.4499 45.49 22.4199 45.49 22.3999 45.49V45.49Z" fill="#513F3F"/>
<path d="M26.85 61.96C26.22 61.94 25.72 61.41 25.74 60.77L26.31 44.48C26.33 43.85 26.86 43.35 27.5 43.37C28.14 43.39 28.63 43.92 28.61 44.56L28.0399 60.85C28.0199 61.48 27.49 61.98 26.85 61.96Z" fill="#513F3F"/>
<path d="M21.6099 55.5099C21.3799 55.5099 21.1599 55.4299 20.9599 55.2799C20.4499 54.8999 20.3499 54.1799 20.7199 53.6699C22.0799 51.8499 22.6899 49.19 22.6899 49.16C22.8299 48.54 23.4399 48.1499 24.0599 48.2899C24.6799 48.4299 25.0699 49.04 24.9299 49.66C24.8999 49.79 24.2199 52.82 22.5599 55.05C22.3299 55.36 21.9599 55.5199 21.5999 55.5099H21.6099Z" fill="#513F3F"/>
<path d="M31.2599 55.52C30.8099 55.5 30.3899 55.22 30.2199 54.77C29.6399 53.18 28.9299 50.01 28.9099 49.88C28.7699 49.26 29.1599 48.65 29.7799 48.51C30.3999 48.37 31.0099 48.76 31.1499 49.38C31.1499 49.41 31.8499 52.53 32.3799 53.98C32.5999 54.58 32.2899 55.24 31.6999 55.45C31.5599 55.5 31.4099 55.53 31.2599 55.52Z" fill="#513F3F"/>
<path d="M40.12 49.82C39.4 49.8 35.78 49.65 34.75 49.18C34.4 49.02 33.78 48.6 33.61 47.56C33.42 46.42 33.86 44.85 34.54 44.22C34.78 44 35.4 43.42 39.44 43.41L43.37 43.55C44.07 43.57 45.36 44.14 45.29 46.12V46.42C45.24 47.67 45.19 49.38 43.12 49.76C42.45 49.88 41.11 49.87 40.1 49.83L40.12 49.82ZM35.87 47.13C36.45 47.26 38.1 47.45 40.2 47.52C41.64 47.57 42.47 47.53 42.73 47.48C42.87 47.45 42.92 47.42 42.92 47.42C42.97 47.31 42.99 46.75 43 46.33V46.01C43.01 45.93 43.01 45.86 43 45.81L39.41 45.69C38.07 45.69 36.58 45.81 36.07 45.96C35.95 46.21 35.83 46.8 35.86 47.13H35.87Z" fill="#513F3F"/>
<path d="M41.57 61.33L35.37 61.11C35.28 61.11 35.19 61.09 35.11 61.07C34.42 60.88 33.12 60.04 33.18 58.21L33.37 52.73C33.43 51.08 34.95 50.37 35.96 50.4L42.81 50.64C42.96 50.64 43.11 50.68 43.24 50.74C43.94 51.05 45.1 51.97 45.05 53.43L44.85 59.12C44.88 59.5 44.78 59.99 44.42 60.42C43.87 61.07 42.94 61.37 41.57 61.32V61.33ZM35.66 58.82L41.65 59.03C42.1 59.05 42.41 59 42.56 58.97L42.76 53.36C42.76 53.2 42.59 53.03 42.45 52.93L35.89 52.7C35.89 52.7 35.71 52.76 35.67 52.8L35.49 58.28C35.49 58.54 35.55 58.72 35.68 58.81L35.66 58.82Z" fill="#513F3F"/>
<path d="M38.9299 61.23C38.2999 61.21 37.7999 60.68 37.8199 60.04L38.1099 51.62C38.1299 50.99 38.6599 50.49 39.2999 50.51C39.9399 50.53 40.4299 51.06 40.4099 51.7L40.1199 60.12C40.0999 60.75 39.5699 61.25 38.9299 61.23Z" fill="#513F3F"/>
<path d="M43.7899 56.71L34.3899 56.38C33.7599 56.36 33.2599 55.83 33.2799 55.19C33.2999 54.55 33.8299 54.06 34.4499 54.56L43.8499 54.89C44.4999 54.44 44.9999 54.97 44.9799 55.6C44.9599 56.23 44.4299 56.73 43.7899 56.71V56.71Z" fill="#513F3F"/>
<path d="M42.54 17.15C42.54 17.15 55.26 8.25 51.44 4.86C47.62 1.47 38.72 9.10001 38.72 9.10001C38.72 9.10001 39.57 0.619995 35.33 0.619995C31.09 0.619995 28.97 8.67 28.97 8.67C28.97 8.67 22.61 0.620002 18.8 3.58C14.98 6.55 24.73 17.57 24.73 17.57C24.73 17.57 5.85995 18.58 2.25995 23.08C-1.13005 27.32 2.67996 42.16 4.79996 43C6.91996 43.85 18.37 25.62 22.6 26.47C26.84 27.32 31.93 34.95 35.74 34.52C39.56 34.1 44.22 26.04 48.03 26.04C51.84 26.04 59.9 42.57 62.87 42.57C65.84 42.57 67.53 25.61 64.99 21.8C62.45 17.98 42.52 17.14 42.52 17.14L42.54 17.15Z" fill="#AF6935"/>
<path d="M34.78 19.55C36.27 18.09 38.05 16.95 40.02 16.26C41.81 15.63 44.11 15.1 45.86 16.14C47 16.82 47.81 18.76 46.58 19.75C45.85 20.34 44.74 20.48 43.84 20.57C42.87 20.66 41.88 20.65 40.91 20.52C38.64 20.22 36.42 19.29 34.64 17.84C34.29 17.56 33.8 17.5 33.46 17.84C33.17 18.13 33.11 18.74 33.46 19.02C35.39 20.59 37.68 21.67 40.13 22.08C41.36 22.29 42.6 22.36 43.84 22.24C45.04 22.12 46.36 21.93 47.38 21.23C49.35 19.87 49.17 17.2 47.71 15.53C46.07 13.64 43.19 13.69 40.97 14.23C38.19 14.91 35.63 16.37 33.6 18.37C32.83 19.12 34.01 20.31 34.78 19.55V19.55Z" fill="#F3D54C"/>
<path d="M33.22 19.76C36.19 25.49 41.61 29.83 47.84 31.51C48.88 31.79 49.32 30.18 48.28 29.9C42.44 28.33 37.44 24.28 34.66 18.92C34.16 17.96 32.72 18.81 33.22 19.76Z" fill="#F3D54C"/>
<path d="M33.72 18.37C31.9 16.59 29.68 15.25 27.25 14.49C24.95 13.77 22.09 13.46 20.08 15.07C18.46 16.37 17.81 19.02 19.28 20.67C20.11 21.6 21.39 21.95 22.59 22.13C23.79 22.31 25.01 22.35 26.22 22.22C29.04 21.91 31.66 20.82 33.86 19.03C34.21 18.74 34.16 18.14 33.86 17.85C33.51 17.5 33.03 17.56 32.68 17.85C31.11 19.13 29.22 19.98 27.23 20.39C26.24 20.59 25.23 20.67 24.22 20.63C23.27 20.59 22.22 20.49 21.33 20.11C20.61 19.8 20.12 19.24 20.12 18.44C20.12 17.7 20.48 16.98 21.01 16.48C22.42 15.15 24.79 15.53 26.47 16.01C28.75 16.67 30.83 17.9 32.53 19.56C33.3 20.31 34.48 19.13 33.71 18.38L33.72 18.37Z" fill="#F3D54C"/>
<path d="M32.66 18.91C29.88 24.27 24.88 28.32 19.04 29.89C18 30.17 18.44 31.78 19.48 31.5C25.71 29.83 31.13 25.48 34.1 19.75C34.59 18.8 33.15 17.95 32.66 18.91Z" fill="#F3D54C"/>
</svg>
