<svg width="61" height="84" viewBox="0 0 61 84" fill="none" xmlns="http://www.w3.org/2000/svg">
<path d="M58.89 50.59C58.89 50.59 60.88 71.94 55.93 77.77C50.55 84.1 38.91 83.76 28.93 83.47C17.25 83.13 7.77999 81.55 3.61999 75.8C-0.540007 70.05 1.23999 53.66 2.72999 47.21C4.21999 40.76 15.56 32.95 31.26 33.77C50.28 34.76 58.22 44.09 58.9 50.6L58.89 50.59Z" fill="#FFBB22"/>
<path d="M49.4121 60.8045C50.2956 50.1045 42.3377 40.7142 31.6377 39.8308C20.9377 38.9473 11.5474 46.9052 10.664 57.6052C9.78052 68.3052 17.7384 77.6954 28.4384 78.5789C39.1384 79.4624 48.5287 71.5045 49.4121 60.8045Z" fill="#F9E9E6"/>
<path d="M31.39 77.1C21.53 77.84 12.9 70.43 12.16 60.56C11.42 50.69 18.83 42.07 28.7 41.33C38.57 40.59 47.19 48 47.93 57.87C48.67 67.74 41.25 76.36 31.39 77.1V77.1ZM28.77 42.32C19.46 43.02 12.45 51.17 13.15 60.48C13.85 69.79 22 76.8 31.31 76.1C40.62 75.4 47.63 67.25 46.93 57.94C46.23 48.63 38.08 41.62 28.77 42.32V42.32Z" fill="#FDB04D"/>
<path d="M39.74 24.92C39.74 24.92 56.17 10.69 49.88 4.01002C45.89 -0.21998 37.16 9.70002 37.16 9.70002C37.16 9.70002 36.56 0.590015 31.81 0.450015C27.06 0.310015 25.9 10.23 25.9 10.23C25.9 10.23 19.72 -0.339983 14.45 2.10002C9.18001 4.54002 15.63 20.75 21.57 24.82C21.57 24.82 8.60001 24.44 3.59001 32.95C-0.939994 40.64 -0.369994 49.71 2.64001 50.67C5.64001 51.62 16.82 39.4 18.97 39.9C21.12 40.4 24.7 46.44 29.45 46.58C34.2 46.72 41.04 40.12 44.04 41.07C47.04 42.02 54.1 52.19 57.99 52.3C61.88 52.41 60.6 37.23 57.27 32.8C53.94 28.37 47.99 24.74 39.76 24.93L39.74 24.92Z" fill="#DD4747"/>
<path d="M32.54 24.07C34.1 22.63 35.96 21.51 37.99 20.87C39.84 20.28 42.2 19.81 43.95 20.93C45.1 21.66 45.86 23.66 44.58 24.63C43.82 25.21 42.68 25.32 41.76 25.38C40.76 25.45 39.75 25.41 38.77 25.24C36.46 24.86 34.23 23.85 32.46 22.32C32.11 22.02 31.61 21.95 31.25 22.28C30.94 22.57 30.86 23.18 31.21 23.49C33.13 25.15 35.43 26.32 37.93 26.81C39.17 27.06 40.44 27.17 41.71 27.08C42.94 27 44.29 26.84 45.36 26.15C47.41 24.83 47.3 22.09 45.87 20.35C44.25 18.38 41.31 18.34 39.03 18.82C36.18 19.43 33.52 20.84 31.39 22.82C30.58 23.57 31.75 24.81 32.56 24.06L32.54 24.07Z" fill="#F3D54C"/>
<path d="M30.93 24.23C33.79 30.17 39.18 34.76 45.49 36.65C46.54 36.97 47.04 35.33 45.99 35.02C40.08 33.24 35.1 28.97 32.43 23.41C31.95 22.42 30.46 23.24 30.93 24.23Z" fill="#F3D54C"/>
<path d="M31.49 22.83C29.69 20.96 27.47 19.52 25.01 18.67C22.69 17.87 19.78 17.47 17.68 19.05C15.99 20.33 15.24 23.01 16.7 24.74C17.52 25.72 18.82 26.11 20.03 26.33C21.25 26.55 22.49 26.63 23.73 26.53C26.61 26.29 29.32 25.26 31.62 23.5C31.99 23.22 31.95 22.6 31.66 22.29C31.32 21.93 30.82 21.97 30.45 22.25C28.81 23.51 26.85 24.32 24.82 24.68C23.81 24.86 22.77 24.9 21.75 24.83C20.78 24.76 19.71 24.63 18.82 24.22C18.09 23.88 17.61 23.3 17.64 22.48C17.66 21.73 18.05 21 18.6 20.51C20.08 19.19 22.49 19.65 24.19 20.19C26.5 20.93 28.58 22.25 30.26 24C31.02 24.79 32.26 23.62 31.5 22.83H31.49Z" fill="#F3D54C"/>
<path d="M30.39 23.35C27.39 28.74 22.17 32.72 16.17 34.14C15.1 34.39 15.5 36.05 16.58 35.8C22.99 34.28 28.64 30.01 31.84 24.25C32.37 23.29 30.93 22.38 30.39 23.35V23.35Z" fill="#F3D54C"/>
<path d="M26.99 51.23L18.57 50.94C17.94 50.92 17.44 50.39 17.46 49.75C17.48 49.11 18.01 48.62 18.65 48.64L27.07 48.93C27.7 48.95 28.2 49.48 28.18 50.12C28.16 50.76 27.63 51.25 26.99 51.23Z" fill="#513F3F"/>
<path d="M42.38 51.77L30.24 51.35C29.61 51.33 29.11 50.8 29.13 50.16C29.15 49.52 29.68 49.03 30.32 49.05L42.46 49.47C43.09 49.49 43.59 50.02 43.57 50.66C43.55 51.3 43.02 51.79 42.38 51.77Z" fill="#513F3F"/>
<path d="M18.22 55.08C17.61 55.06 17.12 54.56 17.11 53.94C17.11 53.31 17.62 52.79 18.25 52.78L27.47 52.72C28.09 52.72 28.62 53.23 28.63 53.86C28.63 54.49 28.12 55.01 27.49 55.02L18.27 55.08C18.27 55.08 18.24 55.08 18.22 55.08V55.08Z" fill="#513F3F"/>
<path d="M22.67 71.55C22.04 71.53 21.54 71 21.56 70.36L22.13 54.07C22.15 53.44 22.68 52.94 23.32 52.96C23.96 52.98 24.45 53.51 24.43 54.15L23.86 70.44C23.84 71.07 23.31 71.57 22.67 71.55Z" fill="#513F3F"/>
<path d="M17.44 65.1C17.21 65.1 16.99 65.02 16.79 64.87C16.28 64.49 16.18 63.77 16.55 63.26C17.91 61.44 18.52 58.78 18.52 58.75C18.66 58.13 19.27 57.74 19.89 57.88C20.51 58.02 20.9 58.63 20.76 59.25C20.73 59.38 20.05 62.41 18.39 64.64C18.16 64.95 17.79 65.11 17.43 65.1H17.44Z" fill="#513F3F"/>
<path d="M27.08 65.12C26.63 65.1 26.21 64.82 26.04 64.37C25.46 62.78 24.75 59.61 24.73 59.48C24.59 58.86 24.98 58.25 25.6 58.11C26.22 57.97 26.83 58.36 26.97 58.98C26.97 59.01 27.67 62.13 28.2 63.58C28.42 64.18 28.11 64.84 27.52 65.05C27.38 65.1 27.23 65.13 27.08 65.12V65.12Z" fill="#513F3F"/>
<path d="M35.94 59.42C35.22 59.4 31.6 59.25 30.57 58.78C30.22 58.62 29.6 58.2 29.43 57.16C29.24 56.02 29.68 54.45 30.36 53.82C30.6 53.6 31.22 53.02 35.26 53.01L39.19 53.15C39.89 53.17 41.18 53.74 41.11 55.72V56.02C41.06 57.27 41.01 58.98 38.94 59.36C38.27 59.48 36.93 59.47 35.92 59.43L35.94 59.42ZM31.69 56.73C32.27 56.86 33.92 57.05 36.02 57.12C37.46 57.17 38.29 57.13 38.55 57.08C38.69 57.05 38.74 57.02 38.74 57.02C38.79 56.91 38.81 56.35 38.82 55.93V55.61C38.83 55.53 38.83 55.46 38.82 55.41L35.23 55.29C33.89 55.29 32.4 55.41 31.89 55.56C31.77 55.81 31.65 56.4 31.68 56.73H31.69Z" fill="#513F3F"/>
<path d="M37.3901 70.92L31.1901 70.7C31.1001 70.7 31.0101 70.68 30.9301 70.66C30.2401 70.47 28.9401 69.63 29.0001 67.8L29.1901 62.32C29.2501 60.67 30.7701 59.96 31.7801 59.99L38.6301 60.23C38.7801 60.23 38.9301 60.27 39.0601 60.33C39.7601 60.64 40.9201 61.56 40.8701 63.02L40.6701 68.71C40.7001 69.09 40.6001 69.58 40.2401 70.01C39.6901 70.66 38.7601 70.96 37.3901 70.91V70.92ZM31.4801 68.41L37.4701 68.62C37.9201 68.64 38.2301 68.59 38.3801 68.56L38.5801 62.95C38.5801 62.79 38.4101 62.62 38.2701 62.52L31.7101 62.29C31.7101 62.29 31.5301 62.35 31.4901 62.39L31.3101 67.87C31.3101 68.13 31.3701 68.31 31.5001 68.4L31.4801 68.41Z" fill="#513F3F"/>
<path d="M34.75 70.83C34.12 70.81 33.62 70.28 33.64 69.64L33.93 61.22C33.95 60.59 34.48 60.09 35.12 60.11C35.76 60.13 36.25 60.66 36.23 61.3L35.94 69.72C35.92 70.35 35.39 70.85 34.75 70.83Z" fill="#513F3F"/>
<path d="M39.6101 66.31L30.2101 65.98C29.5801 65.96 29.0801 65.43 29.1001 64.79C29.1201 64.15 29.6501 63.66 30.2701 64.16L39.6701 64.49C40.3201 64.04 40.8201 64.57 40.8001 65.2C40.7801 65.83 40.2501 66.33 39.6101 66.31V66.31Z" fill="#513F3F"/>
</svg>
